<svg height="2179" width="2640" xmlns="http://www.w3.org/2000/svg" xmlns:xlink="http://www.w3.org/1999/xlink"><defs><path id="a" d="m212-179c-10-28-35-45-73-45-59 0-87 40-87 99 0 60 29 101 89 101 43 0 62-24 78-52l27 14c-18 38-51 66-107 66-80 0-117-50-121-129-6-104 99-153 187-111 19 9 31 26 39 46" fill="#3a414a"/><path id="b" d="m33 0v-248h34v248z" fill="#3a414a"/><path id="c" d="m233-177c-1 41-23 64-60 70l70 107h-38l-65-103h-77v103h-33v-248c88 3 205-21 203 71zm-170 48c60-2 137 13 137-47 0-61-80-42-137-45z" fill="#3a414a"/><path id="d" d="m232-93c-1 65-40 97-104 97-61 0-100-32-100-94v-158h33c8 89-33 224 67 224 102 0 64-133 71-224h33z" fill="#3a414a"/><path id="e" d="m127-220v220h-34v-220h-85v-28h204v28z" fill="#3a414a"/><path id="f" d="m185-189c-5-48-123-54-124 2 14 75 158 14 163 119 3 78-121 87-175 55-17-10-28-26-33-46l33-7c5 56 141 63 141-1 0-78-155-14-162-118-5-82 145-84 179-34 5 7 8 16 11 25" fill="#3a414a"/><g id="g"><path d="m24-248c93 1 206-16 204 79-1 75-69 88-152 82v87h-52zm52 121c47 0 100 7 100-41 0-47-54-39-100-39z" fill="#3a414a" transform="scale(.0617284)"/><path d="m195 0-88-114-31 24v90h-52v-248h52v113l112-113h60l-106 105 115 143z" fill="#3a414a" transform="matrix(.0617284 0 0 .0617284 14.814815 0)"/></g><path id="h" d="m67-125c0 53 21 87 73 88 37 1 54-22 65-47l45 17c-17 42-51 71-110 71-82 0-120-46-125-129-7-110 109-156 196-107 18 10 29 29 36 50l-46 12c-8-25-30-41-62-41-52 0-71 34-72 86" fill="#3a414a"/><path id="i" d="m24 0v-248h52v248z" fill="#3a414a"/><path id="j" d="m240-174c0 40-23 61-54 70l67 104h-59l-57-94h-61v94h-52v-248c93 4 217-23 216 74zm-164 40c48-2 112 12 112-38 0-48-66-32-112-35z" fill="#3a414a"/><path id="k" d="m238-95c0 69-44 99-111 99-64 0-105-29-105-97v-155h51v151c-1 38 19 59 55 60 90 1 49-130 58-211h52z" fill="#3a414a"/><path id="l" d="m136-208v208h-52v-208h-80v-40h212v40z" fill="#3a414a"/><path id="m" d="m24-248c120-7 223 5 221 122-1 80-44 126-121 126h-100zm52 208c74 7 117-18 117-86 0-67-45-88-117-82z" fill="#3a414a"/><path id="n" d="m30 0v-248h187v28h-154v79h144v27h-144v87h162v27z" fill="#3a414a"/><path id="o" d="m63-220v92h138v28h-138v100h-33v-248h175v28z" fill="#3a414a"/><path id="p" d="m190 0-132-211 1 211h-29v-248h39l133 213-2-213h31v248z" fill="#3a414a"/><path id="q" d="m205 0-28-72h-113l-28 72h-35l101-248h38l99 248zm-38-99-47-123c-12 45-31 82-46 123z" fill="#3a414a"/><path id="r" d="m240 0 2-218c-23 76-54 145-80 218h-23l-81-218 1 218h-29v-248h44l77 211c21-75 51-140 76-211h43v248z" fill="#3a414a"/><g id="s"><use transform="scale(.0617284)" xlink:href="#p"/><use transform="matrix(.0617284 0 0 .0617284 15.987654 0)" xlink:href="#q"/><use transform="matrix(.0617284 0 0 .0617284 30.802469 0)" xlink:href="#r"/><use transform="matrix(.0617284 0 0 .0617284 49.259259 0)" xlink:href="#n"/></g><path id="t" d="m30 0v-248h33v221h125v27z" fill="#3a414a"/><path id="u" d="m140-251c81 0 123 46 123 126 0 79-44 129-123 129-81 0-123-49-123-129s42-126 123-126zm0 227c63 0 89-41 89-101s-29-99-89-99c-61 0-89 39-89 99s28 100 89 101" fill="#3a414a"/><path id="v" d="m137-103v103h-34v-103l-95-145h37l75 118 75-118h37" fill="#3a414a"/><path id="w" d="m143 4c-82 0-121-48-125-129-5-107 100-154 193-111 17 8 29 25 37 43l-32 9c-13-25-37-40-76-40-61 0-88 39-88 99 0 61 29 100 91 101 35 0 62-11 79-27v-45h-74v-28h105v86c-25 25-61 42-110 42" fill="#3a414a"/><g id="x"><use transform="scale(.0617284)" xlink:href="#d"/><use transform="matrix(.0617284 0 0 .0617284 15.987654 0)" xlink:href="#c"/><use transform="matrix(.0617284 0 0 .0617284 31.975309 0)" xlink:href="#t"/></g><path id="y" d="m-5 72v-23h209v23z" fill="#3a414a"/><path id="z" d="m140-251c80 0 125 45 125 126s-46 129-126 129c-81 0-124-48-124-129s44-126 125-126zm-1 214c52 0 73-35 73-88 0-50-21-86-72-86-52 0-73 35-73 86s22 88 72 88" fill="#3a414a"/><path id="A" d="m175 0-108-191c6 58 2 128 3 191h-46v-248h59l110 193c-6-58-2-129-3-193h46v248z" fill="#3a414a"/><path id="B" d="m169-182c-1-43-94-46-97-3 18 66 151 10 154 114 3 95-165 93-204 36-6-8-10-19-12-30l50-8c3 46 112 56 116 5-17-69-150-10-154-114-4-87 153-88 188-35 5 8 8 18 10 28" fill="#3a414a"/><path id="C" d="m24 0v-248h195v40h-143v63h132v40h-132v65h150v40z" fill="#3a414a"/><path id="D" d="m24 0v-248h52v208h133v40z" fill="#3a414a"/><path id="E" d="m194 0-99-120-32 25v95h-33v-248h33v124l119-124h40l-105 108 119 140z" fill="#3a414a"/><g id="F"><use transform="scale(.0617284)" xlink:href="#o"/><use transform="matrix(.0617284 0 0 .0617284 13.518519 0)" xlink:href="#E"/></g><path id="G" d="m199 0-22-63h-94l-22 63h-52l90-248h61l90 248zm-33-102-36-108c-10 38-24 72-36 108z" fill="#3a414a"/><g id="H"><use transform="scale(.0617284)" xlink:href="#j"/><use transform="matrix(.0617284 0 0 .0617284 15.987654 0)" xlink:href="#G"/><use transform="matrix(.0617284 0 0 .0617284 31.975309 0)" xlink:href="#h"/><use transform="matrix(.0617284 0 0 .0617284 47.962963 0)" xlink:href="#C"/><use transform="matrix(.0617284 0 0 .0617284 62.777778 0)" xlink:href="#i"/><use transform="matrix(.0617284 0 0 .0617284 68.950617 0)" xlink:href="#m"/></g><g id="I"><use transform="scale(.0617284)" xlink:href="#h"/><use transform="matrix(.0617284 0 0 .0617284 15.987654 0)" xlink:href="#z"/><use transform="matrix(.0617284 0 0 .0617284 33.271605 0)" xlink:href="#A"/><use transform="matrix(.0617284 0 0 .0617284 49.259259 0)" xlink:href="#B"/><use transform="matrix(.0617284 0 0 .0617284 64.074074 0)" xlink:href="#l"/><use transform="matrix(.0617284 0 0 .0617284 77.592593 0)" xlink:href="#j"/><use transform="matrix(.0617284 0 0 .0617284 93.580247 0)" xlink:href="#k"/><use transform="matrix(.0617284 0 0 .0617284 109.567901 0)" xlink:href="#h"/><use transform="matrix(.0617284 0 0 .0617284 125.555556 0)" xlink:href="#l"/><use transform="matrix(.0617284 0 0 .0617284 138.641975 0)" xlink:href="#z"/><use transform="matrix(.0617284 0 0 .0617284 155.925926 0)" xlink:href="#j"/><use transform="matrix(.0617284 0 0 .0617284 171.91358 0)" xlink:href="#i"/><use transform="matrix(.0617284 0 0 .0617284 178.08642 0)" xlink:href="#m"/></g><path id="J" d="m30-248c87 1 191-15 191 75 0 78-77 80-158 76v97h-33zm33 125c57 0 124 11 124-50 0-59-68-47-124-48z" fill="#3a414a"/><g id="K"><use transform="scale(.0617284)" xlink:href="#J"/><use transform="matrix(.0617284 0 0 .0617284 14.814815 0)" xlink:href="#u"/><use transform="matrix(.0617284 0 0 .0617284 32.098765 0)" xlink:href="#b"/><use transform="matrix(.0617284 0 0 .0617284 38.271605 0)" xlink:href="#p"/><use transform="matrix(.0617284 0 0 .0617284 54.259259 0)" xlink:href="#e"/><use transform="matrix(.0617284 0 0 .0617284 67.777778 0)" xlink:href="#f"/></g><g id="L"><use transform="scale(.0617284)" xlink:href="#f"/><use transform="matrix(.0617284 0 0 .0617284 14.814815 0)" xlink:href="#e"/><use transform="matrix(.0617284 0 0 .0617284 26.666667 0)" xlink:href="#q"/><use transform="matrix(.0617284 0 0 .0617284 39.814815 0)" xlink:href="#e"/><use transform="matrix(.0617284 0 0 .0617284 53.333333 0)" xlink:href="#d"/><use transform="matrix(.0617284 0 0 .0617284 69.320988 0)" xlink:href="#f"/></g><path id="M" d="m30-248c118-7 216 8 213 122-3 78-43 126-121 126h-92zm33 221c89 8 146-16 146-99s-60-101-146-95z" fill="#3a414a"/><path id="N" d="m67-125c0 54 23 88 75 88 28 0 53-7 68-21v-34h-60v-39h108v91c-26 26-66 44-118 44-82 0-120-46-125-129-7-111 111-155 200-109 19 10 29 26 37 47l-47 15c-11-23-29-39-63-39-53 1-75 33-75 86" fill="#3a414a"/><g id="O"><use transform="scale(.0617284)" xlink:href="#J"/><use transform="matrix(.0617284 0 0 .0617284 14.814815 0)" xlink:href="#u"/><use transform="matrix(.0617284 0 0 .0617284 32.098765 0)" xlink:href="#b"/><use transform="matrix(.0617284 0 0 .0617284 38.271605 0)" xlink:href="#p"/><use transform="matrix(.0617284 0 0 .0617284 54.259259 0)" xlink:href="#e"/><use transform="matrix(.0617284 0 0 .0617284 67.777778 0)" xlink:href="#f"/></g><g id="P"><use transform="scale(.0617284)" xlink:href="#J"/><use transform="matrix(.0617284 0 0 .0617284 14.814815 0)" xlink:href="#u"/><use transform="matrix(.0617284 0 0 .0617284 32.098765 0)" xlink:href="#f"/><use transform="matrix(.0617284 0 0 .0617284 46.91358 0)" xlink:href="#b"/><use transform="matrix(.0617284 0 0 .0617284 53.08642 0)" xlink:href="#e"/><use transform="matrix(.0617284 0 0 .0617284 66.604938 0)" xlink:href="#b"/><use transform="matrix(.0617284 0 0 .0617284 72.777778 0)" xlink:href="#u"/><use transform="matrix(.0617284 0 0 .0617284 90.061728 0)" xlink:href="#p"/></g><g id="Q"><use transform="scale(.0617284)" xlink:href="#J"/><use transform="matrix(.0617284 0 0 .0617284 14.814815 0)" xlink:href="#u"/><use transform="matrix(.0617284 0 0 .0617284 32.098765 0)" xlink:href="#f"/><use transform="matrix(.0617284 0 0 .0617284 46.91358 0)" xlink:href="#b"/><use transform="matrix(.0617284 0 0 .0617284 53.08642 0)" xlink:href="#e"/><use transform="matrix(.0617284 0 0 .0617284 66.604938 0)" xlink:href="#b"/><use transform="matrix(.0617284 0 0 .0617284 72.777778 0)" xlink:href="#u"/><use transform="matrix(.0617284 0 0 .0617284 90.061728 0)" xlink:href="#p"/><use transform="matrix(.0617284 0 0 .0617284 106.049383 0)" xlink:href="#e"/><use transform="matrix(.0617284 0 0 .0617284 119.567901 0)" xlink:href="#n"/><path d="m195 0-74-108-76 108h-37l94-129-87-119h37l69 98 67-98h37l-84 118 92 130z" fill="#3a414a" transform="matrix(.0617284 0 0 .0617284 134.382716 0)"/><use transform="matrix(.0617284 0 0 .0617284 149.197531 0)" xlink:href="#e"/></g><g id="R"><path d="m266 0h-40l-56-210-55 210h-40l-73-248h35l59 218 15-64 43-154h32l59 218 59-218h35" fill="#3a414a" transform="scale(.0617284)"/><use transform="matrix(.0617284 0 0 .0617284 20.925926 0)" xlink:href="#b"/><use transform="matrix(.0617284 0 0 .0617284 27.098765 0)" xlink:href="#p"/><use transform="matrix(.0617284 0 0 .0617284 43.08642 0)" xlink:href="#f"/></g><path id="S" d="m137 0h-34l-101-248h35l83 218 83-218h36" fill="#3a414a"/><path id="T" d="m147 0h-53l-92-248h55l64 206c17-72 42-137 63-206h54" fill="#3a414a"/><g id="U"><use transform="scale(.0617284)" xlink:href="#m"/><use transform="matrix(.0617284 0 0 .0617284 15.987654 0)" xlink:href="#j"/><use transform="matrix(.0617284 0 0 .0617284 31.975309 0)" xlink:href="#i"/><use transform="matrix(.0617284 0 0 .0617284 38.148148 0)" xlink:href="#T"/><use transform="matrix(.0617284 0 0 .0617284 52.962963 0)" xlink:href="#C"/><use transform="matrix(.0617284 0 0 .0617284 67.777778 0)" xlink:href="#j"/><use transform="matrix(.0617284 0 0 .0617284 83.765432 0)" xlink:href="#i"/><use transform="matrix(.0617284 0 0 .0617284 89.938272 0)" xlink:href="#m"/></g><path id="V" d="m160-131c35 5 61 23 61 61 0 87-106 68-191 70v-248c76 3 177-17 177 60 0 33-19 50-47 57zm-97-11c50-1 110 9 110-42 0-47-63-36-110-37zm0 115c55-2 124 14 124-45 0-56-70-42-124-44z" fill="#3a414a"/><g id="W"><use transform="scale(.0617284)" xlink:href="#o"/><use transform="matrix(.0617284 0 0 .0617284 13.518519 0)" xlink:href="#E"/></g><g id="X"><use transform="scale(.0617284)" xlink:href="#t"/><use transform="matrix(.0617284 0 0 .0617284 12.345679 0)" xlink:href="#q"/><use transform="matrix(.0617284 0 0 .0617284 27.160494 0)" xlink:href="#J"/></g><g id="Y"><use transform="scale(.0617284)" xlink:href="#e"/><use transform="matrix(.0617284 0 0 .0617284 13.518519 0)" xlink:href="#b"/><use transform="matrix(.0617284 0 0 .0617284 19.691358 0)" xlink:href="#r"/><use transform="matrix(.0617284 0 0 .0617284 38.148148 0)" xlink:href="#n"/></g><g id="Z"><use transform="scale(.0617284)" xlink:href="#r"/><use transform="matrix(.0617284 0 0 .0617284 18.45679 0)" xlink:href="#b"/><use transform="matrix(.0617284 0 0 .0617284 24.62963 0)" xlink:href="#t"/><use transform="matrix(.0617284 0 0 .0617284 36.975309 0)" xlink:href="#t"/><use transform="matrix(.0617284 0 0 .0617284 49.320988 0)" xlink:href="#b"/><use transform="matrix(.0617284 0 0 .0617284 55.493827 0)" xlink:href="#f"/><use transform="matrix(.0617284 0 0 .0617284 70.308642 0)" xlink:href="#n"/><use transform="matrix(.0617284 0 0 .0617284 85.123457 0)" xlink:href="#a"/><use transform="matrix(.0617284 0 0 .0617284 101.111111 0)" xlink:href="#u"/><use transform="matrix(.0617284 0 0 .0617284 118.395062 0)" xlink:href="#p"/><use transform="matrix(.0617284 0 0 .0617284 134.382716 0)" xlink:href="#M"/><use transform="matrix(.0617284 0 0 .0617284 150.37037 0)" xlink:href="#f"/></g><path id="aa" d="m140-251c81 0 123 46 123 126 0 72-35 117-100 126 7 30 30 48 69 40v23c-55 16-95-15-103-61-73-6-112-51-112-128 0-80 42-126 123-126zm0 227c63 0 89-41 89-101s-29-99-89-99c-61 0-89 39-89 99s28 100 89 101" fill="#3a414a"/><g id="ab"><use transform="scale(.0617284)" xlink:href="#p"/><use transform="matrix(.0617284 0 0 .0617284 15.987654 0)" xlink:href="#d"/><use transform="matrix(.0617284 0 0 .0617284 31.975309 0)" xlink:href="#r"/><use transform="matrix(.0617284 0 0 .0617284 50.432099 0)" xlink:href="#V"/><use transform="matrix(.0617284 0 0 .0617284 65.246914 0)" xlink:href="#n"/><use transform="matrix(.0617284 0 0 .0617284 80.061728 0)" xlink:href="#c"/></g><path id="ac" d="m27 0v-27h64v-190l-56 39v-29l58-41h29v221h61v27z" fill="#3a414a"/><path id="ad" d="m101-251c82-7 93 87 43 132l-62 55c-11 11-23 22-29 37h129v27h-164c2-99 128-94 128-182 0-28-16-43-45-43s-46 15-49 41l-32-3c6-41 34-60 81-64" fill="#3a414a"/><path id="ae" d="m126-127c33 6 58 20 58 59 0 88-139 92-164 29-3-8-5-16-6-25l32-3c6 27 21 44 54 44 32 0 52-15 52-46 0-38-36-46-79-43v-28c39 1 72-4 72-42 0-27-17-43-46-43-28 0-47 15-49 41l-32-3c6-42 35-63 81-64 48-1 79 21 79 65 0 36-21 52-52 59" fill="#3a414a"/><g id="af"><use transform="scale(.0617284)" xlink:href="#w"/><use transform="matrix(.0617284 0 0 .0617284 17.283951 0)" xlink:href="#c"/><use transform="matrix(.0617284 0 0 .0617284 33.271605 0)" xlink:href="#b"/><use transform="matrix(.0617284 0 0 .0617284 39.444444 0)" xlink:href="#M"/></g><g id="ag"><use transform="scale(.0617284)" xlink:href="#J"/><use transform="matrix(.0617284 0 0 .0617284 14.814815 0)" xlink:href="#u"/><use transform="matrix(.0617284 0 0 .0617284 32.098765 0)" xlink:href="#f"/><use transform="matrix(.0617284 0 0 .0617284 46.91358 0)" xlink:href="#b"/><use transform="matrix(.0617284 0 0 .0617284 53.08642 0)" xlink:href="#e"/><use transform="matrix(.0617284 0 0 .0617284 66.604938 0)" xlink:href="#b"/><use transform="matrix(.0617284 0 0 .0617284 72.777778 0)" xlink:href="#u"/><use transform="matrix(.0617284 0 0 .0617284 90.061728 0)" xlink:href="#p"/><use transform="matrix(.0617284 0 0 .0617284 106.049383 0)" xlink:href="#u"/><use transform="matrix(.0617284 0 0 .0617284 123.333333 0)" xlink:href="#c"/><use transform="matrix(.0617284 0 0 .0617284 139.320988 0)" xlink:href="#M"/><use transform="matrix(.0617284 0 0 .0617284 155.308642 0)" xlink:href="#n"/><use transform="matrix(.0617284 0 0 .0617284 170.123457 0)" xlink:href="#c"/></g><g id="ah"><use transform="scale(.0617284)" xlink:href="#t"/><use transform="matrix(.0617284 0 0 .0617284 12.345679 0)" xlink:href="#q"/><use transform="matrix(.0617284 0 0 .0617284 27.160494 0)" xlink:href="#J"/><use transform="matrix(.0617284 0 0 .0617284 41.975309 0)" xlink:href="#f"/></g><g id="ai"><use transform="scale(.0617284)" xlink:href="#o"/><use transform="matrix(.0617284 0 0 .0617284 12.283951 0)" xlink:href="#q"/><use transform="matrix(.0617284 0 0 .0617284 27.098765 0)" xlink:href="#f"/><use transform="matrix(.0617284 0 0 .0617284 41.91358 0)" xlink:href="#e"/><use transform="matrix(.0617284 0 0 .0617284 55.432099 0)" xlink:href="#n"/><use transform="matrix(.0617284 0 0 .0617284 70.246914 0)" xlink:href="#f"/><use transform="matrix(.0617284 0 0 .0617284 85.061728 0)" xlink:href="#e"/><use transform="matrix(.0617284 0 0 .0617284 98.580247 0)" xlink:href="#t"/><use transform="matrix(.0617284 0 0 .0617284 110.925926 0)" xlink:href="#q"/><use transform="matrix(.0617284 0 0 .0617284 125.740741 0)" xlink:href="#J"/></g><g id="aj"><use transform="scale(.0617284)" xlink:href="#c"/><use transform="matrix(.0617284 0 0 .0617284 15.987654 0)" xlink:href="#q"/><use transform="matrix(.0617284 0 0 .0617284 30.802469 0)" xlink:href="#p"/><use transform="matrix(.0617284 0 0 .0617284 46.790123 0)" xlink:href="#E"/></g><g id="ak"><use transform="scale(.0617284)" xlink:href="#o"/><use transform="matrix(.0617284 0 0 .0617284 12.283951 0)" xlink:href="#q"/><use transform="matrix(.0617284 0 0 .0617284 27.098765 0)" xlink:href="#f"/><use transform="matrix(.0617284 0 0 .0617284 41.91358 0)" xlink:href="#e"/><use transform="matrix(.0617284 0 0 .0617284 55.432099 0)" xlink:href="#n"/><use transform="matrix(.0617284 0 0 .0617284 70.246914 0)" xlink:href="#f"/><use transform="matrix(.0617284 0 0 .0617284 85.061728 0)" xlink:href="#e"/><use transform="matrix(.0617284 0 0 .0617284 98.580247 0)" xlink:href="#t"/><use transform="matrix(.0617284 0 0 .0617284 110.925926 0)" xlink:href="#q"/><use transform="matrix(.0617284 0 0 .0617284 125.740741 0)" xlink:href="#J"/><use transform="matrix(.0617284 0 0 .0617284 140.555556 0)" xlink:href="#e"/><use transform="matrix(.0617284 0 0 .0617284 154.074074 0)" xlink:href="#b"/><use transform="matrix(.0617284 0 0 .0617284 160.246914 0)" xlink:href="#r"/><use transform="matrix(.0617284 0 0 .0617284 178.703704 0)" xlink:href="#n"/></g><g id="al"><use transform="scale(.0617284)" xlink:href="#o"/><use transform="matrix(.0617284 0 0 .0617284 12.283951 0)" xlink:href="#q"/><use transform="matrix(.0617284 0 0 .0617284 27.098765 0)" xlink:href="#f"/><use transform="matrix(.0617284 0 0 .0617284 41.91358 0)" xlink:href="#e"/><use transform="matrix(.0617284 0 0 .0617284 55.432099 0)" xlink:href="#n"/><use transform="matrix(.0617284 0 0 .0617284 70.246914 0)" xlink:href="#f"/><use transform="matrix(.0617284 0 0 .0617284 85.061728 0)" xlink:href="#e"/><use transform="matrix(.0617284 0 0 .0617284 98.580247 0)" xlink:href="#t"/><use transform="matrix(.0617284 0 0 .0617284 110.925926 0)" xlink:href="#q"/><use transform="matrix(.0617284 0 0 .0617284 125.740741 0)" xlink:href="#J"/><use transform="matrix(.0617284 0 0 .0617284 140.555556 0)" xlink:href="#f"/><use transform="matrix(.0617284 0 0 .0617284 155.37037 0)" xlink:href="#J"/><use transform="matrix(.0617284 0 0 .0617284 170.185185 0)" xlink:href="#n"/><use transform="matrix(.0617284 0 0 .0617284 185 0)" xlink:href="#n"/><use transform="matrix(.0617284 0 0 .0617284 199.814815 0)" xlink:href="#M"/></g><g id="am"><use transform="scale(.0617284)" xlink:href="#B"/><use transform="matrix(.0617284 0 0 .0617284 14.814815 0)" xlink:href="#l"/><use transform="matrix(.0617284 0 0 .0617284 26.666667 0)" xlink:href="#G"/><use transform="matrix(.0617284 0 0 .0617284 40.987654 0)" xlink:href="#l"/><use transform="matrix(.0617284 0 0 .0617284 54.506173 0)" xlink:href="#k"/><use transform="matrix(.0617284 0 0 .0617284 70.493827 0)" xlink:href="#B"/><use transform="matrix(.0617284 0 0 .0617284 85.308642 0)" xlink:href="#i"/><use transform="matrix(.0617284 0 0 .0617284 91.481481 0)" xlink:href="#m"/></g><path id="an" d="m16-82v-28h88v28z" fill="#3a414a"/><use id="ao" transform="scale(.0617284)" xlink:href="#an"/><path id="ap" d="m59-47c-2 24 18 29 38 22v24c-33 10-70 5-70-39v-127h-22v-23h24l9-43h21v43h35v23h-35z" fill="#3a414a"/><path id="aq" d="m24-231v-30h32v30zm0 231v-190h32v190z" fill="#3a414a"/><path id="ar" d="m135-143c-3-34-86-38-87 0 15 53 115 12 119 90s-150 74-157 8l28-5c4 36 97 45 98 0-10-56-113-15-118-90-4-57 82-63 122-42 12 7 21 19 24 35" fill="#3a414a"/><path id="as" d="m117-194c89-4 53 116 60 194h-32v-121c0-31-8-49-39-48-72 2-44 102-49 169h-32l-1-190h30c1 10-1 24 2 32 11-22 29-35 61-36" fill="#3a414a"/><path id="at" d="m100-194c63 0 86 42 84 106h-135c0 40 14 67 53 68 26 1 43-12 49-29l28 8c-11 28-37 45-77 45-58 0-88-37-87-100 1-61 26-98 85-98zm52 81c6-60-76-77-97-28-3 7-6 17-6 28z" fill="#3a414a"/><path id="au" d="m114-163c-78-16-53 91-57 163h-32l-1-190h30c1 12-1 29 2 39 6-27 23-49 58-41z" fill="#3a414a"/><path id="av" d="m100-194c62-1 85 37 85 99 1 63-27 99-86 99s-83-39-84-99c0-66 28-99 85-99zm-1 174c44 1 53-31 53-75 0-43-8-75-51-75s-53 32-53 75 10 74 51 75" fill="#3a414a"/><path id="aw" d="m96-169c-40 0-48 33-48 73s9 75 48 75c24 0 41-14 43-38l32 2c-6 37-31 61-74 61-59 0-76-41-82-99-10-93 101-131 147-64 4 7 5 14 7 22l-32 3c-4-21-16-35-41-35" fill="#3a414a"/></defs><g transform="translate(-680 240)"><path d="m700 686a6 6 0 0 1 6-6h428a6 6 0 0 1 6 6v361a6 6 0 0 1 -6 6h-428a6 6 0 0 1 -6-6z" fill="#fff"/><path d="m700 686a6 6 0 0 1 6-6h428a6 6 0 0 1 6 6v361a6 6 0 0 1 -6 6h-428a6 6 0 0 1 -6-6zm0 34h440m-388.67 0v333" fill="none" stroke="#3a414a"/><g transform="translate(867.685185 704.444444)"><use transform="scale(.0617284)" xlink:href="#a"/><use transform="matrix(.0617284 0 0 .0617284 15.987654 0)" xlink:href="#b"/><use transform="matrix(.0617284 0 0 .0617284 22.160494 0)" xlink:href="#c"/><use transform="matrix(.0617284 0 0 .0617284 38.148148 0)" xlink:href="#a"/><use transform="matrix(.0617284 0 0 .0617284 54.135802 0)" xlink:href="#d"/><use transform="matrix(.0617284 0 0 .0617284 70.123457 0)" xlink:href="#b"/><use transform="matrix(.0617284 0 0 .0617284 76.296296 0)" xlink:href="#e"/><use transform="matrix(.0617284 0 0 .0617284 89.814815 0)" xlink:href="#f"/></g><use transform="translate(710.598765 742.944444)" xlink:href="#g"/><g transform="translate(756.333333 742.944444)"><use transform="scale(.0617284)" xlink:href="#h"/><use transform="matrix(.0617284 0 0 .0617284 15.987654 0)" xlink:href="#i"/><use transform="matrix(.0617284 0 0 .0617284 22.160494 0)" xlink:href="#j"/><use transform="matrix(.0617284 0 0 .0617284 38.148148 0)" xlink:href="#h"/><use transform="matrix(.0617284 0 0 .0617284 54.135802 0)" xlink:href="#k"/><use transform="matrix(.0617284 0 0 .0617284 70.123457 0)" xlink:href="#i"/><use transform="matrix(.0617284 0 0 .0617284 76.296296 0)" xlink:href="#l"/><use transform="matrix(.0617284 0 0 .0617284 89.814815 0)" xlink:href="#i"/><use transform="matrix(.0617284 0 0 .0617284 95.987654 0)" xlink:href="#m"/><path d="m-1.1 1.2h114.2v2.3h-114.2z" fill="#3a414a"/></g><g transform="translate(756.333333 779.944444)"><use transform="scale(.0617284)" xlink:href="#a"/><use transform="matrix(.0617284 0 0 .0617284 15.987654 0)" xlink:href="#b"/><use transform="matrix(.0617284 0 0 .0617284 22.160494 0)" xlink:href="#c"/><use transform="matrix(.0617284 0 0 .0617284 38.148148 0)" xlink:href="#a"/><use transform="matrix(.0617284 0 0 .0617284 54.135802 0)" xlink:href="#d"/><use transform="matrix(.0617284 0 0 .0617284 70.123457 0)" xlink:href="#b"/><use transform="matrix(.0617284 0 0 .0617284 76.296296 0)" xlink:href="#e"/><use transform="matrix(.0617284 0 0 .0617284 89.814815 0)" xlink:href="#c"/><use transform="matrix(.0617284 0 0 .0617284 105.802469 0)" xlink:href="#n"/><use transform="matrix(.0617284 0 0 .0617284 120.617284 0)" xlink:href="#o"/></g><use transform="translate(756.333333 816.944444)" xlink:href="#s"/><g transform="translate(756.333333 853.944444)"><use transform="scale(.0617284)" xlink:href="#t"/><use transform="matrix(.0617284 0 0 .0617284 12.345679 0)" xlink:href="#u"/><use transform="matrix(.0617284 0 0 .0617284 29.62963 0)" xlink:href="#a"/><use transform="matrix(.0617284 0 0 .0617284 45.617284 0)" xlink:href="#q"/><use transform="matrix(.0617284 0 0 .0617284 58.765432 0)" xlink:href="#e"/><use transform="matrix(.0617284 0 0 .0617284 72.283951 0)" xlink:href="#b"/><use transform="matrix(.0617284 0 0 .0617284 78.45679 0)" xlink:href="#u"/><use transform="matrix(.0617284 0 0 .0617284 95.740741 0)" xlink:href="#p"/></g><g transform="translate(756.333333 890.944444)"><use transform="scale(.0617284)" xlink:href="#a"/><use transform="matrix(.0617284 0 0 .0617284 15.987654 0)" xlink:href="#u"/><use transform="matrix(.0617284 0 0 .0617284 33.271605 0)" xlink:href="#d"/><use transform="matrix(.0617284 0 0 .0617284 49.259259 0)" xlink:href="#p"/><use transform="matrix(.0617284 0 0 .0617284 65.246914 0)" xlink:href="#e"/><use transform="matrix(.0617284 0 0 .0617284 78.765432 0)" xlink:href="#c"/><use transform="matrix(.0617284 0 0 .0617284 94.320988 0)" xlink:href="#v"/></g><g transform="translate(756.333333 927.944444)"><use transform="scale(.0617284)" xlink:href="#t"/><use transform="matrix(.0617284 0 0 .0617284 12.345679 0)" xlink:href="#q"/><use transform="matrix(.0617284 0 0 .0617284 25.493827 0)" xlink:href="#e"/></g><g transform="translate(756.333333 964.944444)"><use transform="scale(.0617284)" xlink:href="#t"/><use transform="matrix(.0617284 0 0 .0617284 12.345679 0)" xlink:href="#p"/><use transform="matrix(.0617284 0 0 .0617284 28.333333 0)" xlink:href="#w"/></g><g transform="translate(756.333333 1001.944444)"><use transform="scale(.0617284)" xlink:href="#q"/><use transform="matrix(.0617284 0 0 .0617284 14.814815 0)" xlink:href="#t"/><use transform="matrix(.0617284 0 0 .0617284 25.493827 0)" xlink:href="#e"/></g><use transform="translate(756.333333 1038.944444)" xlink:href="#x"/><path d="m2080 173a6 6 0 0 1 6-6h468a6 6 0 0 1 6 6v213a6 6 0 0 1 -6 6h-468a6 6 0 0 1 -6-6z" fill="#fff"/><path d="m2080 173a6 6 0 0 1 6-6h468a6 6 0 0 1 6 6v213a6 6 0 0 1 -6 6h-468a6 6 0 0 1 -6-6zm0 34h480m-420 0v185" fill="none" stroke="#3a414a"/><g transform="translate(2184.969136 191.444444)"><use transform="scale(.0617284)" xlink:href="#a"/><use transform="matrix(.0617284 0 0 .0617284 15.987654 0)" xlink:href="#u"/><use transform="matrix(.0617284 0 0 .0617284 33.271605 0)" xlink:href="#p"/><use transform="matrix(.0617284 0 0 .0617284 49.259259 0)" xlink:href="#f"/><use transform="matrix(.0617284 0 0 .0617284 64.074074 0)" xlink:href="#e"/><use transform="matrix(.0617284 0 0 .0617284 77.592593 0)" xlink:href="#c"/><use transform="matrix(.0617284 0 0 .0617284 93.580247 0)" xlink:href="#d"/><use transform="matrix(.0617284 0 0 .0617284 109.567901 0)" xlink:href="#a"/><use transform="matrix(.0617284 0 0 .0617284 125.555556 0)" xlink:href="#e"/><use transform="matrix(.0617284 0 0 .0617284 138.641975 0)" xlink:href="#u"/><use transform="matrix(.0617284 0 0 .0617284 155.925926 0)" xlink:href="#c"/><use transform="matrix(.0617284 0 0 .0617284 171.91358 0)" xlink:href="#y"/><use transform="matrix(.0617284 0 0 .0617284 184.259259 0)" xlink:href="#c"/><use transform="matrix(.0617284 0 0 .0617284 200.246914 0)" xlink:href="#n"/><use transform="matrix(.0617284 0 0 .0617284 215.061728 0)" xlink:href="#d"/><use transform="matrix(.0617284 0 0 .0617284 231.049383 0)" xlink:href="#t"/><use transform="matrix(.0617284 0 0 .0617284 241.728395 0)" xlink:href="#e"/><use transform="matrix(.0617284 0 0 .0617284 255.246914 0)" xlink:href="#f"/></g><use transform="translate(2094.598765 229.944444)" xlink:href="#g"/><g transform="translate(2145 229.944444)"><use transform="scale(.0617284)" xlink:href="#h"/><use transform="matrix(.0617284 0 0 .0617284 15.987654 0)" xlink:href="#z"/><use transform="matrix(.0617284 0 0 .0617284 33.271605 0)" xlink:href="#A"/><use transform="matrix(.0617284 0 0 .0617284 49.259259 0)" xlink:href="#B"/><use transform="matrix(.0617284 0 0 .0617284 64.074074 0)" xlink:href="#l"/><use transform="matrix(.0617284 0 0 .0617284 77.592593 0)" xlink:href="#j"/><use transform="matrix(.0617284 0 0 .0617284 93.580247 0)" xlink:href="#k"/><use transform="matrix(.0617284 0 0 .0617284 109.567901 0)" xlink:href="#h"/><use transform="matrix(.0617284 0 0 .0617284 125.555556 0)" xlink:href="#l"/><use transform="matrix(.0617284 0 0 .0617284 138.641975 0)" xlink:href="#z"/><use transform="matrix(.0617284 0 0 .0617284 155.925926 0)" xlink:href="#j"/><use transform="matrix(.0617284 0 0 .0617284 171.91358 0)" xlink:href="#j"/><use transform="matrix(.0617284 0 0 .0617284 187.901235 0)" xlink:href="#C"/><use transform="matrix(.0617284 0 0 .0617284 202.716049 0)" xlink:href="#B"/><use transform="matrix(.0617284 0 0 .0617284 217.530864 0)" xlink:href="#k"/><use transform="matrix(.0617284 0 0 .0617284 233.518519 0)" xlink:href="#D"/><use transform="matrix(.0617284 0 0 .0617284 245.37037 0)" xlink:href="#l"/><use transform="matrix(.0617284 0 0 .0617284 258.888889 0)" xlink:href="#B"/><use transform="matrix(.0617284 0 0 .0617284 273.703704 0)" xlink:href="#i"/><use transform="matrix(.0617284 0 0 .0617284 279.876543 0)" xlink:href="#m"/><path d="m-1.1 1.2h298.08v2.3h-298.1z" fill="#3a414a"/></g><use transform="translate(2095.833333 266.944444)" xlink:href="#F"/><use transform="translate(2145 266.944444)" xlink:href="#H"/><use transform="translate(2095.833333 303.944444)" xlink:href="#F"/><use transform="translate(2145 303.944444)" xlink:href="#I"/><use transform="translate(2145 340.944444)" xlink:href="#K"/><use transform="translate(2145 377.944444)" xlink:href="#L"/><path d="m2080-214a6 6 0 0 1 6-6h468a6 6 0 0 1 6 6v287a6 6 0 0 1 -6 6h-468a6 6 0 0 1 -6-6z" fill="#fff"/><path d="m2080-214a6 6 0 0 1 6-6h468a6 6 0 0 1 6 6v287a6 6 0 0 1 -6 6h-468a6 6 0 0 1 -6-6zm0 34h480m-420 0v259" fill="none" stroke="#3a414a"/><g transform="translate(2164.012346 -195.555556)"><use transform="scale(.0617284)" xlink:href="#a"/><use transform="matrix(.0617284 0 0 .0617284 15.987654 0)" xlink:href="#u"/><use transform="matrix(.0617284 0 0 .0617284 33.271605 0)" xlink:href="#p"/><use transform="matrix(.0617284 0 0 .0617284 49.259259 0)" xlink:href="#f"/><use transform="matrix(.0617284 0 0 .0617284 64.074074 0)" xlink:href="#e"/><use transform="matrix(.0617284 0 0 .0617284 77.592593 0)" xlink:href="#c"/><use transform="matrix(.0617284 0 0 .0617284 93.580247 0)" xlink:href="#d"/><use transform="matrix(.0617284 0 0 .0617284 109.567901 0)" xlink:href="#a"/><use transform="matrix(.0617284 0 0 .0617284 125.555556 0)" xlink:href="#e"/><use transform="matrix(.0617284 0 0 .0617284 138.641975 0)" xlink:href="#u"/><use transform="matrix(.0617284 0 0 .0617284 155.925926 0)" xlink:href="#c"/><use transform="matrix(.0617284 0 0 .0617284 171.91358 0)" xlink:href="#y"/><use transform="matrix(.0617284 0 0 .0617284 184.259259 0)" xlink:href="#f"/><use transform="matrix(.0617284 0 0 .0617284 199.074074 0)" xlink:href="#e"/><use transform="matrix(.0617284 0 0 .0617284 210.925926 0)" xlink:href="#q"/><use transform="matrix(.0617284 0 0 .0617284 225.740741 0)" xlink:href="#p"/><use transform="matrix(.0617284 0 0 .0617284 241.728395 0)" xlink:href="#M"/><use transform="matrix(.0617284 0 0 .0617284 257.716049 0)" xlink:href="#b"/><use transform="matrix(.0617284 0 0 .0617284 263.888889 0)" xlink:href="#p"/><use transform="matrix(.0617284 0 0 .0617284 279.876543 0)" xlink:href="#w"/><use transform="matrix(.0617284 0 0 .0617284 297.160494 0)" xlink:href="#f"/></g><use transform="translate(2094.598765 -157.055556)" xlink:href="#g"/><g transform="translate(2145 -157.055556)"><use transform="scale(.0617284)" xlink:href="#h"/><use transform="matrix(.0617284 0 0 .0617284 15.987654 0)" xlink:href="#z"/><use transform="matrix(.0617284 0 0 .0617284 33.271605 0)" xlink:href="#A"/><use transform="matrix(.0617284 0 0 .0617284 49.259259 0)" xlink:href="#B"/><use transform="matrix(.0617284 0 0 .0617284 64.074074 0)" xlink:href="#l"/><use transform="matrix(.0617284 0 0 .0617284 77.592593 0)" xlink:href="#j"/><use transform="matrix(.0617284 0 0 .0617284 93.580247 0)" xlink:href="#k"/><use transform="matrix(.0617284 0 0 .0617284 109.567901 0)" xlink:href="#h"/><use transform="matrix(.0617284 0 0 .0617284 125.555556 0)" xlink:href="#l"/><use transform="matrix(.0617284 0 0 .0617284 138.641975 0)" xlink:href="#z"/><use transform="matrix(.0617284 0 0 .0617284 155.925926 0)" xlink:href="#j"/><use transform="matrix(.0617284 0 0 .0617284 171.91358 0)" xlink:href="#B"/><use transform="matrix(.0617284 0 0 .0617284 186.728395 0)" xlink:href="#l"/><use transform="matrix(.0617284 0 0 .0617284 198.580247 0)" xlink:href="#G"/><use transform="matrix(.0617284 0 0 .0617284 214.567901 0)" xlink:href="#A"/><use transform="matrix(.0617284 0 0 .0617284 230.555556 0)" xlink:href="#m"/><use transform="matrix(.0617284 0 0 .0617284 246.54321 0)" xlink:href="#i"/><use transform="matrix(.0617284 0 0 .0617284 252.716049 0)" xlink:href="#A"/><use transform="matrix(.0617284 0 0 .0617284 268.703704 0)" xlink:href="#N"/><use transform="matrix(.0617284 0 0 .0617284 285.987654 0)" xlink:href="#B"/><use transform="matrix(.0617284 0 0 .0617284 300.802469 0)" xlink:href="#i"/><use transform="matrix(.0617284 0 0 .0617284 306.975309 0)" xlink:href="#m"/><path d="m-1.1 1.2h325.18v2.3h-325.2z" fill="#3a414a"/></g><use transform="translate(2095.833333 -120.055556)" xlink:href="#F"/><use transform="translate(2145 -120.055556)" xlink:href="#H"/><use transform="translate(2095.833333 -83.055556)" xlink:href="#F"/><use transform="translate(2145 -83.055556)" xlink:href="#I"/><use transform="translate(2145 -46.055556)" xlink:href="#O"/><use transform="translate(2145 -9.055556)" xlink:href="#P"/><use transform="translate(2145 27.944444)" xlink:href="#Q"/><use transform="translate(2145 64.944444)" xlink:href="#R"/><path d="m1420 246a6 6 0 0 1 6-6h468a6 6 0 0 1 6 6v213a6 6 0 0 1 -6 6h-468a6 6 0 0 1 -6-6z" fill="#fff"/><path d="m1420 246a6 6 0 0 1 6-6h468a6 6 0 0 1 6 6v213a6 6 0 0 1 -6 6h-468a6 6 0 0 1 -6-6zm0 34h480m-420 0v185" fill="none" stroke="#3a414a"/><g transform="translate(1566.635802 264.444444)"><use transform="scale(.0617284)" xlink:href="#a"/><use transform="matrix(.0617284 0 0 .0617284 15.987654 0)" xlink:href="#u"/><use transform="matrix(.0617284 0 0 .0617284 33.271605 0)" xlink:href="#p"/><use transform="matrix(.0617284 0 0 .0617284 49.259259 0)" xlink:href="#f"/><use transform="matrix(.0617284 0 0 .0617284 64.074074 0)" xlink:href="#e"/><use transform="matrix(.0617284 0 0 .0617284 77.592593 0)" xlink:href="#c"/><use transform="matrix(.0617284 0 0 .0617284 93.580247 0)" xlink:href="#d"/><use transform="matrix(.0617284 0 0 .0617284 109.567901 0)" xlink:href="#a"/><use transform="matrix(.0617284 0 0 .0617284 125.555556 0)" xlink:href="#e"/><use transform="matrix(.0617284 0 0 .0617284 138.641975 0)" xlink:href="#u"/><use transform="matrix(.0617284 0 0 .0617284 155.925926 0)" xlink:href="#c"/><use transform="matrix(.0617284 0 0 .0617284 171.91358 0)" xlink:href="#f"/></g><use transform="translate(1434.598765 302.944444)" xlink:href="#g"/><g transform="translate(1485 302.944444)"><use transform="scale(.0617284)" xlink:href="#h"/><use transform="matrix(.0617284 0 0 .0617284 15.987654 0)" xlink:href="#z"/><use transform="matrix(.0617284 0 0 .0617284 33.271605 0)" xlink:href="#A"/><use transform="matrix(.0617284 0 0 .0617284 49.259259 0)" xlink:href="#B"/><use transform="matrix(.0617284 0 0 .0617284 64.074074 0)" xlink:href="#l"/><use transform="matrix(.0617284 0 0 .0617284 77.592593 0)" xlink:href="#j"/><use transform="matrix(.0617284 0 0 .0617284 93.580247 0)" xlink:href="#k"/><use transform="matrix(.0617284 0 0 .0617284 109.567901 0)" xlink:href="#h"/><use transform="matrix(.0617284 0 0 .0617284 125.555556 0)" xlink:href="#l"/><use transform="matrix(.0617284 0 0 .0617284 138.641975 0)" xlink:href="#z"/><use transform="matrix(.0617284 0 0 .0617284 155.925926 0)" xlink:href="#j"/><use transform="matrix(.0617284 0 0 .0617284 171.91358 0)" xlink:href="#i"/><use transform="matrix(.0617284 0 0 .0617284 178.08642 0)" xlink:href="#m"/><path d="m-1.1 1.2h196.3v2.3h-196.3z" fill="#3a414a"/></g><g transform="translate(1485 339.944444)"><use transform="scale(.0617284)" xlink:href="#a"/><use transform="matrix(.0617284 0 0 .0617284 15.987654 0)" xlink:href="#u"/><use transform="matrix(.0617284 0 0 .0617284 33.271605 0)" xlink:href="#p"/><use transform="matrix(.0617284 0 0 .0617284 49.259259 0)" xlink:href="#f"/><use transform="matrix(.0617284 0 0 .0617284 64.074074 0)" xlink:href="#e"/><use transform="matrix(.0617284 0 0 .0617284 77.592593 0)" xlink:href="#c"/><use transform="matrix(.0617284 0 0 .0617284 93.580247 0)" xlink:href="#d"/><use transform="matrix(.0617284 0 0 .0617284 109.567901 0)" xlink:href="#a"/><use transform="matrix(.0617284 0 0 .0617284 125.555556 0)" xlink:href="#e"/><use transform="matrix(.0617284 0 0 .0617284 138.641975 0)" xlink:href="#u"/><use transform="matrix(.0617284 0 0 .0617284 155.925926 0)" xlink:href="#c"/><use transform="matrix(.0617284 0 0 .0617284 171.91358 0)" xlink:href="#c"/><use transform="matrix(.0617284 0 0 .0617284 187.901235 0)" xlink:href="#n"/><use transform="matrix(.0617284 0 0 .0617284 202.716049 0)" xlink:href="#o"/></g><use transform="translate(1485 376.944444)" xlink:href="#s"/><g transform="translate(1485 413.944444)"><use transform="scale(.0617284)" xlink:href="#p"/><use transform="matrix(.0617284 0 0 .0617284 15.987654 0)" xlink:href="#q"/><use transform="matrix(.0617284 0 0 .0617284 29.135802 0)" xlink:href="#e"/><use transform="matrix(.0617284 0 0 .0617284 42.654321 0)" xlink:href="#b"/><use transform="matrix(.0617284 0 0 .0617284 48.82716 0)" xlink:href="#u"/><use transform="matrix(.0617284 0 0 .0617284 66.111111 0)" xlink:href="#p"/><use transform="matrix(.0617284 0 0 .0617284 82.098765 0)" xlink:href="#q"/><use transform="matrix(.0617284 0 0 .0617284 96.91358 0)" xlink:href="#t"/><use transform="matrix(.0617284 0 0 .0617284 109.259259 0)" xlink:href="#b"/><use transform="matrix(.0617284 0 0 .0617284 115.432099 0)" xlink:href="#e"/><use transform="matrix(.0617284 0 0 .0617284 128.950617 0)" xlink:href="#v"/></g><use transform="translate(1485 450.944444)" xlink:href="#x"/><path d="m2820 286a6 6 0 0 1 6-6h468a6 6 0 0 1 6 6v287a6 6 0 0 1 -6 6h-468a6 6 0 0 1 -6-6z" fill="#fff"/><path d="m2820 286a6 6 0 0 1 6-6h468a6 6 0 0 1 6 6v287a6 6 0 0 1 -6 6h-468a6 6 0 0 1 -6-6zm0 34h480m-420 0v259" fill="none" stroke="#3a414a"/><g transform="translate(2948.08642 304.444444)"><use transform="scale(.0617284)" xlink:href="#M"/><use transform="matrix(.0617284 0 0 .0617284 15.987654 0)" xlink:href="#c"/><use transform="matrix(.0617284 0 0 .0617284 31.975309 0)" xlink:href="#b"/><use transform="matrix(.0617284 0 0 .0617284 38.148148 0)" xlink:href="#S"/><use transform="matrix(.0617284 0 0 .0617284 52.962963 0)" xlink:href="#n"/><use transform="matrix(.0617284 0 0 .0617284 67.777778 0)" xlink:href="#c"/><use transform="matrix(.0617284 0 0 .0617284 83.765432 0)" xlink:href="#y"/><use transform="matrix(.0617284 0 0 .0617284 96.111111 0)" xlink:href="#f"/><use transform="matrix(.0617284 0 0 .0617284 110.925926 0)" xlink:href="#e"/><use transform="matrix(.0617284 0 0 .0617284 122.777778 0)" xlink:href="#q"/><use transform="matrix(.0617284 0 0 .0617284 137.592593 0)" xlink:href="#p"/><use transform="matrix(.0617284 0 0 .0617284 153.580247 0)" xlink:href="#M"/><use transform="matrix(.0617284 0 0 .0617284 169.567901 0)" xlink:href="#b"/><use transform="matrix(.0617284 0 0 .0617284 175.740741 0)" xlink:href="#p"/><use transform="matrix(.0617284 0 0 .0617284 191.728395 0)" xlink:href="#w"/><use transform="matrix(.0617284 0 0 .0617284 209.012346 0)" xlink:href="#f"/></g><use transform="translate(2834.598765 342.944444)" xlink:href="#g"/><g transform="translate(2885 342.944444)"><use transform="scale(.0617284)" xlink:href="#m"/><use transform="matrix(.0617284 0 0 .0617284 15.987654 0)" xlink:href="#j"/><use transform="matrix(.0617284 0 0 .0617284 31.975309 0)" xlink:href="#i"/><use transform="matrix(.0617284 0 0 .0617284 38.148148 0)" xlink:href="#T"/><use transform="matrix(.0617284 0 0 .0617284 52.962963 0)" xlink:href="#C"/><use transform="matrix(.0617284 0 0 .0617284 67.777778 0)" xlink:href="#j"/><use transform="matrix(.0617284 0 0 .0617284 83.765432 0)" xlink:href="#B"/><use transform="matrix(.0617284 0 0 .0617284 98.580247 0)" xlink:href="#l"/><use transform="matrix(.0617284 0 0 .0617284 110.432099 0)" xlink:href="#G"/><use transform="matrix(.0617284 0 0 .0617284 126.419753 0)" xlink:href="#A"/><use transform="matrix(.0617284 0 0 .0617284 142.407407 0)" xlink:href="#m"/><use transform="matrix(.0617284 0 0 .0617284 158.395062 0)" xlink:href="#i"/><use transform="matrix(.0617284 0 0 .0617284 164.567901 0)" xlink:href="#A"/><use transform="matrix(.0617284 0 0 .0617284 180.555556 0)" xlink:href="#N"/><use transform="matrix(.0617284 0 0 .0617284 197.839506 0)" xlink:href="#B"/><use transform="matrix(.0617284 0 0 .0617284 212.654321 0)" xlink:href="#i"/><use transform="matrix(.0617284 0 0 .0617284 218.82716 0)" xlink:href="#m"/><path d="m-1.1 1.2h237.03v2.3h-237.03z" fill="#3a414a"/></g><use transform="translate(2835.833333 379.944444)" xlink:href="#F"/><use transform="translate(2885 379.944444)" xlink:href="#H"/><use transform="translate(2835.833333 416.944444)" xlink:href="#F"/><use transform="translate(2885 416.944444)" xlink:href="#U"/><use transform="translate(2885 453.944444)" xlink:href="#O"/><use transform="translate(2885 490.944444)" xlink:href="#P"/><use transform="translate(2885 527.944444)" xlink:href="#Q"/><use transform="translate(2885 564.944444)" xlink:href="#R"/><path d="m1400 686a6 6 0 0 1 6-6h468a6 6 0 0 1 6 6v324a6 6 0 0 1 -6 6h-468a6 6 0 0 1 -6-6z" fill="#fff"/><path d="m1400 686a6 6 0 0 1 6-6h468a6 6 0 0 1 6 6v324a6 6 0 0 1 -6 6h-468a6 6 0 0 1 -6-6zm0 34h480m-420 0v296" fill="none" stroke="#3a414a"/><g transform="translate(1590.709877 704.444444)"><use transform="scale(.0617284)" xlink:href="#M"/><use transform="matrix(.0617284 0 0 .0617284 15.987654 0)" xlink:href="#c"/><use transform="matrix(.0617284 0 0 .0617284 31.975309 0)" xlink:href="#b"/><use transform="matrix(.0617284 0 0 .0617284 38.148148 0)" xlink:href="#S"/><use transform="matrix(.0617284 0 0 .0617284 52.962963 0)" xlink:href="#n"/><use transform="matrix(.0617284 0 0 .0617284 67.777778 0)" xlink:href="#c"/><use transform="matrix(.0617284 0 0 .0617284 83.765432 0)" xlink:href="#f"/></g><use transform="translate(1414.598765 742.944444)" xlink:href="#g"/><g transform="translate(1465 742.944444)"><use transform="scale(.0617284)" xlink:href="#m"/><use transform="matrix(.0617284 0 0 .0617284 15.987654 0)" xlink:href="#j"/><use transform="matrix(.0617284 0 0 .0617284 31.975309 0)" xlink:href="#i"/><use transform="matrix(.0617284 0 0 .0617284 38.148148 0)" xlink:href="#T"/><use transform="matrix(.0617284 0 0 .0617284 52.962963 0)" xlink:href="#C"/><use transform="matrix(.0617284 0 0 .0617284 67.777778 0)" xlink:href="#j"/><use transform="matrix(.0617284 0 0 .0617284 83.765432 0)" xlink:href="#i"/><use transform="matrix(.0617284 0 0 .0617284 89.938272 0)" xlink:href="#m"/><path d="m-1.1 1.2h108.14v2.3h-108.14z" fill="#3a414a"/></g><g transform="translate(1465 779.944444)"><use transform="scale(.0617284)" xlink:href="#M"/><use transform="matrix(.0617284 0 0 .0617284 15.987654 0)" xlink:href="#c"/><use transform="matrix(.0617284 0 0 .0617284 31.975309 0)" xlink:href="#b"/><use transform="matrix(.0617284 0 0 .0617284 38.148148 0)" xlink:href="#S"/><use transform="matrix(.0617284 0 0 .0617284 52.962963 0)" xlink:href="#n"/><use transform="matrix(.0617284 0 0 .0617284 67.777778 0)" xlink:href="#c"/><use transform="matrix(.0617284 0 0 .0617284 83.765432 0)" xlink:href="#c"/><use transform="matrix(.0617284 0 0 .0617284 99.753086 0)" xlink:href="#n"/><use transform="matrix(.0617284 0 0 .0617284 114.567901 0)" xlink:href="#o"/></g><g transform="translate(1465 816.944444)"><use transform="scale(.0617284)" xlink:href="#p"/><use transform="matrix(.0617284 0 0 .0617284 15.987654 0)" xlink:href="#d"/><use transform="matrix(.0617284 0 0 .0617284 31.975309 0)" xlink:href="#r"/><use transform="matrix(.0617284 0 0 .0617284 50.432099 0)" xlink:href="#S"/><use transform="matrix(.0617284 0 0 .0617284 65.246914 0)" xlink:href="#n"/><use transform="matrix(.0617284 0 0 .0617284 80.061728 0)" xlink:href="#c"/></g><g transform="translate(1465 853.944444)"><use transform="scale(.0617284)" xlink:href="#a"/><use transform="matrix(.0617284 0 0 .0617284 15.987654 0)" xlink:href="#u"/><use transform="matrix(.0617284 0 0 .0617284 33.271605 0)" xlink:href="#M"/><use transform="matrix(.0617284 0 0 .0617284 49.259259 0)" xlink:href="#n"/></g><g transform="translate(1465 890.944444)"><use transform="scale(.0617284)" xlink:href="#o"/><use transform="matrix(.0617284 0 0 .0617284 13.518519 0)" xlink:href="#u"/><use transform="matrix(.0617284 0 0 .0617284 30.802469 0)" xlink:href="#c"/><use transform="matrix(.0617284 0 0 .0617284 46.790123 0)" xlink:href="#n"/><use transform="matrix(.0617284 0 0 .0617284 61.604938 0)" xlink:href="#p"/><use transform="matrix(.0617284 0 0 .0617284 77.592593 0)" xlink:href="#q"/><use transform="matrix(.0617284 0 0 .0617284 92.407407 0)" xlink:href="#r"/><use transform="matrix(.0617284 0 0 .0617284 110.864198 0)" xlink:href="#n"/></g><g transform="translate(1465 927.944444)"><use transform="scale(.0617284)" xlink:href="#M"/><use transform="matrix(.0617284 0 0 .0617284 15.987654 0)" xlink:href="#u"/><use transform="matrix(.0617284 0 0 .0617284 33.271605 0)" xlink:href="#V"/></g><g transform="translate(1465 964.944444)"><use transform="scale(.0617284)" xlink:href="#p"/><use transform="matrix(.0617284 0 0 .0617284 15.987654 0)" xlink:href="#q"/><use transform="matrix(.0617284 0 0 .0617284 29.135802 0)" xlink:href="#e"/><use transform="matrix(.0617284 0 0 .0617284 42.654321 0)" xlink:href="#b"/><use transform="matrix(.0617284 0 0 .0617284 48.82716 0)" xlink:href="#u"/><use transform="matrix(.0617284 0 0 .0617284 66.111111 0)" xlink:href="#p"/><use transform="matrix(.0617284 0 0 .0617284 82.098765 0)" xlink:href="#q"/><use transform="matrix(.0617284 0 0 .0617284 96.91358 0)" xlink:href="#t"/><use transform="matrix(.0617284 0 0 .0617284 109.259259 0)" xlink:href="#b"/><use transform="matrix(.0617284 0 0 .0617284 115.432099 0)" xlink:href="#e"/><use transform="matrix(.0617284 0 0 .0617284 128.950617 0)" xlink:href="#v"/></g><use transform="translate(1465 1001.944444)" xlink:href="#x"/><path d="m2020 1286a6 6 0 0 1 6-6h468a6 6 0 0 1 6 6v250a6 6 0 0 1 -6 6h-468a6 6 0 0 1 -6-6z" fill="#fff"/><path d="m2020 1286a6 6 0 0 1 6-6h468a6 6 0 0 1 6 6v250a6 6 0 0 1 -6 6h-468a6 6 0 0 1 -6-6zm0 34h480m-388 0v222" fill="none" stroke="#3a414a"/><g transform="translate(2198.950617 1304.444444)"><use transform="scale(.0617284)" xlink:href="#t"/><use transform="matrix(.0617284 0 0 .0617284 12.345679 0)" xlink:href="#q"/><use transform="matrix(.0617284 0 0 .0617284 27.160494 0)" xlink:href="#J"/><use transform="matrix(.0617284 0 0 .0617284 41.975309 0)" xlink:href="#y"/><use transform="matrix(.0617284 0 0 .0617284 54.320988 0)" xlink:href="#e"/><use transform="matrix(.0617284 0 0 .0617284 67.839506 0)" xlink:href="#b"/><use transform="matrix(.0617284 0 0 .0617284 74.012346 0)" xlink:href="#r"/><use transform="matrix(.0617284 0 0 .0617284 92.469136 0)" xlink:href="#n"/><use transform="matrix(.0617284 0 0 .0617284 107.283951 0)" xlink:href="#f"/></g><use transform="translate(2051.833333 1342.944444)" xlink:href="#W"/><use transform="translate(2117 1342.944444)" xlink:href="#H"/><use transform="translate(2051.833333 1379.944444)" xlink:href="#W"/><use transform="translate(2117 1379.944444)" xlink:href="#U"/><use transform="translate(2117 1416.944444)" xlink:href="#X"/><use transform="translate(2117 1453.944444)" xlink:href="#P"/><use transform="translate(2117 1490.944444)" xlink:href="#Y"/><use transform="translate(2117 1527.944444)" xlink:href="#Z"/><path d="m2020 1626a6 6 0 0 1 6-6h468a6 6 0 0 1 6 6v287a6 6 0 0 1 -6 6h-468a6 6 0 0 1 -6-6z" fill="#fff"/><path d="m2020 1626a6 6 0 0 1 6-6h468a6 6 0 0 1 6 6v287a6 6 0 0 1 -6 6h-468a6 6 0 0 1 -6-6zm0 34h480m-388 0v259" fill="none" stroke="#3a414a"/><g transform="translate(2199.166667 1644.444444)"><use transform="scale(.0617284)" xlink:href="#J"/><use transform="matrix(.0617284 0 0 .0617284 14.814815 0)" xlink:href="#b"/><use transform="matrix(.0617284 0 0 .0617284 20.987654 0)" xlink:href="#e"/><use transform="matrix(.0617284 0 0 .0617284 34.506173 0)" xlink:href="#y"/><use transform="matrix(.0617284 0 0 .0617284 46.851852 0)" xlink:href="#f"/><use transform="matrix(.0617284 0 0 .0617284 61.666667 0)" xlink:href="#e"/><use transform="matrix(.0617284 0 0 .0617284 74.753086 0)" xlink:href="#u"/><use transform="matrix(.0617284 0 0 .0617284 92.037037 0)" xlink:href="#J"/><use transform="matrix(.0617284 0 0 .0617284 106.851852 0)" xlink:href="#f"/></g><use transform="translate(2051.833333 1682.944444)" xlink:href="#W"/><use transform="translate(2117 1682.944444)" xlink:href="#H"/><use transform="translate(2051.833333 1719.944444)" xlink:href="#W"/><use transform="translate(2117 1719.944444)" xlink:href="#U"/><g transform="translate(2117 1756.944444)"><use transform="scale(.0617284)" xlink:href="#f"/><use transform="matrix(.0617284 0 0 .0617284 14.814815 0)" xlink:href="#e"/><use transform="matrix(.0617284 0 0 .0617284 27.901235 0)" xlink:href="#u"/><use transform="matrix(.0617284 0 0 .0617284 45.185185 0)" xlink:href="#J"/></g><use transform="translate(2117 1793.944444)" xlink:href="#X"/><use transform="translate(2117 1830.944444)" xlink:href="#Y"/><g transform="translate(2117 1867.944444)"><use transform="scale(.0617284)" xlink:href="#M"/><use transform="matrix(.0617284 0 0 .0617284 15.987654 0)" xlink:href="#d"/><use transform="matrix(.0617284 0 0 .0617284 31.975309 0)" xlink:href="#c"/><use transform="matrix(.0617284 0 0 .0617284 47.962963 0)" xlink:href="#q"/><use transform="matrix(.0617284 0 0 .0617284 61.111111 0)" xlink:href="#e"/><use transform="matrix(.0617284 0 0 .0617284 74.62963 0)" xlink:href="#b"/><use transform="matrix(.0617284 0 0 .0617284 80.802469 0)" xlink:href="#u"/><use transform="matrix(.0617284 0 0 .0617284 98.08642 0)" xlink:href="#p"/></g><use transform="translate(2117 1904.944444)" xlink:href="#Z"/><path d="m700 1106a6 6 0 0 1 6-6h468a6 6 0 0 1 6 6v361a6 6 0 0 1 -6 6h-468a6 6 0 0 1 -6-6z" fill="#fff"/><path d="m700 1106a6 6 0 0 1 6-6h468a6 6 0 0 1 6 6v361a6 6 0 0 1 -6 6h-468a6 6 0 0 1 -6-6zm0 34h480m-388 0v333" fill="none" stroke="#3a414a"/><g transform="translate(872.808642 1124.444444)"><use transform="scale(.0617284)" xlink:href="#aa"/><use transform="matrix(.0617284 0 0 .0617284 17.283951 0)" xlink:href="#d"/><use transform="matrix(.0617284 0 0 .0617284 33.271605 0)" xlink:href="#q"/><use transform="matrix(.0617284 0 0 .0617284 48.08642 0)" xlink:href="#t"/><use transform="matrix(.0617284 0 0 .0617284 60.432099 0)" xlink:href="#b"/><use transform="matrix(.0617284 0 0 .0617284 66.604938 0)" xlink:href="#o"/><use transform="matrix(.0617284 0 0 .0617284 80.123457 0)" xlink:href="#v"/><use transform="matrix(.0617284 0 0 .0617284 94.938272 0)" xlink:href="#b"/><use transform="matrix(.0617284 0 0 .0617284 101.111111 0)" xlink:href="#p"/><use transform="matrix(.0617284 0 0 .0617284 117.098765 0)" xlink:href="#w"/></g><use transform="translate(730.598765 1162.944444)" xlink:href="#g"/><g transform="translate(797 1162.944444)"><path d="m140-251c80 0 125 45 125 126 0 70-33 111-92 124 6 28 34 38 68 31l-1 36c-63 17-111-11-120-64-69-8-105-52-105-127 0-81 44-126 125-126zm-1 214c52 0 73-35 73-88 0-50-21-86-72-86-52 0-73 35-73 86s22 88 72 88" fill="#3a414a" transform="scale(.0617284)"/><use transform="matrix(.0617284 0 0 .0617284 17.283951 0)" xlink:href="#k"/><use transform="matrix(.0617284 0 0 .0617284 33.271605 0)" xlink:href="#G"/><use transform="matrix(.0617284 0 0 .0617284 49.259259 0)" xlink:href="#D"/><use transform="matrix(.0617284 0 0 .0617284 62.777778 0)" xlink:href="#i"/><path d="m76-208v77h127v40h-127v91h-52v-248h183v40z" fill="#3a414a" transform="matrix(.0617284 0 0 .0617284 68.950617 0)"/><path d="m146-102v102h-52v-102l-88-146h54l60 105 60-105h54" fill="#3a414a" transform="matrix(.0617284 0 0 .0617284 82.469136 0)"/><use transform="matrix(.0617284 0 0 .0617284 97.283951 0)" xlink:href="#i"/><use transform="matrix(.0617284 0 0 .0617284 103.45679 0)" xlink:href="#m"/><path d="m-1.1 1.2h121.66v2.3h-121.66z" fill="#3a414a"/></g><use transform="translate(731.833333 1199.944444)" xlink:href="#F"/><use transform="translate(797 1199.944444)" xlink:href="#H"/><use transform="translate(731.833333 1236.944444)" xlink:href="#F"/><use transform="translate(797 1236.944444)" xlink:href="#U"/><use transform="translate(731.833333 1273.944444)" xlink:href="#F"/><use transform="translate(797 1273.944444)" xlink:href="#I"/><use transform="translate(797 1310.944444)" xlink:href="#ab"/><use transform="translate(797 1347.944444)" xlink:href="#P"/><g transform="translate(797 1384.944444)"><use transform="scale(.0617284)" xlink:href="#aa"/><use transform="matrix(.0617284 0 0 .0617284 17.283951 0)" xlink:href="#ac"/></g><g transform="translate(797 1421.944444)"><use transform="scale(.0617284)" xlink:href="#aa"/><use transform="matrix(.0617284 0 0 .0617284 17.283951 0)" xlink:href="#ad"/></g><g transform="translate(797 1458.944444)"><use transform="scale(.0617284)" xlink:href="#aa"/><use transform="matrix(.0617284 0 0 .0617284 17.283951 0)" xlink:href="#ae"/></g><path d="m1380 1106a6 6 0 0 1 6-6h468a6 6 0 0 1 6 6v694a6 6 0 0 1 -6 6h-468a6 6 0 0 1 -6-6z" fill="#fff"/><path d="m1380 1106a6 6 0 0 1 6-6h468a6 6 0 0 1 6 6v694a6 6 0 0 1 -6 6h-468a6 6 0 0 1 -6-6zm0 34h480m-388 0v666" fill="none" stroke="#3a414a"/><g transform="translate(1581.790123 1124.444444)"><use transform="scale(.0617284)" xlink:href="#c"/><use transform="matrix(.0617284 0 0 .0617284 15.987654 0)" xlink:href="#q"/><use transform="matrix(.0617284 0 0 .0617284 30.802469 0)" xlink:href="#a"/><use transform="matrix(.0617284 0 0 .0617284 46.790123 0)" xlink:href="#n"/><use transform="matrix(.0617284 0 0 .0617284 61.604938 0)" xlink:href="#f"/></g><use transform="translate(1410.598765 1162.944444)" xlink:href="#g"/><g transform="translate(1477 1162.944444)"><use transform="scale(.0617284)" xlink:href="#j"/><use transform="matrix(.0617284 0 0 .0617284 15.987654 0)" xlink:href="#G"/><use transform="matrix(.0617284 0 0 .0617284 31.975309 0)" xlink:href="#h"/><use transform="matrix(.0617284 0 0 .0617284 47.962963 0)" xlink:href="#C"/><use transform="matrix(.0617284 0 0 .0617284 62.777778 0)" xlink:href="#i"/><use transform="matrix(.0617284 0 0 .0617284 68.950617 0)" xlink:href="#m"/><path d="m-1.1 1.2h87.15v2.3h-87.15z" fill="#3a414a"/></g><g transform="translate(1477 1199.944444)"><use transform="scale(.0617284)" xlink:href="#v"/><use transform="matrix(.0617284 0 0 .0617284 14.814815 0)" xlink:href="#n"/><use transform="matrix(.0617284 0 0 .0617284 29.62963 0)" xlink:href="#q"/><use transform="matrix(.0617284 0 0 .0617284 44.444444 0)" xlink:href="#c"/></g><g transform="translate(1477 1236.944444)"><use transform="scale(.0617284)" xlink:href="#c"/><use transform="matrix(.0617284 0 0 .0617284 15.987654 0)" xlink:href="#u"/><use transform="matrix(.0617284 0 0 .0617284 33.271605 0)" xlink:href="#d"/><use transform="matrix(.0617284 0 0 .0617284 49.259259 0)" xlink:href="#p"/><use transform="matrix(.0617284 0 0 .0617284 65.246914 0)" xlink:href="#M"/></g><use transform="translate(1411.833333 1273.944444)" xlink:href="#F"/><g transform="translate(1477 1273.944444)"><use transform="scale(.0617284)" xlink:href="#h"/><use transform="matrix(.0617284 0 0 .0617284 15.987654 0)" xlink:href="#i"/><use transform="matrix(.0617284 0 0 .0617284 22.160494 0)" xlink:href="#j"/><use transform="matrix(.0617284 0 0 .0617284 38.148148 0)" xlink:href="#h"/><use transform="matrix(.0617284 0 0 .0617284 54.135802 0)" xlink:href="#k"/><use transform="matrix(.0617284 0 0 .0617284 70.123457 0)" xlink:href="#i"/><use transform="matrix(.0617284 0 0 .0617284 76.296296 0)" xlink:href="#l"/><use transform="matrix(.0617284 0 0 .0617284 89.814815 0)" xlink:href="#i"/><use transform="matrix(.0617284 0 0 .0617284 95.987654 0)" xlink:href="#m"/></g><use transform="translate(1477 1310.944444)" xlink:href="#s"/><g transform="translate(1477 1347.944444)"><use transform="scale(.0617284)" xlink:href="#M"/><use transform="matrix(.0617284 0 0 .0617284 15.987654 0)" xlink:href="#q"/><use transform="matrix(.0617284 0 0 .0617284 29.135802 0)" xlink:href="#e"/><use transform="matrix(.0617284 0 0 .0617284 42.654321 0)" xlink:href="#n"/></g><use transform="translate(1477 1384.944444)" xlink:href="#Y"/><use transform="translate(1477 1421.944444)" xlink:href="#x"/><g transform="translate(1477 1458.944444)"><use transform="scale(.0617284)" xlink:href="#o"/><use transform="matrix(.0617284 0 0 .0617284 13.518519 0)" xlink:href="#J"/><use transform="matrix(.0617284 0 0 .0617284 28.333333 0)" xlink:href="#ac"/><use transform="matrix(.0617284 0 0 .0617284 40.679012 0)" xlink:href="#y"/><use transform="matrix(.0617284 0 0 .0617284 53.024691 0)" xlink:href="#M"/><use transform="matrix(.0617284 0 0 .0617284 69.012346 0)" xlink:href="#q"/><use transform="matrix(.0617284 0 0 .0617284 82.160494 0)" xlink:href="#e"/><use transform="matrix(.0617284 0 0 .0617284 95.679012 0)" xlink:href="#n"/></g><g transform="translate(1477 1495.944444)"><use transform="scale(.0617284)" xlink:href="#o"/><use transform="matrix(.0617284 0 0 .0617284 13.518519 0)" xlink:href="#J"/><use transform="matrix(.0617284 0 0 .0617284 28.333333 0)" xlink:href="#ac"/><use transform="matrix(.0617284 0 0 .0617284 40.679012 0)" xlink:href="#y"/><use transform="matrix(.0617284 0 0 .0617284 53.024691 0)" xlink:href="#e"/><use transform="matrix(.0617284 0 0 .0617284 66.54321 0)" xlink:href="#b"/><use transform="matrix(.0617284 0 0 .0617284 72.716049 0)" xlink:href="#r"/><use transform="matrix(.0617284 0 0 .0617284 91.17284 0)" xlink:href="#n"/></g><g transform="translate(1477 1532.944444)"><use transform="scale(.0617284)" xlink:href="#o"/><use transform="matrix(.0617284 0 0 .0617284 13.518519 0)" xlink:href="#J"/><use transform="matrix(.0617284 0 0 .0617284 28.333333 0)" xlink:href="#ad"/><use transform="matrix(.0617284 0 0 .0617284 40.679012 0)" xlink:href="#y"/><use transform="matrix(.0617284 0 0 .0617284 53.024691 0)" xlink:href="#M"/><use transform="matrix(.0617284 0 0 .0617284 69.012346 0)" xlink:href="#q"/><use transform="matrix(.0617284 0 0 .0617284 82.160494 0)" xlink:href="#e"/><use transform="matrix(.0617284 0 0 .0617284 95.679012 0)" xlink:href="#n"/></g><g transform="translate(1477 1569.944444)"><use transform="scale(.0617284)" xlink:href="#o"/><use transform="matrix(.0617284 0 0 .0617284 13.518519 0)" xlink:href="#J"/><use transform="matrix(.0617284 0 0 .0617284 28.333333 0)" xlink:href="#ad"/><use transform="matrix(.0617284 0 0 .0617284 40.679012 0)" xlink:href="#y"/><use transform="matrix(.0617284 0 0 .0617284 53.024691 0)" xlink:href="#e"/><use transform="matrix(.0617284 0 0 .0617284 66.54321 0)" xlink:href="#b"/><use transform="matrix(.0617284 0 0 .0617284 72.716049 0)" xlink:href="#r"/><use transform="matrix(.0617284 0 0 .0617284 91.17284 0)" xlink:href="#n"/></g><g transform="translate(1477 1606.944444)"><use transform="scale(.0617284)" xlink:href="#o"/><use transform="matrix(.0617284 0 0 .0617284 13.518519 0)" xlink:href="#J"/><use transform="matrix(.0617284 0 0 .0617284 28.333333 0)" xlink:href="#ae"/><use transform="matrix(.0617284 0 0 .0617284 40.679012 0)" xlink:href="#y"/><use transform="matrix(.0617284 0 0 .0617284 53.024691 0)" xlink:href="#M"/><use transform="matrix(.0617284 0 0 .0617284 69.012346 0)" xlink:href="#q"/><use transform="matrix(.0617284 0 0 .0617284 82.160494 0)" xlink:href="#e"/><use transform="matrix(.0617284 0 0 .0617284 95.679012 0)" xlink:href="#n"/></g><g transform="translate(1477 1643.944444)"><use transform="scale(.0617284)" xlink:href="#o"/><use transform="matrix(.0617284 0 0 .0617284 13.518519 0)" xlink:href="#J"/><use transform="matrix(.0617284 0 0 .0617284 28.333333 0)" xlink:href="#ae"/><use transform="matrix(.0617284 0 0 .0617284 40.679012 0)" xlink:href="#y"/><use transform="matrix(.0617284 0 0 .0617284 53.024691 0)" xlink:href="#e"/><use transform="matrix(.0617284 0 0 .0617284 66.54321 0)" xlink:href="#b"/><use transform="matrix(.0617284 0 0 .0617284 72.716049 0)" xlink:href="#r"/><use transform="matrix(.0617284 0 0 .0617284 91.17284 0)" xlink:href="#n"/></g><g transform="translate(1477 1680.944444)"><use transform="scale(.0617284)" xlink:href="#aa"/><use transform="matrix(.0617284 0 0 .0617284 17.283951 0)" xlink:href="#d"/><use transform="matrix(.0617284 0 0 .0617284 33.271605 0)" xlink:href="#q"/><use transform="matrix(.0617284 0 0 .0617284 48.08642 0)" xlink:href="#t"/><use transform="matrix(.0617284 0 0 .0617284 60.432099 0)" xlink:href="#b"/><use transform="matrix(.0617284 0 0 .0617284 66.604938 0)" xlink:href="#y"/><use transform="matrix(.0617284 0 0 .0617284 78.950617 0)" xlink:href="#M"/><use transform="matrix(.0617284 0 0 .0617284 94.938272 0)" xlink:href="#q"/><use transform="matrix(.0617284 0 0 .0617284 108.08642 0)" xlink:href="#e"/><use transform="matrix(.0617284 0 0 .0617284 121.604938 0)" xlink:href="#n"/></g><g transform="translate(1477 1717.944444)"><use transform="scale(.0617284)" xlink:href="#aa"/><use transform="matrix(.0617284 0 0 .0617284 17.283951 0)" xlink:href="#d"/><use transform="matrix(.0617284 0 0 .0617284 33.271605 0)" xlink:href="#q"/><use transform="matrix(.0617284 0 0 .0617284 48.08642 0)" xlink:href="#t"/><use transform="matrix(.0617284 0 0 .0617284 60.432099 0)" xlink:href="#b"/><use transform="matrix(.0617284 0 0 .0617284 66.604938 0)" xlink:href="#y"/><use transform="matrix(.0617284 0 0 .0617284 78.950617 0)" xlink:href="#e"/><use transform="matrix(.0617284 0 0 .0617284 92.469136 0)" xlink:href="#b"/><use transform="matrix(.0617284 0 0 .0617284 98.641975 0)" xlink:href="#r"/><use transform="matrix(.0617284 0 0 .0617284 117.098765 0)" xlink:href="#n"/></g><g transform="translate(1477 1754.944444)"><use transform="scale(.0617284)" xlink:href="#f"/><use transform="matrix(.0617284 0 0 .0617284 14.814815 0)" xlink:href="#J"/><use transform="matrix(.0617284 0 0 .0617284 29.62963 0)" xlink:href="#c"/><use transform="matrix(.0617284 0 0 .0617284 45.617284 0)" xlink:href="#b"/><use transform="matrix(.0617284 0 0 .0617284 51.790123 0)" xlink:href="#p"/><use transform="matrix(.0617284 0 0 .0617284 67.777778 0)" xlink:href="#e"/><use transform="matrix(.0617284 0 0 .0617284 81.296296 0)" xlink:href="#y"/><use transform="matrix(.0617284 0 0 .0617284 93.641975 0)" xlink:href="#M"/><use transform="matrix(.0617284 0 0 .0617284 109.62963 0)" xlink:href="#q"/><use transform="matrix(.0617284 0 0 .0617284 122.777778 0)" xlink:href="#e"/><use transform="matrix(.0617284 0 0 .0617284 136.296296 0)" xlink:href="#n"/></g><g transform="translate(1477 1791.944444)"><use transform="scale(.0617284)" xlink:href="#f"/><use transform="matrix(.0617284 0 0 .0617284 14.814815 0)" xlink:href="#J"/><use transform="matrix(.0617284 0 0 .0617284 29.62963 0)" xlink:href="#c"/><use transform="matrix(.0617284 0 0 .0617284 45.617284 0)" xlink:href="#b"/><use transform="matrix(.0617284 0 0 .0617284 51.790123 0)" xlink:href="#p"/><use transform="matrix(.0617284 0 0 .0617284 67.777778 0)" xlink:href="#e"/><use transform="matrix(.0617284 0 0 .0617284 81.296296 0)" xlink:href="#y"/><use transform="matrix(.0617284 0 0 .0617284 93.641975 0)" xlink:href="#e"/><use transform="matrix(.0617284 0 0 .0617284 107.160494 0)" xlink:href="#b"/><use transform="matrix(.0617284 0 0 .0617284 113.333333 0)" xlink:href="#r"/><use transform="matrix(.0617284 0 0 .0617284 131.790123 0)" xlink:href="#n"/></g><path d="m2100 486a6 6 0 0 1 6-6h468a6 6 0 0 1 6 6v694a6 6 0 0 1 -6 6h-468a6 6 0 0 1 -6-6z" fill="#fff"/><path d="m2100 486a6 6 0 0 1 6-6h468a6 6 0 0 1 6 6v694a6 6 0 0 1 -6 6h-468a6 6 0 0 1 -6-6zm0 34h480m-420 0v666" fill="none" stroke="#3a414a"/><g transform="translate(2289.691358 504.444444)"><use transform="scale(.0617284)" xlink:href="#c"/><use transform="matrix(.0617284 0 0 .0617284 15.987654 0)" xlink:href="#n"/><use transform="matrix(.0617284 0 0 .0617284 30.802469 0)" xlink:href="#f"/><use transform="matrix(.0617284 0 0 .0617284 45.617284 0)" xlink:href="#d"/><use transform="matrix(.0617284 0 0 .0617284 61.604938 0)" xlink:href="#t"/><use transform="matrix(.0617284 0 0 .0617284 72.283951 0)" xlink:href="#e"/><use transform="matrix(.0617284 0 0 .0617284 85.802469 0)" xlink:href="#f"/></g><use transform="translate(2114.598765 542.944444)" xlink:href="#g"/><g transform="translate(2165 542.944444)"><use transform="scale(.0617284)" xlink:href="#j"/><use transform="matrix(.0617284 0 0 .0617284 15.987654 0)" xlink:href="#C"/><use transform="matrix(.0617284 0 0 .0617284 30.802469 0)" xlink:href="#B"/><use transform="matrix(.0617284 0 0 .0617284 45.617284 0)" xlink:href="#k"/><use transform="matrix(.0617284 0 0 .0617284 61.604938 0)" xlink:href="#D"/><use transform="matrix(.0617284 0 0 .0617284 73.45679 0)" xlink:href="#l"/><use transform="matrix(.0617284 0 0 .0617284 86.975309 0)" xlink:href="#i"/><use transform="matrix(.0617284 0 0 .0617284 93.148148 0)" xlink:href="#m"/><path d="m-1.1 1.2h111.35v2.3h-111.35z" fill="#3a414a"/></g><use transform="translate(2115.833333 579.944444)" xlink:href="#F"/><use transform="translate(2165 579.944444)" xlink:href="#H"/><use transform="translate(2115.833333 616.944444)" xlink:href="#F"/><use transform="translate(2165 616.944444)" xlink:href="#U"/><use transform="translate(2115.833333 653.944444)" xlink:href="#F"/><use transform="translate(2165 653.944444)" xlink:href="#I"/><use transform="translate(2165 690.944444)" xlink:href="#ab"/><use transform="translate(2165 727.944444)" xlink:href="#af"/><use transform="translate(2165 764.944444)" xlink:href="#P"/><use transform="translate(2165 801.944444)" xlink:href="#Q"/><use transform="translate(2165 838.944444)" xlink:href="#ag"/><use transform="translate(2165 875.944444)" xlink:href="#K"/><use transform="translate(2165 912.944444)" xlink:href="#ah"/><use transform="translate(2165 949.944444)" xlink:href="#Y"/><use transform="translate(2165 986.944444)" xlink:href="#Z"/><use transform="translate(2165 1023.944444)" xlink:href="#ai"/><use transform="translate(2165 1060.944444)" xlink:href="#aj"/><use transform="translate(2165 1097.944444)" xlink:href="#ak"/><use transform="translate(2165 1134.944444)" xlink:href="#al"/><use transform="translate(2115.833333 1171.944444)" xlink:href="#F"/><use transform="translate(2165 1171.944444)" xlink:href="#am"/><path d="m780 1698a6 6 0 0 1 6-6h468a6 6 0 0 1 6 6v102a6 6 0 0 1 -6 6h-468a6 6 0 0 1 -6-6z" fill="#fff"/><path d="m780 1698a6 6 0 0 1 6-6h468a6 6 0 0 1 6 6v102a6 6 0 0 1 -6 6h-468a6 6 0 0 1 -6-6zm0 34h480m-388 0v74" fill="none" stroke="#3a414a"/><g transform="translate(966.32716 1716.444444)"><use transform="scale(.0617284)" xlink:href="#f"/><use transform="matrix(.0617284 0 0 .0617284 14.814815 0)" xlink:href="#n"/><use transform="matrix(.0617284 0 0 .0617284 29.62963 0)" xlink:href="#q"/><use transform="matrix(.0617284 0 0 .0617284 44.444444 0)" xlink:href="#f"/><use transform="matrix(.0617284 0 0 .0617284 59.259259 0)" xlink:href="#u"/><use transform="matrix(.0617284 0 0 .0617284 76.54321 0)" xlink:href="#p"/><use transform="matrix(.0617284 0 0 .0617284 92.530864 0)" xlink:href="#f"/></g><g transform="translate(877 1754.944444)"><use transform="scale(.0617284)" xlink:href="#v"/><use transform="matrix(.0617284 0 0 .0617284 14.814815 0)" xlink:href="#n"/><use transform="matrix(.0617284 0 0 .0617284 29.62963 0)" xlink:href="#q"/><use transform="matrix(.0617284 0 0 .0617284 44.444444 0)" xlink:href="#c"/></g><g transform="translate(877 1791.944444)"><use transform="scale(.0617284)" xlink:href="#d"/><use transform="matrix(.0617284 0 0 .0617284 15.987654 0)" xlink:href="#c"/><use transform="matrix(.0617284 0 0 .0617284 31.975309 0)" xlink:href="#t"/></g><path d="m2800 689.5a6 6 0 0 1 6-6h468a6 6 0 0 1 6 6v720a6 6 0 0 1 -6 6h-468a6 6 0 0 1 -6-6z" fill="#fff"/><path d="m2800 689.5a6 6 0 0 1 6-6h468a6 6 0 0 1 6 6v720a6 6 0 0 1 -6 6h-468a6 6 0 0 1 -6-6zm0 34h480m-420 0v692" fill="none" stroke="#3a414a"/><g transform="translate(2942.87037 707.944444)"><use transform="scale(.0617284)" xlink:href="#f"/><use transform="matrix(.0617284 0 0 .0617284 14.814815 0)" xlink:href="#J"/><use transform="matrix(.0617284 0 0 .0617284 29.62963 0)" xlink:href="#c"/><use transform="matrix(.0617284 0 0 .0617284 45.617284 0)" xlink:href="#b"/><use transform="matrix(.0617284 0 0 .0617284 51.790123 0)" xlink:href="#p"/><use transform="matrix(.0617284 0 0 .0617284 67.777778 0)" xlink:href="#e"/><use transform="matrix(.0617284 0 0 .0617284 81.296296 0)" xlink:href="#y"/><use transform="matrix(.0617284 0 0 .0617284 93.641975 0)" xlink:href="#c"/><use transform="matrix(.0617284 0 0 .0617284 109.62963 0)" xlink:href="#n"/><use transform="matrix(.0617284 0 0 .0617284 124.444444 0)" xlink:href="#f"/><use transform="matrix(.0617284 0 0 .0617284 139.259259 0)" xlink:href="#d"/><use transform="matrix(.0617284 0 0 .0617284 155.246914 0)" xlink:href="#t"/><use transform="matrix(.0617284 0 0 .0617284 165.925926 0)" xlink:href="#e"/><use transform="matrix(.0617284 0 0 .0617284 179.444444 0)" xlink:href="#f"/></g><use transform="translate(2814.598765 759.444444)" xlink:href="#g"/><g transform="translate(2865 746.111111)"><use transform="scale(.0617284)" xlink:href="#j"/><use transform="matrix(.0617284 0 0 .0617284 15.987654 0)" xlink:href="#C"/><use transform="matrix(.0617284 0 0 .0617284 30.802469 0)" xlink:href="#B"/><use transform="matrix(.0617284 0 0 .0617284 45.617284 0)" xlink:href="#k"/><use transform="matrix(.0617284 0 0 .0617284 61.604938 0)" xlink:href="#D"/><use transform="matrix(.0617284 0 0 .0617284 73.45679 0)" xlink:href="#l"/><use transform="matrix(.0617284 0 0 .0617284 86.975309 0)" xlink:href="#i"/><use transform="matrix(.0617284 0 0 .0617284 93.148148 0)" xlink:href="#m"/><path d="m-1.1 1.2h117.5v2.3h-117.5z" fill="#3a414a"/></g><use transform="translate(2980.308642 746.111111)" xlink:href="#ao"/><g transform="translate(2993.82716 746.111111)"><use transform="scale(.0617284)" xlink:href="#ap"/><path d="m106-169c-72 0-44 102-49 169h-32v-261h32l-1 103c12-21 28-36 61-36 89 0 53 116 60 194h-32v-121c2-32-8-49-39-48" fill="#3a414a" transform="matrix(.0617284 0 0 .0617284 6.17284 0)"/><use transform="matrix(.0617284 0 0 .0617284 18.518519 0)" xlink:href="#aq"/><use transform="matrix(.0617284 0 0 .0617284 23.395062 0)" xlink:href="#ar"/></g><g transform="translate(3034.506173 746.111111)"><use transform="scale(.0617284)" xlink:href="#aq"/><use transform="matrix(.0617284 0 0 .0617284 4.876543 0)" xlink:href="#ar"/></g><g transform="translate(3056.666667 746.111111)"><path d="m141-36c-15 21-31 41-68 40-36-1-58-21-58-57-1-64 63-63 125-63 3-35-9-54-41-54-24 1-41 7-42 31l-33-3c5-37 33-52 76-52 45 0 72 20 72 64v82c-1 20 7 32 28 27v20c-31 9-61-2-59-35zm-93-17c0 20 12 33 32 33 41-3 63-29 60-74-43 2-92-5-92 41" fill="#3a414a" transform="scale(.0617284)"/><use transform="matrix(.0617284 0 0 .0617284 12.345679 0)" xlink:href="#as"/></g><g transform="translate(3087.530864 746.111111)"><use transform="scale(.0617284)" xlink:href="#at"/><use transform="matrix(.0617284 0 0 .0617284 12.345679 0)" xlink:href="#au"/><use transform="matrix(.0617284 0 0 .0617284 19.691358 0)" xlink:href="#au"/><use transform="matrix(.0617284 0 0 .0617284 27.037037 0)" xlink:href="#av"/><use transform="matrix(.0617284 0 0 .0617284 39.382716 0)" xlink:href="#au"/></g><g transform="translate(3140.432099 746.111111)"><path d="m206 0h-36l-40-164-41 164h-36l-54-190h32l39 164 43-164h34l41 164 42-164h31" fill="#3a414a" transform="scale(.0617284)"/><use transform="matrix(.0617284 0 0 .0617284 15.987654 0)" xlink:href="#at"/></g><g transform="translate(3174.938272 746.111111)"><use transform="scale(.0617284)" xlink:href="#as"/><use transform="matrix(.0617284 0 0 .0617284 12.345679 0)" xlink:href="#at"/><use transform="matrix(.0617284 0 0 .0617284 24.691358 0)" xlink:href="#at"/><path d="m85-194c31 0 48 13 60 33l-1-100h32l1 261h-30c-2-10 0-23-3-31-10 23-28 35-59 35-53 0-69-39-70-98 0-66 23-100 70-100zm9 24c-40 0-46 34-46 75 0 40 6 74 45 74 42 0 51-32 51-76 0-42-9-74-50-73" fill="#3a414a" transform="matrix(.0617284 0 0 .0617284 37.037037 0)"/></g><g transform="translate(3230.493827 746.111111)"><use transform="scale(.0617284)" xlink:href="#ap"/><use transform="matrix(.0617284 0 0 .0617284 6.17284 0)" xlink:href="#av"/></g><g transform="translate(2865 772.777778)"><use transform="scale(.0617284)" xlink:href="#aw"/><use transform="matrix(.0617284 0 0 .0617284 11.111111 0)" xlink:href="#av"/><use transform="matrix(.0617284 0 0 .0617284 23.45679 0)" xlink:href="#au"/><use transform="matrix(.0617284 0 0 .0617284 30.802469 0)" xlink:href="#au"/><use transform="matrix(.0617284 0 0 .0617284 38.148148 0)" xlink:href="#at"/><use transform="matrix(.0617284 0 0 .0617284 50.493827 0)" xlink:href="#aw"/><use transform="matrix(.0617284 0 0 .0617284 61.604938 0)" xlink:href="#ap"/></g><use transform="translate(2815.833333 809.444444)" xlink:href="#F"/><use transform="translate(2865 809.444444)" xlink:href="#H"/><use transform="translate(2815.833333 846.444444)" xlink:href="#F"/><use transform="translate(2865 846.444444)" xlink:href="#U"/><use transform="translate(2815.833333 883.444444)" xlink:href="#F"/><use transform="translate(2865 883.444444)" xlink:href="#I"/><use transform="translate(2865 920.444444)" xlink:href="#ab"/><use transform="translate(2865 957.444444)" xlink:href="#af"/><use transform="translate(2865 994.444444)" xlink:href="#P"/><use transform="translate(2865 1031.444444)" xlink:href="#Q"/><use transform="translate(2865 1068.444444)" xlink:href="#ag"/><use transform="translate(2865 1105.444444)" xlink:href="#K"/><use transform="translate(2865 1142.444444)" xlink:href="#ah"/><use transform="translate(2865 1179.444444)" xlink:href="#Y"/><use transform="translate(2865 1216.444444)" xlink:href="#Z"/><use transform="translate(2865 1253.444444)" xlink:href="#ai"/><use transform="translate(2865 1290.444444)" xlink:href="#aj"/><use transform="translate(2865 1327.444444)" xlink:href="#ak"/><use transform="translate(2865 1364.444444)" xlink:href="#al"/><use transform="translate(2815.833333 1401.444444)" xlink:href="#F"/><use transform="translate(2865 1401.444444)" xlink:href="#am"/><path d="m1900.5 699.7h83.5a6 6 0 0 0 6-6v-187.98a6 6 0 0 1 6-6h84.1" fill="none" stroke="#3a414a"/><path d="m1900.5 709.7v-20m-20 10h20" fill="#fff" stroke="#3a414a"/><path d="m2099.28 509.73-20-10 20-10" fill="none" stroke="#3a414a"/><path d="m2099.28 499.73h-20" fill="#fff" stroke="#3a414a"/><path d="m2680 1526a6 6 0 0 1 6-6h468a6 6 0 0 1 6 6v102a6 6 0 0 1 -6 6h-468a6 6 0 0 1 -6-6z" fill="#fff"/><path d="m2680 1526a6 6 0 0 1 6-6h468a6 6 0 0 1 6 6v102a6 6 0 0 1 -6 6h-468a6 6 0 0 1 -6-6zm0 34h480m-388 0v74" fill="none" stroke="#3a414a"/><use transform="translate(2877.932099 1544.444444)" xlink:href="#L"/><use transform="translate(2710.598765 1582.944444)" xlink:href="#g"/><g transform="translate(2777 1582.944444)"><use transform="scale(.0617284)" xlink:href="#B"/><use transform="matrix(.0617284 0 0 .0617284 14.814815 0)" xlink:href="#l"/><use transform="matrix(.0617284 0 0 .0617284 26.666667 0)" xlink:href="#G"/><use transform="matrix(.0617284 0 0 .0617284 40.987654 0)" xlink:href="#l"/><use transform="matrix(.0617284 0 0 .0617284 54.506173 0)" xlink:href="#k"/><use transform="matrix(.0617284 0 0 .0617284 70.493827 0)" xlink:href="#B"/><use transform="matrix(.0617284 0 0 .0617284 85.308642 0)" xlink:href="#i"/><use transform="matrix(.0617284 0 0 .0617284 91.481481 0)" xlink:href="#m"/><path d="m-1.1 1.2h109.68v2.3h-109.7z" fill="#3a414a"/></g><g transform="translate(2777 1619.944444)"><use transform="scale(.0617284)" xlink:href="#f"/><use transform="matrix(.0617284 0 0 .0617284 14.814815 0)" xlink:href="#e"/><use transform="matrix(.0617284 0 0 .0617284 26.666667 0)" xlink:href="#q"/><use transform="matrix(.0617284 0 0 .0617284 39.814815 0)" xlink:href="#e"/><use transform="matrix(.0617284 0 0 .0617284 53.333333 0)" xlink:href="#d"/><use transform="matrix(.0617284 0 0 .0617284 69.320988 0)" xlink:href="#f"/></g><g stroke="#3a414a"><path d="m1880.5 1119.3h53.5a6 6 0 0 1 6 6v168.47a6 6 0 0 0 6 6h34" fill="none"/><path d="m1880.5 1129.3v-20m-20 10h20" fill="#fff"/><path d="m2019.28 1309.77-20-10 20-10" fill="none"/><path d="m2019.28 1299.77h-20m0 0c0 5.52-4.48 10-10 10-5.53 0-10-4.48-10-10s4.47-10 10-10c5.52 0 10 4.48 10 10" fill="#fff"/><path d="m1359.5 1119.3h-79.48a.02.02 0 0 1 -.02-.02.02.02 0 0 0 -.02-.02h-79.48" fill="none"/><path d="m1359.5 1109.3v20m20-10h-20m-159 9.96v-20m-20 10h20" fill="#fff"/><path d="m1160.5 699.62h93.5a6 6 0 0 1 6 6v557.5a6 6 0 0 0 6 6h94.1" fill="none"/><path d="m1160.5 709.62v-20m-20 10h20" fill="#fff"/><path d="m1379.28 1279.12-20-10 20-10" fill="none"/><path d="m1379.28 1269.12h-20" fill="#fff"/><path d="m1880.5 1119.3h53.5a6 6 0 0 1 6 6v508.43a6 6 0 0 0 6 6h53.5" fill="none"/><path d="m1880.5 1129.3v-20m-20 10h20" fill="#fff"/><path d="m2019.28 1649.73-20-10 20-10" fill="none"/><path d="m2019.28 1639.73h-20m0-10v20" fill="#fff"/><path d="m1359.5 1194.96h-53.5a6 6 0 0 0 -6 6v543.54a6 6 0 0 1 -6 6h-13.5" fill="none"/><path d="m1359.5 1184.96v20m20-10h-20m-79 565.54v-20m-20 10h20" fill="#fff"/><path d="m1920.5 259.8h63.5a6 6 0 0 0 6-6v-448.07a6 6 0 0 1 6-6h64.1" fill="none"/><path d="m1920.5 269.8v-20m-20 10h20" fill="#fff"/><path d="m2079.28-190.27-20-10 20-10" fill="none"/><path d="m2079.28-200.27h-20" fill="#fff"/><path d="m1920.5 259.8h63.5a6 6 0 0 0 6-6v-67.97a6 6 0 0 1 6-6h64.1" fill="none"/><path d="m1920.5 269.8v-20m-20 10h20" fill="#fff"/><path d="m2079.28 189.83-20-10 20-10" fill="none"/><path d="m2079.28 179.83h-20" fill="#fff"/><path d="m2340 459.5a.96.96 0 0 1 .96-.96h283.04a6 6 0 0 0 6-6v-146.8a6 6 0 0 1 6-6h164.1" fill="none"/><path d="m2350 459.5h-20m10 20v-20" fill="#fff"/><path d="m2819.28 309.73-20-10 20-10" fill="none"/><path d="m2819.28 299.73h-20" fill="#fff"/><path d="m2599.9 574.96h124.1a6 6 0 0 0 6-6v-187.56a6 6 0 0 1 6-6h64.1" fill="none"/><path d="m2580.72 564.96 20 10-20 10" fill="none"/><path d="m2580.72 574.96h20" fill="#fff"/><path d="m2819.28 385.4-20-10 20-10" fill="none"/><path d="m2819.28 375.4h-20" fill="#fff"/><path d="m2600.5 612.04h153.5a6 6 0 0 0 6-6v-187.04a6 6 0 0 1 6-6h33.5" fill="none"/><path d="m2600.5 622.04v-20m-20 10h20m199-209.04v20m20-10h-20" fill="#fff"/><path d="m2659.5 1578.5h-23.5a6 6 0 0 1 -6-6v-398.3a6 6 0 0 0 -6-6h-23.5" fill="none"/><path d="m2659.5 1568.5v20m20-10h-20" fill="#fff"/><path d="m2580.72 1158.2 20 10-20 10" fill="none"/><path d="m2580.72 1168.2h20m0 10v-20" fill="#fff"/><path d="m1880.5 1157.9h163.5a6 6 0 0 0 6-6v-570.95a6 6 0 0 1 6-6h24.1" fill="none"/><path d="m1880.5 1167.9v-20m-20 10h20" fill="#fff"/><path d="m2099.28 584.96-20-10 20-10" fill="none"/><path d="m2099.28 574.96h-20" fill="#fff"/><path d="m1920.5 298.4h23.5a6 6 0 0 1 6 6v338.7a6 6 0 0 0 6 6h124.1" fill="none"/><path d="m1920.5 308.4v-20m-20 10h20" fill="#fff"/><path d="m2099.28 659.12-20-10 20-10" fill="none"/><path d="m2099.28 649.12h-20" fill="#fff"/><path d="m1900.5 738.27h83.5a6 6 0 0 0 6-6v-114.23a6 6 0 0 1 6-6h84.1" fill="none"/><path d="m1900.5 748.27v-20m-20 10h20" fill="#fff"/><path d="m2099.28 622.04-20-10 20-10" fill="none"/><path d="m2099.28 612.04h-20" fill="#fff"/><path d="m2779.5 702.78h-83.84a6 6 0 0 1 -6-6v-207.7a6 6 0 0 0 -6-6h-84.44" fill="none"/><path d="m2779.5 692.78v20m20-10h-20" fill="#fff"/><path d="m2580.03 473.1 20 10-20 10" fill="none"/><path d="m2580.03 483.1h20" fill="#fff"/></g></g></svg>