<svg fill="none" height="800" viewBox="0 0 1200 800" width="1200" xmlns="http://www.w3.org/2000/svg" xmlns:xlink="http://www.w3.org/1999/xlink"><filter id="a" color-interpolation-filters="sRGB" filterUnits="userSpaceOnUse" height="298.847" width="298.847" x="458.601" y="259.599"><feFlood flood-opacity="0" result="BackgroundImageFix"/><feColorMatrix in="SourceAlpha" result="hardAlpha" type="matrix" values="0 0 0 0 0 0 0 0 0 0 0 0 0 0 0 0 0 0 127 0"/><feOffset dy="10"/><feGaussianBlur stdDeviation="10"/><feComposite in2="hardAlpha" operator="out"/><feColorMatrix type="matrix" values="0 0 0 0 0.596078 0 0 0 0 0.635294 0 0 0 0 0.701961 0 0 0 0.1 0"/><feBlend in2="BackgroundImageFix" mode="normal" result="effect1_dropShadow_126_145"/><feColorMatrix in="SourceAlpha" result="hardAlpha" type="matrix" values="0 0 0 0 0 0 0 0 0 0 0 0 0 0 0 0 0 0 127 0"/><feOffset dy="2"/><feGaussianBlur stdDeviation="3"/><feComposite in2="hardAlpha" operator="out"/><feColorMatrix type="matrix" values="0 0 0 0 0.596078 0 0 0 0 0.635294 0 0 0 0 0.701961 0 0 0 0.25 0"/><feBlend in2="effect1_dropShadow_126_145" mode="normal" result="effect2_dropShadow_126_145"/><feBlend in="SourceGraphic" in2="effect2_dropShadow_126_145" mode="normal" result="shape"/></filter><filter id="b" color-interpolation-filters="sRGB" filterUnits="userSpaceOnUse" height="155.04" width="155.04" x="848.826" y="71.48"><feFlood flood-opacity="0" result="BackgroundImageFix"/><feColorMatrix in="SourceAlpha" result="hardAlpha" type="matrix" values="0 0 0 0 0 0 0 0 0 0 0 0 0 0 0 0 0 0 127 0"/><feOffset/><feGaussianBlur stdDeviation="8.76"/><feComposite in2="hardAlpha" operator="out"/><feColorMatrix type="matrix" values="0 0 0 0 0.619608 0 0 0 0 0.862745 0 0 0 0 0.952941 0 0 0 0.4 0"/><feBlend in2="BackgroundImageFix" mode="normal" result="effect1_dropShadow_126_145"/><feBlend in="SourceGraphic" in2="effect1_dropShadow_126_145" mode="normal" result="shape"/></filter><filter id="c" color-interpolation-filters="sRGB" filterUnits="userSpaceOnUse" height="155.04" width="155.04" x="848.826" y="239.07"><feFlood flood-opacity="0" result="BackgroundImageFix"/><feColorMatrix in="SourceAlpha" result="hardAlpha" type="matrix" values="0 0 0 0 0 0 0 0 0 0 0 0 0 0 0 0 0 0 127 0"/><feOffset/><feGaussianBlur stdDeviation="8.76"/><feComposite in2="hardAlpha" operator="out"/><feColorMatrix type="matrix" values="0 0 0 0 0.619608 0 0 0 0 0.862745 0 0 0 0 0.952941 0 0 0 0.4 0"/><feBlend in2="BackgroundImageFix" mode="normal" result="effect1_dropShadow_126_145"/><feBlend in="SourceGraphic" in2="effect1_dropShadow_126_145" mode="normal" result="shape"/></filter><filter id="d" color-interpolation-filters="sRGB" filterUnits="userSpaceOnUse" height="155.04" width="155.04" x="848.826" y="406.66"><feFlood flood-opacity="0" result="BackgroundImageFix"/><feColorMatrix in="SourceAlpha" result="hardAlpha" type="matrix" values="0 0 0 0 0 0 0 0 0 0 0 0 0 0 0 0 0 0 127 0"/><feOffset/><feGaussianBlur stdDeviation="8.76"/><feComposite in2="hardAlpha" operator="out"/><feColorMatrix type="matrix" values="0 0 0 0 0.619608 0 0 0 0 0.862745 0 0 0 0 0.952941 0 0 0 0.4 0"/><feBlend in2="BackgroundImageFix" mode="normal" result="effect1_dropShadow_126_145"/><feBlend in="SourceGraphic" in2="effect1_dropShadow_126_145" mode="normal" result="shape"/></filter><filter id="e" color-interpolation-filters="sRGB" filterUnits="userSpaceOnUse" height="155.04" width="155.04" x="848.826" y="574.25"><feFlood flood-opacity="0" result="BackgroundImageFix"/><feColorMatrix in="SourceAlpha" result="hardAlpha" type="matrix" values="0 0 0 0 0 0 0 0 0 0 0 0 0 0 0 0 0 0 127 0"/><feOffset/><feGaussianBlur stdDeviation="8.76"/><feComposite in2="hardAlpha" operator="out"/><feColorMatrix type="matrix" values="0 0 0 0 0.619608 0 0 0 0 0.862745 0 0 0 0 0.952941 0 0 0 0.4 0"/><feBlend in2="BackgroundImageFix" mode="normal" result="effect1_dropShadow_126_145"/><feBlend in="SourceGraphic" in2="effect1_dropShadow_126_145" mode="normal" result="shape"/></filter><path d="m398 399.5c0 116.256 94.244 210.5 210.5 210.5s210.5-94.244 210.5-210.5-94.244-210.5-210.5-210.5-210.5 94.244-210.5 210.5z" fill="#d4f0fa" fill-opacity=".25"/><path d="m761.481 474.356c41.464-83.965 6.809-185.547-77.404-226.889s-186.094-6.789-227.558 77.177c-41.464 83.965-6.809 185.547 77.404 226.889s186.094 6.789 227.558-77.177z" fill="#d3eef8"/><g filter="url(#a)"><circle cx="608.024" cy="399.022" fill="#29b5e8" r="129.423"/><circle cx="608.024" cy="399.022" r="127.423" stroke="#fff" stroke-width="4"/></g><path d="m538.079 462.897 1.917-2.693s2.087 1.407 4.052 1.407c1.092 0 1.602-.485 1.602-1.213 0-.752-.461-1.14-2.5-1.747-3.057-.898-4.804-2.087-4.804-4.489 0-2.644 1.796-4.513 5.629-4.513 3.955 0 5.484 1.553 5.484 1.553l-1.893 2.863s-1.528-1.213-3.591-1.213c-1.189 0-1.577.461-1.577 1.068 0 .728.631 1.019 2.305 1.504 3.227.898 5.071 2.159 5.071 4.586 0 2.644-1.771 4.828-5.605 4.828-4.027 0-6.09-1.941-6.09-1.941zm27.059-12.932v14.558h-2.718l-6.987-8.492v8.492h-3.494v-14.558h2.717l6.988 8.346v-8.346zm9.632 14.897c-4.392 0-7.449-3.445-7.449-7.618 0-4.174 3.057-7.595 7.449-7.595 4.44 0 7.497 3.421 7.497 7.595 0 4.173-3.057 7.618-7.497 7.618zm0-3.421c2.159 0 3.858-1.674 3.858-4.197 0-2.524-1.699-4.198-3.858-4.198-2.111 0-3.81 1.674-3.81 4.198 0 2.523 1.699 4.197 3.81 4.197zm19.998 3.082-2.547-8.177-2.427 8.177h-2.717l-4.246-14.558h3.858l1.844 7.715 2.377-7.715h2.621l2.426 7.764 1.893-7.764h3.882l-4.246 14.558zm18.145-8.735v2.766h-5.92v5.969h-3.518v-14.558h10.676v3.033h-7.158v2.79zm13.615 8.735h-10.021v-14.558h3.518v11.525h6.503zm9.825-14.558 5.556 14.558h-3.785l-.897-2.621h-5.581l-.898 2.621h-3.785l5.556-14.558zm-1.917 3.785-1.844 5.386h3.688zm12.269-3.785v6.09l5.508-6.09h4.295v.315l-5.363 5.92 5.363 7.983v.34h-3.98l-3.785-5.678-2.038 2.281v3.397h-3.518v-14.558zm20.872 5.799v2.766h-5.92v2.96h7.06v3.033h-10.579v-14.558h10.579v3.033h-7.06v2.766zm-93.778 19.234v-3.033h11.719v3.033h-4.101v11.525h-3.518v-11.525zm13.788-3.033h6.43c3.324 0 5.605 2.062 5.605 4.901 0 2.014-1.043 3.542-2.718 4.319v.267l3.276 4.828v.243h-4.003l-3.033-4.78h-2.038v4.78h-3.519zm8.395 4.901c0-1.262-.922-1.868-2.207-1.868h-2.669v3.76h2.693c1.237 0 2.183-.655 2.183-1.892zm13.821-4.901 5.556 14.558h-3.785l-.897-2.621h-5.581l-.898 2.621h-3.785l5.557-14.558zm-1.917 3.785-1.844 5.386h3.688zm12.269-3.785v14.558h-3.518v-14.558zm13.019 14.558h-10.021v-14.558h3.518v11.525h6.503z" fill="#fff"/><g clip-rule="evenodd" fill-rule="evenodd"><path d="m656.387 351.336c-1.13 0-2.067-.914-2.067-2.043 0-1.154.889-2.091 2.043-2.115l15.502-.217c.889 0 1.298-.576 1.442-.817.144-.24.409-.889 0-1.61l-18.218-28.481s0-.024-.024-.048c-.409-.673-1.057-.769-1.322-.793-.264 0-.913.048-1.37.673l-8.268 12.522c-.624.961-1.922 1.226-2.884.601-.961-.625-1.225-1.923-.601-2.884l8.268-12.546s0-.024.024-.048c1.13-1.611 2.981-2.524 4.927-2.452 1.947.072 3.726 1.106 4.735 2.764l18.218 28.481s0 .024.024.048c1.082 1.802 1.106 3.99.072 5.816-1.033 1.827-2.908 2.932-5.023 2.932z" fill="#9edcf3"/><path d="m653.743 336.193c-1.154 0-2.067-.937-2.067-2.067v-10.166c0-1.154.937-2.067 2.067-2.067 1.129 0 2.067.937 2.067 2.067v10.166c0 1.154-.938 2.067-2.067 2.067z" fill="#9edcf3"/><path d="m655.91 340.855c0 1.177-.961 2.139-2.139 2.139s-2.139-.962-2.139-2.139c0-1.178.961-2.139 2.139-2.139s2.139.961 2.139 2.139z" fill="#9edcf3"/><path d="m637.497 405.22h-39.32c-1.586 0-2.884-1.298-2.884-2.884 0-1.587 1.298-2.884 2.884-2.884h39.32c4.35 0 7.907-3.533 7.907-7.908v-46.819c0-4.35-3.533-7.907-7.907-7.907h-59.942c-4.35 0-7.907 3.533-7.907 7.907v33.264c0 1.586-1.298 2.884-2.884 2.884s-2.884-1.298-2.884-2.884v-33.264c0-7.546 6.129-13.675 13.675-13.675h59.942c7.547 0 13.676 6.129 13.676 13.675v46.819c0 7.547-6.129 13.676-13.676 13.676z" fill="#fff"/><path d="m571.693 387.819c-3.076 0-6.033 1.033-8.436 3.004-5.744 4.663-6.634 13.147-1.971 18.891s13.147 6.634 18.891 1.971 6.634-13.147 1.971-18.891c-2.259-2.788-5.48-4.519-9.037-4.903-.481-.048-.937-.072-1.418-.072zm.048 30.812c-.601 0-1.226-.024-1.827-.096-4.614-.481-8.748-2.716-11.68-6.321-6.033-7.427-4.879-18.387 2.547-24.419 3.606-2.908 8.124-4.254 12.739-3.774 4.614.481 8.748 2.716 11.68 6.321 6.033 7.427 4.879 18.387-2.547 24.419-3.125 2.524-6.946 3.87-10.912 3.87z" fill="#fff"/><path d="m584.863 410.218 9.975 11.969c1.442 1.755 1.153 4.374-.601 5.817-1.755 1.442-4.374 1.153-5.816-.601l-9.975-11.969" fill="#fff"/><path d="m594.333 354.051h-16.319c-1.37 0-2.476-1.106-2.476-2.476s1.106-2.475 2.476-2.475h16.319c1.37 0 2.475 1.105 2.475 2.475s-1.105 2.476-2.475 2.476z" fill="#fff"/><path d="m620.028 354.051h-16.319c-1.37 0-2.476-1.106-2.476-2.476s1.106-2.475 2.476-2.475h16.319c1.37 0 2.476 1.105 2.476 2.475s-1.106 2.476-2.476 2.476z" fill="#fff"/><path d="m632.907 354.051h-5.216c-1.37 0-2.475-1.106-2.475-2.476s1.105-2.475 2.475-2.475h5.216c1.37 0 2.475 1.105 2.475 2.475s-1.105 2.476-2.475 2.476z" fill="#fff"/><path d="m596.518 365.516h-5.888c-1.37 0-2.476-1.105-2.476-2.475s1.106-2.476 2.476-2.476h5.888c1.37 0 2.476 1.106 2.476 2.476s-1.106 2.475-2.476 2.475z" fill="#fff"/><path d="m607.792 365.516h-4.662c-1.37 0-2.476-1.105-2.476-2.475s1.106-2.476 2.476-2.476h4.662c1.37 0 2.476 1.106 2.476 2.476s-1.106 2.475-2.476 2.475z" fill="#fff"/><path d="m638.63 365.516h-21.486c-1.37 0-2.476-1.105-2.476-2.475s1.106-2.476 2.476-2.476h21.486c1.37 0 2.476 1.106 2.476 2.476s-1.106 2.475-2.476 2.475z" fill="#fff"/><path d="m601.06 388.445h-4.663c-1.37 0-2.475-1.106-2.475-2.476s1.105-2.475 2.475-2.475h4.663c1.37 0 2.476 1.105 2.476 2.475s-1.106 2.476-2.476 2.476z" fill="#fff"/><path d="m628.629 388.445h-18.194c-1.37 0-2.476-1.106-2.476-2.476s1.106-2.475 2.476-2.475h18.194c1.369 0 2.475 1.105 2.475 2.475s-1.106 2.476-2.475 2.476z" fill="#fff"/><path d="m602.651 376.98h-21.92c-1.37 0-2.475-1.106-2.475-2.476s1.105-2.475 2.475-2.475h21.92c1.37 0 2.475 1.105 2.475 2.475s-1.105 2.476-2.475 2.476z" fill="#fff"/><path d="m632.906 376.98h-21.92c-1.37 0-2.475-1.106-2.475-2.476s1.105-2.475 2.475-2.475h21.92c1.37 0 2.475 1.105 2.475 2.475s-1.105 2.476-2.475 2.476z" fill="#fff"/></g><path d="m304 113.667c5.891 0 10.667-4.776 10.667-10.667 0-5.8911-4.776-10.6667-10.667-10.6667s-10.667 4.7756-10.667 10.6667c0 5.891 4.776 10.667 10.667 10.667zm0 596c5.891 0 10.667-4.776 10.667-10.667s-4.776-10.667-10.667-10.667-10.667 4.776-10.667 10.667 4.776 10.667 10.667 10.667zm0-475.5c5.891 0 10.667-4.776 10.667-10.667s-4.776-10.667-10.667-10.667-10.667 4.776-10.667 10.667 4.776 10.667 10.667 10.667zm0 355.5c5.891 0 10.667-4.776 10.667-10.667s-4.776-10.667-10.667-10.667-10.667 4.776-10.667 10.667 4.776 10.667 10.667 10.667zm37.5-10.667v-2zm-41-227.833c5.891 0 10.667-4.776 10.667-10.667s-4.776-10.667-10.667-10.667-10.667 4.776-10.667 10.667 4.776 10.667 10.667 10.667zm0 119.25c5.891 0 10.667-4.776 10.667-10.667s-4.776-10.667-10.667-10.667-10.667 4.776-10.667 10.667 4.776 10.667 10.667 10.667zm3.5-367.417v2h59v-2-2h-59zm59 596v-2h-59v2 2h59zm16-580h-2v104.5h2 2v-104.5zm0 460h-2v104h2 2v-104zm0 0v-2h-37.5v2 2h37.5zm-37.5 0v-2h-37.5v2 2h37.5zm37.5-355.5v-2h-37.5v2 2h37.5zm-37.5 0v-2h-37.5v2 2h37.5zm37.5 0h-2v117h2 2v-117zm0 117v-2h-78.5v2 2h78.5zm0 0h-2v119.25h2 2v-119.25zm0 119.25h-2v119.25h2 2v-119.25zm0 0v-2h-78.5v2 2h78.5zm-16 239.25v2c9.941 0 18-8.059 18-18h-2-2c0 7.732-6.268 14-14 14zm0-596v2c7.732 0 14 6.268 14 14h2 2c0-9.941-8.059-18-18-18z" fill="#29b5e8"/><path d="m432 400-20-11.547v23.094zm-42.333 0c0-5.891-4.776-10.667-10.667-10.667s-10.667 4.776-10.667 10.667 4.776 10.667 10.667 10.667 10.667-4.776 10.667-10.667zm24.333 0v-2h-35v2 2h35z" fill="#29b5e8"/><path d="m72 69h215c18.502 0 33.5 14.9985 33.5 33.5 0 18.502-14.998 33.5-33.5 33.5h-215c-18.5015 0-33.5-14.998-33.5-33.5 0-18.5015 14.9985-33.5 33.5-33.5z" fill="#fff"/><path d="m72 69h215c18.502 0 33.5 14.9985 33.5 33.5 0 18.502-14.998 33.5-33.5 33.5h-215c-18.5015 0-33.5-14.998-33.5-33.5 0-18.5015 14.9985-33.5 33.5-33.5z" stroke="#29b5e8" stroke-width="3"/><path d="m163.077 110.5h-9.672v-14.4h2.904v11.856h6.768zm8.081.336c-4.344 0-7.296-3.384-7.296-7.536s2.952-7.512 7.296-7.512c4.392 0 7.32 3.36 7.32 7.512s-2.928 7.536-7.32 7.536zm0-2.808c2.52 0 4.32-1.992 4.32-4.728s-1.8-4.728-4.32-4.728c-2.472 0-4.272 1.992-4.272 4.728s1.8 4.728 4.272 4.728zm15.836-3.504v-2.376h7.056v1.752c0 4.176-2.568 6.912-6.72 6.912-4.536 0-7.272-3.36-7.272-7.512s2.784-7.512 7.32-7.512c3.624 0 5.184 1.824 5.184 1.824l-1.752 2.232s-1.2-1.272-3.456-1.272c-2.544 0-4.296 1.992-4.296 4.728s1.728 4.752 4.272 4.752c2.184 0 3.456-1.416 3.528-3.336v-.192zm8.343 4.44 1.584-2.208s1.848 1.392 4.032 1.392c1.536 0 2.208-.648 2.208-1.608 0-.936-.552-1.416-2.88-2.112-3.12-.912-4.752-2.064-4.752-4.368 0-2.52 1.824-4.272 5.4-4.272 3.744 0 5.208 1.488 5.208 1.488l-1.56 2.376s-1.44-1.2-3.648-1.2c-1.416 0-2.136.552-2.136 1.44 0 .864.72 1.248 2.76 1.872 3.336.936 4.944 2.184 4.944 4.512 0 2.52-1.752 4.536-5.448 4.536-3.816 0-5.712-1.848-5.712-1.848z" fill="#000"/><path d="m72 188h215c18.502 0 33.5 14.998 33.5 33.5s-14.998 33.5-33.5 33.5h-215c-18.5015 0-33.5-14.998-33.5-33.5s14.9985-33.5 33.5-33.5z" fill="#fff"/><path d="m72 188h215c18.502 0 33.5 14.998 33.5 33.5s-14.998 33.5-33.5 33.5h-215c-18.5015 0-33.5-14.998-33.5-33.5s14.9985-33.5 33.5-33.5z" stroke="#29b5e8" stroke-width="3"/><path d="m147.718 229.5v-9.024l-3.648 4.8h-1.152l-3.648-4.8v9.024h-2.88v-14.4h2.304l4.8 6.456 4.8-6.456h2.28l.024 14.4zm15.325-8.472v2.352h-6.288v3.576h7.464v2.544h-10.368v-14.4h10.368v2.544h-7.464v3.384zm2.642-3.384v-2.544h11.472v2.544h-4.296v11.856h-2.904v-11.856zm13.689-2.544h6.144c3.336 0 5.52 1.92 5.52 4.824 0 2.112-1.104 3.648-2.856 4.368v.192l3.336 4.728v.288h-3.264l-3.24-4.752h-2.736v4.752h-2.904zm8.664 4.848c0-1.56-1.104-2.304-2.688-2.304h-3.072v4.608h3.144c1.512 0 2.616-.768 2.616-2.304zm8.607-4.848v14.4h-2.904v-14.4zm12.98 10.704 1.68 2.232s-1.536 1.8-4.872 1.8c-4.536 0-7.344-3.384-7.344-7.536s2.808-7.512 7.344-7.512c3.336 0 4.872 1.776 4.872 1.776l-1.68 2.232s-1.104-1.224-3.168-1.224c-2.568 0-4.368 1.992-4.368 4.728s1.8 4.752 4.368 4.752c2.064 0 3.168-1.248 3.168-1.248zm2.728 2.16 1.584-2.208s1.848 1.392 4.032 1.392c1.536 0 2.208-.648 2.208-1.608 0-.936-.552-1.416-2.88-2.112-3.12-.912-4.752-2.064-4.752-4.368 0-2.52 1.824-4.272 5.4-4.272 3.744 0 5.208 1.488 5.208 1.488l-1.56 2.376s-1.44-1.2-3.648-1.2c-1.416 0-2.136.552-2.136 1.44 0 .864.72 1.248 2.76 1.872 3.336.936 4.944 2.184 4.944 4.512 0 2.52-1.752 4.536-5.448 4.536-3.816 0-5.712-1.848-5.712-1.848z" fill="#000"/><path d="m72 307h215c18.502 0 33.5 14.998 33.5 33.5s-14.998 33.5-33.5 33.5h-215c-18.5015 0-33.5-14.998-33.5-33.5s14.9985-33.5 33.5-33.5z" fill="#fff"/><path d="m72 307h215c18.502 0 33.5 14.998 33.5 33.5s-14.998 33.5-33.5 33.5h-215c-18.5015 0-33.5-14.998-33.5-33.5s14.9985-33.5 33.5-33.5z" stroke="#29b5e8" stroke-width="3"/><path d="m140.209 336.644v-2.544h11.472v2.544h-4.296v11.856h-2.904v-11.856zm13.689-2.544h6.144c3.336 0 5.52 1.92 5.52 4.824 0 2.112-1.104 3.648-2.856 4.368v.192l3.336 4.728v.288h-3.264l-3.24-4.752h-2.736v4.752h-2.904zm8.664 4.848c0-1.56-1.104-2.304-2.688-2.304h-3.072v4.608h3.144c1.512 0 2.616-.768 2.616-2.304zm12.712-4.848 5.712 14.4h-3.096l-1.032-2.784h-6.216l-1.032 2.784h-3.096l5.712-14.4zm-1.536 3.216-2.232 6.048h4.488zm18.121 7.488 1.68 2.232s-1.536 1.8-4.872 1.8c-4.536 0-7.344-3.384-7.344-7.536s2.808-7.512 7.344-7.512c3.336 0 4.872 1.776 4.872 1.776l-1.68 2.232s-1.104-1.224-3.168-1.224c-2.568 0-4.368 1.992-4.368 4.728s1.8 4.752 4.368 4.752c2.064 0 3.168-1.248 3.168-1.248zm12.832-4.776v2.352h-6.288v3.576h7.464v2.544h-10.368v-14.4h10.368v2.544h-7.464v3.384zm2.787 6.936 1.584-2.208s1.848 1.392 4.032 1.392c1.536 0 2.208-.648 2.208-1.608 0-.936-.552-1.416-2.88-2.112-3.12-.912-4.752-2.064-4.752-4.368 0-2.52 1.824-4.272 5.4-4.272 3.744 0 5.208 1.488 5.208 1.488l-1.56 2.376s-1.44-1.2-3.648-1.2c-1.416 0-2.136.552-2.136 1.44 0 .864.72 1.248 2.76 1.872 3.336.936 4.944 2.184 4.944 4.512 0 2.52-1.752 4.536-5.448 4.536-3.816 0-5.712-1.848-5.712-1.848z" fill="#000"/><path d="m72 426h215c18.502 0 33.5 14.998 33.5 33.5s-14.998 33.5-33.5 33.5h-215c-18.5015 0-33.5-14.998-33.5-33.5s14.9985-33.5 33.5-33.5z" fill="#fff"/><path d="m72 426h215c18.502 0 33.5 14.998 33.5 33.5s-14.998 33.5-33.5 33.5h-215c-18.5015 0-33.5-14.998-33.5-33.5s14.9985-33.5 33.5-33.5z" stroke="#29b5e8" stroke-width="3"/><path d="m149.648 459.028v2.352h-6.288v3.576h7.464v2.544h-10.368v-14.4h10.368v2.544h-7.464v3.384zm7.707 8.472-5.712-14.4h3.096l4.128 11.184 4.152-11.184h3.096l-5.712 14.4zm19.504-8.472v2.352h-6.288v3.576h7.464v2.544h-10.368v-14.4h10.368v2.544h-7.464v3.384zm16.443-5.928v14.4h-2.232l-7.608-9.336v9.336h-2.904v-14.4h2.232l7.608 9.24v-9.24zm2.208 2.544v-2.544h11.472v2.544h-4.296v11.856h-2.904v-11.856zm12.776 10.32 1.584-2.208s1.848 1.392 4.032 1.392c1.536 0 2.208-.648 2.208-1.608 0-.936-.552-1.416-2.88-2.112-3.12-.912-4.752-2.064-4.752-4.368 0-2.52 1.824-4.272 5.4-4.272 3.744 0 5.208 1.488 5.208 1.488l-1.56 2.376s-1.44-1.2-3.648-1.2c-1.416 0-2.136.552-2.136 1.44 0 .864.72 1.248 2.76 1.872 3.336.936 4.944 2.184 4.944 4.512 0 2.52-1.752 4.536-5.448 4.536-3.816 0-5.712-1.848-5.712-1.848z" fill="#000"/><path d="m72 545h215c18.502 0 33.5 14.998 33.5 33.5s-14.998 33.5-33.5 33.5h-215c-18.5015 0-33.5-14.998-33.5-33.5s14.9985-33.5 33.5-33.5z" fill="#fff"/><path d="m72 545h215c18.502 0 33.5 14.998 33.5 33.5s-14.998 33.5-33.5 33.5h-215c-18.5015 0-33.5-14.998-33.5-33.5s14.9985-33.5 33.5-33.5z" stroke="#29b5e8" stroke-width="3"/><path d="m148.942 572.1 5.712 14.4h-3.096l-1.032-2.784h-6.216l-1.032 2.784h-3.096l5.712-14.4zm-1.536 3.216-2.232 6.048h4.488zm18.472 11.184h-9.672v-14.4h2.904v11.856h6.768zm11.473-8.472v2.352h-6.288v3.576h7.464v2.544h-10.368v-14.4h10.368v2.544h-7.464v3.384zm3.699-5.928h6.144c3.336 0 5.52 1.92 5.52 4.824 0 2.112-1.104 3.648-2.856 4.368v.192l3.336 4.728v.288h-3.264l-3.24-4.752h-2.736v4.752h-2.904zm8.664 4.848c0-1.56-1.104-2.304-2.688-2.304h-3.072v4.608h3.144c1.512 0 2.616-.768 2.616-2.304zm4.366-2.304v-2.544h11.472v2.544h-4.296v11.856h-2.904v-11.856zm12.777 10.32 1.584-2.208s1.848 1.392 4.032 1.392c1.536 0 2.208-.648 2.208-1.608 0-.936-.552-1.416-2.88-2.112-3.12-.912-4.752-2.064-4.752-4.368 0-2.52 1.824-4.272 5.4-4.272 3.744 0 5.208 1.488 5.208 1.488l-1.56 2.376s-1.44-1.2-3.648-1.2c-1.416 0-2.136.552-2.136 1.44 0 .864.72 1.248 2.76 1.872 3.336.936 4.944 2.184 4.944 4.512 0 2.52-1.752 4.536-5.448 4.536-3.816 0-5.712-1.848-5.712-1.848z" fill="#000"/><path d="m72 664h215c18.502 0 33.5 14.998 33.5 33.5s-14.998 33.5-33.5 33.5h-215c-18.5015 0-33.5-14.998-33.5-33.5s14.9985-33.5 33.5-33.5z" fill="#fff"/><path d="m72 664h215c18.502 0 33.5 14.998 33.5 33.5s-14.998 33.5-33.5 33.5h-215c-18.5015 0-33.5-14.998-33.5-33.5s14.9985-33.5 33.5-33.5z" stroke="#29b5e8" stroke-width="3"/><path d="m114.271 691.1v14.4h-2.232l-7.608-9.336v9.336h-2.904v-14.4h2.232l7.608 9.24v-9.24zm9.695 14.736c-4.344 0-7.296-3.384-7.296-7.536s2.952-7.512 7.296-7.512c4.392 0 7.32 3.36 7.32 7.512s-2.928 7.536-7.32 7.536zm0-2.808c2.52 0 4.32-1.992 4.32-4.728s-1.8-4.728-4.32-4.728c-2.472 0-4.272 1.992-4.272 4.728s1.8 4.728 4.272 4.728zm8.145-9.384v-2.544h11.472v2.544h-4.296v11.856h-2.904v-11.856zm16.593-2.544v14.4h-2.904v-14.4zm12.475 5.952v2.352h-6.288v6.096h-2.904v-14.4h10.416v2.544h-7.512v3.408zm6.556-5.952v14.4h-2.904v-14.4zm12.98 10.704 1.68 2.232s-1.536 1.8-4.872 1.8c-4.536 0-7.344-3.384-7.344-7.536s2.808-7.512 7.344-7.512c3.336 0 4.872 1.776 4.872 1.776l-1.68 2.232s-1.104-1.224-3.168-1.224c-2.568 0-4.368 1.992-4.368 4.728s1.8 4.752 4.368 4.752c2.064 0 3.168-1.248 3.168-1.248zm10.696-10.704 5.712 14.4h-3.096l-1.032-2.784h-6.216l-1.032 2.784h-3.096l5.712-14.4zm-1.536 3.216-2.232 6.048h4.488zm6.197-.672v-2.544h11.472v2.544h-4.296v11.856h-2.904v-11.856zm16.593-2.544v14.4h-2.904v-14.4zm9.715 14.736c-4.344 0-7.296-3.384-7.296-7.536s2.952-7.512 7.296-7.512c4.392 0 7.32 3.36 7.32 7.512s-2.928 7.536-7.32 7.536zm0-2.808c2.52 0 4.32-1.992 4.32-4.728s-1.8-4.728-4.32-4.728c-2.472 0-4.272 1.992-4.272 4.728s1.8 4.728 4.272 4.728zm22.484-11.928v14.4h-2.232l-7.608-9.336v9.336h-2.904v-14.4h2.232l7.608 9.24v-9.24zm2.352 12.864 1.584-2.208s1.848 1.392 4.032 1.392c1.536 0 2.208-.648 2.208-1.608 0-.936-.552-1.416-2.88-2.112-3.12-.912-4.752-2.064-4.752-4.368 0-2.52 1.824-4.272 5.4-4.272 3.744 0 5.208 1.488 5.208 1.488l-1.56 2.376s-1.44-1.2-3.648-1.2c-1.416 0-2.136.552-2.136 1.44 0 .864.72 1.248 2.76 1.872 3.336.936 4.944 2.184 4.944 4.512 0 2.52-1.752 4.536-5.448 4.536-3.816 0-5.712-1.848-5.712-1.848z" fill="#000"/><g filter="url(#b)"><ellipse cx="926.346" cy="149" fill="#d4f0fa" rx="60" ry="60"/><path d="m926.346 90.5c32.308 0 58.5 26.191 58.5 58.5s-26.192 58.5-58.5 58.5c-32.309 0-58.5-26.191-58.5-58.5s26.191-58.5 58.5-58.5z" stroke="#29b5e8" stroke-width="3"/></g><path d="m929.483 133.543v-.922h11.532c.532 2.213 2.524 3.873 4.912 3.873 2.796 0 5.073-2.262 5.073-5.041s-2.277-5.042-5.073-5.042c-2.561 0-4.665 1.906-4.999 4.365h-12.385c-.508 0-.928.419-.928.923v1.598c-.594-.049-1.176-.086-1.745-.086v-3.886h12.212c.508 0 .928-.418.928-.922v-3.258c2.351-.431 4.145-2.484 4.145-4.944 0-2.779-2.276-5.041-5.073-5.041-2.796 0-5.073 2.262-5.073 5.041 0 2.46 1.795 4.513 4.145 4.944v2.336h-12.212c-.507 0-.928.418-.928.922v4.857c-.643.037-1.274.086-1.905.16v-5.004c0-.505-.421-.923-.928-.923h-2.896v-2.508c2.351-.431 4.145-2.484 4.145-4.943 0-2.779-2.276-5.042-5.073-5.042-2.796 0-5.073 2.263-5.073 5.042 0 2.459 1.794 4.512 4.145 4.943v3.431c0 .504.421.922.928.922h2.896v4.34c-.668.111-1.337.246-1.992.394l.037-2.496c0-.246-.099-.48-.273-.664-.173-.172-.408-.271-.655-.271h-10.369v-2.176c2.351-.431 4.145-2.484 4.145-4.943 0-2.78-2.277-5.042-5.073-5.042s-5.073 2.262-5.073 5.042c0 2.459 1.794 4.512 4.145 4.943v3.098c0 .505.421.923.928.923h10.356l-.024 2.066c-5.061 1.463-9.429 4.082-12.138 7.451-2.389 2.964-3.255 6.21-2.537 9.395 1.472 6.456 6.088 9.333 14.477 9.013h.247v2.189h-6.459c-.507 0-.928.418-.928.922v2.509c-2.351.43-4.145 2.484-4.145 4.943 0 2.779 2.277 5.042 5.073 5.042 2.797 0 5.073-2.263 5.073-5.042 0-2.459-1.794-4.513-4.145-4.943v-1.587h6.459c.507 0 .928-.418.928-.922v-3.148c.631 0 1.299 0 1.967.025v12.555c-2.412.381-4.268 2.447-4.268 4.955 0 2.779 2.276 5.042 5.073 5.042 2.796 0 5.073-2.263 5.073-5.042 0-2.422-1.72-4.439-4.022-4.918v-12.518c.644.037 1.287.073 1.893.135v9.763c0 .505.421.923.928.923h8.959v1.721c-2.351.431-4.145 2.484-4.145 4.943 0 2.779 2.276 5.042 5.073 5.042 2.796 0 5.073-2.263 5.073-5.042 0-2.459-1.794-4.512-4.145-4.943v-2.644c0-.504-.421-.922-.928-.922h-8.959v-8.607c3.032.504 4.48 1.561 4.48 5.312 0 .848.692 1.537 1.546 1.537h5.568c.841 0 1.534-.664 1.547-1.513 0 0 .049-2.656.049-3.529 0-1.549.978-2.803 2.166-2.803 5.271 0 8.537-3.087 8.537-8.067 0-8.46-10.604-16.465-20.304-18.199zm16.444-4.058c1.089 0 1.98.886 1.98 1.968s-.891 1.967-1.98 1.967-1.98-.885-1.98-1.967.891-1.968 1.98-1.968zm-9.812-9.296c0-1.082.891-1.967 1.98-1.967s1.979.885 1.979 1.967-.89 1.968-1.979 1.968-1.98-.886-1.98-1.968zm-20.713-.172c0-1.082.891-1.967 1.98-1.967s1.98.885 1.98 1.967-.891 1.967-1.98 1.967-1.98-.885-1.98-1.967zm-11.296 3.48c0-1.082.891-1.968 1.979-1.968 1.089 0 1.98.886 1.98 1.968s-.891 1.967-1.98 1.967c-1.088 0-1.979-.885-1.979-1.967zm7.869 47.44c0 1.082-.891 1.968-1.98 1.968s-1.979-.886-1.979-1.968.89-1.967 1.979-1.967 1.98.885 1.98 1.967zm11.086 6.923c0 1.082-.89 1.967-1.979 1.967s-1.98-.885-1.98-1.967.891-1.967 1.98-1.967 1.979.885 1.979 1.967zm13.759.049c0 1.082-.891 1.968-1.979 1.968-1.089 0-1.98-.886-1.98-1.968s.891-1.967 1.98-1.967c1.088 0 1.979.885 1.979 1.967zm-20.725-20.609c-4.083.148-6.644-.529-8.327-1.66 1.151-1.168 2.363-2.25 3.935-2.25.507 0 .928-.418.928-.922 0-.505-.421-.923-.928-.923-2.326 0-3.972 1.501-5.308 2.853-.891-1.082-1.349-2.385-1.658-3.726-.644-2.816.693-5.25 1.93-6.787.47-.578.99-1.132 1.559-1.66.742.836 1.509 1.524 2.202 2.151 1.473 1.329 2.537 2.288 2.76 3.899.061.467.457.799.915.799h.124c.507-.074.866-.529.792-1.033-.31-2.275-1.782-3.603-3.353-5.017-.668-.603-1.349-1.23-2.005-1.955 1.881-1.378 4.158-2.509 6.657-3.32.049 3.848.396 6.332 1.101 8.288.606 1.66 2.462 3.996 4.368 5.926-.817 1.119-1.547 2.644-1.943 5.313-1.373-.025-2.672 0-3.773.036zm25.155-.578c-1.547 0-2.908.726-3.873 1.882-2.598-1.943-4.058-3.542-4.355-4.747-.124-.492-.619-.799-1.114-.676s-.804.615-.68 1.107c.507 2.115 2.982 4.266 5.209 5.914-.285.726-.446 1.537-.446 2.398 0 .418 0 1.23-.024 1.955h-2.586c-.607-5.275-4.405-6.48-7.758-6.923-1.188-.16-2.537-.258-3.873-.32.346-2.139.928-3.332 1.423-4.082 1.348 1.193 2.573 2.029 3.254 2.103h.099c.47 0 .891-.345.94-.824.05-.504-.297-.959-.804-1.008-1.039-.283-6.409-5.226-7.461-8.116-.668-1.832-.965-4.267-1.002-8.19 1.806-.455 3.687-.75 5.63-.873-.075 1.574-.075 3.751.532 4.488.185.234.482.369.767.369.198 0 .396-.061.556-.184.396-.32.483-.861.161-1.267-.123-.27-.272-1.549-.161-3.467h.087c2.363 0 4.85.516 7.226 1.389-.025 1.316.124 2.423.247 3.37l.087.676c.05.443-.025.541-.025.541-.024.024-.185.111-.581.098-.705 0-1.745-.049-2.673-.086-.866-.037-1.621-.061-1.918-.061-1.831 0-2.474.578-2.66 2.373-.185 1.795.21 3.91.334 4.525.087.43.483.738.903.738.062 0 .124 0 .186-.025.507-.098.829-.59.718-1.094-.235-1.119-.433-2.742-.31-3.972.05-.516.124-.676.075-.652.049-.012.198-.061.742-.061.285 0 1.015.024 1.844.061.94.037 1.992.074 2.709.086.879.025 1.559-.221 1.992-.7.57-.628.557-1.439.483-1.992l-.087-.701c-.099-.714-.185-1.488-.222-2.349 3.043 1.389 5.84 3.357 7.943 5.546-.94 1.672-3.254 4.144-8.785 3.996-.458.025-.94.394-.952.898 0 .504.395.934.903.947h.47c.718 0 1.361-.05 1.992-.123.037.885.124 2.152.285 2.938.086.443.482.738.903.738.062 0 .124 0 .185-.024.508-.099.829-.591.718-1.082-.148-.751-.223-2.066-.26-2.902 3.106-.787 4.838-2.484 5.803-3.935 1.609 2.053 2.599 4.23 2.599 6.296 0 3.307-1.832 4.992-5.445 4.992z" fill="#29b5e8"/><path d="m1019.34 135.142-2.9-7.515c-.09-.224-.18-.482-.27-.774-.1-.301-.19-.619-.27-.954-.18.696-.37 1.276-.56 1.74l-2.9 7.503zm5.21 6.858h-1.94c-.22 0-.4-.056-.54-.168-.14-.111-.24-.253-.31-.425l-1.72-4.46h-8.29l-1.73 4.46c-.05.155-.15.292-.3.413-.14.12-.32.18-.54.18h-1.93l7.38-18.473h2.53zm4.93 0h-2.5v-18.473h2.5zm-2.88 23.77c0 1.384-.22 2.656-.66 3.816-.44 1.151-1.06 2.144-1.86 2.978-.8.833-1.76 1.482-2.88 1.946-1.12.456-2.36.683-3.72.683s-2.59-.227-3.71-.683c-1.12-.464-2.08-1.113-2.87-1.946-.8-.834-1.42-1.827-1.86-2.978-.44-1.16-.66-2.432-.66-3.816s.22-2.651.66-3.803c.44-1.16 1.06-2.157 1.86-2.99.79-.843 1.75-1.496 2.87-1.96s2.35-.696 3.71-.696 2.6.232 3.72.696 2.08 1.117 2.88 1.96c.8.833 1.42 1.83 1.86 2.99.44 1.152.66 2.419.66 3.803zm-2.57 0c0-1.134-.15-2.153-.46-3.055s-.75-1.663-1.32-2.282c-.56-.627-1.25-1.108-2.06-1.444-.81-.335-1.71-.502-2.71-.502-.99 0-1.88.167-2.69.502-.81.336-1.5.817-2.08 1.444-.56.619-1 1.38-1.31 2.282s-.47 1.921-.47 3.055.16 2.153.47 3.055c.31.894.75 1.655 1.31 2.282.58.619 1.27 1.096 2.08 1.431.81.326 1.7.49 2.69.49 1 0 1.9-.164 2.71-.49.81-.335 1.5-.812 2.06-1.431.57-.627 1.01-1.388 1.32-2.282.31-.902.46-1.921.46-3.055zm7.66 6.085c.42.567.88.966 1.38 1.198.51.233 1.06.349 1.66.349 1.23 0 2.17-.434 2.82-1.302.66-.868.98-2.162.98-3.881 0-1.598-.29-2.771-.87-3.519-.58-.756-1.4-1.134-2.48-1.134-.75 0-1.4.172-1.96.515-.55.344-1.06.83-1.53 1.457zm0-8.031c.55-.636 1.17-1.143 1.86-1.522.69-.378 1.49-.567 2.39-.567.77 0 1.46.146 2.07.439.61.292 1.14.717 1.57 1.276.43.55.75 1.22.98 2.011.23.79.35 1.68.35 2.668 0 1.057-.13 2.02-.39 2.888s-.63 1.611-1.12 2.23c-.48.61-1.07 1.087-1.77 1.431-.69.335-1.48.502-2.34.502s-1.59-.159-2.18-.476c-.59-.327-1.1-.787-1.54-1.38l-.11 1.186c-.07.327-.27.49-.6.49h-1.48v-18.988h2.31zm19.72.27c-.1.189-.26.284-.47.284-.13 0-.28-.047-.44-.142-.16-.094-.37-.198-.61-.309-.23-.121-.51-.228-.84-.323-.32-.103-.71-.154-1.16-.154-.38 0-.73.051-1.04.154-.31.095-.58.228-.8.4-.21.172-.38.374-.5.606-.11.223-.17.468-.17.735 0 .335.1.614.28.838.2.223.46.416.78.58.32.163.68.309 1.08.438.4.12.82.254 1.24.4.43.137.84.292 1.25.464.4.172.76.386 1.08.644s.57.576.76.954c.2.37.3.817.3 1.341 0 .601-.11 1.16-.32 1.676-.22.507-.54.949-.96 1.327-.42.37-.93.662-1.54.877s-1.32.322-2.12.322c-.91 0-1.73-.146-2.47-.438-.74-.301-1.37-.683-1.89-1.147l.55-.877c.06-.112.15-.198.24-.258.1-.06.22-.09.36-.09.16 0 .32.06.49.181.17.12.38.253.62.399.25.146.55.279.9.4.35.12.79.18 1.32.18.44 0 .84-.056 1.17-.167.34-.121.61-.28.84-.477.22-.198.39-.426.49-.684.11-.257.17-.532.17-.825 0-.361-.1-.657-.3-.889-.19-.241-.44-.443-.76-.606-.32-.172-.68-.318-1.1-.438-.4-.129-.82-.262-1.25-.4-.42-.137-.84-.292-1.25-.464-.4-.18-.76-.404-1.08-.67-.32-.267-.58-.593-.77-.98-.19-.395-.29-.872-.29-1.431 0-.498.11-.975.31-1.431.21-.464.51-.868.9-1.211.4-.353.88-.632 1.46-.838.58-.207 1.23-.31 1.97-.31.86 0 1.63.138 2.31.413.69.266 1.28.636 1.78 1.108zm12.29 2.952c0-.533-.08-1.018-.23-1.456-.15-.447-.37-.83-.66-1.148-.28-.326-.63-.575-1.04-.747-.41-.181-.88-.271-1.41-.271-1.1 0-1.97.322-2.61.967-.64.636-1.03 1.521-1.19 2.655zm1.86 6.123c-.29.344-.62.645-1.02.903-.4.249-.82.455-1.28.619-.44.163-.91.283-1.39.361-.48.086-.96.128-1.43.128-.9 0-1.74-.15-2.5-.451-.76-.309-1.41-.756-1.97-1.34-.55-.593-.98-1.324-1.29-2.192s-.47-1.865-.47-2.991c0-.91.14-1.761.42-2.552s.68-1.474 1.21-2.05c.52-.584 1.16-1.039 1.92-1.366.76-.335 1.61-.503 2.55-.503.78 0 1.51.133 2.17.4.67.258 1.24.636 1.72 1.134.49.49.88 1.1 1.15 1.831.28.722.41 1.547.41 2.475 0 .361-.03.601-.11.722-.08.12-.22.18-.44.18h-8.73c.03.825.14 1.543.34 2.153s.49 1.121.85 1.534c.36.404.79.709 1.29.915.5.198 1.06.297 1.67.297.58 0 1.07-.065 1.49-.194.42-.137.78-.283 1.08-.438s.55-.296.75-.425c.2-.138.38-.207.53-.207.18 0 .33.073.43.22zm5.2-8.611c.41-.893.92-1.59 1.52-2.088.6-.507 1.34-.761 2.21-.761.27 0 .53.031.78.091.26.06.49.154.69.283l-.17 1.715c-.05.215-.18.322-.39.322-.12 0-.29-.026-.53-.077-.23-.052-.49-.078-.78-.078-.42 0-.78.061-1.11.181-.32.12-.61.301-.86.541-.25.232-.48.524-.69.877-.2.344-.38.739-.54 1.186v8.25h-2.31v-13.059h1.32c.25 0 .42.048.51.142.1.095.16.258.2.49zm18.4-2.617-5.32 13.059h-2.06l-5.33-13.059h1.87c.19 0 .35.048.47.142.12.095.2.207.24.335l3.31 8.405c.11.318.2.628.27.928.08.301.16.602.22.903.07-.301.15-.602.22-.903.08-.3.18-.61.29-.928l3.35-8.405c.05-.137.14-.249.26-.335.12-.094.26-.142.42-.142zm8.91 7.181c-1.06.034-1.96.12-2.71.258-.74.128-1.34.3-1.82.515-.46.215-.8.469-1.01.761s-.31.619-.31.979c0 .344.05.641.16.89s.27.455.45.619c.2.154.43.27.69.348.26.069.55.103.85.103.4 0 .77-.039 1.11-.116.33-.086.65-.206.94-.361.3-.155.58-.34.85-.554.27-.215.54-.46.8-.735zm-7.41-5.337c.72-.696 1.5-1.216 2.33-1.56s1.76-.516 2.77-.516c.73 0 1.38.121 1.95.361.56.241 1.04.576 1.43 1.006.38.43.68.95.87 1.56.2.61.3 1.28.3 2.011v8.353h-1.02c-.22 0-.39-.034-.51-.103-.12-.077-.22-.224-.29-.438l-.25-1.238c-.35.318-.68.602-1.01.851-.33.24-.67.447-1.03.619-.36.163-.75.288-1.16.373-.41.095-.86.142-1.35.142-.51 0-.99-.068-1.44-.206-.44-.146-.83-.361-1.17-.645-.33-.283-.59-.64-.79-1.069-.18-.439-.28-.954-.28-1.547 0-.516.14-1.01.43-1.483.28-.481.74-.907 1.38-1.276.63-.37 1.46-.67 2.48-.902 1.03-.241 2.28-.379 3.77-.413v-1.018c0-1.014-.22-1.779-.66-2.295-.44-.524-1.08-.786-1.92-.786-.57 0-1.04.073-1.43.219-.38.137-.71.296-.99.477-.28.172-.52.331-.73.477-.19.137-.39.206-.59.206-.15 0-.29-.039-.4-.116-.11-.086-.2-.189-.28-.309zm15.45 8.07c.43.567.88.966 1.38 1.198.51.233 1.06.349 1.67.349 1.23 0 2.17-.434 2.82-1.302s.98-2.162.98-3.881c0-1.598-.29-2.771-.88-3.519-.57-.756-1.4-1.134-2.47-1.134-.75 0-1.4.172-1.96.515-.55.344-1.06.83-1.54 1.457zm0-8.031c.55-.636 1.17-1.143 1.86-1.522.7-.378 1.5-.567 2.4-.567.76 0 1.45.146 2.06.439.62.292 1.14.717 1.57 1.276.43.55.76 1.22.98 2.011.23.79.35 1.68.35 2.668 0 1.057-.13 2.02-.39 2.888-.25.868-.63 1.611-1.12 2.23-.48.61-1.07 1.087-1.76 1.431-.7.335-1.48.502-2.35.502-.86 0-1.59-.159-2.18-.476-.58-.327-1.09-.787-1.53-1.38l-.12 1.186c-.07.327-.26.49-.59.49h-1.48v-18.988h2.3zm14.55-1.883v13.059h-2.3v-13.059zm.49-4.099c0 .224-.05.434-.15.632-.08.189-.2.361-.36.515-.14.147-.32.263-.52.349-.2.085-.41.128-.64.128-.22 0-.43-.043-.63-.128-.19-.086-.35-.202-.5-.349-.15-.154-.26-.326-.35-.515-.08-.198-.13-.408-.13-.632 0-.223.05-.434.13-.631.09-.207.2-.383.35-.529.15-.155.31-.275.5-.361.2-.086.41-.129.63-.129.23 0 .44.043.64.129s.38.206.52.361c.16.146.28.322.36.529.1.197.15.408.15.631zm5.65-1.83v18.988h-2.3v-18.988zm6.14 5.929v13.059h-2.29v-13.059zm.49-4.099c0 .224-.04.434-.14.632-.08.189-.2.361-.36.515-.15.147-.32.263-.53.349-.2.085-.41.128-.63.128s-.43-.043-.63-.128c-.19-.086-.36-.202-.5-.349-.15-.154-.27-.326-.35-.515-.09-.198-.13-.408-.13-.632 0-.223.04-.434.13-.631.08-.207.2-.383.35-.529.14-.155.31-.275.5-.361.2-.086.41-.129.63-.129s.43.043.63.129c.21.086.38.206.53.361.16.146.28.322.36.529.1.197.14.408.14.631zm7.29 17.364c-1.03 0-1.82-.288-2.38-.863-.55-.576-.83-1.406-.83-2.488v-7.993h-1.57c-.14 0-.25-.038-.35-.116-.09-.086-.14-.215-.14-.387v-.915l2.14-.27.53-4.035c.02-.129.08-.232.17-.31.09-.086.21-.129.36-.129h1.16v4.499h3.77v1.663h-3.77v7.838c0 .55.13.958.4 1.225.26.266.61.399 1.03.399.24 0 .45-.03.62-.09.18-.069.33-.142.46-.219.13-.078.24-.146.32-.206.1-.069.18-.104.25-.104.12 0 .23.073.32.22l.67 1.095c-.39.37-.87.662-1.43.877-.56.206-1.13.309-1.73.309zm16.5-13.265-7.28 16.913c-.08.172-.18.31-.3.413-.11.103-.29.155-.53.155h-1.7l2.39-5.183-5.39-12.298h1.98c.2 0 .35.052.47.155.12.095.2.202.24.322l3.49 8.225c.14.361.26.739.35 1.134.12-.404.25-.786.39-1.147l3.39-8.212c.05-.137.14-.249.26-.335.13-.094.27-.142.42-.142z" fill="#666"/><g filter="url(#c)"><ellipse cx="926.346" cy="316.59" fill="#d4f0fa" rx="60" ry="60"/><path d="m926.346 258.09c32.308 0 58.5 26.191 58.5 58.5s-26.192 58.5-58.5 58.5c-32.309 0-58.5-26.191-58.5-58.5s26.191-58.5 58.5-58.5z" stroke="#29b5e8" stroke-width="3"/></g><path clip-rule="evenodd" d="m952.029 306.729h-51.673v-4.363c0-1.85 1.494-3.344 3.345-3.344h44.984c1.85 0 3.344 1.494 3.344 3.344zm0 23.528c0 1.85-1.494 3.344-3.344 3.344h-44.984c-1.851 0-3.345-1.494-3.345-3.344v-20.523h51.673zm-3.344-35.92h-44.984c-4.448 0-8.047 3.599-8.047 8.046v27.891c0 4.447 3.599 8.046 8.047 8.046h44.984c4.448 0 8.046-3.599 8.046-8.046v-27.908c0-4.447-3.598-8.046-8.046-8.046z" fill="#29b5e8" fill-rule="evenodd"/><path clip-rule="evenodd" d="m904.889 301.212c-.9-.034-1.664.679-1.698 1.579-.034.899.679 1.663 1.579 1.697s1.664-.679 1.698-1.578c0-.017 0-.034 0-.051 0-.883-.696-1.613-1.579-1.63z" fill="#29b5e8" fill-rule="evenodd"/><path clip-rule="evenodd" d="m910.032 301.212c-.899 0-1.629.73-1.629 1.63 0 .899.73 1.629 1.629 1.629.9 0 1.63-.73 1.63-1.629 0-.9-.73-1.63-1.63-1.63z" fill="#29b5e8" fill-rule="evenodd"/><path clip-rule="evenodd" d="m928.502 313.723c-.73-.221-1.494.187-1.715.899v.051l-3.921 13.835c-.204.747.22 1.511.95 1.732.136.017.272.017.391 0 .628 0 1.188-.408 1.358-1.019l3.921-13.733c.238-.73-.17-1.511-.9-1.748-.017 0-.051 0-.068-.017z" fill="#29b5e8" fill-rule="evenodd"/><path clip-rule="evenodd" d="m941.522 322.703v-.527s0-.067 0-.101v-.204l-7.554-6.519c-.595-.509-1.477-.424-1.987.17-.509.594-.424 1.477.17 1.986.034.034.068.068.119.085l5.738 4.363-5.738 4.379c-.56.459-.679 1.274-.255 1.885.272.339.679.543 1.104.543.305 0 .611-.102.866-.289l7.197-5.483.357-.288z" fill="#29b5e8" fill-rule="evenodd"/><path clip-rule="evenodd" d="m920.421 315.641c-.475-.628-1.358-.747-1.969-.289l-7.197 5.5v.204.102.526l7.197 6.824c.255.187.56.289.866.289.441 0 .849-.204 1.103-.543.408-.594.289-1.409-.254-1.885l-5.636-4.379 5.636-4.363c.628-.475.747-1.358.271-1.969 0 0 0 0 0-.017z" fill="#29b5e8" fill-rule="evenodd"/><path d="m1019.34 302.732-2.9-7.515c-.09-.224-.18-.482-.27-.774-.1-.301-.19-.619-.27-.954-.18.696-.37 1.276-.56 1.74l-2.9 7.503zm5.21 6.858h-1.94c-.22 0-.4-.056-.54-.168-.14-.111-.24-.253-.31-.425l-1.72-4.46h-8.29l-1.73 4.46c-.05.155-.15.292-.3.413-.14.12-.32.18-.54.18h-1.93l7.38-18.473h2.53zm4.14-3.145c.42.567.88.966 1.38 1.198.5.233 1.06.349 1.68.349 1.22 0 2.15-.434 2.81-1.302.65-.868.98-2.106.98-3.713 0-.851-.08-1.581-.23-2.192-.15-.61-.37-1.108-.65-1.495-.28-.395-.63-.683-1.04-.864-.42-.18-.88-.27-1.41-.27-.75 0-1.4.172-1.97.515-.56.344-1.07.83-1.55 1.457zm-.11-7.89c.55-.679 1.18-1.224 1.9-1.637.73-.412 1.55-.619 2.48-.619.76 0 1.44.147 2.05.439.61.283 1.13.709 1.56 1.276.43.559.76 1.255.99 2.088.23.834.35 1.792.35 2.875 0 .962-.13 1.861-.39 2.694-.25.825-.63 1.543-1.12 2.153-.48.602-1.07 1.078-1.78 1.431-.69.344-1.48.515-2.36.515-.8 0-1.48-.133-2.06-.399-.57-.275-1.07-.653-1.51-1.135v5.776h-2.3v-17.481h1.37c.33 0 .53.159.61.477zm14.56 7.89c.43.567.89.966 1.38 1.198.5.233 1.06.349 1.68.349 1.22 0 2.16-.434 2.81-1.302s.98-2.106.98-3.713c0-.851-.08-1.581-.23-2.192-.15-.61-.36-1.108-.65-1.495-.28-.395-.63-.683-1.04-.864-.41-.18-.88-.27-1.41-.27-.74 0-1.4.172-1.97.515-.56.344-1.07.83-1.55 1.457zm-.11-7.89c.55-.679 1.18-1.224 1.91-1.637.72-.412 1.54-.619 2.47-.619.76 0 1.44.147 2.05.439.61.283 1.13.709 1.56 1.276.43.559.76 1.255.99 2.088.24.834.35 1.792.35 2.875 0 .962-.13 1.861-.38 2.694-.26.825-.64 1.543-1.13 2.153-.48.602-1.07 1.078-1.78 1.431-.69.344-1.48.515-2.35.515-.8 0-1.49-.133-2.07-.399-.56-.275-1.07-.653-1.51-1.135v5.776h-2.3v-17.481h1.38c.32 0 .53.159.6.477zm14.63-7.953v18.988h-2.29v-18.988zm6.15 5.929v13.059h-2.3v-13.059zm.49-4.099c0 .224-.05.434-.15.632-.08.189-.2.361-.36.515-.14.147-.32.263-.53.349-.19.085-.4.128-.63.128-.22 0-.43-.043-.63-.128-.19-.086-.36-.202-.5-.349-.15-.154-.26-.326-.35-.515-.09-.198-.13-.408-.13-.632 0-.223.04-.434.13-.632.09-.206.2-.382.35-.528.14-.155.31-.275.5-.361.2-.086.41-.129.63-.129.23 0 .44.043.63.129.21.086.39.206.53.361.16.146.28.322.36.528.1.198.15.409.15.632zm12.36 6.42c-.06.094-.13.167-.2.219s-.17.077-.29.077-.27-.051-.42-.154c-.16-.112-.35-.232-.58-.361-.22-.129-.5-.245-.84-.348-.33-.112-.73-.168-1.21-.168-.65 0-1.21.116-1.7.348-.49.224-.91.55-1.24.98s-.58.949-.75 1.56c-.16.61-.24 1.293-.24 2.049 0 .791.09 1.496.27 2.114.18.611.43 1.126.76 1.547.33.413.73.731 1.2.954.47.215 1 .323 1.58.323.56 0 1.02-.065 1.38-.194.36-.137.66-.288.89-.451.24-.163.44-.309.59-.438.17-.138.33-.207.48-.207.19 0 .34.073.44.22l.64.837c-.28.353-.6.654-.96.903s-.75.46-1.18.632c-.41.163-.84.283-1.3.36-.45.078-.92.116-1.39.116-.82 0-1.58-.15-2.28-.451s-1.3-.734-1.82-1.302c-.51-.575-.92-1.28-1.21-2.114-.29-.833-.44-1.783-.44-2.849 0-.971.13-1.869.4-2.694.28-.825.67-1.534 1.19-2.127.52-.601 1.16-1.07 1.92-1.405s1.64-.503 2.63-.503c.92 0 1.72.151 2.42.451.71.293 1.33.709 1.87 1.251zm10.3 4.86c-1.05.034-1.95.12-2.7.258-.74.128-1.35.3-1.82.515-.46.215-.8.469-1.02.761-.2.292-.31.619-.31.979 0 .344.06.641.17.89s.26.455.45.619c.2.154.43.27.68.348.27.069.55.103.86.103.4 0 .77-.039 1.1-.116.34-.086.65-.206.94-.361.31-.155.59-.34.86-.554.27-.215.54-.46.79-.735zm-7.41-5.337c.72-.696 1.5-1.216 2.34-1.56.83-.344 1.75-.516 2.77-.516.73 0 1.38.121 1.94.361.57.241 1.05.576 1.43 1.006.39.43.68.95.88 1.56s.3 1.28.3 2.011v8.353h-1.02c-.22 0-.4-.034-.52-.103-.12-.077-.21-.224-.28-.438l-.26-1.238c-.34.318-.68.602-1 .851-.33.24-.67.447-1.03.619-.37.163-.75.288-1.16.373-.41.095-.86.142-1.36.142-.51 0-.98-.069-1.43-.206-.45-.146-.84-.361-1.17-.645-.33-.283-.59-.64-.79-1.069-.19-.439-.28-.954-.28-1.547 0-.516.14-1.01.42-1.483.29-.481.75-.907 1.38-1.276.64-.37 1.47-.67 2.49-.902 1.02-.241 2.28-.379 3.76-.413v-1.018c0-1.014-.21-1.779-.65-2.295-.44-.524-1.08-.786-1.92-.786-.57 0-1.05.073-1.43.219-.38.137-.71.296-1 .477-.27.172-.51.331-.72.477-.2.137-.39.206-.59.206-.16 0-.29-.039-.4-.116-.11-.086-.21-.189-.28-.309zm16.99 11.421c-1.04 0-1.83-.288-2.39-.863-.55-.576-.82-1.406-.82-2.488v-7.993h-1.58c-.13 0-.25-.038-.34-.116-.1-.086-.15-.215-.15-.387v-.915l2.14-.27.53-4.035c.03-.129.08-.232.17-.31.09-.086.21-.129.36-.129h1.16v4.499h3.78v1.663h-3.78v7.838c0 .55.13.958.4 1.225.27.266.61.399 1.03.399.24 0 .45-.03.62-.09.18-.069.34-.142.46-.219.13-.078.24-.146.33-.206.09-.069.17-.104.24-.104.12 0 .23.073.32.22l.67 1.095c-.39.37-.87.662-1.43.877-.56.206-1.13.309-1.72.309zm7.65-13.265v13.059h-2.29v-13.059zm.49-4.099c0 .224-.05.434-.14.632-.09.189-.21.361-.36.515-.15.147-.32.263-.53.349-.2.085-.41.128-.63.128-.23 0-.44-.043-.63-.128-.19-.086-.36-.202-.51-.349-.14-.154-.26-.326-.34-.515-.09-.198-.13-.408-.13-.632 0-.223.04-.434.13-.632.08-.206.2-.382.34-.528.15-.155.32-.275.51-.361s.4-.129.63-.129c.22 0 .43.043.63.129.21.086.38.206.53.361.15.146.27.322.36.528.09.198.14.409.14.632zm8.79 3.893c.95 0 1.81.159 2.57.477.77.318 1.42.769 1.96 1.354.54.584.96 1.293 1.24 2.127.29.825.44 1.749.44 2.771 0 1.032-.15 1.96-.44 2.785-.28.825-.7 1.529-1.24 2.114-.54.584-1.19 1.035-1.96 1.353-.76.31-1.62.464-2.57.464-.97 0-1.84-.154-2.61-.464-.76-.318-1.42-.769-1.96-1.353-.54-.585-.96-1.289-1.25-2.114-.28-.825-.42-1.753-.42-2.785 0-1.022.14-1.946.42-2.771.29-.834.71-1.543 1.25-2.127.54-.585 1.2-1.036 1.96-1.354.77-.318 1.64-.477 2.61-.477zm0 11.654c1.28 0 2.25-.43 2.88-1.289.64-.868.96-2.076.96-3.623 0-1.555-.32-2.767-.96-3.635-.63-.868-1.6-1.302-2.88-1.302-.66 0-1.23.112-1.72.335-.48.224-.88.546-1.21.967-.32.421-.56.941-.72 1.56-.16.61-.23 1.302-.23 2.075 0 1.547.31 2.755.95 3.623.64.859 1.62 1.289 2.93 1.289zm11.28-9.553c.29-.318.59-.605.91-.863.31-.258.65-.477 1-.658.36-.189.74-.331 1.14-.425.4-.103.83-.155 1.3-.155.71 0 1.34.121 1.88.361.55.232 1.01.567 1.37 1.006.37.429.65.949.84 1.559.18.611.28 1.285.28 2.024v8.315h-2.31v-8.315c0-.988-.23-1.753-.68-2.294-.45-.55-1.13-.825-2.05-.825-.68 0-1.32.163-1.91.49-.58.326-1.13.769-1.62 1.327v9.617h-2.31v-13.059h1.38c.32 0 .53.159.6.477zm-98.15 34.934c0 1.384-.22 2.656-.66 3.816-.44 1.151-1.06 2.144-1.86 2.978-.8.833-1.76 1.482-2.88 1.946-1.12.456-2.36.683-3.72.683s-2.59-.227-3.71-.683c-1.12-.464-2.08-1.113-2.87-1.946-.8-.834-1.42-1.827-1.86-2.978-.44-1.16-.66-2.432-.66-3.816s.22-2.651.66-3.803c.44-1.16 1.06-2.157 1.86-2.99.79-.843 1.75-1.496 2.87-1.96s2.35-.696 3.71-.696 2.6.232 3.72.696 2.08 1.117 2.88 1.96c.8.833 1.42 1.83 1.86 2.99.44 1.152.66 2.419.66 3.803zm-2.57 0c0-1.134-.15-2.153-.46-3.055s-.75-1.663-1.32-2.282c-.56-.627-1.25-1.108-2.06-1.444-.81-.335-1.71-.502-2.71-.502-.99 0-1.88.167-2.69.502-.81.336-1.5.817-2.08 1.444-.56.619-1 1.38-1.31 2.282s-.47 1.921-.47 3.055.16 2.153.47 3.055c.31.894.75 1.655 1.31 2.282.58.619 1.27 1.096 2.08 1.431.81.326 1.7.49 2.69.49 1 0 1.9-.164 2.71-.49.81-.335 1.5-.812 2.06-1.431.57-.627 1.01-1.388 1.32-2.282.31-.902.46-1.921.46-3.055zm7.66 6.085c.42.567.88.966 1.38 1.198.51.233 1.06.349 1.66.349 1.23 0 2.17-.434 2.82-1.302.66-.868.98-2.162.98-3.881 0-1.598-.29-2.771-.87-3.519-.58-.756-1.4-1.134-2.48-1.134-.75 0-1.4.172-1.96.515-.55.344-1.06.83-1.53 1.457zm0-8.031c.55-.636 1.17-1.143 1.86-1.522.69-.378 1.49-.567 2.39-.567.77 0 1.46.146 2.07.439.61.292 1.14.717 1.57 1.276.43.55.75 1.22.98 2.011.23.79.35 1.68.35 2.668 0 1.057-.13 2.02-.39 2.888s-.63 1.611-1.12 2.23c-.48.61-1.07 1.087-1.77 1.431-.69.335-1.48.502-2.34.502s-1.59-.159-2.18-.476c-.59-.327-1.1-.787-1.54-1.38l-.11 1.186c-.07.327-.27.49-.6.49h-1.48v-18.988h2.31zm19.72.27c-.1.189-.26.284-.47.284-.13 0-.28-.047-.44-.142-.16-.094-.37-.198-.61-.309-.23-.121-.51-.228-.84-.323-.32-.103-.71-.154-1.16-.154-.38 0-.73.051-1.04.154-.31.095-.58.228-.8.4-.21.172-.38.374-.5.606-.11.223-.17.468-.17.735 0 .335.1.614.28.838.2.223.46.416.78.58.32.163.68.309 1.08.438.4.12.82.253 1.24.4.43.137.84.292 1.25.464.4.172.76.386 1.08.644s.57.576.76.954c.2.37.3.817.3 1.341 0 .601-.11 1.16-.32 1.676-.22.507-.54.949-.96 1.327-.42.37-.93.662-1.54.877s-1.32.322-2.12.322c-.91 0-1.73-.146-2.47-.438-.74-.301-1.37-.683-1.89-1.147l.55-.877c.06-.112.15-.198.24-.258.1-.06.22-.09.36-.09.16 0 .32.06.49.18.17.121.38.254.62.4.25.146.55.279.9.4.35.12.79.18 1.32.18.44 0 .84-.056 1.17-.167.34-.121.61-.28.84-.477.22-.198.39-.426.49-.684.11-.257.17-.532.17-.825 0-.361-.1-.657-.3-.889-.19-.241-.44-.443-.76-.606-.32-.172-.68-.318-1.1-.438-.4-.129-.82-.262-1.25-.4-.42-.137-.84-.292-1.25-.464-.4-.18-.76-.404-1.08-.67-.32-.267-.58-.593-.77-.98-.19-.395-.29-.872-.29-1.431 0-.498.11-.975.31-1.431.21-.464.51-.868.9-1.211.4-.353.88-.632 1.46-.838.58-.207 1.23-.31 1.97-.31.86 0 1.63.138 2.31.413.69.266 1.28.636 1.78 1.108zm12.29 2.952c0-.533-.08-1.018-.23-1.456-.15-.447-.37-.83-.66-1.148-.28-.326-.63-.575-1.04-.747-.41-.181-.88-.271-1.41-.271-1.1 0-1.97.322-2.61.967-.64.636-1.03 1.521-1.19 2.655zm1.86 6.123c-.29.344-.62.645-1.02.903-.4.249-.82.455-1.28.619-.44.163-.91.283-1.39.361-.48.085-.96.128-1.43.128-.9 0-1.74-.15-2.5-.451-.76-.309-1.41-.756-1.97-1.34-.55-.593-.98-1.324-1.29-2.192s-.47-1.865-.47-2.991c0-.91.14-1.761.42-2.552s.68-1.474 1.21-2.05c.52-.584 1.16-1.039 1.92-1.366.76-.335 1.61-.503 2.55-.503.78 0 1.51.133 2.17.4.67.258 1.24.636 1.72 1.134.49.49.88 1.1 1.15 1.831.28.722.41 1.547.41 2.475 0 .361-.03.601-.11.722-.08.12-.22.18-.44.18h-8.73c.03.825.14 1.543.34 2.153s.49 1.121.85 1.534c.36.404.79.709 1.29.915.5.198 1.06.297 1.67.297.58 0 1.07-.065 1.49-.194.42-.137.78-.283 1.08-.438s.55-.296.75-.425c.2-.138.38-.207.53-.207.18 0 .33.073.43.22zm5.2-8.611c.41-.893.92-1.59 1.52-2.088.6-.507 1.34-.761 2.21-.761.27 0 .53.031.78.091.26.06.49.154.69.283l-.17 1.715c-.05.215-.18.322-.39.322-.12 0-.29-.026-.53-.077-.23-.052-.49-.078-.78-.078-.42 0-.78.061-1.11.181-.32.12-.61.301-.86.541-.25.232-.48.524-.69.877-.2.344-.38.739-.54 1.186v8.25h-2.31v-13.059h1.32c.25 0 .42.048.51.142.1.095.16.258.2.49zm18.4-2.617-5.32 13.059h-2.06l-5.33-13.059h1.87c.19 0 .35.048.47.142.12.095.2.207.24.335l3.31 8.405c.11.318.2.628.27.928.08.301.16.602.22.903.07-.301.15-.602.22-.903.08-.3.18-.61.29-.928l3.35-8.405c.05-.137.14-.249.26-.335.12-.094.26-.142.42-.142zm8.91 7.181c-1.06.034-1.96.12-2.71.258-.74.128-1.34.3-1.82.515-.46.215-.8.469-1.01.761s-.31.619-.31.979c0 .344.05.641.16.89s.27.455.45.619c.2.154.43.27.69.348.26.069.55.103.85.103.4 0 .77-.039 1.11-.116.33-.086.65-.206.94-.361.3-.155.58-.34.85-.554.27-.215.54-.46.8-.735zm-7.41-5.337c.72-.696 1.5-1.216 2.33-1.56s1.76-.516 2.77-.516c.73 0 1.38.121 1.95.361.56.241 1.04.576 1.43 1.006.38.43.68.95.87 1.56.2.61.3 1.28.3 2.011v8.353h-1.02c-.22 0-.39-.034-.51-.103-.12-.077-.22-.224-.29-.438l-.25-1.238c-.35.318-.68.602-1.01.851-.33.24-.67.447-1.03.619-.36.163-.75.288-1.16.373-.41.095-.86.142-1.35.142-.51 0-.99-.069-1.44-.206-.44-.146-.83-.361-1.17-.645-.33-.283-.59-.64-.79-1.069-.18-.439-.28-.954-.28-1.547 0-.516.14-1.01.43-1.483.28-.481.74-.907 1.38-1.276.63-.37 1.46-.67 2.48-.902 1.03-.241 2.28-.379 3.77-.413v-1.018c0-1.014-.22-1.779-.66-2.295-.44-.524-1.08-.786-1.92-.786-.57 0-1.04.073-1.43.219-.38.137-.71.296-.99.477-.28.172-.52.331-.73.477-.19.137-.39.206-.59.206-.15 0-.29-.039-.4-.116-.11-.086-.2-.189-.28-.309zm15.45 8.07c.43.567.88.966 1.38 1.198.51.233 1.06.349 1.67.349 1.23 0 2.17-.434 2.82-1.302s.98-2.162.98-3.881c0-1.598-.29-2.771-.88-3.519-.57-.756-1.4-1.134-2.47-1.134-.75 0-1.4.172-1.96.515-.55.344-1.06.83-1.54 1.457zm0-8.031c.55-.636 1.17-1.143 1.86-1.522.7-.378 1.5-.567 2.4-.567.76 0 1.45.146 2.06.439.62.292 1.14.717 1.57 1.276.43.55.76 1.22.98 2.011.23.79.35 1.68.35 2.668 0 1.057-.13 2.02-.39 2.888-.25.868-.63 1.611-1.12 2.23-.48.61-1.07 1.087-1.76 1.431-.7.335-1.48.502-2.35.502-.86 0-1.59-.159-2.18-.476-.58-.327-1.09-.787-1.53-1.38l-.12 1.186c-.07.327-.26.49-.59.49h-1.48v-18.988h2.3zm14.55-1.883v13.059h-2.3v-13.059zm.49-4.099c0 .224-.05.434-.15.632-.08.189-.2.361-.36.515-.14.147-.32.263-.52.349-.2.085-.41.128-.64.128-.22 0-.43-.043-.63-.128-.19-.086-.35-.202-.5-.349-.15-.154-.26-.326-.35-.515-.08-.198-.13-.408-.13-.632 0-.223.05-.434.13-.632.09-.206.2-.382.35-.528.15-.155.31-.275.5-.361.2-.086.41-.129.63-.129.23 0 .44.043.64.129s.38.206.52.361c.16.146.28.322.36.528.1.198.15.409.15.632zm5.65-1.83v18.988h-2.3v-18.988zm6.14 5.929v13.059h-2.29v-13.059zm.49-4.099c0 .224-.04.434-.14.632-.08.189-.2.361-.36.515-.15.147-.32.263-.53.349-.2.085-.41.128-.63.128s-.43-.043-.63-.128c-.19-.086-.36-.202-.5-.349-.15-.154-.27-.326-.35-.515-.09-.198-.13-.408-.13-.632 0-.223.04-.434.13-.632.08-.206.2-.382.35-.528.14-.155.31-.275.5-.361.2-.086.41-.129.63-.129s.43.043.63.129c.21.086.38.206.53.361.16.146.28.322.36.528.1.198.14.409.14.632zm7.29 17.364c-1.03 0-1.82-.288-2.38-.863-.55-.576-.83-1.406-.83-2.488v-7.993h-1.57c-.14 0-.25-.038-.35-.116-.09-.086-.14-.215-.14-.387v-.915l2.14-.27.53-4.035c.02-.129.08-.232.17-.31.09-.086.21-.129.36-.129h1.16v4.499h3.77v1.663h-3.77v7.838c0 .55.13.958.4 1.225.26.266.61.399 1.03.399.24 0 .45-.03.62-.09.18-.069.33-.142.46-.219.13-.078.24-.146.32-.206.1-.069.18-.104.25-.104.12 0 .23.073.32.22l.67 1.095c-.39.37-.87.662-1.43.877-.56.206-1.13.309-1.73.309zm16.5-13.265-7.28 16.913c-.08.172-.18.31-.3.413-.11.103-.29.155-.53.155h-1.7l2.39-5.183-5.39-12.298h1.98c.2 0 .35.052.47.155.12.095.2.202.24.322l3.49 8.225c.14.361.26.739.35 1.134.12-.404.25-.786.39-1.147l3.39-8.212c.05-.137.14-.249.26-.335.13-.094.27-.142.42-.142z" fill="#666"/><g filter="url(#d)"><ellipse cx="926.346" cy="484.18" fill="#d4f0fa" rx="60" ry="60"/><path d="m926.346 425.68c32.308 0 58.5 26.191 58.5 58.5s-26.192 58.5-58.5 58.5c-32.309 0-58.5-26.191-58.5-58.5s26.191-58.5 58.5-58.5z" stroke="#29b5e8" stroke-width="3"/></g><path d="m911.589 469.071c-.702.496-.612-.343-1.199.537h-.065l-1.401 2.674c-1.315 3.191-2.048 7.503-2.048 11.729s.668 8.279 1.94 11.427l.479.919h2.954c-1.51-2.545-2.657-6.942-2.657-12.368 0-5.854 1.364-10.51 3.05-12.934h-.309z" fill="#29b5e8"/><path clip-rule="evenodd" d="m908.96 469.22c-1.207 0-2.544 1.445-3.579 3.881-1.207 2.911-1.876 6.706-1.876 10.889 0 8.408 2.846 14.769 5.455 14.769.971 0 2.082-1.09 3.029-2.898h2.951c-1.466 3.469-3.538 5.55-5.98 5.55h-9.616c-1.876 0-3.622-1.208-5.088-3.45l-1.316-2.523c-1.272-3.148-1.94-7.201-1.94-11.427s.733-8.538 2.048-11.729l1.402-2.673h.064c1.337-2.006 3.019-3.019 4.83-3.019h9.551c2.415 0 4.532 2.056 5.996 5.457h-2.91c-.918-1.78-1.994-2.805-3.021-2.805zm-9.616 0c-2.609 0-5.627 6.059-5.627 14.77 0 8.71 2.953 14.769 5.627 14.769h5.153c-2.242-3.084-3.687-8.409-3.687-14.769 0-6.361 1.445-11.73 3.687-14.77z" fill="#29b5e8" fill-rule="evenodd"/><path clip-rule="evenodd" d="m924.712 472.44c-4.529-.073-9.059-.145-13.34-.145v-2.39l27.995.156c1.466-2.242 3.212-3.449 5.088-3.449h9.616l-.064-.022c4.592 0 8.106 7.438 8.106 17.421s-3.514 17.421-8.106 17.421h-9.552c-1.811 0-3.493-1.013-4.829-3.018h-.065l-29.181-.111-1.489-2.69 29.268.127c-1.315-3.191-2.048-7.503-2.048-11.729s.669-8.279 1.941-11.427c-4.282 0-8.811-.072-13.34-.144zm25.78 22.481c1.035 2.436 2.372 3.881 3.579 3.881v-.022c2.544 0 5.391-6.296 5.391-14.769 0-4.118-.669-7.977-1.876-10.823-1.035-2.415-2.372-3.924-3.515-3.924-2.609 0-5.455 6.36-5.455 14.769 0 4.182.669 7.977 1.876 10.888zm-11.664-10.888c0 8.71 3.018 14.769 5.627 14.769h5.153c-2.242-3.04-3.687-8.409-3.687-14.769 0-6.361 1.445-11.686 3.687-14.769h-5.153c-2.673 0-5.627 6.058-5.627 14.769z" fill="#29b5e8" fill-rule="evenodd"/><path d="m1014.98 468.285c.72 0 1.34-.094 1.88-.283.55-.189 1.01-.452 1.38-.787.38-.343.66-.752.85-1.224.19-.473.29-.993.29-1.56 0-1.178-.37-2.097-1.1-2.759-.72-.662-1.82-.992-3.3-.992h-2.96v7.605zm0-9.578c1.17 0 2.18.138 3.04.413.87.266 1.59.649 2.16 1.147.56.499.99 1.1 1.26 1.805.28.705.43 1.491.43 2.359 0 .859-.15 1.646-.46 2.359-.3.713-.74 1.328-1.32 1.843-.58.516-1.3.92-2.16 1.212-.85.284-1.83.425-2.95.425h-2.96v6.91h-2.49v-18.473zm11.84 5.414v13.059h-2.29v-13.059zm.49-4.099c0 .224-.05.434-.14.632-.09.189-.21.361-.36.515-.15.147-.33.263-.53.349-.2.085-.41.128-.63.128-.23 0-.44-.043-.63-.128-.19-.086-.36-.202-.51-.349-.14-.154-.26-.326-.35-.515-.08-.198-.12-.408-.12-.632 0-.223.04-.434.12-.632.09-.206.21-.382.35-.528.15-.155.32-.275.51-.361s.4-.129.63-.129c.22 0 .43.043.63.129s.38.206.53.361c.15.146.27.322.36.528.09.198.14.409.14.632zm5.59 14.013c.42.567.88.966 1.38 1.198s1.05.349 1.67.349c1.22 0 2.16-.434 2.81-1.302.66-.868.98-2.106.98-3.713 0-.851-.07-1.581-.23-2.192-.15-.61-.36-1.108-.64-1.495-.29-.395-.64-.683-1.05-.864-.41-.18-.88-.27-1.4-.27-.75 0-1.41.172-1.98.515-.55.344-1.07.83-1.54 1.457zm-.12-7.89c.55-.679 1.19-1.224 1.91-1.637.72-.412 1.55-.619 2.47-.619.76 0 1.44.147 2.05.439.61.283 1.13.709 1.56 1.276.43.559.76 1.255 1 2.088.23.834.34 1.792.34 2.875 0 .962-.12 1.861-.38 2.694-.26.825-.63 1.543-1.12 2.153-.49.602-1.08 1.078-1.78 1.431-.7.344-1.49.515-2.36.515-.8 0-1.49-.133-2.06-.399-.57-.275-1.07-.653-1.51-1.135v5.776h-2.31v-17.481h1.38c.33 0 .53.159.61.477zm21 3.081c0-.533-.08-1.018-.23-1.456-.15-.447-.37-.83-.66-1.148-.28-.326-.63-.575-1.04-.747-.41-.181-.88-.271-1.41-.271-1.1 0-1.97.322-2.61.967-.64.636-1.03 1.521-1.19 2.655zm1.86 6.123c-.29.344-.62.645-1.02.903-.4.249-.82.455-1.28.619-.44.163-.91.283-1.39.361-.48.085-.96.128-1.43.128-.9 0-1.74-.15-2.5-.451-.76-.309-1.41-.756-1.97-1.34-.55-.593-.98-1.324-1.29-2.192s-.47-1.865-.47-2.991c0-.91.14-1.761.42-2.552s.68-1.474 1.21-2.05c.52-.584 1.16-1.039 1.92-1.366.76-.335 1.61-.503 2.55-.503.78 0 1.51.133 2.17.4.67.258 1.24.636 1.72 1.134.49.49.88 1.1 1.15 1.831.28.722.41 1.547.41 2.475 0 .361-.03.601-.11.722-.08.12-.22.18-.44.18h-8.73c.03.825.14 1.543.34 2.153s.49 1.121.85 1.534c.36.404.79.709 1.29.915.5.198 1.06.297 1.67.297.58 0 1.07-.065 1.49-.194.42-.137.78-.283 1.08-.438s.55-.296.75-.425c.2-.138.38-.207.53-.207.18 0 .33.073.43.22zm5.39-17.157v18.988h-2.29v-18.988zm6.15 5.929v13.059h-2.3v-13.059zm.49-4.099c0 .224-.05.434-.14.632-.09.189-.21.361-.36.515-.15.147-.33.263-.53.349-.2.085-.41.128-.63.128-.23 0-.44-.043-.64-.128-.18-.086-.35-.202-.5-.349-.14-.154-.26-.326-.35-.515-.08-.198-.12-.408-.12-.632 0-.223.04-.434.12-.632.09-.206.21-.382.35-.528.15-.155.32-.275.5-.361.2-.086.41-.129.64-.129.22 0 .43.043.63.129s.38.206.53.361c.15.146.27.322.36.528.09.198.14.409.14.632zm5.45 5.994c.28-.318.58-.605.9-.863s.65-.477 1-.658c.36-.189.74-.331 1.14-.425.4-.103.84-.155 1.3-.155.71 0 1.34.121 1.88.361.55.232 1.01.567 1.37 1.006.37.429.65.949.84 1.559.19.611.28 1.285.28 2.024v8.315h-2.31v-8.315c0-.988-.23-1.753-.68-2.294-.45-.55-1.13-.825-2.05-.825-.68 0-1.32.163-1.91.49-.58.326-1.12.769-1.62 1.327v9.617h-2.31v-13.059h1.38c.33 0 .53.159.6.477zm20.95 3.21c0-.533-.08-1.018-.24-1.456-.14-.447-.36-.83-.65-1.148-.29-.326-.63-.575-1.05-.747-.41-.181-.88-.271-1.4-.271-1.1 0-1.97.322-2.62.967-.64.636-1.03 1.521-1.19 2.655zm1.85 6.123c-.28.344-.62.645-1.02.903-.39.249-.82.455-1.27.619-.45.163-.91.283-1.39.361-.49.085-.96.128-1.44.128-.9 0-1.73-.15-2.5-.451-.75-.309-1.41-.756-1.97-1.34-.55-.593-.98-1.324-1.29-2.192s-.46-1.865-.46-2.991c0-.91.14-1.761.41-2.552.28-.791.69-1.474 1.21-2.05.53-.584 1.17-1.039 1.92-1.366.76-.335 1.61-.503 2.56-.503.78 0 1.5.133 2.16.4.67.258 1.25.636 1.73 1.134.49.49.87 1.1 1.15 1.831.27.722.41 1.547.41 2.475 0 .361-.04.601-.12.722-.07.12-.22.18-.44.18h-8.72c.02.825.13 1.543.33 2.153.21.61.49 1.121.85 1.534.36.404.79.709 1.29.915.5.198 1.06.297 1.68.297.57 0 1.07-.065 1.48-.194.42-.137.78-.283 1.08-.438s.55-.296.75-.425c.21-.138.38-.207.53-.207.19 0 .33.073.44.22zm-69.32 25.601c0 1.384-.22 2.656-.66 3.816-.44 1.151-1.06 2.144-1.86 2.978-.8.833-1.76 1.482-2.88 1.946-1.12.456-2.36.683-3.72.683s-2.59-.227-3.71-.683c-1.12-.464-2.08-1.113-2.87-1.946-.8-.834-1.42-1.827-1.86-2.978-.44-1.16-.66-2.432-.66-3.816s.22-2.651.66-3.803c.44-1.16 1.06-2.157 1.86-2.99.79-.843 1.75-1.496 2.87-1.96s2.35-.696 3.71-.696 2.6.232 3.72.696 2.08 1.117 2.88 1.96c.8.833 1.42 1.83 1.86 2.99.44 1.152.66 2.419.66 3.803zm-2.57 0c0-1.134-.15-2.153-.46-3.055s-.75-1.663-1.32-2.282c-.56-.627-1.25-1.108-2.06-1.444-.81-.335-1.71-.502-2.71-.502-.99 0-1.88.167-2.69.502-.81.336-1.5.817-2.08 1.444-.56.619-1 1.38-1.31 2.282s-.47 1.921-.47 3.055.16 2.153.47 3.055c.31.894.75 1.655 1.31 2.282.58.619 1.27 1.096 2.08 1.431.81.326 1.7.49 2.69.49 1 0 1.9-.164 2.71-.49.81-.335 1.5-.812 2.06-1.431.57-.627 1.01-1.388 1.32-2.282.31-.902.46-1.921.46-3.055zm7.66 6.085c.42.567.88.966 1.38 1.198.51.232 1.06.349 1.66.349 1.23 0 2.17-.434 2.82-1.302.66-.868.98-2.162.98-3.881 0-1.598-.29-2.771-.87-3.519-.58-.756-1.4-1.134-2.48-1.134-.75 0-1.4.172-1.96.515-.55.344-1.06.83-1.53 1.457zm0-8.031c.55-.636 1.17-1.143 1.86-1.522.69-.378 1.49-.567 2.39-.567.77 0 1.46.146 2.07.439.61.292 1.14.717 1.57 1.276.43.55.75 1.22.98 2.011.23.79.35 1.68.35 2.668 0 1.057-.13 2.02-.39 2.888s-.63 1.611-1.12 2.23c-.48.61-1.07 1.087-1.77 1.431-.69.335-1.48.502-2.34.502s-1.59-.159-2.18-.476c-.59-.327-1.1-.787-1.54-1.38l-.11 1.186c-.07.327-.27.49-.6.49h-1.48v-18.988h2.31zm19.72.27c-.1.189-.26.284-.47.284-.13 0-.28-.047-.44-.142-.16-.094-.37-.198-.61-.309-.23-.121-.51-.228-.84-.323-.32-.103-.71-.154-1.16-.154-.38 0-.73.051-1.04.154-.31.095-.58.228-.8.4-.21.172-.38.374-.5.606-.11.223-.17.468-.17.735 0 .335.1.614.28.838.2.223.46.416.78.58.32.163.68.309 1.08.438.4.12.82.253 1.24.4.43.137.84.292 1.25.464.4.172.76.386 1.08.644s.57.576.76.954c.2.37.3.817.3 1.341 0 .601-.11 1.16-.32 1.676-.22.507-.54.949-.96 1.327-.42.37-.93.662-1.54.877s-1.32.322-2.12.322c-.91 0-1.73-.146-2.47-.438-.74-.301-1.37-.683-1.89-1.147l.55-.877c.06-.112.15-.198.24-.258.1-.06.22-.09.36-.09.16 0 .32.06.49.18.17.121.38.254.62.4.25.146.55.279.9.4.35.12.79.18 1.32.18.44 0 .84-.056 1.17-.167.34-.121.61-.28.84-.477.22-.198.39-.426.49-.684.11-.257.17-.532.17-.825 0-.361-.1-.657-.3-.889-.19-.241-.44-.443-.76-.606-.32-.172-.68-.318-1.1-.438-.4-.129-.82-.262-1.25-.4-.42-.137-.84-.292-1.25-.464-.4-.18-.76-.404-1.08-.67-.32-.267-.58-.593-.77-.98-.19-.395-.29-.872-.29-1.431 0-.498.11-.975.31-1.431.21-.464.51-.868.9-1.211.4-.353.88-.632 1.46-.838.58-.207 1.23-.31 1.97-.31.86 0 1.63.138 2.31.413.69.266 1.28.636 1.78 1.108zm12.29 2.952c0-.533-.08-1.018-.23-1.456-.15-.447-.37-.83-.66-1.148-.28-.326-.63-.575-1.04-.747-.41-.181-.88-.271-1.41-.271-1.1 0-1.97.322-2.61.967-.64.636-1.03 1.521-1.19 2.655zm1.86 6.123c-.29.344-.62.645-1.02.903-.4.249-.82.455-1.28.619-.44.163-.91.283-1.39.361-.48.085-.96.128-1.43.128-.9 0-1.74-.15-2.5-.451-.76-.309-1.41-.756-1.97-1.34-.55-.593-.98-1.324-1.29-2.192s-.47-1.865-.47-2.991c0-.91.14-1.761.42-2.552s.68-1.474 1.21-2.05c.52-.584 1.16-1.039 1.92-1.366.76-.335 1.61-.503 2.55-.503.78 0 1.51.133 2.17.4.67.258 1.24.636 1.72 1.134.49.49.88 1.1 1.15 1.831.28.722.41 1.547.41 2.475 0 .361-.03.601-.11.722-.08.12-.22.18-.44.18h-8.73c.03.825.14 1.543.34 2.153s.49 1.121.85 1.534c.36.404.79.709 1.29.915.5.198 1.06.297 1.67.297.58 0 1.07-.065 1.49-.194.42-.137.78-.283 1.08-.438s.55-.296.75-.425c.2-.138.38-.207.53-.207.18 0 .33.073.43.22zm5.2-8.611c.41-.893.92-1.59 1.52-2.088.6-.507 1.34-.761 2.21-.761.27 0 .53.031.78.091.26.06.49.154.69.283l-.17 1.715c-.05.215-.18.322-.39.322-.12 0-.29-.026-.53-.077-.23-.052-.49-.078-.78-.078-.42 0-.78.061-1.11.181-.32.12-.61.301-.86.541-.25.232-.48.524-.69.877-.2.344-.38.739-.54 1.186v8.25h-2.31v-13.059h1.32c.25 0 .42.048.51.142.1.095.16.258.2.49zm18.4-2.617-5.32 13.059h-2.06l-5.33-13.059h1.87c.19 0 .35.048.47.142.12.095.2.207.24.335l3.31 8.405c.11.318.2.628.27.928.08.301.16.602.22.903.07-.301.15-.602.22-.903.08-.3.18-.61.29-.928l3.35-8.405c.05-.137.14-.249.26-.335.12-.094.26-.142.42-.142zm8.91 7.181c-1.06.034-1.96.12-2.71.258-.74.128-1.34.3-1.82.515-.46.215-.8.469-1.01.761s-.31.619-.31.979c0 .344.05.641.16.89s.27.455.45.619c.2.154.43.27.69.348.26.069.55.103.85.103.4 0 .77-.039 1.11-.116.33-.086.65-.206.94-.361.3-.155.58-.34.85-.554.27-.215.54-.46.8-.735zm-7.41-5.337c.72-.696 1.5-1.216 2.33-1.56s1.76-.516 2.77-.516c.73 0 1.38.121 1.95.361.56.241 1.04.576 1.43 1.006.38.43.68.95.87 1.56.2.61.3 1.28.3 2.011v8.353h-1.02c-.22 0-.39-.034-.51-.103-.12-.077-.22-.224-.29-.438l-.25-1.238c-.35.318-.68.602-1.01.851-.33.24-.67.447-1.03.619-.36.163-.75.288-1.16.373-.41.095-.86.142-1.35.142-.51 0-.99-.069-1.44-.206-.44-.146-.83-.361-1.17-.645-.33-.283-.59-.64-.79-1.07-.18-.438-.28-.953-.28-1.546 0-.516.14-1.01.43-1.483.28-.481.74-.907 1.38-1.276.63-.37 1.46-.67 2.48-.902 1.03-.241 2.28-.379 3.77-.413v-1.018c0-1.014-.22-1.779-.66-2.295-.44-.524-1.08-.786-1.92-.786-.57 0-1.04.073-1.43.219-.38.137-.71.296-.99.477-.28.172-.52.331-.73.477-.19.137-.39.206-.59.206-.15 0-.29-.039-.4-.116-.11-.086-.2-.189-.28-.309zm15.45 8.07c.43.567.88.966 1.38 1.198.51.232 1.06.349 1.67.349 1.23 0 2.17-.434 2.82-1.302s.98-2.162.98-3.881c0-1.598-.29-2.771-.88-3.519-.57-.756-1.4-1.134-2.47-1.134-.75 0-1.4.172-1.96.515-.55.344-1.06.83-1.54 1.457zm0-8.031c.55-.636 1.17-1.143 1.86-1.522.7-.378 1.5-.567 2.4-.567.76 0 1.45.146 2.06.439.62.292 1.14.717 1.57 1.276.43.55.76 1.22.98 2.011.23.79.35 1.68.35 2.668 0 1.057-.13 2.02-.39 2.888-.25.868-.63 1.611-1.12 2.23-.48.61-1.07 1.087-1.76 1.431-.7.335-1.48.502-2.35.502-.86 0-1.59-.159-2.18-.476-.58-.327-1.09-.787-1.53-1.38l-.12 1.186c-.07.327-.26.49-.59.49h-1.48v-18.988h2.3zm14.55-1.883v13.059h-2.3v-13.059zm.49-4.099c0 .224-.05.434-.15.632-.08.189-.2.361-.36.515-.14.147-.32.263-.52.349-.2.085-.41.128-.64.128-.22 0-.43-.043-.63-.128-.19-.086-.35-.202-.5-.349-.15-.154-.26-.326-.35-.515-.08-.198-.13-.408-.13-.632 0-.223.05-.434.13-.632.09-.206.2-.382.35-.528.15-.155.31-.275.5-.361.2-.086.41-.129.63-.129.23 0 .44.043.64.129s.38.206.52.361c.16.146.28.322.36.528.1.198.15.409.15.632zm5.65-1.83v18.988h-2.3v-18.988zm6.14 5.929v13.059h-2.29v-13.059zm.49-4.099c0 .224-.04.434-.14.632-.08.189-.2.361-.36.515-.15.147-.32.263-.53.349-.2.085-.41.128-.63.128s-.43-.043-.63-.128c-.19-.086-.36-.202-.5-.349-.15-.154-.27-.326-.35-.515-.09-.198-.13-.408-.13-.632 0-.223.04-.434.13-.632.08-.206.2-.382.35-.528.14-.155.31-.275.5-.361.2-.086.41-.129.63-.129s.43.043.63.129c.21.086.38.206.53.361.16.146.28.322.36.528.1.198.14.409.14.632zm7.29 17.364c-1.03 0-1.82-.288-2.38-.863-.55-.576-.83-1.406-.83-2.488v-7.993h-1.57c-.14 0-.25-.038-.35-.116-.09-.086-.14-.215-.14-.387v-.915l2.14-.27.53-4.035c.02-.129.08-.232.17-.31.09-.086.21-.129.36-.129h1.16v4.499h3.77v1.663h-3.77v7.838c0 .55.13.958.4 1.225.26.266.61.399 1.03.399.24 0 .45-.03.62-.09.18-.069.33-.142.46-.219.13-.078.24-.146.32-.206.1-.069.18-.104.25-.104.12 0 .23.073.32.22l.67 1.095c-.39.37-.87.662-1.43.877-.56.206-1.13.309-1.73.309zm16.5-13.265-7.28 16.913c-.08.172-.18.31-.3.413-.11.103-.29.155-.53.155h-1.7l2.39-5.183-5.39-12.298h1.98c.2 0 .35.052.47.155.12.095.2.202.24.322l3.49 8.225c.14.361.26.739.35 1.134.12-.404.25-.786.39-1.147l3.39-8.212c.05-.137.14-.249.26-.335.13-.094.27-.142.42-.142z" fill="#666"/><g filter="url(#e)"><ellipse cx="926.346" cy="651.77" fill="#d4f0fa" rx="60" ry="60"/><path d="m926.346 593.27c32.308 0 58.5 26.191 58.5 58.5s-26.192 58.5-58.5 58.5c-32.309 0-58.5-26.191-58.5-58.5s26.191-58.5 58.5-58.5z" stroke="#29b5e8" stroke-width="3"/></g><path d="m953.931 658.66c-.18-.59-.55-1.05-1.07-1.33l-3.84-2.1c.12-1.13.12-2.18.12-3.36s0-2.22-.11-3.28l3.86-2.19c.5-.28.89-.76 1.03-1.33.15-.56.07-1.14-.21-1.65l-6.48-10.99c-.39-.66-1.11-1.07-1.88-1.07-.36 0-.71.09-1.03.26l-3.93 2.15c-1.44-1.12-3.35-2.44-5.92-3.47v-4.13c0-1.2-.97-2.17-2.17-2.17h-13.05c-1.2 0-2.17.97-2.17 2.17v4.14c-2.25.92-3.89 2.13-5.45 3.4l-3.54-2.06c-.33-.19-.71-.3-1.09-.3-.77 0-1.48.41-1.87 1.07l-6.47 10.98c-.3.5-.38 1.11-.22 1.68.13.54.51 1.03 1.02 1.32l4.02 2.27c-.01.11-.02.21-.04.32l-.05.42c-.11.78-.18 1.62-.2 2.44v3.26l-4.06 2.22c-.51.27-.89.74-1.05 1.3-.16.59-.08 1.18.21 1.69l6.48 11.22c.39.67 1.11 1.09 1.88 1.09.36 0 .72-.09 1.04-.27l3.94-2.15c1.55 1.23 3.19 2.49 5.45 3.37v4.22c0 1.2.97 2.17 2.17 2.17h13.05c1.2 0 2.17-.97 2.17-2.17v-4.2c2.34-.9 4.22-2.15 5.89-3.41l3.95 2.16c.32.17.68.27 1.04.27.77 0 1.5-.42 1.88-1.09l6.48-11.21c.29-.52.37-1.11.22-1.67zm-34.1 11.29c-2.44-.69-4-1.94-5.82-3.39l-.81-.65c-.39-.3-.87-.47-1.35-.47-.36 0-.72.09-1.04.26l-3.34 1.83-4.3-7.45 3.24-1.78c.7-.38 1.13-1.11 1.13-1.91v-4.53c.02-.63.07-1.29.15-1.93.12-.8.19-1.64.2-2.47 0-.79-.43-1.51-1.11-1.89l-3.27-1.86 4.24-7.23 2.99 1.74c.32.2.71.3 1.1.3.51 0 1-.18 1.39-.5l.18-.15c2.16-1.81 3.72-3.11 6.48-3.98.91-.29 1.52-1.12 1.52-2.07v-3.5h8.71v3.49c0 .95.61 1.79 1.52 2.07 2.89.9 4.93 2.3 7.11 4.12.4.33.89.5 1.4.5.36 0 .72-.09 1.03-.26l3.36-1.83 4.28 7.28-3.28 1.86c-.87.49-1.29 1.51-1.02 2.47.26.96.26 2.42.26 3.83s0 2.72-.29 4.08c-.22.94.23 1.92 1.1 2.37l3.23 1.77-4.3 7.45-3.33-1.82c-.32-.17-.68-.27-1.05-.27-.48 0-.96.16-1.34.46-2.11 1.67-4.23 3.24-7.1 4.05-.93.26-1.58 1.11-1.59 2.07v3.62h-8.71v-3.61c0-.97-.66-1.83-1.59-2.08z" fill="#29b5e8"/><path d="m934.181 651.99c0-4.617-3.743-8.36-8.359-8.36-4.618 0-8.361 3.743-8.361 8.36s3.744 8.36 8.361 8.36c4.616-.001 8.359-3.743 8.359-8.36zm4 0c0 6.826-5.534 12.359-12.359 12.36-6.827 0-12.361-5.534-12.361-12.36s5.534-12.36 12.361-12.36c6.826 0 12.359 5.534 12.359 12.36z" fill="#29b5e8"/><path d="m1012.03 644.77h-2.5v-18.473h2.5zm6.15-11.164c.28-.318.58-.605.9-.863s.65-.477 1.01-.658c.36-.189.73-.331 1.13-.425.4-.103.84-.155 1.3-.155.72 0 1.34.121 1.88.361.55.232 1.01.567 1.37 1.006.37.429.65.949.84 1.559.19.611.28 1.285.28 2.024v8.315h-2.31v-8.315c0-.988-.22-1.753-.68-2.294-.45-.55-1.13-.825-2.05-.825-.68 0-1.31.163-1.91.49-.58.326-1.12.769-1.62 1.327v9.617h-2.31v-13.059h1.38c.33 0 .53.159.61.477zm12.86 11.164v-11.099l-1.45-.168c-.18-.043-.33-.107-.45-.193-.11-.095-.16-.228-.16-.4v-.941h2.06v-1.263c0-.748.1-1.409.31-1.985.21-.585.51-1.074.9-1.47.39-.404.87-.709 1.42-.915s1.17-.309 1.85-.309c.59 0 1.13.086 1.62.257l-.06 1.148c-.01.206-.13.318-.34.335s-.49.026-.84.026c-.4 0-.76.051-1.09.154-.31.103-.59.271-.82.503s-.41.537-.54.915c-.12.378-.18.847-.18 1.405v1.199h3.76v1.663h-3.68v11.138zm10.36-10.442c.42-.893.92-1.59 1.53-2.088.6-.507 1.33-.761 2.2-.761.27 0 .54.031.79.091s.48.154.68.283l-.17 1.715c-.05.215-.18.322-.38.322-.13 0-.3-.026-.53-.077-.24-.052-.5-.078-.79-.078-.41 0-.78.061-1.11.181-.32.12-.6.301-.86.541-.25.232-.48.524-.69.877-.19.344-.37.739-.54 1.186v8.25h-2.3v-13.059h1.31c.25 0 .42.048.52.142.09.095.16.258.19.49zm14.09 4.564c-1.05.034-1.96.12-2.7.258-.74.128-1.35.3-1.82.515s-.81.469-1.02.761-.31.619-.31.979c0 .344.06.641.17.89s.26.455.45.619c.2.154.42.27.68.348.27.069.55.103.85.103.41 0 .78-.039 1.11-.116.34-.086.65-.206.94-.361.3-.155.59-.34.85-.554.28-.215.54-.46.8-.735zm-7.41-5.337c.72-.696 1.5-1.216 2.33-1.56.84-.344 1.76-.516 2.78-.516.73 0 1.37.121 1.94.361.57.241 1.05.576 1.43 1.006.39.43.68.95.88 1.56s.3 1.28.3 2.011v8.353h-1.02c-.23 0-.4-.034-.52-.103-.12-.077-.21-.224-.28-.438l-.26-1.238c-.34.318-.68.602-1.01.851-.32.241-.67.447-1.03.619-.36.163-.74.288-1.16.373-.4.095-.85.142-1.35.142-.51 0-.98-.068-1.43-.206-.45-.146-.84-.361-1.17-.645-.33-.283-.59-.64-.79-1.069-.19-.439-.28-.954-.28-1.547 0-.516.14-1.01.42-1.483.28-.481.74-.907 1.38-1.276.64-.37 1.47-.67 2.49-.902 1.02-.241 2.28-.379 3.76-.413v-1.018c0-1.014-.22-1.779-.65-2.295-.44-.524-1.08-.786-1.93-.786-.56 0-1.04.073-1.43.219-.37.137-.71.296-.99.477-.27.172-.51.331-.72.477-.2.137-.4.206-.59.206-.16 0-.29-.039-.4-.116-.12-.086-.21-.189-.29-.309zm20.76.309c-.11.189-.27.284-.48.284-.13 0-.28-.047-.44-.142-.16-.094-.36-.198-.6-.309-.24-.121-.52-.228-.84-.323-.33-.103-.72-.154-1.16-.154-.39 0-.74.051-1.05.154-.31.095-.57.228-.8.4-.21.172-.38.374-.5.606-.11.223-.17.468-.17.735 0 .335.1.614.29.838.2.223.45.416.77.58.32.163.68.309 1.08.438.41.12.82.254 1.24.4.43.137.85.292 1.25.464.41.172.77.386 1.08.644.32.258.58.576.77.954.19.37.29.817.29 1.341 0 .601-.11 1.16-.32 1.676-.22.507-.53.949-.95 1.327-.43.37-.94.662-1.55.877s-1.32.322-2.12.322c-.91 0-1.73-.146-2.47-.438-.74-.301-1.37-.683-1.88-1.147l.54-.877c.07-.112.15-.198.24-.258.1-.06.22-.09.36-.09.16 0 .32.06.49.181.18.12.38.253.62.399.25.146.55.279.91.4.35.12.79.18 1.31.18.45 0 .84-.056 1.17-.167.34-.121.62-.28.84-.477.22-.198.39-.426.49-.684.11-.257.17-.532.17-.825 0-.36-.1-.657-.3-.889-.19-.241-.44-.443-.76-.606-.32-.172-.68-.318-1.09-.438-.41-.129-.82-.262-1.25-.4-.43-.137-.84-.292-1.25-.464-.41-.18-.77-.404-1.09-.67-.32-.267-.57-.593-.77-.98-.19-.395-.28-.872-.28-1.431 0-.498.1-.975.3-1.431.21-.464.51-.868.91-1.211.39-.353.88-.632 1.45-.838.58-.207 1.24-.31 1.98-.31.86 0 1.62.138 2.3.413.69.266 1.28.636 1.78 1.108zm7.55 11.112c-1.03 0-1.82-.288-2.38-.863-.55-.576-.83-1.406-.83-2.488v-7.993h-1.57c-.14 0-.25-.038-.35-.116-.09-.086-.14-.215-.14-.386v-.916l2.14-.27.53-4.035c.03-.129.08-.232.17-.31.09-.086.21-.129.36-.129h1.16v4.499h3.78v1.663h-3.78v7.838c0 .55.13.958.4 1.225.26.266.61.399 1.03.399.24 0 .45-.03.62-.09.18-.069.33-.142.46-.219.13-.078.24-.146.32-.206.1-.069.18-.104.25-.104.12 0 .23.073.32.22l.67 1.095c-.39.37-.87.662-1.43.877-.56.206-1.13.309-1.73.309zm7.41-10.648c.42-.893.92-1.59 1.52-2.088.61-.507 1.34-.761 2.21-.761.27 0 .54.031.79.091s.48.154.68.283l-.17 1.715c-.05.215-.18.322-.39.322-.12 0-.29-.026-.52-.077-.24-.052-.5-.078-.79-.078-.41 0-.78.061-1.11.181-.32.12-.61.301-.86.541-.25.232-.48.524-.69.877-.19.344-.37.739-.54 1.186v8.25h-2.31v-13.059h1.32c.25 0 .42.048.52.142.09.095.15.258.19.49zm17.95-2.617v13.059h-1.36c-.33 0-.53-.159-.62-.477l-.18-1.405c-.57.627-1.2 1.134-1.91 1.521-.7.378-1.51.567-2.42.567-.72 0-1.35-.116-1.9-.348-.54-.24-.99-.576-1.36-1.005-.37-.43-.65-.95-.84-1.56-.18-.61-.27-1.285-.27-2.024v-8.328h2.29v8.328c0 .988.23 1.753.67 2.295.46.541 1.15.812 2.08.812.68 0 1.31-.159 1.89-.477.6-.327 1.14-.774 1.64-1.341v-9.617zm12.73 2.321c-.07.094-.14.167-.21.219-.06.052-.16.077-.28.077-.13 0-.27-.051-.42-.154-.16-.112-.35-.232-.58-.361s-.51-.245-.84-.348c-.33-.112-.73-.168-1.21-.168-.65 0-1.22.116-1.71.348-.49.224-.9.55-1.23.98s-.58.949-.75 1.56c-.16.61-.25 1.293-.25 2.049 0 .791.09 1.496.27 2.114.19.611.44 1.126.77 1.547.33.413.73.731 1.19.954.48.215 1.01.323 1.59.323.56 0 1.02-.065 1.38-.194.36-.137.66-.288.89-.451.24-.163.44-.309.59-.438.16-.138.32-.207.48-.207.19 0 .33.073.44.22l.64.838c-.28.352-.6.653-.97.902-.36.249-.75.46-1.17.632-.41.163-.85.283-1.3.36-.46.078-.92.116-1.39.116-.82 0-1.58-.15-2.28-.451-.7-.3-1.31-.734-1.82-1.302-.52-.575-.92-1.28-1.21-2.114-.3-.833-.44-1.783-.44-2.849 0-.971.13-1.869.4-2.694s.67-1.534 1.18-2.127c.53-.601 1.17-1.07 1.92-1.405.77-.335 1.65-.503 2.63-.503.92 0 1.73.151 2.43.451.7.293 1.33.709 1.87 1.251zm7.23 10.944c-1.03 0-1.82-.288-2.38-.863-.55-.576-.83-1.406-.83-2.488v-7.993h-1.57c-.14 0-.25-.038-.35-.116-.09-.086-.14-.215-.14-.386v-.916l2.14-.27.53-4.035c.03-.129.08-.232.17-.31.09-.086.21-.129.36-.129h1.16v4.499h3.78v1.663h-3.78v7.838c0 .55.13.958.4 1.225.26.266.61.399 1.03.399.24 0 .45-.03.62-.09.18-.069.33-.142.46-.219.13-.078.24-.146.32-.206.1-.069.18-.104.25-.104.12 0 .23.073.32.22l.67 1.095c-.39.37-.87.662-1.43.877-.56.206-1.13.309-1.73.309zm15.97-13.265v13.059h-1.36c-.33 0-.54-.159-.62-.477l-.18-1.405c-.57.627-1.21 1.134-1.91 1.521-.71.378-1.51.567-2.42.567-.72 0-1.35-.116-1.9-.348-.54-.24-1-.576-1.37-1.005-.37-.43-.64-.95-.83-1.56-.18-.61-.27-1.285-.27-2.024v-8.328h2.29v8.328c0 .988.22 1.753.67 2.295.46.541 1.15.812 2.08.812.68 0 1.31-.159 1.89-.477.59-.327 1.14-.774 1.64-1.341v-9.617zm5.82 2.617c.41-.893.92-1.59 1.52-2.088.6-.507 1.34-.761 2.21-.761.27 0 .53.031.78.091.26.06.49.154.68.283l-.16 1.715c-.05.215-.18.322-.39.322-.12 0-.3-.026-.53-.077-.23-.052-.49-.078-.78-.078-.42 0-.79.061-1.11.181s-.61.301-.87.541c-.25.232-.47.524-.68.877-.2.344-.38.739-.54 1.186v8.25h-2.31v-13.059h1.32c.25 0 .42.048.51.142.1.095.16.258.19.49zm15.42 2.488c0-.533-.07-1.018-.23-1.456-.14-.447-.36-.83-.66-1.148-.28-.326-.63-.575-1.04-.747-.41-.181-.88-.271-1.41-.271-1.1 0-1.97.322-2.61.967-.64.636-1.03 1.521-1.19 2.655zm1.86 6.124c-.28.343-.62.644-1.02.902-.39.249-.82.455-1.27.619-.45.163-.92.283-1.4.361-.48.086-.96.128-1.43.128-.9 0-1.73-.15-2.5-.451-.75-.309-1.41-.756-1.97-1.34-.55-.593-.98-1.324-1.29-2.192s-.46-1.865-.46-2.991c0-.91.13-1.761.41-2.552s.69-1.474 1.21-2.05c.52-.584 1.16-1.039 1.92-1.366.76-.335 1.61-.503 2.55-.503.79 0 1.51.133 2.17.4.67.258 1.25.636 1.73 1.134.49.49.87 1.1 1.14 1.831.28.722.42 1.547.42 2.475 0 .361-.04.601-.12.722-.08.12-.22.18-.44.18h-8.73c.03.825.14 1.543.34 2.153.21.61.49 1.122.85 1.534.36.404.79.709 1.29.915.5.198 1.06.297 1.68.297.57 0 1.07-.065 1.48-.194.42-.137.78-.283 1.08-.438s.55-.296.75-.425c.2-.138.38-.207.53-.207.19 0 .33.073.44.22zm-134.18 25.6c0 1.384-.22 2.656-.66 3.816-.44 1.151-1.06 2.144-1.86 2.978-.8.833-1.76 1.482-2.88 1.946-1.12.456-2.36.683-3.72.683s-2.59-.227-3.71-.683c-1.12-.464-2.08-1.113-2.87-1.946-.8-.834-1.42-1.827-1.86-2.978-.44-1.16-.66-2.432-.66-3.816s.22-2.651.66-3.803c.44-1.16 1.06-2.157 1.86-2.99.79-.843 1.75-1.496 2.87-1.96s2.35-.696 3.71-.696 2.6.232 3.72.696 2.08 1.117 2.88 1.96c.8.833 1.42 1.83 1.86 2.99.44 1.152.66 2.419.66 3.803zm-2.57 0c0-1.134-.15-2.153-.46-3.055s-.75-1.663-1.32-2.282c-.56-.627-1.25-1.108-2.06-1.444-.81-.335-1.71-.502-2.71-.502-.99 0-1.88.167-2.69.502-.81.336-1.5.817-2.08 1.444-.56.619-1 1.38-1.31 2.282s-.47 1.921-.47 3.055c0 1.135.16 2.153.47 3.055.31.894.75 1.655 1.31 2.282.58.619 1.27 1.096 2.08 1.431.81.326 1.7.49 2.69.49 1 0 1.9-.164 2.71-.49.81-.335 1.5-.812 2.06-1.431.57-.627 1.01-1.388 1.32-2.282.31-.902.46-1.92.46-3.055zm7.66 6.085c.42.567.88.966 1.38 1.198.51.233 1.06.349 1.66.349 1.23 0 2.17-.434 2.82-1.302.66-.868.98-2.162.98-3.881 0-1.598-.29-2.771-.87-3.519-.58-.756-1.4-1.134-2.48-1.134-.75 0-1.4.172-1.96.515-.55.344-1.06.83-1.53 1.457zm0-8.031c.55-.636 1.17-1.143 1.86-1.522.69-.378 1.49-.567 2.39-.567.77 0 1.46.146 2.07.439.61.292 1.14.717 1.57 1.276.43.55.75 1.22.98 2.011.23.79.35 1.68.35 2.668 0 1.057-.13 2.02-.39 2.888s-.63 1.611-1.12 2.23c-.48.61-1.07 1.087-1.77 1.431-.69.335-1.48.502-2.34.502s-1.59-.158-2.18-.476c-.59-.327-1.1-.787-1.54-1.38l-.11 1.186c-.07.327-.27.49-.6.49h-1.48v-18.988h2.31zm19.72.27c-.1.189-.26.284-.47.284-.13 0-.28-.047-.44-.142-.16-.094-.37-.198-.61-.309-.23-.121-.51-.228-.84-.323-.32-.103-.71-.154-1.16-.154-.38 0-.73.051-1.04.154-.31.095-.58.228-.8.4-.21.172-.38.374-.5.606-.11.223-.17.468-.17.735 0 .335.1.614.28.838.2.223.46.416.78.58.32.163.68.309 1.08.438.4.12.82.254 1.24.4.43.137.84.292 1.25.464.4.172.76.386 1.08.644s.57.576.76.954c.2.37.3.817.3 1.341 0 .601-.11 1.16-.32 1.676-.22.507-.54.949-.96 1.327-.42.37-.93.662-1.54.877s-1.32.322-2.12.322c-.91 0-1.73-.146-2.47-.438-.74-.301-1.37-.683-1.89-1.147l.55-.877c.06-.112.15-.198.24-.258.1-.06.22-.09.36-.09.16 0 .32.06.49.181.17.12.38.253.62.399.25.146.55.279.9.4.35.12.79.18 1.32.18.44 0 .84-.056 1.17-.167.34-.121.61-.28.84-.477.22-.198.39-.426.49-.684.11-.257.17-.532.17-.825 0-.36-.1-.657-.3-.889-.19-.241-.44-.443-.76-.606-.32-.172-.68-.318-1.1-.438-.4-.129-.82-.262-1.25-.4-.42-.137-.84-.292-1.25-.464-.4-.18-.76-.404-1.08-.67-.32-.267-.58-.593-.77-.98-.19-.395-.29-.872-.29-1.431 0-.498.11-.975.31-1.431.21-.464.51-.868.9-1.211.4-.353.88-.632 1.46-.838.58-.207 1.23-.31 1.97-.31.86 0 1.63.138 2.31.413.69.266 1.28.636 1.78 1.108zm12.29 2.952c0-.533-.08-1.018-.23-1.456-.15-.447-.37-.83-.66-1.148-.28-.326-.63-.575-1.04-.747-.41-.181-.88-.271-1.41-.271-1.1 0-1.97.322-2.61.967-.64.636-1.03 1.521-1.19 2.655zm1.86 6.124c-.29.343-.62.644-1.02.902-.4.249-.82.455-1.28.619-.44.163-.91.283-1.39.361-.48.086-.96.128-1.43.128-.9 0-1.74-.15-2.5-.451-.76-.309-1.41-.756-1.97-1.34-.55-.593-.98-1.324-1.29-2.192s-.47-1.865-.47-2.991c0-.91.14-1.761.42-2.552s.68-1.474 1.21-2.05c.52-.584 1.16-1.039 1.92-1.366.76-.335 1.61-.503 2.55-.503.78 0 1.51.133 2.17.4.67.258 1.24.636 1.72 1.134.49.49.88 1.1 1.15 1.831.28.722.41 1.547.41 2.475 0 .361-.03.601-.11.722-.08.12-.22.18-.44.18h-8.73c.03.825.14 1.543.34 2.153s.49 1.122.85 1.534c.36.404.79.709 1.29.915.5.198 1.06.297 1.67.297.58 0 1.07-.065 1.49-.194.42-.137.78-.283 1.08-.438s.55-.296.75-.425c.2-.138.38-.207.53-.207.18 0 .33.073.43.22zm5.2-8.612c.41-.893.92-1.59 1.52-2.088.6-.507 1.34-.761 2.21-.761.27 0 .53.031.78.091.26.06.49.154.69.283l-.17 1.715c-.05.215-.18.322-.39.322-.12 0-.29-.026-.53-.077-.23-.052-.49-.078-.78-.078-.42 0-.78.061-1.11.181-.32.12-.61.301-.86.541-.25.232-.48.524-.69.877-.2.344-.38.739-.54 1.186v8.25h-2.31v-13.059h1.32c.25 0 .42.048.51.142.1.095.16.258.2.49zm18.4-2.617-5.32 13.059h-2.06l-5.33-13.059h1.87c.19 0 .35.048.47.142.12.095.2.207.24.335l3.31 8.405c.11.318.2.628.27.929.08.3.16.601.22.902.07-.301.15-.602.22-.902.08-.301.18-.611.29-.929l3.35-8.405c.05-.137.14-.249.26-.335.12-.094.26-.142.42-.142zm8.91 7.181c-1.06.034-1.96.12-2.71.258-.74.128-1.34.3-1.82.515-.46.215-.8.469-1.01.761s-.31.619-.31.979c0 .344.05.641.16.89s.27.455.45.619c.2.154.43.27.69.348.26.069.55.103.85.103.4 0 .77-.039 1.11-.116.33-.086.65-.206.94-.361.3-.155.58-.34.85-.554.27-.215.54-.46.8-.735zm-7.41-5.337c.72-.696 1.5-1.216 2.33-1.56s1.76-.516 2.77-.516c.73 0 1.38.121 1.95.361.56.241 1.04.576 1.43 1.006.38.43.68.95.87 1.56.2.61.3 1.28.3 2.011v8.353h-1.02c-.22 0-.39-.034-.51-.103-.12-.077-.22-.224-.29-.438l-.25-1.238c-.35.318-.68.602-1.01.851-.33.241-.67.447-1.03.619-.36.163-.75.288-1.16.373-.41.095-.86.142-1.35.142-.51 0-.99-.068-1.44-.206-.44-.146-.83-.361-1.17-.645-.33-.283-.59-.64-.79-1.069-.18-.439-.28-.954-.28-1.547 0-.516.14-1.01.43-1.483.28-.481.74-.907 1.38-1.276.63-.37 1.46-.67 2.48-.902 1.03-.241 2.28-.379 3.77-.413v-1.018c0-1.014-.22-1.779-.66-2.295-.44-.524-1.08-.786-1.92-.786-.57 0-1.04.073-1.43.219-.38.137-.71.296-.99.477-.28.172-.52.331-.73.477-.19.137-.39.206-.59.206-.15 0-.29-.039-.4-.116-.11-.086-.2-.189-.28-.309zm15.45 8.07c.43.567.88.966 1.38 1.198.51.233 1.06.349 1.67.349 1.23 0 2.17-.434 2.82-1.302s.98-2.162.98-3.881c0-1.598-.29-2.771-.88-3.519-.57-.756-1.4-1.134-2.47-1.134-.75 0-1.4.172-1.96.515-.55.344-1.06.83-1.54 1.457zm0-8.031c.55-.636 1.17-1.143 1.86-1.522.7-.378 1.5-.567 2.4-.567.76 0 1.45.146 2.06.439.62.292 1.14.717 1.57 1.276.43.55.76 1.22.98 2.011.23.79.35 1.68.35 2.668 0 1.057-.13 2.02-.39 2.888-.25.868-.63 1.611-1.12 2.23-.48.61-1.07 1.087-1.76 1.431-.7.335-1.48.502-2.35.502-.86 0-1.59-.158-2.18-.476-.58-.327-1.09-.787-1.53-1.38l-.12 1.186c-.07.327-.26.49-.59.49h-1.48v-18.988h2.3zm14.55-1.883v13.059h-2.3v-13.059zm.49-4.099c0 .224-.05.434-.15.632-.08.189-.2.361-.36.515-.14.147-.32.263-.52.349-.2.085-.41.128-.64.128-.22 0-.43-.043-.63-.128-.19-.086-.35-.202-.5-.349-.15-.154-.26-.326-.35-.515-.08-.198-.13-.408-.13-.632 0-.223.05-.434.13-.631.09-.207.2-.383.35-.529.15-.155.31-.275.5-.361.2-.086.41-.129.63-.129.23 0 .44.043.64.129s.38.206.52.361c.16.146.28.322.36.529.1.197.15.408.15.631zm5.65-1.83v18.988h-2.3v-18.988zm6.14 5.929v13.059h-2.29v-13.059zm.49-4.099c0 .224-.04.434-.14.632-.08.189-.2.361-.36.515-.15.147-.32.263-.53.349-.2.085-.41.128-.63.128s-.43-.043-.63-.128c-.19-.086-.36-.202-.5-.349-.15-.154-.27-.326-.35-.515-.09-.198-.13-.408-.13-.632 0-.223.04-.434.13-.631.08-.207.2-.383.35-.529.14-.155.31-.275.5-.361.2-.086.41-.129.63-.129s.43.043.63.129c.21.086.38.206.53.361.16.146.28.322.36.529.1.197.14.408.14.631zm7.29 17.364c-1.03 0-1.82-.288-2.38-.863-.55-.576-.83-1.406-.83-2.488v-7.993h-1.57c-.14 0-.25-.038-.35-.116-.09-.086-.14-.215-.14-.386v-.916l2.14-.27.53-4.035c.02-.129.08-.232.17-.31.09-.086.21-.129.36-.129h1.16v4.499h3.77v1.663h-3.77v7.838c0 .55.13.958.4 1.225.26.266.61.399 1.03.399.24 0 .45-.03.62-.09.18-.069.33-.142.46-.219.13-.078.24-.146.32-.206.1-.069.18-.104.25-.104.12 0 .23.073.32.22l.67 1.095c-.39.37-.87.662-1.43.877-.56.206-1.13.309-1.73.309zm16.5-13.265-7.28 16.913c-.08.172-.18.31-.3.413-.11.103-.29.155-.53.155h-1.7l2.39-5.183-5.39-12.298h1.98c.2 0 .35.052.47.155.12.095.2.202.24.322l3.49 8.225c.14.361.26.739.35 1.134.12-.404.25-.786.39-1.147l3.39-8.212c.05-.137.14-.249.26-.335.13-.094.27-.142.42-.142z" fill="#666"/><path d="m836 649v-2c-13.487 0-20.98-3.203-25.17-7.858-4.222-4.691-5.509-11.307-5.509-19.136h-2-2c0 8.111 1.297 15.992 6.536 21.812 5.272 5.858 14.119 9.182 28.143 9.182zm-32.679-28.994h2v-190.512h-2-2v190.512zm0-190.512h2c0-1.99.038-3.931.073-5.829.035-1.89.066-3.74.05-5.508-.031-3.509-.246-6.852-1.063-9.739-.83-2.934-2.312-5.505-4.929-7.3-2.58-1.77-6.021-2.619-10.452-2.619v2 2c3.964 0 6.51.765 8.19 1.917 1.643 1.128 2.691 2.788 3.342 5.091.665 2.35.882 5.25.913 8.686.015 1.705-.016 3.503-.05 5.398-.035 1.888-.074 3.869-.074 5.903zm-14.321-28.995v2c4.435 0 7.878-.859 10.459-2.643 2.614-1.808 4.094-4.393 4.923-7.333.816-2.895 1.031-6.242 1.062-9.745.016-1.763-.015-3.607-.05-5.487-.035-1.887-.073-3.815-.073-5.785h-2-2c0 2.015.039 3.982.074 5.859.034 1.885.065 3.677.05 5.378-.031 3.428-.248 6.333-.913 8.694-.653 2.316-1.703 3.991-3.349 5.129-1.679 1.161-4.223 1.933-8.183 1.933zm14.321-28.993h2v-190.512h-2-2v190.512zm0-190.512h2c0-7.812 1.349-14.434 5.608-19.131 4.228-4.663 11.729-7.863 25.071-7.863v-2-2c-13.894 0-22.732 3.328-28.035 9.176-5.272 5.815-6.644 13.69-6.644 21.818z" fill="#29b5e8"/></svg>