<?xml version="1.0" standalone="no"?>
<!DOCTYPE svg PUBLIC "-//W3C//DTD SVG 1.1//EN" "http://www.w3.org/Graphics/SVG/1.1/DTD/svg11.dtd">
<svg xmlns="http://www.w3.org/2000/svg"><metadata>This SVG WebFont was generated by YouWorkForThem.
Copyright (c) 2014 by Daniel Hernandez &amp; Miguel Hernandez. All rights reserved.</metadata><defs><font horiz-adv-x="1222" id="ywftsvg"><font-face ascent="1536" bbox="-57 -393 2011 1675" cap-height="1229" descent="-512" font-family="" font-stretch="normal" font-weight="800" panose-1="2 0 0 0 0 0 0 0 0 0" underline-position="0" underline-thickness="0" unicode-range="U+000D-25CA" units-per-em="2048" x-height="860"/><missing-glyph horiz-adv-x="1155"/><glyph glyph-name=".notdef" horiz-adv-x="1155"/><glyph glyph-name="glyph1" horiz-adv-x="0"/><glyph glyph-name="glyph2" horiz-adv-x="681"/><glyph glyph-name="glyph3" horiz-adv-x="0"/><glyph glyph-name="glyph3" horiz-adv-x="0"/><glyph glyph-name="space" horiz-adv-x="421" unicode=" "/><glyph d="M381 1229l-62 -821h-163l-62 821h287zM90 133.5q0 63.5 43 107.5t105 44q63 0 107 -44t44 -107.5t-44 -106.5t-107 -43q-61 0 -104.5 43t-43.5 106.5z" glyph-name="exclam" horiz-adv-x="477" unicode="!"/><glyph d="M332 1401l-96 -428h-146l29 428h213zM649 1401l-98 -428h-145l30 428h213z" glyph-name="quotedbl" horiz-adv-x="696" unicode="&quot;"/><glyph d="M1098 1194l-68 -305h246l-33 -144h-246l-65 -296h246l-33 -144h-244l-67 -305h-154l68 305h-291l-68 -305h-153l67 305h-242l31 144h242l65 296h-239l30 144h242l68 305h153l-67 -305h291l67 305h154zM553 745l-66 -296h291l66 296h-291z" glyph-name="numbersign" horiz-adv-x="1337" unicode="#"/><glyph d="M68 131l135 188q125 -94 284 -114v313q-209 61 -306 146.5t-97 226.5q0 156 103.5 252t299.5 110v213h121v-213q121 -8 216.5 -38.5t129.5 -59.5l35 -27l-133 -202q-96 78 -248 98v-283q213 -61 312.5 -149t99.5 -232q0 -160 -105.5 -266t-306.5 -119v-194h-121v194 q-125 8 -229 47t-147 74zM735 338q0 47 -27.5 79t-99.5 60v-272q127 24 127 133zM362 905q0 -41 28 -68.5t97 -54.5v242q-125 -21 -125 -119z" glyph-name="dollar" horiz-adv-x="1085" unicode="$"/><glyph d="M352 1255q129 0 205 -88t76 -215t-76 -216t-205 -89q-127 0 -203.5 90t-76.5 215q0 127 76.5 215t203.5 88zM352.5 1112q-108.5 0 -108.5 -159.5t108.5 -159.5t108.5 159.5t-108.5 159.5zM1024 592q129 0 206 -89t77 -216q0 -125 -77 -214t-206 -89q-127 0 -204 89 t-77 214q0 127 77 216t204 89zM1024 449q-109 0 -109 -162q0 -158 109 -158t109 158q0 162 -109 162zM1069 1229h207l-977 -1229h-209z" glyph-name="percent" horiz-adv-x="1374" unicode="%"/><glyph d="M977 645l235 -53q-35 -199 -147 -350l248 -242h-342l-76 78q-154 -98 -328 -98q-240 0 -360.5 98t-120.5 262q0 203 240 328l-23 22q-113 119 -113 250q0 135 101.5 225t275.5 90q172 0 275.5 -85t103.5 -220q0 -125 -68.5 -201.5t-187.5 -138.5l207 -202q62 106 80 237z M569 190q92 0 170 48l-258 268q-123 -70 -123 -162q0 -68 57.5 -111t153.5 -43zM436 926q0 -66 92 -156l7 -8q82 37 124.5 73.5t42.5 88.5q0 59 -34.5 94t-98 35t-98.5 -35t-35 -92z" glyph-name="ampersand" horiz-adv-x="1304" unicode="&amp;"/><glyph d="M332 1401l-96 -428h-146l29 428h213z" glyph-name="quotesingle" horiz-adv-x="380" unicode="'"/><glyph d="M319 588q0 -428 238 -701l-160 -168q-121 129 -184 250q-150 274 -150 619q0 518 326 862l8 8l160 -168q-238 -284 -238 -702z" glyph-name="parenleft" horiz-adv-x="589" unicode="("/><glyph d="M268 588q0 420 -235 702l160 168q137 -147 208 -301q123 -258 123 -569q0 -518 -323 -860q-6 -6 -8 -9l-160 168q235 271 235 701z" glyph-name="parenright" horiz-adv-x="589" unicode=")"/><glyph d="M143 907l176 187l-247 41l53 157l223 -116l-35 251h164l-41 -253l230 118l51 -157l-248 -41l178 -187l-135 -96l-117 225l-119 -225z" glyph-name="asterisk" horiz-adv-x="790" unicode="*"/><glyph d="M616 1055v-353h345v-200h-345v-336h-202v336h-342v200h342v353h202z" glyph-name="plus" horiz-adv-x="1030" unicode="+"/><glyph d="M367 121v-12q0 -133 -73 -233.5t-208 -127.5l-37 129q121 27 141 107q-49 10 -79.5 48t-30.5 89q0 59 42 101t101.5 42t101.5 -42t42 -101z" glyph-name="comma" horiz-adv-x="452" unicode=","/><glyph d="M102 369v200h574v-200h-574z" glyph-name="hyphen" horiz-adv-x="778" unicode="-"/><glyph d="M223.5 -20q-59.5 0 -101.5 40.5t-42 100t42 101.5t101.5 42t101.5 -42t42 -101.5t-42 -100t-101.5 -40.5z" glyph-name="period" horiz-adv-x="446" unicode="."/><glyph d="M289 -229h-248l920 1833h243z" glyph-name="slash" horiz-adv-x="1247" unicode="/"/><glyph d="M635 -27q-262 0 -407.5 184.5t-145.5 457t145.5 456.5t407.5 184q264 0 408.5 -183t144.5 -457.5t-144.5 -458t-408.5 -183.5zM635 211q143 0 220 110.5t77 293t-77 293t-220 110.5t-221 -111.5t-78 -292t78 -292t221 -111.5z" glyph-name="zero" horiz-adv-x="1269" unicode="0"/><glyph d="M31 1012v217h508v-1229h-248v1012h-260z" glyph-name="one" horiz-adv-x="669" unicode="1"/><glyph d="M88 0v178l477 463q57 57 78 99t21 98q0 76 -54.5 126t-144.5 50q-57 0 -117.5 -25.5t-82 -41t-72.5 -56.5l-132 199q6 6 18.5 17t54.5 40t89 50.5t120 39.5t151 18q215 0 338.5 -111.5t123.5 -275.5q0 -195 -139 -327l-334 -324h488v-217h-883z" glyph-name="two" horiz-adv-x="1058" unicode="2"/><glyph d="M475 555h-162v150l291 307h-506v217h836v-187l-283 -307q166 -27 242 -112.5t76 -243.5q0 -172 -124 -285.5t-364 -113.5q-82 0 -154.5 17t-118.5 40.5t-81 48.5t-49 41l-15 18l130 181q12 -14 35.5 -34t98 -53.5t150.5 -33.5q113 0 169 50t56 130q0 170 -227 170z" glyph-name="three" horiz-adv-x="1052" unicode="3"/><glyph d="M43 266v183l649 780h228v-748h192v-215h-192v-266h-248v266h-629zM346 489v-8h326v400l-285 -349z" glyph-name="four" horiz-adv-x="1171" unicode="4"/><glyph d="M895 1012h-518l-6 -244q53 6 116 6q246 0 364 -102.5t118 -280.5q0 -184 -123 -299t-363 -115q-80 0 -152.5 17.5t-118.5 42t-82 49.5t-52 41l-15 18l130 181q12 -14 35.5 -34t98 -53.5t150.5 -33.5q111 0 168 48t57 132q0 182 -278 182q-70 0 -136.5 -10t-97 -19.5 t-30.5 -11.5l-27 19l19 684h743v-217z" glyph-name="five" horiz-adv-x="1036" unicode="5"/><glyph d="M365 707v-27q98 98 258 98q197 0 316.5 -102.5t119.5 -278.5q0 -184 -134 -302t-333 -118q-223 0 -365.5 146.5t-142.5 458.5q0 307 139 485t381 178q123 0 222.5 -39t136.5 -76l38 -38l-137 -197q-47 41 -66.5 56.5t-74.5 37t-117 21.5q-241 0 -241 -303zM371 391h-2 q14 -92 72.5 -141t144.5 -49q94 0 151.5 55t57.5 137q0 80 -56.5 133.5t-148.5 53.5t-152.5 -53.5t-66.5 -135.5z" glyph-name="six" horiz-adv-x="1130" unicode="6"/><glyph d="M55 1012v217h881v-176l-524 -1053h-285l516 1012h-588z" glyph-name="seven" horiz-adv-x="964" unicode="7"/><glyph d="M557 -27q-219 0 -346 110t-127 273q0 188 158 287q-125 94 -125 258q0 154 113.5 254t326.5 100q211 0 324.5 -100t113.5 -254q0 -162 -127 -258q160 -96 160 -287q0 -164 -126 -273.5t-345 -109.5zM766 367q0 78 -57.5 129t-151.5 51t-152.5 -52.5t-58.5 -128t58.5 -127 t152.5 -51.5t151.5 51.5t57.5 127.5zM557 725q82 0 133 45t51 110.5t-51 111.5t-133 46t-134 -46t-52 -111.5t52 -110.5t134 -45z" glyph-name="eight" horiz-adv-x="1112" unicode="8"/><glyph d="M528 209q242 0 236 305v27q-102 -98 -258 -99q-197 0 -315.5 102.5t-118.5 278.5q0 184 133 303t332 119q223 0 366.5 -147.5t143.5 -458.5q0 -307 -137.5 -486.5t-379.5 -179.5q-123 0 -222 39t-136 78l-37 37l135 197q47 -41 66.5 -56.5t75 -37t116.5 -21.5zM758 829 q-31 190 -215 191q-92 0 -149.5 -55.5t-57.5 -137.5q0 -80 56.5 -133t148.5 -53t152.5 53t64.5 135z" glyph-name="nine" horiz-adv-x="1128" unicode="9"/><glyph d="M129 92q-12 47 11.5 88t70.5 53q45 14 87 -10t56 -71q12 -47 -11.5 -88t-70.5 -54q-47 -14 -89 10.5t-54 71.5zM129 700.5q-12 47.5 11.5 89t70.5 54.5q45 12 87 -11.5t56 -70.5q12 -47 -11.5 -88t-70.5 -56q-47 -12 -89 11.5t-54 71z" glyph-name="colon" horiz-adv-x="483" unicode=":"/><glyph d="M393 121v-12q0 -133 -72.5 -233.5t-205.5 -127.5l-39 129q121 27 141 107q-49 10 -78.5 48t-29.5 89q0 59 40.5 101t100 42t101.5 -42t42 -101zM249.5 590q-59.5 0 -100 41t-40.5 100.5t40.5 101t100 41.5t101.5 -41.5t42 -101t-42 -100.5t-101.5 -41z" glyph-name="semicolon" horiz-adv-x="499" unicode=";"/><glyph d="M72 522v183l557 339v-266l-353 -166l353 -170v-264z" glyph-name="less" horiz-adv-x="755" unicode="&lt;"/><glyph d="M113 694v201h704v-201h-704zM113 305v199h704v-199h-704z" glyph-name="equal" horiz-adv-x="927" unicode="="/><glyph d="M684 705v-183l-557 -344v264l352 170l-352 166v266z" glyph-name="greater" horiz-adv-x="755" unicode=">"/><glyph d="M180 938l-125 199q12 14 39 33.5t118 53t198 33.5q190 0 309 -92t119 -247q0 -80 -31 -144.5t-75 -104.5t-89 -73t-80 -72t-39 -82l-6 -45h-194v68q0 72 36.5 130t79.5 91t80 83t37 105q0 66 -46 103t-128 37q-51 0 -101.5 -19.5t-76.5 -38.5zM279 129q0 59 41.5 101 t101.5 42q61 0 102 -42t41 -101q0 -61 -41 -103t-102 -42q-59 0 -101 43t-42 102z" glyph-name="question" horiz-adv-x="907" unicode="?"/><glyph d="M1511 104q-84 0 -146 26t-93 63.5t-44.5 64.5t-17.5 47h-10q-20 -37 -50 -72.5t-103.5 -75.5t-163.5 -40q-160 0 -261.5 103.5t-101.5 277.5q0 231 133 375.5t322 144.5q201 0 262 -162l31 141h205l-56 -475q-6 -39 -6 -92q0 -78 46 -124t124 -46q111 0 178.5 103.5 t67.5 281.5q0 137 -52.5 271.5t-147.5 245t-248.5 179t-338.5 68.5q-367 0 -608.5 -248t-241.5 -592q0 -350 247 -597.5t595 -247.5q115 0 223.5 29.5t157.5 58.5l51 28l49 -104q-18 -14 -56 -36t-163 -56.5t-262 -34.5q-276 0 -499.5 134t-343 352t-119.5 470 q0 260 119.5 478.5t344 350.5t506.5 132q393 0 658.5 -256t265.5 -621q0 -236 -122 -390.5t-331 -154.5zM958 350q100 0 164 76t64 182q0 84 -46 132t-128 48q-94 0 -159 -70.5t-65 -182.5q0 -86 46 -135.5t124 -49.5z" glyph-name="at" horiz-adv-x="2039" unicode="@"/><glyph d="M741 1229l488 -1229h-264l-88 238h-531l-88 -238h-264l487 1229h260zM610 954l-190 -516h383z" glyph-name="A" unicode="A"/><glyph d="M1155 358q0 -172 -117.5 -265t-328.5 -93h-570v1229h555q209 0 317.5 -87t108.5 -247q0 -84 -42 -151.5t-115 -104.5v-12q90 -29 141 -99t51 -170zM709 524h-322v-307h324q80 0 130 43t50 111q0 66 -52 109.5t-130 43.5zM860 862q0 70 -46 110t-124 40h-303v-295h299 q78 0 126 42t48 103z" glyph-name="B" horiz-adv-x="1230" unicode="B"/><glyph d="M967 315l143 -190l-16.5 -16.5t-48 -37t-81.5 -47t-117 -37t-153 -16.5q-283 0 -454.5 184.5t-171.5 458.5q0 272 172 456.5t454 184.5q127 0 230.5 -37.5t144.5 -74.5l41 -39l-143 -191q-10 12 -31 30t-91.5 46.5t-148.5 28.5q-164 0 -268 -113.5t-104 -290t104 -291 t268 -114.5q78 0 145.5 26.5t96.5 53.5z" glyph-name="C" horiz-adv-x="1138" unicode="C"/><glyph d="M1231 614.5q0 -272.5 -175 -443.5t-464 -171h-453v1229h453q289 0 464 -171t175 -443.5zM575 1012h-188v-795h188q172 0 286 107.5t114 289.5q0 186 -113 292t-287 106z" glyph-name="D" horiz-adv-x="1300" unicode="D"/><glyph d="M924 723v-201h-537v-305h637v-217h-885v1229h885v-217h-637v-289h537z" glyph-name="E" horiz-adv-x="1099" unicode="E"/><glyph d="M924 721v-201h-537v-520h-248v1229h889v-217h-641v-291h537z" glyph-name="F" horiz-adv-x="1095" unicode="F"/><glyph d="M659 510v203h603v-150q0 -268 -155 -429t-419 -161q-283 0 -451.5 183.5t-168.5 458t171 457.5t453 183q86 0 164 -16t126 -38.5t85 -45t51 -39.5l17 -16l-150 -191q-12 12 -33.5 30.5t-98.5 48.5t-163 30q-162 0 -264 -113.5t-102 -290t101 -291t263 -114.5 q137 0 217 79t84 206v16h-330z" glyph-name="G" horiz-adv-x="1310" unicode="G"/><glyph d="M1202 1229v-1231h-250v512h-565v-512h-248v1231h248v-516h565v516h250z" glyph-name="H" horiz-adv-x="1341" unicode="H"/><glyph d="M387 1229v-1229h-248v1229h248z" glyph-name="I" horiz-adv-x="528" unicode="I"/><glyph d="M25 84l118 199q78 -68 197 -68q111 0 162 59.5t53 192.5v762h248v-811q-2 -197 -116 -322t-339 -125q-210 0 -323 113z" glyph-name="J" horiz-adv-x="931" unicode="J"/><glyph d="M387 1229v-570l524 570h299v-27l-456 -495l458 -680v-27h-276q-223 332 -350 522l-199 -215v-307h-248v1229h248z" glyph-name="K" horiz-adv-x="1230" unicode="K"/><glyph d="M965 0h-826v1229h248v-1012h578v-217z" glyph-name="L" horiz-adv-x="1019" unicode="L"/><glyph d="M1106 0v770l-311 -410h-99l-311 410v-770h-246v1229h197l409 -551l410 551h195l2 -1229h-246z" glyph-name="M" horiz-adv-x="1490" unicode="M"/><glyph d="M1227 1229v-1229h-191l-649 797v-797h-248v1229h191l649 -789v789h248z" glyph-name="N" horiz-adv-x="1366" unicode="N"/><glyph d="M688 -29q-272 0 -447 186.5t-175 457t174 455.5t448 185q276 0 450.5 -185t174.5 -455.5t-174.5 -457t-450.5 -186.5zM688 211q162 0 265.5 113.5t103.5 290t-103.5 290t-265.5 113.5q-158 0 -261 -115t-103 -289t103 -288.5t261 -114.5z" glyph-name="O" horiz-adv-x="1380" unicode="O"/><glyph d="M664 1229q213 0 342 -112.5t129 -299.5q0 -195 -129 -306.5t-344 -111.5h-275v-399h-248v1229h525zM879 815q0 96 -62.5 146.5t-167.5 50.5h-262v-398h262q106 0 168 50.5t62 150.5z" glyph-name="P" horiz-adv-x="1183" unicode="P"/><glyph d="M688 -29q-272 0 -447 186.5t-175 457t174 455.5t448 185q276 0 450.5 -185t174.5 -456q0 -184 -84 -334.5t-232 -232.5l146 -264h-275l-98 194q-39 -6 -82 -6zM688 211q162 0 265.5 113.5t103.5 290t-103.5 290t-265.5 113.5q-158 0 -261 -115t-103 -289t103 -288.5 t261 -114.5z" glyph-name="Q" horiz-adv-x="1380" unicode="Q"/><glyph d="M139 1229h525q213 0 342 -112.5t129 -299.5q0 -133 -64.5 -229t-179.5 -144v-16l285 -403v-25h-279l-276 406h-234v-406h-248v1229zM879 815q0 96 -62.5 146.5t-167.5 50.5h-262v-394h268q100 0 162 50.5t62 146.5z" glyph-name="R" horiz-adv-x="1226" unicode="R"/><glyph d="M61 131l136 188q18 -12 48.5 -32.5t122 -53t173.5 -32.5q188 0 188 137q0 61 -50 99t-196 81q-209 61 -307 146.5t-98 226.5q0 166 118.5 265t342.5 99q141 0 252.5 -31.5t150.5 -64.5l41 -31l-133 -202q-14 12 -40 28.5t-106.5 45t-164.5 28.5q-182 0 -183 -123 q0 -53 50.5 -86t185.5 -74q219 -61 320.5 -150t101.5 -235q0 -170 -119 -278.5t-346 -108.5q-145 0 -267 40t-171 79z" glyph-name="S" horiz-adv-x="1075" unicode="S"/><glyph d="M49 1012v217h979v-217h-366v-1012h-248v1012h-365z" glyph-name="T" horiz-adv-x="1077" unicode="T"/><glyph d="M651 -29q-240 0 -384 156t-144 397v705h248v-705q0 -139 72.5 -226t207.5 -87q139 0 210 86t71 227v705h248v-705q0 -244 -141.5 -398.5t-387.5 -154.5z" glyph-name="U" horiz-adv-x="1304" unicode="U"/><glyph d="M481 0l-487 1229h264l352 -955l355 955h264l-488 -1229h-260z" glyph-name="V" unicode="V"/><glyph d="M1051 0l-234 791l-225 -791h-193l-374 1229h268l205 -766l221 766h196l224 -768l207 768h270l-375 -1229h-190z" glyph-name="W" horiz-adv-x="1640" unicode="W"/><glyph d="M1135 1229l-365 -600l377 -629h-301l-213 393l-49 101l-49 -101l-211 -393h-299l370 629l-362 600h299l207 -373l45 -102l49 102l205 373h297z" glyph-name="X" horiz-adv-x="1167" unicode="X"/><glyph d="M606 801l240 428h272l-438 -752v-477h-248v473l-438 756h270l244 -428l49 -113z" glyph-name="Y" horiz-adv-x="1110" unicode="Y"/><glyph d="M61 0v182l654 830h-631v217h958v-191l-641 -821h637v-217h-977z" glyph-name="Z" horiz-adv-x="1114" unicode="Z"/><glyph d="M113 -266v1700h528v-201h-295v-1299h295v-200h-528z" glyph-name="bracketleft" horiz-adv-x="675" unicode="["/><glyph d="M500 -262l-445 1896h244l444 -1896h-243z" glyph-name="backslash" horiz-adv-x="798" unicode="\"/><glyph d="M35 -266v200h295v1299h-295v201h528v-1700h-528z" glyph-name="bracketright" horiz-adv-x="675" unicode="]"/><glyph d="M549 1018l-141 227l-142 -227h-186l262 401h131l268 -401h-192z" glyph-name="asciicircum" horiz-adv-x="823" unicode="^"/><glyph d="M84 -283v201h905v-201h-905z" glyph-name="underscore" horiz-adv-x="1075" unicode="_"/><glyph d="M268 1018l-192 276l278 41l80 -317h-166z" glyph-name="grave" horiz-adv-x="571" unicode="`"/><glyph d="M854 530v-530h-168l-33 109h-10q-80 -129 -276 -129q-145 0 -230.5 76.5t-85.5 195.5q0 133 99.5 208t291.5 75q98 0 176 -23v27q0 145 -204 145q-55 0 -111.5 -15.5t-85.5 -29.5l-29 -16l-77 180q14 8 40.5 21.5t117.5 35t190 21.5q190 0 292.5 -95.5t102.5 -255.5z M430 147q78 0 132 44.5t56 111.5v70q-49 27 -147 26q-92 0 -140 -34.5t-48 -96.5q0 -53 39.5 -87t107.5 -34z" glyph-name="a" horiz-adv-x="956" unicode="a"/><glyph d="M111 0v1239h245v-475h11q2 4 7 12t24.5 28.5t44 36t70.5 28t99 12.5q168 0 278.5 -127t110.5 -326q0 -203 -112.5 -325.5t-286.5 -122.5q-59 0 -110.5 15t-81 35.5t-51 42t-29.5 38.5l-8 14h-11l-35 -125h-165zM344 432q0 -115 57.5 -182.5t149.5 -67.5q88 0 145.5 71 t57.5 179.5t-56.5 177t-146.5 68.5q-92 0 -149.5 -66.5t-57.5 -179.5z" glyph-name="b" horiz-adv-x="1064" unicode="b"/><glyph d="M514 -20q-203 0 -328 126.5t-125 323.5t125 324t328 127q82 0 149.5 -19.5t94.5 -38.5l26 -20l-63 -176q-80 51 -184 51q-100 0 -164 -67.5t-64 -180.5q0 -115 63.5 -181.5t164.5 -66.5q47 0 93 13.5t68 25.5l23 12l61 -174q-10 -8 -29.5 -21t-88 -35.5t-150.5 -22.5z " glyph-name="c" horiz-adv-x="835" unicode="c"/><glyph d="M698 770h11v469h245v-1239h-161l-39 119h-11q-2 -6 -8 -15.5t-29.5 -33t-52 -42t-80 -33.5t-110.5 -15q-174 0 -288 122.5t-114 325.5q0 199 112 326t282 127q82 0 143 -28t82 -54zM723 432q0 113 -57.5 179.5t-151.5 66.5q-90 0 -146.5 -68.5t-56.5 -177t57.5 -179.5 t145.5 -71q92 0 150.5 67.5t58.5 182.5z" glyph-name="d" horiz-adv-x="1067" unicode="d"/><glyph d="M760 242l86 -162q-12 -12 -36 -29.5t-106.5 -46.5t-181.5 -29q-213 0 -337 128t-124 327q0 195 119 323t307 128q186 0 294 -117t108 -311l-2 -68h-588q20 -215 240 -215q59 0 114.5 17.5t79.5 35.5zM481 696q-145 0 -176 -166h344q-16 166 -168 166z" glyph-name="e" horiz-adv-x="942" unicode="e"/><glyph d="M666 670h-228v-670h-245v670h-148v190h148v51q0 162 84.5 252t242.5 90q55 0 106.5 -10t73.5 -20l25 -11l-76 -182q-37 18 -94 19q-53 0 -85 -34t-32 -91v-64h228v-190z" glyph-name="f" horiz-adv-x="686" unicode="f"/><glyph d="M924 676h-113v-4q27 -25 27 -109q0 -117 -94.5 -196.5t-270.5 -79.5q-82 0 -154 22q-41 -23 -40 -59q0 -20 12 -33.5t61 -25t144 -15.5q244 -10 340 -69.5t96 -188.5q0 -125 -119 -210t-336 -85q-219 0 -323.5 61.5t-104.5 168.5q0 121 131 192q-115 55 -114 176 q0 98 122 166q-80 76 -79 188q0 133 99 217.5t265 84.5q74 0 135 -17h316v-184zM496 -12q-57 2 -127 10q-84 -43 -84 -119q0 -98 192 -98q106 0 159.5 28.5t53.5 75.5q0 45 -41.5 72t-152.5 31zM473 717q-66 0 -103.5 -40t-37.5 -97q0 -59 38 -98.5t103 -39.5q68 0 108 39 t40 99q0 57 -40 97t-108 40z" glyph-name="g" horiz-adv-x="970" unicode="g"/><glyph d="M113 0v1239h247v-459h9q76 102 241 103q156 0 249 -103.5t93 -279.5v-498h-245v475q0 82 -47.5 136.5t-124.5 54.5q-76 0 -123 -49.5t-52 -114.5v-504h-247z" glyph-name="h" horiz-adv-x="1052" unicode="h"/><glyph d="M237.5 995q-61.5 0 -102.5 39t-41 100.5t41 101.5t102.5 40t103.5 -40t42 -101.5t-42 -100.5t-103.5 -39zM113 0v860h245v-860h-245z" glyph-name="i" horiz-adv-x="473" unicode="i"/><glyph d="M-4 -319v204h41q76 0 76 78v897h247v-909q0 -123 -68.5 -196.5t-193.5 -73.5h-102zM235.5 995q-61.5 0 -102.5 39t-41 100.5t41 101.5t102.5 40t104.5 -40t43 -101.5t-43 -100.5t-104.5 -39z" glyph-name="j" horiz-adv-x="475" unicode="j"/><glyph d="M639 860h297l-315 -375l327 -485h-297l-221 330l-72 -82v-248h-245v1239h245v-727z" glyph-name="k" horiz-adv-x="958" unicode="k"/><glyph d="M115 0v1239h245v-1239h-245z" glyph-name="l" horiz-adv-x="473" unicode="l"/><glyph d="M950 494v-494h-245v489q0 78 -46.5 128.5t-126 50.5t-125 -47.5t-49.5 -116.5v-504h-245v860h153l35 -121h14q90 141 277 142q207 0 301 -150h12q92 152 281 152q164 0 259 -104.5t95 -278.5v-500h-246v479q0 82 -45 135.5t-125 53.5q-84 0 -129 -51t-45 -123z" glyph-name="m" horiz-adv-x="1640" unicode="m"/><glyph d="M358 492v-492h-245v860h153l35 -121h14q51 74 115 109t164 35q166 0 262 -104.5t96 -278.5v-500h-245v479q0 82 -47.5 135.5t-127 53.5t-127 -53t-47.5 -123z" glyph-name="n" horiz-adv-x="1054" unicode="n"/><glyph d="M958 426q0 -199 -130 -322.5t-318 -123.5q-190 0 -320.5 123.5t-130.5 322.5q0 201 130 328t321 127q188 0 318 -127t130 -328zM510 174q90 0 148.5 69.5t58.5 186.5q0 115 -58.5 185.5t-148.5 70.5q-92 0 -150.5 -70.5t-58.5 -185.5q0 -117 57.5 -186.5t151.5 -69.5z " glyph-name="o" horiz-adv-x="1019" unicode="o"/><glyph d="M369 90h-11v-409h-245v1179h157l37 -121h12q2 6 9.5 15.5t31 34t53 43t81 34t110.5 15.5q174 0 287 -123t113 -326q0 -199 -112 -325.5t-280 -126.5q-53 0 -98 11t-70.5 27.5t-44 33t-24.5 26.5zM346 428q0 -113 57.5 -179.5t147.5 -66.5t147.5 68.5t57.5 177.5 t-57.5 179.5t-147.5 70.5t-147.5 -67.5t-57.5 -182.5z" glyph-name="p" horiz-adv-x="1064" unicode="p"/><glyph d="M954 860v-1179h-245v415h-11q-2 -4 -7 -12t-24.5 -28.5t-44 -36t-69.5 -27.5t-98 -12q-170 0 -282 126.5t-112 325.5q0 203 114 326t288 123q61 0 112.5 -15.5t82 -38t52 -45t29.5 -37.5l9 -16h8l39 131h159zM723 428q0 115 -58.5 182.5t-150.5 67.5q-88 0 -145.5 -70.5 t-57.5 -179.5t56.5 -177.5t146.5 -68.5q94 0 151.5 66.5t57.5 179.5z" glyph-name="q" horiz-adv-x="1064" unicode="q"/><glyph d="M600 860v-207h-45q-88 0 -142.5 -56t-54.5 -153v-444h-245v860h153l35 -127h12q68 127 240 127h47z" glyph-name="r" horiz-adv-x="626" unicode="r"/><glyph d="M61 76l80 168q129 -84 279 -84q131 0 131 73q0 37 -49 60.5t-120 42t-142.5 45.5t-120.5 87t-49 150q0 115 89 189t255 74q109 0 203 -18.5t133 -39.5l38 -18l-75 -182q-115 76 -271 75q-125 0 -125 -71q0 -31 36 -51.5t91.5 -30.5t118 -30.5t117.5 -47.5t91 -83t36 -136 q0 -121 -91 -194.5t-282 -73.5q-115 0 -208 24.5t-128 48.5z" glyph-name="s" horiz-adv-x="868" unicode="s"/><glyph d="M29 860h149v262h246v-262h211v-190h-211v-385q0 -94 92 -95q23 0 45.5 7.5t34.5 15.5l12 6l70 -170q-96 -70 -221 -69q-143 0 -211 79.5t-68 216.5v394h-149v190z" glyph-name="t" horiz-adv-x="700" unicode="t"/><glyph d="M692 362v498h246v-860h-164l-43 117h-10q-94 -137 -266 -137q-164 0 -258.5 103t-94.5 277v500h246v-479q0 -86 43 -140.5t123 -54.5q84 0 131 54t47 122z" glyph-name="u" horiz-adv-x="1050" unicode="u"/><glyph d="M385 0l-385 860h268l183 -500q14 -39 14 -69h12q0 25 17 69l182 500h268l-385 -860h-174z" glyph-name="v" horiz-adv-x="944" unicode="v"/><glyph d="M1358 860l-311 -860h-209l-133 463q-16 57 -17 96h-10q0 -31 -19 -96l-133 -463h-207l-311 860h260l140 -500q12 -45 12 -69h12q0 16 17 76l131 493h211l129 -493q16 -49 16 -76h12q0 20 13 69l141 500h256z" glyph-name="w" horiz-adv-x="1366" unicode="w"/><glyph d="M27 0l284 438l-274 422h276l156 -270h6l156 270h274l-289 -422l299 -438h-276l-164 291h-6l-168 -291h-274z" glyph-name="x" horiz-adv-x="935" unicode="x"/><glyph d="M930 860l-504 -1179h-254l184 389l-354 790h270l183 -500q16 -45 16 -69h12q0 31 15 69l182 500h250z" glyph-name="y" horiz-adv-x="933" unicode="y"/><glyph d="M809 0h-741v135l421 527h-417v198h737v-123l-414 -538h414v-199z" glyph-name="z" horiz-adv-x="876" unicode="z"/><glyph d="M33 680h47q117 0 117 158v315q0 293 333 311l35 -204q-68 -12 -93.5 -35t-25.5 -88v-334q0 -168 -127 -209v-19q127 -39 127 -206v-334q0 -63 26 -87t93 -34l-35 -205q-334 14 -333 311v314q0 160 -117 160h-47v186z" glyph-name="braceleft" horiz-adv-x="622" unicode="{"/><glyph d="M338 1407v-1669h-225v1669h225z" glyph-name="bar" horiz-adv-x="450" unicode="|"/><glyph d="M543 680h47v-186h-47q-117 0 -117 -160v-314q0 -297 -334 -311l-35 205q68 10 93.5 33.5t25.5 87.5v334q0 168 127 206v19q-127 41 -127 209v334q0 66 -25.5 88t-93.5 35l35 204q334 -18 334 -311v-315q0 -158 117 -158z" glyph-name="braceright" horiz-adv-x="622" unicode="}"/><glyph d="M631 678q41 0 80 12t57 25l18 12l80 -152q-8 -10 -26.5 -23t-78 -36.5t-124.5 -23.5q-55 0 -147.5 32.5t-153.5 32.5q-41 0 -80 -12.5t-57 -24.5l-19 -14l-78 151q10 10 29 24.5t78 38t123 23.5q57 0 147.5 -32.5t151.5 -32.5z" glyph-name="asciitilde" horiz-adv-x="970" unicode="~"/><glyph glyph-name="uni00A0" horiz-adv-x="421" unicode=" "/><glyph d="M309 461l62 -821h-285l61 821h162zM78 735q0 61 44 105.5t107 44.5q61 0 104.5 -44t43.5 -106q0 -63 -43 -107t-105 -44q-63 0 -107 44t-44 107z" glyph-name="exclamdown" horiz-adv-x="456" unicode="¡"/><glyph d="M383 0l23 174q-154 37 -243 154.5t-89 281.5q0 195 124 322t324 129l23 168h104l-22 -176q49 -8 92 -24.5t61 -29.5l19 -12l-64 -180q-57 35 -135 47l-65 -492h16q47 0 93 13.5t69 25.5l22 13l62 -178q-10 -8 -31 -20.5t-89.5 -34t-146.5 -21.5h-22l-21 -160h-104z M322 610q0 -156 112 -219l60 461q-78 -18 -125 -83t-47 -159z" glyph-name="cent" horiz-adv-x="876" unicode="¢"/><glyph d="M954 217v-217h-848v217q12 4 37 20.5t56.5 62.5t31.5 101q0 25 -16 111h-125v170h86q-20 96 -20 170q0 168 122.5 279.5t339.5 111.5q66 0 128.5 -13t103.5 -31.5t71.5 -38t45.5 -34.5l14 -12l-147 -203q-8 10 -25.5 25.5t-71 41.5t-110.5 26q-94 0 -144.5 -50.5 t-50.5 -134.5q0 -61 17 -137h366v-170h-332q12 -57 13 -111q0 -96 -52 -184h510z" glyph-name="sterling" horiz-adv-x="1050" unicode="£"/><glyph d="M672 801l239 428h273l-346 -594h235v-172h-328v-111h328v-170h-328v-182h-247v182h-326v170h326v111h-326v172h231l-344 594h271l243 -428l50 -113z" glyph-name="yen" horiz-adv-x="1241" unicode="¥"/><glyph d="M348 676h-225v702h225v-702zM348 -313h-225v700h225v-700z" glyph-name="brokenbar" horiz-adv-x="471" unicode="¦"/><glyph d="M70 94l106 170q16 -10 47 -25.5t127 -41t193 -25.5q193 0 192 82q0 45 -45 69.5t-182 63.5q-82 23 -136.5 42.5t-113.5 52t-89 77.5t-30 105q0 94 72 143q-98 59 -98 172q0 127 113.5 201.5t338.5 74.5q131 0 239.5 -24.5t149.5 -48.5l43 -25l-106 -178q-129 80 -326 80 q-168 0 -168 -80q0 -39 40 -63.5t143 -51.5q74 -20 118.5 -33.5t108 -40t100.5 -53t63.5 -67.5t26.5 -90q0 -100 -67 -162q96 -66 96 -166q0 -121 -121 -201t-356 -80q-143 0 -263 31t-167 61zM496 707q-10 2 -42 10t-46 12q-25 -10 -25 -53q0 -74 209 -131q16 -4 63 -17.5 t70 -21.5q25 25 25 59q0 47 -61.5 77t-192.5 65z" glyph-name="section" horiz-adv-x="1107" unicode="§"/><glyph d="M160 1446q0 51 36.5 88t84.5 37q49 0 87 -37t38 -88q0 -49 -38 -86t-87 -37q-47 0 -84 37t-37 86zM520 1446q0 51 37 88t84 37q51 0 88 -37t37 -88q0 -49 -37 -86t-88 -37q-47 0 -84 37t-37 86z" glyph-name="dieresis" horiz-adv-x="931" unicode="¨"/><glyph d="M692.5 1239q278.5 0 445.5 -180t167 -446.5t-167 -445.5t-445.5 -179t-446.5 180t-168 444q0 266 168 446.5t446.5 180.5zM692.5 1153q-237.5 0 -380 -154.5t-142.5 -386.5q0 -229 142.5 -383.5t380 -154.5t381 154.5t143.5 383.5q0 231 -143.5 386t-381 155zM928 866 l-86 -121q-45 43 -123 43t-124 -49t-46 -125q0 -78 46 -126t124 -48q35 0 65.5 11.5t42.5 23.5l15 10l86 -123q-8 -8 -23.5 -20t-72 -33.5t-123.5 -21.5q-152 0 -243 94t-91 233q0 141 91 235.5t243 94.5q68 0 122 -19.5t74 -39.5z" glyph-name="copyright" horiz-adv-x="1382" unicode="©"/><glyph d="M59 760q0 100 80 159.5t213 59.5q119 0 170 -43v16q0 80 -38 120t-124 40q-96 0 -182 -43l-51 133q117 55 258 55q164 0 236.5 -78.5t72.5 -230.5v-387h-127l-24 72h-13q-57 -88 -219 -88q-106 0 -179 60.5t-73 154.5zM233 768q0 -45 37 -73.5t101 -28.5q61 0 104 30.5 t47 71.5v16q-10 88 -147 88q-68 0 -105 -28.5t-37 -75.5z" glyph-name="ordfeminine" horiz-adv-x="798" unicode="ª"/><glyph d="M66 403v46l260 387h204v-19l-251 -381v-16l251 -385v-19h-204zM483 403v46l260 387h205v-19l-252 -381v-16l252 -385v-19h-205z" glyph-name="guillemotleft" horiz-adv-x="1013" unicode="«"/><glyph d="M84 508v201h940v-709h-203v508h-737z" glyph-name="logicalnot" horiz-adv-x="1142" unicode="¬"/><glyph d="M1012 778q0 -203 -127 -340t-338 -137q-209 0 -335 138.5t-126 338.5q0 203 125 340t336 137t338 -137t127 -340zM920 778q0 168 -103.5 278.5t-269.5 110.5t-267.5 -108.5t-101.5 -280.5q0 -168 102.5 -278.5t266.5 -110.5q166 0 269.5 110.5t103.5 278.5zM365 993h198 q82 0 131 -41t49 -110q0 -82 -71 -127l78 -113v-22h-113l-76 108h-88v-108h-108v413zM561 893h-88v-109h88q68 0 68 54q0 55 -68 55z" glyph-name="registered" horiz-adv-x="1095" unicode="®"/><glyph d="M248 1368v150h604v-150h-604z" glyph-name="macron" horiz-adv-x="1077" unicode="¯"/><glyph d="M294.5 1378q106.5 0 172 -63.5t65.5 -157.5t-65.5 -157.5t-172 -63.5t-172 63.5t-65.5 157.5t65.5 157.5t172 63.5zM295 1255q-47 0 -73.5 -27.5t-26.5 -70.5q0 -41 26.5 -68.5t73.5 -27.5q45 0 72.5 27.5t27.5 68.5q0 43 -27.5 70.5t-72.5 27.5z" glyph-name="degree" horiz-adv-x="589" unicode="°"/><glyph d="M637 379h-203v309h-325v199h325v323h203v-323h317v-199h-317v-309zM954 250v-201h-845v201h845z" glyph-name="plusminus" horiz-adv-x="1064" unicode="±"/><glyph d="M98 700v127l254 224q55 47 56 96q0 37 -25 60.5t-70 23.5q-61 0 -143 -68l-90 129q10 10 28.5 25.5t82 42t131.5 26.5q125 0 191.5 -64.5t66.5 -160.5q0 -117 -82 -186l-156 -133h252v-142h-496z" glyph-name="uni00B2" horiz-adv-x="688" unicode="²"/><glyph d="M90 1225v143h469v-106l-121 -154q150 -39 150 -188q0 -104 -71 -170t-206 -66q-152 0 -241 90l86 119q55 -57 149 -57q113 0 113 84q0 80 -103 79h-88v80l117 146h-254z" glyph-name="uni00B3" horiz-adv-x="659" unicode="³"/><glyph d="M479 1288l-221 -270h-162l103 297z" glyph-name="acute" horiz-adv-x="571" unicode="´"/><glyph d="M700 362v498h246v-860h-164l-43 117h-10q-94 -137 -266 -137q-49 0 -111 14l4 -256h-245v1122h245v-479q0 -86 43 -140.5t123 -54.5q84 0 131 54t47 122z" glyph-name="uni00B5" horiz-adv-x="1058" unicode="µ"/><glyph d="M739 -168v418h-114q-252 0 -409 131t-157 369q0 231 156 356t408 125h364v-1399h-248z" glyph-name="paragraph" horiz-adv-x="1120" unicode="¶"/><glyph d="M80 735.5q0 63.5 44 107.5t105 44q63 0 106.5 -44t43.5 -107.5t-43 -106.5t-107 -43q-61 0 -105 43t-44 106.5z" glyph-name="periodcentered" horiz-adv-x="460" unicode="·"/><glyph d="M145 -150l-41 46l54 110h114l-26 -67q57 -2 94 -37t37 -97q0 -70 -48 -111.5t-132 -41.5q-53 0 -96.5 16.5t-59.5 32.5l-18 16l55 86q55 -43 112 -43q70 0 70 52q0 47 -63 47z" glyph-name="cedilla" horiz-adv-x="421" unicode="¸"/><glyph d="M43 1225v143h293v-668h-162v525h-131z" glyph-name="uni00B9" horiz-adv-x="450" unicode="¹"/><glyph d="M399 1255q147 0 242.5 -98t95.5 -260q0 -156 -96 -251t-241.5 -95t-242 96t-96.5 250q0 162 96.5 260t241.5 98zM399 1108q-76 0 -121 -57.5t-45 -149.5t45.5 -147.5t120.5 -55.5q78 0 122 55.5t44 147.5q0 94 -44 150.5t-122 56.5z" glyph-name="ordmasculine" horiz-adv-x="800" unicode="º"/><glyph d="M530 449v-46l-258 -387h-206v19l251 385v16l-251 381v19h206zM948 449v-46l-260 -387h-205v19l252 385v16l-252 381v19h205z" glyph-name="guillemotright" horiz-adv-x="1013" unicode="»"/><glyph d="M258 -2l-197 2l973 1229h197zM649 152v102l367 414h125v-383h114v-133h-114v-152h-156v152h-336zM94 1085v144h295v-668h-162v524h-133zM840 281v-2l65 6h80v168h-2l-98 -125z" glyph-name="onequarter" horiz-adv-x="1331" unicode="¼"/><glyph d="M256 0h-195l969 1229h199zM870 127l256 223q53 47 54 96q0 37 -23.5 60.5t-69.5 23.5q-61 0 -143 -67l-90 129l27 22q27 25 87 48.5t128 23.5q125 0 191.5 -64.5t66.5 -160.5q0 -117 -82 -187l-156 -133h252v-141h-498v127zM102 1085v144h293v-668h-162v524h-131z" glyph-name="onehalf" horiz-adv-x="1441" unicode="½"/><glyph d="M385 0h-197l971 1229h197zM772 141v105l369 411h123v-383h106v-133h-106v-141h-158v141h-334zM88 1085v144h469v-107l-121 -153q150 -39 150 -189q0 -104 -71 -169.5t-206 -65.5q-152 0 -241 90l86 119q53 -57 147 -58q115 0 115 84q0 80 -103 80h-88v80l117 145h-254z M963 270v-2l65 6h78v168h-2l-96 -125z" glyph-name="threequarters" horiz-adv-x="1439" unicode="¾"/><glyph d="M719 -70l125 -198q-12 -12 -39 -33t-118 -53.5t-195 -32.5q-193 0 -312 91t-119 247q0 82 31 145.5t75 103.5t89 73.5t80 72.5t41 82l4 43h197v-65q0 -72 -37 -130.5t-80 -92t-80 -83t-37 -104.5q0 -66 46 -103.5t128 -37.5q49 0 99.5 19.5t74.5 37.5zM621 741 q0 -61 -42 -103t-101.5 -42t-101.5 42t-42 103q0 59 42 102.5t101.5 43.5t101.5 -43.5t42 -102.5z" glyph-name="questiondown" horiz-adv-x="890" unicode="¿"/><glyph d="M741 1229l488 -1229h-264l-88 238h-531l-88 -238h-264l487 1229h260zM610 954l-190 -516h383zM520 1300l-192 277l278 41l80 -318h-166z" glyph-name="Agrave" unicode="À"/><glyph d="M741 1229l488 -1229h-264l-88 238h-531l-88 -238h-264l487 1229h260zM610 954l-190 -516h383zM915 1571l-221 -271h-162l103 297z" glyph-name="Aacute" unicode="Á"/><glyph d="M741 1229l488 -1229h-264l-88 238h-531l-88 -238h-264l487 1229h260zM610 954l-190 -516h383zM707 1323l-95 127l-94 -127h-174l174 268h191l174 -268h-176z" glyph-name="Acircumflex" unicode="Â"/><glyph d="M741 1229l488 -1229h-264l-88 238h-531l-88 -238h-264l487 1229h260zM610 954l-190 -516h383zM770 1329q-70 0 -154 44t-114 44q-49 0 -68 -63l-8 -33l-174 16l12 70q35 197 207 197q68 0 151 -45.5t115 -45.5q55 0 70 64l8 33l172 -17l-10 -67q-14 -90 -66.5 -143.5 t-140.5 -53.5z" glyph-name="Atilde" unicode="Ã"/><glyph d="M741 1229l488 -1229h-264l-88 238h-531l-88 -238h-264l487 1229h260zM610 954l-190 -516h383zM309 1446q0 51 37 88t84 37q49 0 87 -37t38 -88q0 -49 -38 -86t-87 -37q-47 0 -84 37t-37 86zM670 1446q0 51 36.5 88t84.5 37q51 0 87.5 -37t36.5 -88q0 -49 -36.5 -86 t-87.5 -37q-47 0 -84 37t-37 86z" glyph-name="Adieresis" unicode="Ä"/><glyph d="M741 1229l488 -1229h-264l-88 238h-531l-88 -238h-264l487 1229h260zM610 954l-190 -516h383zM379 1444q0 82 61.5 133t170 51t170 -51t61.5 -133t-61.5 -133t-170 -51t-170 51t-61.5 133zM707 1444q0 74 -97 74q-94 0 -94 -74t94 -74q97 0 97 74z" glyph-name="Aring" unicode="Å"/><glyph d="M-29 0l840 1229h948v-217h-663v-295h536v-201h-536v-299h663v-217h-911v248h-418l-162 -248h-297zM840 874l-277 -421h285v421h-8z" glyph-name="AE" horiz-adv-x="1830" unicode="Æ"/><glyph d="M596 -150l-41 46l39 84q-242 31 -384 209t-142 425q0 272 172 456.5t454 184.5q127 0 230.5 -37.5t144.5 -74.5l41 -39l-143 -191q-10 12 -31 30t-91.5 46.5t-148.5 28.5q-164 0 -268 -113.5t-104 -290t104 -291t268 -114.5q78 0 145.5 26.5t96.5 53.5l29 26l143 -190 q-14 -16 -43 -41t-132.5 -68t-225.5 -45l-13 -32q57 -2 94 -37t37 -97q0 -70 -48 -111.5t-132 -41.5q-53 0 -96 16.5t-59 32.5l-19 16l55 86q55 -43 113 -43q70 0 70 52q0 47 -64 47z" glyph-name="Ccedilla" horiz-adv-x="1138" unicode="Ç"/><glyph d="M924 723v-201h-537v-305h637v-217h-885v1229h885v-217h-637v-289h537zM528 1300l-192 277l278 41l80 -318h-166z" glyph-name="Egrave" horiz-adv-x="1099" unicode="È"/><glyph d="M897 1571l-221 -271h-162l102 297zM924 723v-201h-537v-305h637v-217h-885v1229h885v-217h-637v-289h537z" glyph-name="Eacute" horiz-adv-x="1099" unicode="É"/><glyph d="M696 1323l-94 127l-94 -127h-174l174 268h190l174 -268h-176zM924 723v-201h-537v-305h637v-217h-885v1229h885v-217h-637v-289h537z" glyph-name="Ecircumflex" horiz-adv-x="1099" unicode="Ê"/><glyph d="M299 1446q0 51 37 88t84 37q49 0 87 -37t38 -88q0 -49 -38 -86t-87 -37q-47 0 -84 37t-37 86zM659 1446q0 51 37 88t84 37q51 0 88 -37t37 -88q0 -49 -37 -86t-88 -37q-47 0 -84 37t-37 86zM924 723v-201h-537v-305h637v-217h-885v1229h885v-217h-637v-289h537z" glyph-name="Edieresis" horiz-adv-x="1099" unicode="Ë"/><glyph d="M387 1229v-1229h-248v1229h248zM172 1300l-192 277l278 41l80 -318h-166z" glyph-name="Igrave" horiz-adv-x="528" unicode="Ì"/><glyph d="M387 1229v-1229h-248v1229h248zM567 1571l-221 -271h-162l103 297z" glyph-name="Iacute" horiz-adv-x="528" unicode="Í"/><glyph d="M387 1229v-1229h-248v1229h248zM362 1323l-94 127l-94 -127h-174l174 268h191l174 -268h-177z" glyph-name="Icircumflex" horiz-adv-x="528" unicode="Î"/><glyph d="M387 1229v-1229h-248v1229h248zM-37 1446q0 51 37 88t84 37q49 0 87 -37t38 -88q0 -49 -38 -86t-87 -37q-47 0 -84 37t-37 86zM324 1446q0 51 36.5 88t83.5 37q51 0 88 -37t37 -88q0 -49 -36.5 -86t-88.5 -37q-47 0 -83.5 37t-36.5 86z" glyph-name="Idieresis" horiz-adv-x="528" unicode="Ï"/><glyph d="M37 512v221h106v496h453q289 0 464 -171t175 -443.5t-175 -443.5t-464 -171h-453v512h-106zM580 1012h-189v-279h275v-221h-275v-295h189q172 0 285.5 107.5t113.5 289.5q0 186 -112.5 292t-286.5 106z" glyph-name="Eth" horiz-adv-x="1302" unicode="Ð"/><glyph d="M1227 1229v-1229h-191l-649 797v-797h-248v1229h191l649 -789v789h248zM842 1329q-70 0 -154 44t-115 44q-49 0 -67 -63l-8 -33l-174 16l12 70q35 197 207 197q68 0 150.5 -45.5t115.5 -45.5q55 0 70 64l8 33l172 -17l-10 -67q-14 -90 -66.5 -143.5t-140.5 -53.5z" glyph-name="Ntilde" horiz-adv-x="1366" unicode="Ñ"/><glyph d="M688 -29q-272 0 -447 186.5t-175 457t174 455.5t448 185q276 0 450.5 -185t174.5 -455.5t-174.5 -457t-450.5 -186.5zM688 211q162 0 265.5 113.5t103.5 290t-103.5 290t-265.5 113.5q-158 0 -261 -115t-103 -289t103 -288.5t261 -114.5zM604 1323l-192 276l278 41 l80 -317h-166z" glyph-name="Ograve" horiz-adv-x="1380" unicode="Ò"/><glyph d="M983 1593l-221 -270h-162l102 297zM688 -29q-272 0 -447 186.5t-175 457t174 455.5t448 185q276 0 450.5 -185t174.5 -455.5t-174.5 -457t-450.5 -186.5zM688 211q162 0 265.5 113.5t103.5 290t-103.5 290t-265.5 113.5q-158 0 -261 -115t-103 -289t103 -288.5 t261 -114.5z" glyph-name="Oacute" horiz-adv-x="1380" unicode="Ó"/><glyph d="M786 1323l-94 127l-94 -127h-174l174 268h190l175 -268h-177zM688 -29q-272 0 -447 186.5t-175 457t174 455.5t448 185q276 0 450.5 -185t174.5 -455.5t-174.5 -457t-450.5 -186.5zM688 211q162 0 265.5 113.5t103.5 290t-103.5 290t-265.5 113.5q-158 0 -261 -115 t-103 -289t103 -288.5t261 -114.5z" glyph-name="Ocircumflex" horiz-adv-x="1380" unicode="Ô"/><glyph d="M688 -29q-272 0 -447 186.5t-175 457t174 455.5t448 185q276 0 450.5 -185t174.5 -455.5t-174.5 -457t-450.5 -186.5zM688 211q162 0 265.5 113.5t103.5 290t-103.5 290t-265.5 113.5q-158 0 -261 -115t-103 -289t103 -288.5t261 -114.5zM842 1329q-70 0 -154 44t-115 44 q-49 0 -67 -63l-8 -33l-174 16l12 70q35 197 207 197q68 0 150.5 -45.5t115.5 -45.5q55 0 70 64l8 33l172 -17l-10 -67q-14 -90 -66.5 -143.5t-140.5 -53.5z" glyph-name="Otilde" horiz-adv-x="1380" unicode="Õ"/><glyph d="M387 1446q0 51 37 88t84 37q49 0 87 -37t38 -88q0 -49 -38 -86t-87 -37q-47 0 -84 37t-37 86zM748 1446q0 51 36.5 88t83.5 37q51 0 88 -37t37 -88q0 -49 -36.5 -86t-88.5 -37q-47 0 -83.5 37t-36.5 86zM688 -29q-272 0 -447 186.5t-175 457t174 455.5t448 185 q276 0 450.5 -185t174.5 -455.5t-174.5 -457t-450.5 -186.5zM688 211q162 0 265.5 113.5t103.5 290t-103.5 290t-265.5 113.5q-158 0 -261 -115t-103 -289t103 -288.5t261 -114.5z" glyph-name="Odieresis" horiz-adv-x="1380" unicode="Ö"/><glyph d="M231 184l-139 140l289 292l-289 295l139 140l289 -293l289 293l139 -140l-291 -295l291 -292l-139 -140l-289 293z" glyph-name="multiply" horiz-adv-x="1040" unicode="×"/><glyph d="M705 -29q-221 0 -379 123l-93 -94h-256l222 227q-117 168 -117 387q0 270 174 455.5t449 185.5q215 0 374 -120l92 94h256l-219 -225q121 -166 121 -390q0 -270 -174 -456.5t-450 -186.5zM705 211q162 0 265 113.5t103 289.5q0 113 -45 203l-528 -543q88 -63 205 -63z M340 614q0 -111 41 -198l526 540q-90 61 -202 62q-158 0 -261.5 -115t-103.5 -289z" glyph-name="Oslash" horiz-adv-x="1409" unicode="Ø"/><glyph d="M651 -29q-240 0 -384 156t-144 397v705h248v-705q0 -139 72.5 -226t207.5 -87q139 0 210 86t71 227v705h248v-705q0 -244 -141.5 -398.5t-387.5 -154.5zM563 1300l-192 277l278 41l80 -318h-166z" glyph-name="Ugrave" horiz-adv-x="1304" unicode="Ù"/><glyph d="M946 1571l-221 -271h-162l103 297zM651 -29q-240 0 -384 156t-144 397v705h248v-705q0 -139 72.5 -226t207.5 -87q139 0 210 86t71 227v705h248v-705q0 -244 -141.5 -398.5t-387.5 -154.5z" glyph-name="Uacute" horiz-adv-x="1304" unicode="Ú"/><glyph d="M750 1300l-95 127l-94 -127h-174l174 269h191l174 -269h-176zM651 -29q-240 0 -384 156t-144 397v705h248v-705q0 -139 72.5 -226t207.5 -87q139 0 210 86t71 227v705h248v-705q0 -244 -141.5 -398.5t-387.5 -154.5z" glyph-name="Ucircumflex" horiz-adv-x="1304" unicode="Û"/><glyph d="M352 1446q0 51 37 88t84 37q49 0 87 -37t38 -88q0 -49 -38 -86t-87 -37q-47 0 -84 37t-37 86zM713 1446q0 51 36.5 88t84.5 37q51 0 87.5 -37t36.5 -88q0 -49 -36.5 -86t-87.5 -37q-47 0 -84 37t-37 86zM651 -29q-240 0 -384 156t-144 397v705h248v-705q0 -139 72.5 -226 t207.5 -87q139 0 210 86t71 227v705h248v-705q0 -244 -141.5 -398.5t-387.5 -154.5z" glyph-name="Udieresis" horiz-adv-x="1304" unicode="Ü"/><glyph d="M606 801l240 428h272l-438 -752v-477h-248v473l-438 756h270l244 -428l49 -113zM856 1638l-221 -270h-162l102 297z" glyph-name="Yacute" horiz-adv-x="1110" unicode="Ý"/><glyph d="M387 1229v-187h291q223 0 352 -111.5t129 -309.5q0 -209 -136 -324t-361 -115h-275v-182h-248v1229h248zM903 610q0 104 -67.5 159.5t-182.5 55.5h-266v-432h268q117 0 182.5 54t65.5 163z" glyph-name="Thorn" horiz-adv-x="1200" unicode="Þ"/><glyph d="M487 512v174q174 33 175 186q0 70 -39 112t-111 42q-70 0 -112 -48t-42 -130v-848h-245v829q0 193 105.5 299.5t299.5 106.5q176 0 286.5 -103.5t110.5 -252.5q0 -180 -137 -254q84 -33 130 -108t46 -175q0 -160 -102 -257t-272 -97q-47 0 -79 3t-40 5l-8 4l6 162 q47 -4 73 -4q90 0 141.5 48t51.5 130t-51 129t-142 47h-45z" glyph-name="germandbls" horiz-adv-x="1021" unicode="ß"/><glyph d="M854 530v-530h-168l-33 109h-10q-80 -129 -276 -129q-145 0 -230.5 76.5t-85.5 195.5q0 133 99.5 208t291.5 75q98 0 176 -23v27q0 145 -204 145q-55 0 -111.5 -15.5t-85.5 -29.5l-29 -16l-77 180q14 8 40.5 21.5t117.5 35t190 21.5q190 0 292.5 -95.5t102.5 -255.5z M430 147q78 0 132 44.5t56 111.5v70q-49 27 -147 26q-92 0 -140 -34.5t-48 -96.5q0 -53 39.5 -87t107.5 -34zM385 1018l-192 276l278 41l80 -317h-166z" glyph-name="agrave" horiz-adv-x="956" unicode="à"/><glyph d="M854 530v-530h-168l-33 109h-10q-80 -129 -276 -129q-145 0 -230.5 76.5t-85.5 195.5q0 133 99.5 208t291.5 75q98 0 176 -23v27q0 145 -204 145q-55 0 -111.5 -15.5t-85.5 -29.5l-29 -16l-77 180q14 8 40.5 21.5t117.5 35t190 21.5q190 0 292.5 -95.5t102.5 -255.5z M430 147q78 0 132 44.5t56 111.5v70q-49 27 -147 26q-92 0 -140 -34.5t-48 -96.5q0 -53 39.5 -87t107.5 -34zM760 1288l-221 -270h-162l102 297z" glyph-name="aacute" horiz-adv-x="956" unicode="á"/><glyph d="M854 530v-530h-168l-33 109h-10q-80 -129 -276 -129q-145 0 -230.5 76.5t-85.5 195.5q0 133 99.5 208t291.5 75q98 0 176 -23v27q0 145 -204 145q-55 0 -111.5 -15.5t-85.5 -29.5l-29 -16l-77 180q14 8 40.5 21.5t117.5 35t190 21.5q190 0 292.5 -95.5t102.5 -255.5z M430 147q78 0 132 44.5t56 111.5v70q-49 27 -147 26q-92 0 -140 -34.5t-48 -96.5q0 -53 39.5 -87t107.5 -34zM547 1018l-94 127l-95 -127h-174l174 268h191l174 -268h-176z" glyph-name="acircumflex" horiz-adv-x="956" unicode="â"/><glyph d="M854 530v-530h-168l-33 109h-10q-80 -129 -276 -129q-145 0 -230.5 76.5t-85.5 195.5q0 133 99.5 208t291.5 75q98 0 176 -23v27q0 145 -204 145q-55 0 -111.5 -15.5t-85.5 -29.5l-29 -16l-77 180q14 8 40.5 21.5t117.5 35t190 21.5q190 0 292.5 -95.5t102.5 -255.5z M430 147q78 0 132 44.5t56 111.5v70q-49 27 -147 26q-92 0 -140 -34.5t-48 -96.5q0 -53 39.5 -87t107.5 -34zM602 983q-70 0 -153.5 44t-114.5 44q-49 0 -68 -63l-8 -33l-174 16l12 70q35 197 207 196q68 0 151 -45t115 -45q55 0 70 64l8 33l172 -17l-10 -67 q-14 -90 -66.5 -143.5t-140.5 -53.5z" glyph-name="atilde" horiz-adv-x="956" unicode="ã"/><glyph d="M854 530v-530h-168l-33 109h-10q-80 -129 -276 -129q-145 0 -230.5 76.5t-85.5 195.5q0 133 99.5 208t291.5 75q98 0 176 -23v27q0 145 -204 145q-55 0 -111.5 -15.5t-85.5 -29.5l-29 -16l-77 180q14 8 40.5 21.5t117.5 35t190 21.5q190 0 292.5 -95.5t102.5 -255.5z M430 147q78 0 132 44.5t56 111.5v70q-49 27 -147 26q-92 0 -140 -34.5t-48 -96.5q0 -53 39.5 -87t107.5 -34zM154 1096q0 51 36.5 88t83.5 37q49 0 87 -37t38 -88q0 -49 -37.5 -86t-87.5 -37q-47 0 -83.5 37t-36.5 86zM514 1096q0 51 37 88t84 37q51 0 88 -37t37 -88 q0 -49 -37 -86t-88 -37q-47 0 -84 37t-37 86z" glyph-name="adieresis" horiz-adv-x="956" unicode="ä"/><glyph d="M854 530v-530h-168l-33 109h-10q-80 -129 -276 -129q-145 0 -230.5 76.5t-85.5 195.5q0 133 99.5 208t291.5 75q98 0 176 -23v27q0 145 -204 145q-55 0 -111.5 -15.5t-85.5 -29.5l-29 -16l-77 180q14 8 40.5 21.5t117.5 35t190 21.5q190 0 292.5 -95.5t102.5 -255.5z M430 147q78 0 132 44.5t56 111.5v70q-49 27 -147 26q-92 0 -140 -34.5t-48 -96.5q0 -53 39.5 -87t107.5 -34zM225 1196q0 82 61.5 133t170 51t170 -51t61.5 -133t-61.5 -133t-170 -51t-170 51t-61.5 133zM553 1196q0 74 -96 74q-94 0 -94.5 -74t94.5 -74q96 0 96 74z" glyph-name="aring" horiz-adv-x="956" unicode="å"/><glyph d="M1319 246l86 -162q-12 -12 -35.5 -29.5t-106.5 -46t-182 -28.5q-211 0 -333 122q-119 -123 -347 -122q-172 0 -263 74.5t-91 189.5q0 281 385 280q98 0 184 -24v30q0 158 -202 158q-53 0 -109.5 -17.5t-87.5 -35.5l-29 -17l-79 185q137 78 333 78q209 0 316 -111 q117 111 289 111q186 0 293.5 -117t107.5 -311l-2 -68h-588q25 -211 240 -211q59 0 114.5 17.5t81.5 35.5zM430 147q90 0 138 51.5t48 129.5v34q-70 25 -161 25q-172 0 -172 -125q0 -115 147 -115zM1040 696q-145 0 -176 -166h344q-16 166 -168 166z" glyph-name="ae" horiz-adv-x="1501" unicode="æ"/><glyph d="M406 -154l-41 45l47 99q-160 31 -255.5 150.5t-95.5 289.5q0 197 125 324t328 127q82 0 149.5 -19.5t94.5 -38.5l26 -20l-63 -176q-80 51 -184 51q-100 0 -164 -67.5t-64 -180.5q0 -115 63.5 -181.5t164.5 -66.5q47 0 93 13.5t68 25.5l23 12l61 -174q-10 -8 -28.5 -21 t-86 -34.5t-145.5 -23.5l-16 -46q57 -2 94 -36.5t37 -96.5q0 -70 -48 -111.5t-132 -41.5q-53 0 -96.5 16.5t-61.5 32.5l-16 16l55 86q55 -43 113 -43q70 0 69 51q0 47 -63 48z" glyph-name="ccedilla" horiz-adv-x="835" unicode="ç"/><glyph d="M760 242l86 -162q-12 -12 -36 -29.5t-106.5 -46.5t-181.5 -29q-213 0 -337 128t-124 327q0 195 119 323t307 128q186 0 294 -117t108 -311l-2 -68h-588q20 -215 240 -215q59 0 114.5 17.5t79.5 35.5zM481 696q-145 0 -176 -166h344q-16 166 -168 166zM381 1018l-193 276 l279 41l80 -317h-166z" glyph-name="egrave" horiz-adv-x="942" unicode="è"/><glyph d="M793 1288l-222 -270h-161l102 297zM760 242l86 -162q-12 -12 -36 -29.5t-106.5 -46.5t-181.5 -29q-213 0 -337 128t-124 327q0 195 119 323t307 128q186 0 294 -117t108 -311l-2 -68h-588q20 -215 240 -215q59 0 114.5 17.5t79.5 35.5zM481 696q-145 0 -176 -166h344 q-16 166 -168 166z" glyph-name="eacute" horiz-adv-x="942" unicode="é"/><glyph d="M580 1018l-95 127l-94 -127h-174l174 268h191l174 -268h-176zM760 242l86 -162q-12 -12 -36 -29.5t-106.5 -46.5t-181.5 -29q-213 0 -337 128t-124 327q0 195 119 323t307 128q186 0 294 -117t108 -311l-2 -68h-588q20 -215 240 -215q59 0 114.5 17.5t79.5 35.5zM481 696 q-145 0 -176 -166h344q-16 166 -168 166z" glyph-name="ecircumflex" horiz-adv-x="942" unicode="ê"/><glyph d="M184 1096q0 51 37 88t84 37q49 0 87 -37t38 -88q0 -49 -38 -86t-87 -37q-47 0 -84 37t-37 86zM545 1096q0 51 36.5 88t84.5 37q51 0 88 -37t37 -88q0 -49 -37 -86t-88 -37q-47 0 -84 37t-37 86zM760 242l86 -162q-12 -12 -36 -29.5t-106.5 -46.5t-181.5 -29 q-213 0 -337 128t-124 327q0 195 119 323t307 128q186 0 294 -117t108 -311l-2 -68h-588q20 -215 240 -215q59 0 114.5 17.5t79.5 35.5zM481 696q-145 0 -176 -166h344q-16 166 -168 166z" glyph-name="edieresis" horiz-adv-x="942" unicode="ë"/><glyph d="M113 0v860h245v-860h-245zM143 1018l-192 276l278 41l80 -317h-166z" glyph-name="igrave" horiz-adv-x="473" unicode="ì"/><glyph d="M541 1288l-222 -270h-161l102 297zM113 0v860h245v-860h-245z" glyph-name="iacute" horiz-adv-x="473" unicode="í"/><glyph d="M336 1040l-94 127l-95 -127h-174l174 269h191l174 -269h-176zM113 0v860h245v-860h-245z" glyph-name="icircumflex" horiz-adv-x="473" unicode="î"/><glyph d="M-57 1161q0 51 36.5 88t83.5 37q49 0 87 -37t38 -88q0 -49 -37.5 -86t-87.5 -37q-47 0 -83.5 37t-36.5 86zM303 1161q0 51 37 88t84 37q51 0 88 -37t37 -88q0 -49 -37 -86t-88 -37q-47 0 -84 37t-37 86zM113 0v860h245v-860h-245z" glyph-name="idieresis" horiz-adv-x="473" unicode="ï"/><glyph d="M518 -23q-205 0 -331 122t-126 329q0 199 126 325t331 126q8 0 24.5 -1t24.5 -1v6q-33 39 -61 90l-57 96l-213 -131l-80 135l213 129l-156 266v23h236l104 -176l225 137l78 -133l-223 -137l227 -375q113 -197 117 -361v-18q0 -207 -125 -329t-334 -122zM729 430 q0 115 -57.5 180.5t-153.5 65.5q-92 0 -150.5 -67.5t-58.5 -178.5q0 -113 58.5 -181.5t150.5 -68.5q96 0 153.5 68.5t57.5 181.5z" glyph-name="eth" horiz-adv-x="1038" unicode="ð"/><glyph d="M358 492v-492h-245v860h153l35 -121h14q51 74 115 109t164 35q166 0 262 -104.5t96 -278.5v-500h-245v479q0 82 -47.5 135.5t-127 53.5t-127 -53t-47.5 -123zM676 1047q-70 0 -154 44t-114 44q-49 0 -68 -64l-8 -33l-174 17l12 69q35 197 207 197q68 0 150.5 -45 t115.5 -45q55 0 70 63l8 33l172 -16l-10 -68q-14 -90 -66.5 -143t-140.5 -53z" glyph-name="ntilde" horiz-adv-x="1054" unicode="ñ"/><glyph d="M958 426q0 -199 -130 -322.5t-318 -123.5q-190 0 -320.5 123.5t-130.5 322.5q0 201 130 328t321 127q188 0 318 -127t130 -328zM510 174q90 0 148.5 69.5t58.5 186.5q0 115 -58.5 185.5t-148.5 70.5q-92 0 -150.5 -70.5t-58.5 -185.5q0 -117 57.5 -186.5t151.5 -69.5z M420 1018l-193 276l279 41l80 -317h-166z" glyph-name="ograve" horiz-adv-x="1019" unicode="ò"/><glyph d="M807 1288l-221 -270h-162l102 297zM958 426q0 -199 -130 -322.5t-318 -123.5q-190 0 -320.5 123.5t-130.5 322.5q0 201 130 328t321 127q188 0 318 -127t130 -328zM510 174q90 0 148.5 69.5t58.5 186.5q0 115 -58.5 185.5t-148.5 70.5q-92 0 -150.5 -70.5t-58.5 -185.5 q0 -117 57.5 -186.5t151.5 -69.5z" glyph-name="oacute" horiz-adv-x="1019" unicode="ó"/><glyph d="M606 1040l-94 127l-94 -127h-174l174 269h190l174 -269h-176zM958 426q0 -199 -130 -322.5t-318 -123.5q-190 0 -320.5 123.5t-130.5 322.5q0 201 130 328t321 127q188 0 318 -127t130 -328zM510 174q90 0 148.5 69.5t58.5 186.5q0 115 -58.5 185.5t-148.5 70.5 q-92 0 -150.5 -70.5t-58.5 -185.5q0 -117 57.5 -186.5t151.5 -69.5z" glyph-name="ocircumflex" horiz-adv-x="1019" unicode="ô"/><glyph d="M958 426q0 -199 -130 -322.5t-318 -123.5q-190 0 -320.5 123.5t-130.5 322.5q0 201 130 328t321 127q188 0 318 -127t130 -328zM510 174q90 0 148.5 69.5t58.5 186.5q0 115 -58.5 185.5t-148.5 70.5q-92 0 -150.5 -70.5t-58.5 -185.5q0 -117 57.5 -186.5t151.5 -69.5z M655 1049q-70 0 -153.5 44t-114.5 44q-49 0 -68 -64l-8 -33l-174 17l13 69q35 197 206 197q68 0 151 -45t116 -45q55 0 69 63l8 33l172 -16l-10 -68q-14 -90 -66.5 -143t-140.5 -53z" glyph-name="otilde" horiz-adv-x="1019" unicode="õ"/><glyph d="M209 1163q0 51 37 88t84 37q49 0 87 -37t38 -88q0 -49 -38 -86t-87 -37q-47 0 -84 37t-37 86zM569 1163q0 51 37 88t84 37q51 0 88 -37t37 -88q0 -49 -37 -86t-88 -37q-47 0 -84 37t-37 86zM958 426q0 -199 -130 -322.5t-318 -123.5q-190 0 -320.5 123.5t-130.5 322.5 q0 201 130 328t321 127q188 0 318 -127t130 -328zM510 174q90 0 148.5 69.5t58.5 186.5q0 115 -58.5 185.5t-148.5 70.5q-92 0 -150.5 -70.5t-58.5 -185.5q0 -117 57.5 -186.5t151.5 -69.5z" glyph-name="odieresis" horiz-adv-x="1019" unicode="ö"/><glyph d="M346 253.5q0 63.5 43 108t106.5 44.5t107.5 -44.5t44 -108t-44 -106.5t-107.5 -43t-106.5 43t-43 106.5zM346 968.5q0 63.5 43 107.5t106.5 44t107.5 -44t44 -107.5t-44 -106.5t-107.5 -43t-106.5 43t-43 106.5zM84 506v201h825v-201h-825z" glyph-name="divide" horiz-adv-x="993" unicode="÷"/><glyph d="M958 426q0 -199 -130 -322.5t-318 -123.5q-152 0 -266 77l-56 -57h-163l131 137q-96 115 -97 289q0 201 130 328t321 127q145 0 256 -76l53 55h166l-131 -135q104 -121 104 -299zM510 174q90 0 148.5 69.5t58.5 186.5q0 74 -25 129l-305 -344q51 -41 123 -41zM301 430 q0 -74 21 -123l303 340q-51 39 -115 39q-92 0 -150.5 -70.5t-58.5 -185.5z" glyph-name="oslash" horiz-adv-x="1019" unicode="ø"/><glyph d="M692 362v498h246v-860h-164l-43 117h-10q-94 -137 -266 -137q-164 0 -258.5 103t-94.5 277v500h246v-479q0 -86 43 -140.5t123 -54.5q84 0 131 54t47 122zM424 1018l-193 276l279 41l80 -317h-166z" glyph-name="ugrave" horiz-adv-x="1050" unicode="ù"/><glyph d="M809 1288l-221 -270h-162l102 297zM692 362v498h246v-860h-164l-43 117h-10q-94 -137 -266 -137q-164 0 -258.5 103t-94.5 277v500h246v-479q0 -86 43 -140.5t123 -54.5q84 0 131 54t47 122z" glyph-name="uacute" horiz-adv-x="1050" unicode="ú"/><glyph d="M602 1018l-94 127l-94 -127h-174l174 268h190l174 -268h-176zM692 362v498h246v-860h-164l-43 117h-10q-94 -137 -266 -137q-164 0 -258.5 103t-94.5 277v500h246v-479q0 -86 43 -140.5t123 -54.5q84 0 131 54t47 122z" glyph-name="ucircumflex" horiz-adv-x="1050" unicode="û"/><glyph d="M207 1143q0 51 37 88t84 37q49 0 87 -37t38 -88q0 -49 -38 -86t-87 -37q-47 0 -84 37t-37 86zM567 1143q0 51 37 88t84 37q51 0 88 -37t37 -88q0 -49 -37 -86t-88 -37q-47 0 -84 37t-37 86zM692 362v498h246v-860h-164l-43 117h-10q-94 -137 -266 -137q-164 0 -258.5 103 t-94.5 277v500h246v-479q0 -86 43 -140.5t123 -54.5q84 0 131 54t47 122z" glyph-name="udieresis" horiz-adv-x="1050" unicode="ü"/><glyph d="M930 860l-504 -1179h-254l184 389l-354 790h270l183 -500q16 -45 16 -69h12q0 31 15 69l182 500h250zM764 1288l-221 -270h-162l102 297z" glyph-name="yacute" horiz-adv-x="933" unicode="ý"/><glyph d="M369 121h-11v-440h-245v1548h245v-481h9q2 6 7 14t26.5 31.5t46 41t68.5 32t95 14.5q174 0 284 -123t110 -326q0 -199 -112 -325.5t-282 -126.5q-53 0 -97 14t-69.5 34.5t-44 42t-24.5 35.5zM346 428q0 -113 57.5 -179.5t149.5 -66.5q90 0 146.5 68.5t56.5 177.5 t-57.5 179.5t-145.5 70.5q-92 0 -149.5 -67.5t-57.5 -182.5z" glyph-name="thorn" horiz-adv-x="1067" unicode="þ"/><glyph d="M930 860l-504 -1179h-254l184 389l-354 790h270l183 -500q16 -45 16 -69h12q0 31 15 69l182 500h250zM164 1139q0 51 37 88t84 37q49 0 87 -37t38 -88q0 -49 -38 -86t-87 -37q-47 0 -84 37t-37 86zM524 1139q0 51 37 88t84 37q51 0 88 -37t37 -88q0 -49 -37 -86t-88 -37 q-47 0 -84 37t-37 86z" glyph-name="ydieresis" horiz-adv-x="933" unicode="ÿ"/><glyph d="M113 0v860h245v-860h-245z" glyph-name="dotlessi" horiz-adv-x="473" unicode="ı"/><glyph d="M31 410v262l119 71v486h247v-336l240 145v-260l-240 -145v-416h578v-217h-825v481z" glyph-name="Lslash" horiz-adv-x="1030" unicode="Ł"/><glyph d="M35 438v137l90 56v608h246v-457l116 74v-137l-116 -74v-645h-246v494z" glyph-name="lslash" horiz-adv-x="507" unicode="ł"/><glyph d="M688 -29q-272 0 -447 186.5t-175 457t174 455.5t448 185q264 0 438 -174v148h885v-217h-637v-289h537v-201h-537v-305h637v-217h-885v145q-174 -174 -438 -174zM688 211q162 0 265.5 113.5t103.5 290t-103.5 290t-265.5 113.5q-158 0 -261 -115t-103 -289t103 -288.5 t261 -114.5z" glyph-name="OE" horiz-adv-x="2082" unicode="Œ"/><glyph d="M1487 242l86 -162q-12 -12 -36 -29.5t-106.5 -46.5t-181.5 -29q-252 0 -379 177q-129 -172 -360 -172q-190 0 -320.5 123.5t-130.5 322.5q0 201 130 328t321 127q227 0 358 -174q123 174 346 174q186 0 294 -117t108 -311l-2 -68h-588q20 -215 240 -215q59 0 114.5 17.5 t81.5 35.5zM510 174q90 0 148.5 69.5t58.5 186.5q0 115 -58.5 185.5t-148.5 70.5q-92 0 -150.5 -70.5t-58.5 -185.5q0 -117 57.5 -186.5t151.5 -69.5zM1208 696q-145 0 -176 -166h344q-16 166 -168 166z" glyph-name="oe" horiz-adv-x="1667" unicode="œ"/><glyph d="M440 1591l95 -129l94 129h174l-148 -223h-241l-150 223h176zM61 131l136 188q18 -12 48.5 -32.5t122 -53t173.5 -32.5q188 0 188 137q0 61 -50 99t-196 81q-209 61 -307 146.5t-98 226.5q0 166 118.5 265t342.5 99q141 0 252.5 -31.5t150.5 -64.5l41 -31l-133 -202 q-14 12 -40 28.5t-106.5 45t-164.5 28.5q-182 0 -183 -123q0 -53 50.5 -86t185.5 -74q219 -61 320.5 -150t101.5 -235q0 -170 -119 -278.5t-346 -108.5q-145 0 -267 40t-171 79z" glyph-name="Scaron" horiz-adv-x="1075" unicode="Š"/><glyph d="M336 1241l94 -129l94 129h174l-147 -223h-242l-149 223h176zM61 76l80 168q129 -84 279 -84q131 0 131 73q0 37 -49 60.5t-120 42t-142.5 45.5t-120.5 87t-49 150q0 115 89 189t255 74q109 0 203 -18.5t133 -39.5l38 -18l-75 -182q-115 76 -271 75q-125 0 -125 -71 q0 -31 36 -51.5t91.5 -30.5t118 -30.5t117.5 -47.5t91 -83t36 -136q0 -121 -91 -194.5t-282 -73.5q-115 0 -208 24.5t-128 48.5z" glyph-name="scaron" horiz-adv-x="868" unicode="š"/><glyph d="M606 801l240 428h272l-438 -752v-477h-248v473l-438 756h270l244 -428l49 -113zM258 1446q0 51 37 88t84 37q49 0 87 -37t38 -88q0 -49 -38 -86t-87 -37q-47 0 -84 37t-37 86zM618 1446q0 51 37 88t84 37q51 0 88 -37t37 -88q0 -49 -36.5 -86t-88.5 -37q-47 0 -84 37 t-37 86z" glyph-name="Ydieresis" horiz-adv-x="1110" unicode="Ÿ"/><glyph d="M453 1591l94 -129l94 129h174l-147 -223h-242l-150 223h177zM61 0v182l654 830h-631v217h958v-191l-641 -821h637v-217h-977z" glyph-name="Zcaron" horiz-adv-x="1114" unicode="Ž"/><glyph d="M338 1241l94 -129l94 129h174l-147 -223h-242l-149 223h176zM809 0h-741v135l421 527h-417v198h737v-123l-414 -538h414v-199z" glyph-name="zcaron" horiz-adv-x="876" unicode="ž"/><glyph d="M360 293l78 377h-137v190h176l8 37q74 344 402 344q59 0 112.5 -10t77.5 -23l25 -10l-98 -203q-49 27 -121 27q-127 0 -152 -123l-8 -39h258v-190h-297l-82 -416q-29 -137 -98.5 -202.5t-210.5 -65.5q-57 0 -109.5 13t-77.5 28l-22 14l76 192q45 -29 104 -28q80 0 96 88z " glyph-name="florin" horiz-adv-x="1124" unicode="ƒ"/><glyph d="M487 1323l-94 127l-94 -127h-174l174 268h190l175 -268h-177z" glyph-name="circumflex" horiz-adv-x="759" unicode="ˆ"/><glyph d="M233 1591l95 -129l94 129h174l-147 -223h-242l-150 223h176z" glyph-name="caron" horiz-adv-x="665" unicode="ˇ"/><glyph d="M535 1675h194q0 -133 -83 -226t-236.5 -93t-237.5 93t-84 226h193q0 -72 34.5 -110.5t92 -38.5t92.5 40.5t35 108.5z" glyph-name="breve" horiz-adv-x="811" unicode="˘"/><glyph d="M339.5 1126q-63.5 0 -106.5 43t-43 106.5t43 107.5t106.5 44t108 -44t44.5 -107.5t-44.5 -106.5t-108 -43z" glyph-name="dotaccent" horiz-adv-x="677" unicode="˙"/><glyph d="M63 1444q0 82 61.5 133t170 51t170 -51t61.5 -133t-61.5 -133t-170 -51t-170 51t-61.5 133zM391 1444q0 74 -96 74q-94 0 -94 -74t94 -74q96 0 96 74z" glyph-name="ring" horiz-adv-x="589" unicode="˚"/><glyph d="M313 -133l66 -86q-51 -68 -158 -68q-82 0 -128 43t-46 113q0 137 197 201l22 -70q-82 -55 -82 -102q0 -59 62 -60q26 0 67 29z" glyph-name="ogonek" horiz-adv-x="403" unicode="˛"/><glyph d="M641 1329q-70 0 -154 44t-114 44q-49 0 -68 -63l-8 -33l-174 16l12 70q35 197 207 197q68 0 150.5 -45.5t115.5 -45.5q55 0 70 64l8 33l172 -17l-10 -67q-14 -90 -66.5 -143.5t-140.5 -53.5z" glyph-name="tilde" horiz-adv-x="993" unicode="˜"/><glyph d="M729 1182l-162 -322h-159l69 322h252zM381 1182l-162 -322h-160l70 322h252z" glyph-name="hungarumlaut" horiz-adv-x="808" unicode="˝"/><glyph d="M51 860h1039v-194h-138v-666h-247v666h-269v-666h-246v666h-139v194z" glyph-name="pi" horiz-adv-x="1140" unicode="π"/><glyph d="M119 489v199h686v-199h-686z" glyph-name="endash" horiz-adv-x="927" unicode="–"/><glyph d="M119 489v199h1204v-199h-1204z" glyph-name="emdash" horiz-adv-x="1445" unicode="—"/><glyph d="M391 1100q-123 -29 -141 -107q47 -10 77.5 -48t30.5 -89q0 -59 -41 -101t-100 -42t-101 42t-42 101v12q0 133 72.5 233.5t205.5 127.5z" glyph-name="quoteleft" horiz-adv-x="458" unicode="‘"/><glyph d="M84 842q119 25 139 106q-47 10 -77.5 48t-30.5 89q0 59 42 101.5t101 42.5t101 -42t42 -102v-12q0 -133 -72.5 -233.5t-207.5 -126.5z" glyph-name="quoteright" horiz-adv-x="460" unicode="’"/><glyph d="M367 121v-12q0 -133 -73 -233.5t-208 -127.5l-37 129q121 27 141 107q-49 10 -79.5 48t-30.5 89q0 59 42 101t101.5 42t101.5 -42t42 -101z" glyph-name="quotesinglbase" horiz-adv-x="452" unicode="‚"/><glyph d="M74 856v12q0 133 72.5 233.5t205.5 127.5l39 -129q-123 -29 -141 -107q47 -10 77.5 -48t30.5 -89q0 -59 -41 -101t-100 -42t-101 42t-42 101zM762 1100q-121 -29 -139 -107q47 -10 77.5 -48t30.5 -89q0 -59 -41 -101t-100.5 -42t-101.5 42t-42 101v12q0 133 73 233.5 t206 127.5z" glyph-name="quotedblleft" horiz-adv-x="831" unicode="“"/><glyph d="M754 1085v-12q0 -133 -73 -233.5t-208 -126.5l-37 129q119 25 139 106q-49 10 -78.5 48t-29.5 89q0 59 41 101.5t100.5 42.5t102.5 -42.5t43 -101.5zM84 842q119 25 139 106q-49 10 -78.5 48t-29.5 89q0 59 41 101.5t100 42.5t101 -42t42 -102v-12q0 -133 -72.5 -233.5 t-205.5 -126.5z" glyph-name="quotedblright" horiz-adv-x="813" unicode="”"/><glyph d="M367 121v-12q0 -133 -73 -233.5t-208 -127.5l-37 129q121 27 141 107q-49 10 -79.5 48t-30.5 89q0 59 42 101t101.5 42t101.5 -42t42 -101zM870 121v-12q0 -133 -72.5 -233.5t-207.5 -127.5l-37 129q121 27 141 107q-49 10 -79.5 48t-30.5 89q0 59 42 101t101 42t101 -42 t42 -101z" glyph-name="quotedblbase" horiz-adv-x="958" unicode="„"/><glyph d="M66 831v199h270v270h203v-270h266v-199h-266l-19 -512h-166l-18 512h-270z" glyph-name="dagger" horiz-adv-x="870" unicode="†"/><glyph d="M100 899v199h271v270h202v-270h267v-199h-267l-12 -215l12 -215h267v-199h-267v-270h-202v270h-271v199h271l12 215l-12 215h-271z" glyph-name="daggerdbl" horiz-adv-x="929" unicode="‡"/><glyph d="M332 649q80 0 136 -56t56 -136t-56 -135.5t-136 -55.5t-136.5 55.5t-56.5 135.5t56.5 136t136.5 56z" glyph-name="bullet" horiz-adv-x="665" unicode="•"/><glyph d="M86 137.5q0 65.5 45 110.5t109 45q66 0 111.5 -45t45.5 -110.5t-46 -110.5t-111 -45q-63 0 -108.5 45t-45.5 110.5zM612 137.5q0 63.5 46.5 109.5t109.5 46t109.5 -46t46.5 -109.5t-46.5 -109.5t-109.5 -46t-109.5 46t-46.5 109.5zM1141 137.5q0 65.5 45 110.5t108 45 q66 0 112 -46t46 -109.5t-46 -109.5t-112 -46q-63 0 -108 45t-45 110.5z" glyph-name="ellipsis" horiz-adv-x="1538" unicode="…"/><glyph d="M352 1255q129 0 205 -88t76 -215t-76 -216t-205 -89q-127 0 -203.5 90t-76.5 215q0 127 76.5 215t203.5 88zM352.5 793q108.5 0 108.5 159.5t-108.5 159.5t-108.5 -159.5t108.5 -159.5zM1069 1229h207l-977 -1229h-209zM1024 592q129 0 206 -89t77 -216q0 -125 -77 -214 t-206 -89q-127 0 -204 89t-77 214q0 127 77 216t204 89zM1024 449q-109 0 -109 -162q0 -158 109 -158t109 158q0 162 -109 162zM1671.5 449q-108.5 0 -108.5 -162q0 -158 108.5 -158t108.5 158q0 162 -108.5 162zM1671 592q129 0 205 -89t76 -216q0 -125 -76 -214t-205 -89 q-127 0 -203.5 89t-76.5 214q0 127 76.5 216t203.5 89z" glyph-name="perthousand" horiz-adv-x="2011" unicode="‰"/><glyph d="M66 403v46l260 387h204v-19l-251 -381v-16l251 -385v-19h-204z" glyph-name="guilsinglleft" horiz-adv-x="595" unicode="‹"/><glyph d="M530 449v-46l-258 -387h-206v19l251 385v16l-251 381v19h206z" glyph-name="guilsinglright" horiz-adv-x="595" unicode="›"/><glyph d="M174 0h-197l1020 1294h197z" glyph-name="fraction" horiz-adv-x="1169" unicode="⁄"/><glyph d="M829 561v-170h-327q72 -178 272 -178q61 0 116.5 24.5t80.5 49.5l24 26l140 -188q-4 -6 -13.5 -16.5t-43.5 -36t-71.5 -45t-101 -36t-133.5 -16.5q-213 0 -349 114t-187 302h-164v170h135v55q0 41 2 62h-137v168h166q51 186 187 297.5t347 111.5q111 0 201 -37.5 t125 -74.5l37 -37l-140 -188q-8 10 -26.5 27.5t-75.5 45t-119 27.5q-195 0 -270 -172h325v-168h-362q-2 -20 -2 -62q0 -37 2 -55h362z" glyph-name="Euro" horiz-adv-x="1206" unicode="€"/><glyph d="M856 575h-158v654h109l221 -289l227 289h105v-654h-156v353l-143 -185h-62l-143 185v-353zM592 1229v-139h-184v-515h-156v515h-186v139h526z" glyph-name="trademark" horiz-adv-x="1488" unicode="™"/><glyph d="M96 0v215h221q-106 74 -162.5 189.5t-56.5 244.5q0 256 173 431t466 175q297 0 469 -175t172 -431q0 -129 -57 -244.5t-164 -189.5h223v-215h-569v223q137 18 228 133t91 269q0 168 -110.5 279.5t-282.5 111.5q-170 0 -279.5 -111.5t-109.5 -279.5q0 -154 90 -268.5 t228 -133.5v-223h-570z" glyph-name="uni2126" horiz-adv-x="1476" unicode="Ω"/><glyph d="M518 -23q-205 0 -331 122t-126 329q0 199 126 325t331 126q8 0 24.5 -1t24.5 -1v6q-33 39 -61 90l-293 495v23h236l411 -684q113 -197 117 -361v-18q0 -207 -125 -329t-334 -122zM729 430q0 115 -57.5 180.5t-153.5 65.5q-92 0 -150.5 -67.5t-58.5 -178.5 q0 -113 58.5 -181.5t150.5 -68.5q96 0 153.5 68.5t57.5 181.5z" glyph-name="partialdiff" horiz-adv-x="1040" unicode="∂"/><glyph d="M53 0v43l598 1186h43l602 -1186v-43h-1243zM938 215q-33 74 -260 578h-14l-261 -578h535z" glyph-name="uni2206" horiz-adv-x="1347" unicode="∆"/><glyph d="M1182 1229v-1229h-248v1014h-563v-1014h-248v1229h1059z" glyph-name="product" horiz-adv-x="1302" unicode="∏"/><glyph d="M94 1229h748v-215h-436l268 -340v-125l-258 -334h426v-215h-748v215l318 381v27l-318 391v215z" glyph-name="summation" horiz-adv-x="929" unicode="∑"/><glyph d="M113 512v199h888v-199h-888z" glyph-name="minus" horiz-adv-x="1112" unicode="−"/><glyph d="M1309 1229l-832 -1622h-47l-430 817h276l95 -205q63 -150 69 -178h31q2 8 33 88t37 90l487 1010h281z" glyph-name="radical" horiz-adv-x="1280" unicode="√"/><glyph d="M428 231q-150 0 -248 103.5t-98 249.5q0 143 98.5 247.5t247.5 104.5q104 0 187 -57.5t165 -159.5q166 217 346 217q141 0 245 -99.5t104 -252.5q0 -143 -97.5 -248t-251.5 -105q-182 0 -352 215q-78 -100 -160 -157.5t-186 -57.5zM1112 745q-104 0 -221 -157 q61 -82 111.5 -124t109.5 -42q72 0 115 47t43 114.5t-45 114.5t-113 47zM444 422q104 0 222 158q-59 80 -110.5 122.5t-111.5 42.5q-72 0 -114.5 -49t-42.5 -112q0 -66 42.5 -114t114.5 -48z" glyph-name="infinity" horiz-adv-x="1554" unicode="∞"/><glyph d="M219 66v993q0 125 63.5 197.5t192.5 72.5q49 0 94 -11t66 -24l18 -12l-63 -182q-31 14 -64 14q-59 0 -59 -84v-993q0 -125 -64.5 -197.5t-191.5 -72.5q-49 0 -94 12t-64 24l-20 11l63 182q31 -14 64 -14q59 0 59 84z" glyph-name="integral" horiz-adv-x="681" unicode="∫"/><glyph d="M713 317q-78 0 -172.5 39t-126.5 39q-57 0 -76 -55l-8 -31l-213 17l16 90q39 188 244 188q78 0 172 -40t127 -40q57 0 76 56l8 30l213 -14l-17 -92q-38 -187 -243 -187zM713 719q-78 0 -172.5 40t-126.5 40q-57 0 -76 -56l-8 -30l-213 14l16 92q39 186 244 187 q78 0 172 -39t127 -39q57 0 76 55l8 31l213 -17l-17 -90q-38 -188 -243 -188z" glyph-name="approxequal" horiz-adv-x="1085" unicode="≈"/><glyph d="M100 688v201h410l86 227l166 -57l-64 -170h199v-201h-274l-78 -209h352v-200h-428l-84 -224l-166 58l62 166h-181v200h256l78 209h-334z" glyph-name="notequal" horiz-adv-x="997" unicode="≠"/><glyph d="M653 543l-141 -148l-406 385v43l406 394l143 -148l-282 -268zM715 303v-201h-621v201h621z" glyph-name="lessequal" horiz-adv-x="800" unicode="≤"/><glyph d="M291 395l-144 148l279 258l-281 268l144 148l405 -394v-43zM86 102v201h619v-201h-619z" glyph-name="greaterequal" horiz-adv-x="800" unicode="≥"/><glyph d="M592 1229l358 -615l-358 -614h-170l-359 614l359 615h170zM336 614l153 -290h33l154 290l-154 291h-33z" glyph-name="lozenge" horiz-adv-x="1013" unicode="◊"/></font>
</defs>
</svg>
