<?xml version="1.0" standalone="no"?>
<!DOCTYPE svg PUBLIC "-//W3C//DTD SVG 1.1//EN" "http://www.w3.org/Graphics/SVG/1.1/DTD/svg11.dtd">
<svg xmlns="http://www.w3.org/2000/svg"><metadata>This SVG WebFont was generated by YouWorkForThem.
Copyright (c) 2014 by Daniel Hernandez &amp; Miguel Hernandez. All rights reserved.</metadata><defs><font horiz-adv-x="1224" id="ywftsvg"><font-face ascent="1536" bbox="-66 -393 2005 1683" cap-height="1229" descent="-512" font-family="" font-stretch="normal" font-weight="900" panose-1="2 0 0 0 0 0 0 0 0 0" underline-position="0" underline-thickness="0" unicode-range="U+000D-25CA" units-per-em="2048" x-height="860"/><missing-glyph horiz-adv-x="1155"/><glyph glyph-name=".notdef" horiz-adv-x="1155"/><glyph glyph-name="glyph1" horiz-adv-x="0"/><glyph glyph-name="glyph2" horiz-adv-x="681"/><glyph glyph-name="glyph3" horiz-adv-x="0"/><glyph glyph-name="glyph3" horiz-adv-x="0"/><glyph glyph-name="space" horiz-adv-x="405" unicode=" "/><glyph d="M418 1229l-72 -791h-192l-72 791h336zM78 155.5q0 71.5 50 123t122 51.5t123 -51.5t51 -123t-51 -121.5t-123 -50t-122 50t-50 121.5z" glyph-name="exclam" horiz-adv-x="501" unicode="!"/><glyph d="M354 1401l-100 -428h-172l24 428h248zM684 1401l-100 -428h-172l24 428h248z" glyph-name="quotedbl" horiz-adv-x="720" unicode="&quot;"/><glyph d="M1135 1194l-66 -293h248l-39 -168h-246l-61 -270h250l-39 -168h-248l-66 -295h-180l66 295h-273l-65 -295h-180l65 295h-242l37 168h242l61 270h-243l37 168h243l66 293h180l-66 -293h273l65 293h181zM580 733l-62 -270h273l61 270h-272z" glyph-name="numbersign" horiz-adv-x="1376" unicode="#"/><glyph d="M59 137l162 228q135 -90 279 -115v242q-4 0 -13 4q-205 59 -305 146t-100 232q0 162 105.5 263.5t312.5 115.5v213h121v-213q127 -8 227 -39.5t135 -60.5l37 -29l-160 -241q-100 78 -239 98v-215q213 -59 319.5 -149.5t106.5 -235.5q0 -168 -109 -280.5t-317 -125.5v-194 h-121v196q-82 6 -158 24.5t-125 41.5t-86 44.5t-53 35.5zM698 348q0 61 -77 98v-194q77 20 77 96zM424 895q0 -57 76 -88v172q-76 -16 -76 -84z" glyph-name="dollar" horiz-adv-x="1107" unicode="$"/><glyph d="M354 1255q131 0 210 -88t79 -213t-79 -213t-210 -88t-209.5 89t-78.5 212q0 125 78.5 213t209.5 88zM354.5 1100q-96.5 0 -96.5 -146q0 -143 96.5 -143t96.5 143q0 146 -96.5 146zM1042.5 586q131.5 0 210 -88t78.5 -213t-78.5 -213t-210 -88t-210 89t-78.5 212 q0 125 78.5 213t210 88zM1042.5 430q-96.5 0 -96.5 -145q0 -143 96.5 -143.5t96.5 143.5q0 145 -96.5 145zM1069 1229h229l-976 -1229h-234z" glyph-name="percent" horiz-adv-x="1394" unicode="%"/><glyph d="M991 682l283 -64q-33 -207 -164 -372l254 -246h-401l-64 63q-150 -84 -311 -83q-260 0 -384 100t-124 274q0 199 229 322l-16 18q-109 115 -109 238q0 139 107.5 231t296.5 92q184 0 293.5 -88t109.5 -225q0 -125 -66.5 -202.5t-183.5 -135.5l166 -162q66 109 84 240z M594 231q61 0 121 25l-221 229q-86 -59 -86 -127q0 -55 48 -91t138 -36zM475 911q0 -47 84 -131q143 61 143 129q0 45 -28.5 75t-83.5 30q-57 0 -86 -29t-29 -74z" glyph-name="ampersand" horiz-adv-x="1353" unicode="&amp;"/><glyph d="M354 1401l-98 -428h-174l24 428h248z" glyph-name="quotesingle" horiz-adv-x="393" unicode="'"/><glyph d="M362 588q0 -131 23 -249t56.5 -189.5t66.5 -126t55 -76.5l23 -23l-195 -205q-14 10 -36.5 33t-80 101.5t-102.5 171t-81 245t-36 318.5q0 168 35 318.5t84 246.5t98.5 169t83.5 103l35 33l195 -205l-23.5 -23.5t-54.5 -74.5t-67.5 -129t-53.5 -187.5t-25 -250.5z" glyph-name="parenleft" horiz-adv-x="616" unicode="("/><glyph d="M254 588q0 133 -22.5 249.5t-55.5 189.5t-66.5 127t-56.5 77l-22 22l194 205q14 -10 37 -32.5t80 -101.5t102 -171t81 -244.5t36 -320.5q0 -166 -34.5 -317.5t-84 -248t-98.5 -168t-84 -104.5l-35 -31l-194 205l23.5 23.5t54 75t67.5 129t53.5 187.5t24.5 249z" glyph-name="parenright" horiz-adv-x="618" unicode=")"/><glyph d="M131 905l168 180l-236 41l56 174l219 -108l-33 242h180l-36 -244l221 110l55 -174l-236 -41l170 -180l-149 -104l-115 215l-116 -215z" glyph-name="asterisk" horiz-adv-x="790" unicode="*"/><glyph d="M629 1055v-334h325v-238h-325v-317h-238v317h-325v238h325v334h238z" glyph-name="plus" horiz-adv-x="1019" unicode="+"/><glyph d="M59 -100q109 25 129 86q-53 12 -86.5 56t-33.5 101q0 70 47 118t116.5 48t117.5 -48t48 -118v-10q0 -137 -75.5 -246.5t-219.5 -138.5z" glyph-name="comma" horiz-adv-x="471" unicode=","/><glyph d="M94 350v238h574v-238h-574z" glyph-name="hyphen" horiz-adv-x="761" unicode="-"/><glyph d="M231.5 -20q-69.5 0 -116.5 47t-47 116.5t47 117.5t116.5 48t117.5 -48t48 -117.5t-48 -116.5t-117.5 -47z" glyph-name="period" horiz-adv-x="464" unicode="."/><glyph d="M330 -229h-289l915 1833h289z" glyph-name="slash" horiz-adv-x="1286" unicode="/"/><glyph d="M645 -27q-274 0 -422.5 185.5t-148.5 456t148.5 455.5t422.5 185q186 0 318.5 -91t193 -233.5t60.5 -316.5t-60.5 -316t-193 -233.5t-318.5 -91.5zM645 260q129 0 196.5 95.5t67.5 259t-67.5 259t-196.5 95.5t-196.5 -95.5t-67.5 -259t67.5 -259t196.5 -95.5z" glyph-name="zero" horiz-adv-x="1290" unicode="0"/><glyph d="M31 973v256h547v-1229h-297v973h-250z" glyph-name="one" horiz-adv-x="700" unicode="1"/><glyph d="M86 0v215l457 432q49 45 67.5 82t18.5 90q0 61 -45 103.5t-123 42.5q-70 0 -126 -27t-126 -84l-156 238q6 6 19.5 17t56.5 40t92 50.5t125 38.5t156 17q225 0 356 -114.5t131 -280.5q0 -207 -143 -340l-285 -264h436v-256h-911z" glyph-name="two" horiz-adv-x="1085" unicode="2"/><glyph d="M471 532h-158v179l244 262h-461v256h852v-211l-254 -275q299 -63 299 -362q0 -174 -129 -287.5t-383 -113.5q-131 0 -239.5 41.5t-151.5 84.5l-43 41l152 218q14 -12 37.5 -32t96.5 -51.5t142 -31.5q197 0 197 141t-201 141z" glyph-name="three" horiz-adv-x="1069" unicode="3"/><glyph d="M41 254v219l629 756h284v-721h179v-254h-179v-254h-297v254h-616zM395 518v-10h262v326l-215 -267z" glyph-name="four" horiz-adv-x="1193" unicode="4"/><glyph d="M920 973h-504l-4 -189q57 4 90 4q500 0 499 -389q0 -186 -128 -302.5t-384 -116.5q-80 0 -154.5 17t-123.5 41.5t-86 49.5t-53 43l-17 16l150 215q14 -12 37.5 -30.5t97.5 -50t143 -31.5q98 0 147.5 38t49.5 103q0 156 -268 156q-68 0 -132.5 -9.5t-95.5 -17.5l-32 -8 l-25 14l18 703h775v-256z" glyph-name="five" horiz-adv-x="1060" unicode="5"/><glyph d="M422 752v-43q90 78 225 77q205 0 327 -99t122 -284q0 -193 -140.5 -310.5t-349.5 -117.5q-231 0 -380.5 145.5t-149.5 446.5q0 305 141 488.5t395 183.5q80 0 154 -14.5t120 -36t79.5 -43t50.5 -35.5l14 -14l-160 -240q-70 59 -121 80.5t-135 21.5q-192 1 -192 -206z M598 557q-76 0 -125 -43t-51 -106v-7q0 -72 47 -115.5t129 -43.5t129 44t47 113q0 68 -48 113t-128 45z" glyph-name="six" horiz-adv-x="1161" unicode="6"/><glyph d="M53 973v256h918v-213l-516 -1016h-338l508 973h-572z" glyph-name="seven" horiz-adv-x="999" unicode="7"/><glyph d="M569.5 -27q-229.5 0 -361.5 111t-132 281q0 184 147 278q-113 98 -112 252q0 156 116.5 258t341.5 102q223 0 341 -102t118 -258t-115 -252q150 -94 150 -278q0 -170 -132 -281t-361.5 -111zM745 379q0 66 -49 109.5t-127 43.5q-76 0 -125 -45t-49 -108.5t49.5 -108.5 t124.5 -45q78 0 127 45.5t49 108.5zM569 735q66 0 111 39t45 92q0 55 -45 95t-111 40q-63 0 -108 -39.5t-45 -95.5q0 -53 45 -92t108 -39z" glyph-name="eight" horiz-adv-x="1138" unicode="8"/><glyph d="M549 256q193 0 192 207v41q-88 -76 -225 -76q-205 0 -326.5 99.5t-121.5 283.5q0 193 140 310.5t349 117.5q231 0 380.5 -145.5t149.5 -446.5q0 -305 -141 -488.5t-395 -183.5q-80 0 -153.5 14.5t-120 36t-80 43t-50.5 35.5l-14 15l160 239q70 -59 121 -80.5t135 -21.5z M565 657q74 0 123 43t53 107v6q0 72 -47 116t-129 44t-129 -44t-47 -114q0 -68 48 -113t128 -45z" glyph-name="nine" horiz-adv-x="1161" unicode="9"/><glyph d="M88 143.5q0 69.5 47 117.5t117 48t118 -48t48 -117.5t-48 -116.5t-118 -47t-117 47t-47 116.5zM88 708.5q0 69.5 47 117.5t117 48t118 -48t48 -117.5t-48 -116.5t-118 -47t-117 47t-47 116.5z" glyph-name="colon" horiz-adv-x="505" unicode=":"/><glyph d="M80 -100q109 25 129 86q-53 12 -87 56t-34 101q0 70 47 118t117 48t118 -48t48 -118v-10q0 -137 -76 -246.5t-219 -138.5zM252 545q-70 0 -117 47t-47 116.5t47 117.5t117 48t118 -48t48 -117.5t-48 -116.5t-118 -47z" glyph-name="semicolon" horiz-adv-x="507" unicode=";"/><glyph d="M70 496v237l557 311v-321l-332 -111l332 -114v-320z" glyph-name="less" horiz-adv-x="749" unicode="&lt;"/><glyph d="M104 676v237h705v-237h-705zM104 287v237h705v-237h-705z" glyph-name="equal" horiz-adv-x="913" unicode="="/><glyph d="M680 733v-237l-557 -318v320l332 114l-332 111v321z" glyph-name="greater" horiz-adv-x="749" unicode=">"/><glyph d="M209 897l-156 236q12 14 39 34.5t121 55t207 34.5q197 0 320.5 -94t123.5 -254q0 -80 -28.5 -142t-71.5 -100t-86 -69t-77 -64.5t-40 -70.5l-6 -39h-240v61q0 70 32 122t71 80t70.5 71t31.5 94q0 53 -37 83t-102 30q-41 0 -84 -17.5t-66 -34.5zM270 149.5 q0 69.5 48.5 116.5t118 47t116.5 -47t47 -116.5t-47 -117.5t-116.5 -48t-118 48t-48.5 117.5z" glyph-name="question" horiz-adv-x="931" unicode="?"/><glyph d="M1491 104q-78 0 -138.5 20.5t-91 50.5t-51 59.5t-26.5 50.5l-6 20h-11q-94 -188 -299 -188q-162 0 -262 102.5t-100 276.5q0 236 129 379t317 143q182 0 246 -152l23 131h252l-52 -452q-6 -49 -6 -96q0 -78 49 -125.5t127 -47.5q106 0 168 98.5t62 270.5 q0 137 -52.5 271.5t-147.5 245t-248.5 179t-338.5 68.5q-367 0 -608.5 -248t-241.5 -592q0 -350 247 -597.5t595 -247.5q115 0 222.5 29.5t158.5 58.5l51 28l49 -104q-18 -14 -56 -36t-163 -56.5t-262 -34.5q-276 0 -499.5 134t-343.5 352t-120 470q0 260 120 478.5 t344.5 350.5t506.5 132q393 0 658.5 -256t265.5 -621q0 -236 -123 -390.5t-344 -154.5zM965 401q78 0 126 57.5t48 141.5q0 137 -135 137q-76 0 -125.5 -54t-49.5 -140q0 -63 37.5 -102.5t98.5 -39.5z" glyph-name="at" horiz-adv-x="2029" unicode="@"/><glyph d="M774 1229l469 -1229h-319l-76 221h-471l-76 -221h-319l469 1229h323zM612 909l-155 -454h311z" glyph-name="A" unicode="A"/><glyph d="M1161 367q0 -172 -118.5 -269.5t-335.5 -97.5h-580v1229h571q213 0 321.5 -88t108.5 -248q0 -76 -38.5 -141.5t-106.5 -106.5v-16q84 -27 131 -97.5t47 -164.5zM721 510h-297v-254h285q57 0 95 37t38 88q0 47 -34 86t-87 43zM813 850q0 51 -34 87t-87 36h-268v-242h262 q55 0 91 35t36 84z" glyph-name="B" horiz-adv-x="1228" unicode="B"/><glyph d="M942 350l170 -227l-16.5 -16.5t-48 -37t-82.5 -46t-119 -36t-154 -16.5q-289 0 -461 184.5t-172 458.5q0 272 172 456.5t461 184.5q129 0 233.5 -37.5t145.5 -74.5l41 -37l-170 -227q-8 10 -26.5 25.5t-82 41t-137.5 25.5q-145 0 -237 -98.5t-92 -258t92 -258t237 -98.5 q74 0 135.5 22.5t86.5 47.5z" glyph-name="C" horiz-adv-x="1130" unicode="C"/><glyph d="M1245 614.5q0 -268.5 -176 -441.5t-469 -173h-473v1229h473q293 0 469 -173t176 -441.5zM578 973h-154v-717h154q154 0 257 97.5t103 260.5q0 172 -102 265.5t-258 93.5z" glyph-name="D" horiz-adv-x="1304" unicode="D"/><glyph d="M924 739v-233h-500v-250h596v-256h-893v1229h893v-256h-596v-234h500z" glyph-name="E" horiz-adv-x="1091" unicode="E"/><glyph d="M924 737v-233h-500v-504h-297v1229h901v-256h-604v-236h500z" glyph-name="F" horiz-adv-x="1099" unicode="F"/><glyph d="M659 498v233h613v-178q0 -264 -159 -422t-427 -158q-287 0 -457 184.5t-170 457t172 456.5t459 184q88 0 166 -15t127 -37.5t85 -46t50 -38.5l17 -16l-179 -230q-10 10 -30.5 26.5t-91 44.5t-148.5 28q-139 0 -229 -99.5t-90 -257t90 -257t229 -99.5q121 0 185.5 62.5 t68.5 162.5v15h-281z" glyph-name="G" horiz-adv-x="1312" unicode="G"/><glyph d="M1225 1229v-1231h-297v500h-504v-500h-297v1231h297v-498h504v498h297z" glyph-name="H" horiz-adv-x="1351" unicode="H"/><glyph d="M424 1229v-1229h-297v1229h297z" glyph-name="I" horiz-adv-x="550" unicode="I"/><glyph d="M18 90l144 240q72 -66 186 -66q104 0 149.5 54.5t45.5 173.5v737h297v-799q-2 -195 -122 -327t-362 -132q-104 0 -188 30t-117 60z" glyph-name="J" horiz-adv-x="954" unicode="J"/><glyph d="M424 1229v-514l465 514h362v-27l-452 -500l452 -673v-29h-336l-319 479l-172 -192v-287h-297v1229h297z" glyph-name="K" horiz-adv-x="1261" unicode="K"/><glyph d="M973 0h-846v1229h297v-973h549v-256z" glyph-name="L" horiz-adv-x="1028" unicode="L"/><glyph d="M1075 0v678l-264 -352h-125l-266 354v-680h-295l2 1229h240l381 -527l380 527h240l2 -1229h-295z" glyph-name="M" horiz-adv-x="1495" unicode="M"/><glyph d="M1241 1229v-1229h-229l-590 717v-717h-295v1229h229l590 -705v705h295z" glyph-name="N" horiz-adv-x="1368" unicode="N"/><glyph d="M686 -29q-274 0 -451.5 187.5t-177.5 456t177.5 454.5t451.5 186q276 0 454.5 -186t178.5 -454.5t-178.5 -456t-454.5 -187.5zM686 260q139 0 232.5 98.5t93.5 256t-93.5 256t-232.5 98.5q-137 0 -229 -98.5t-92 -256t92 -256t229 -98.5z" glyph-name="O" horiz-adv-x="1376" unicode="O"/><glyph d="M670 1229q209 0 341 -117t132 -297q0 -188 -130 -300t-343 -112h-246v-403h-297v1229h543zM836 815q0 78 -51.5 118t-135.5 40h-225v-318h227q82 0 133.5 42t51.5 118z" glyph-name="P" horiz-adv-x="1183" unicode="P"/><glyph d="M686 -29q-274 0 -451.5 187.5t-177.5 456t177.5 454.5t451.5 186q276 0 454.5 -186t178.5 -455q0 -180 -84 -329.5t-231 -233.5l131 -254h-326l-80 176q-8 0 -22.5 -1t-20.5 -1zM686 260q139 0 232.5 98.5t93.5 256t-93.5 256t-232.5 98.5q-137 0 -229 -98.5t-92 -256 t92 -256t229 -98.5z" glyph-name="Q" horiz-adv-x="1376" unicode="Q"/><glyph d="M127 1229h543q209 0 341 -117t132 -297q0 -125 -60.5 -220t-169.5 -144v-23l277 -408v-20h-338l-256 403h-172v-403h-297v1229zM836 815q0 78 -51.5 118t-135.5 40h-225v-318h227q82 0 133.5 42t51.5 118z" glyph-name="R" horiz-adv-x="1228" unicode="R"/><glyph d="M49 137l162 228q20 -12 54 -33t124 -53.5t164 -32.5q135 0 135 102q0 49 -42 80t-169 68q-205 59 -305 146t-100 232q0 174 119.5 277.5t355.5 103.5q147 0 263 -32.5t157 -65.5l43 -33l-160 -241q-14 12 -41 28.5t-105.5 45t-156.5 28.5q-133 0 -133 -90q0 -45 41 -69.5 t153 -57.5q215 -59 321.5 -149.5t106.5 -237.5q0 -178 -120.5 -293t-352.5 -115q-152 0 -279.5 41t-181.5 82z" glyph-name="S" horiz-adv-x="1091" unicode="S"/><glyph d="M47 973v256h989v-256h-346v-973h-297v973h-346z" glyph-name="T" horiz-adv-x="1083" unicode="T"/><glyph d="M655 -29q-246 0 -395 159t-149 400v699h297v-699q0 -121 63.5 -195.5t183.5 -74.5q123 0 185.5 75t62.5 195v699h297v-699q0 -244 -147.5 -401.5t-397.5 -157.5z" glyph-name="U" horiz-adv-x="1310" unicode="U"/><glyph d="M451 0l-469 1229h319l311 -912l312 912h319l-469 -1229h-323z" glyph-name="V" unicode="V"/><glyph d="M1028 0l-215 690l-205 -690h-229l-359 1229h326l156 -651l200 651h222l204 -656l160 656h328l-359 -1229h-229z" glyph-name="W" horiz-adv-x="1636" unicode="W"/><glyph d="M1182 1229l-353 -600l361 -629h-361l-174 362l-51 109l-49 -109l-174 -362h-358l354 629l-350 600h360l168 -342l49 -115l51 115l168 342h359z" glyph-name="X" horiz-adv-x="1208" unicode="X"/><glyph d="M614 856l207 373h320l-430 -752v-477h-297v473l-432 756h319l207 -373l53 -125z" glyph-name="Y" horiz-adv-x="1122" unicode="Y"/><glyph d="M61 0v223l607 750h-586v256h979v-234l-596 -739h598v-256h-1002z" glyph-name="Z" horiz-adv-x="1134" unicode="Z"/><glyph d="M104 -266v1700h545v-238h-266v-1225h266v-237h-545z" glyph-name="bracketleft" horiz-adv-x="686" unicode="["/><glyph d="M492 -262l-443 1896h289l446 -1896h-292z" glyph-name="backslash" horiz-adv-x="833" unicode="\"/><glyph d="M37 -266v237h266v1225h-266v238h545v-1700h-545z" glyph-name="bracketright" horiz-adv-x="686" unicode="]"/><glyph d="M494 1018l-105 184l-104 -184h-213l243 401h150l252 -401h-223z" glyph-name="asciicircum" horiz-adv-x="788" unicode="^"/><glyph d="M72 -319v237h905v-237h-905z" glyph-name="underscore" horiz-adv-x="1050" unicode="_"/><glyph d="M250 1018l-197 278l326 50l67 -328h-196z" glyph-name="grave" horiz-adv-x="571" unicode="`"/><glyph d="M872 530v-530h-200l-41 104h-8q-74 -125 -271 -124q-141 0 -224 75.5t-83 194.5q0 137 98.5 211t292.5 74q84 0 154 -19v27q0 59 -47 83.5t-140 24.5q-53 0 -106 -14t-80 -29l-29 -14l-90 209q14 8 42 21.5t123 35t204 21.5q190 0 297.5 -95.5t107.5 -255.5zM590 303v64 q-49 18 -117 18q-72 0 -113 -29.5t-41 -81.5q0 -47 34 -74.5t85 -27.5q63 0 107.5 37t44.5 94z" glyph-name="a" horiz-adv-x="962" unicode="a"/><glyph d="M98 0v1239h295v-461h13q6 12 18 28.5t67.5 45.5t129.5 29q168 0 277.5 -127t109.5 -326q0 -205 -112 -326.5t-286 -121.5q-55 0 -102 14t-74.5 33.5t-47 39t-28.5 33.5l-8 15h-12l-45 -115h-195zM379 432q0 -96 45 -153.5t121 -57.5q74 0 120 59.5t46 151.5t-45 149.5 t-121 57.5t-121 -55.5t-45 -151.5z" glyph-name="b" horiz-adv-x="1060" unicode="b"/><glyph d="M518 -20q-209 0 -338 128t-129 322.5t128 322.5t339 128q80 0 147.5 -19.5t96.5 -38.5l29 -20l-74 -211q-78 47 -172 47q-88 0 -142.5 -57.5t-54.5 -151.5t54.5 -151.5t142.5 -57.5q41 0 84 12.5t65 24.5l23 10l74 -207q-10 -8 -31 -22t-91.5 -36.5t-150.5 -22.5z" glyph-name="c" horiz-adv-x="831" unicode="c"/><glyph d="M655 782h13v457h295v-1239h-193l-47 111h-12q-2 -6 -8.5 -14.5t-28 -31t-48 -40t-72.5 -31.5t-101 -14q-174 0 -287 121.5t-113 326.5q0 201 110.5 327t278.5 126q45 0 84 -10.5t61.5 -25t39 -28.5t22.5 -24zM684 432q0 96 -45 151.5t-123 55.5q-76 0 -121 -57.5 t-45 -149.5t46 -151.5t120 -59.5q78 0 123 57.5t45 153.5z" glyph-name="d" horiz-adv-x="1062" unicode="d"/><glyph d="M756 270l100 -190q-12 -12 -36.5 -29.5t-110.5 -47.5t-185 -30q-217 0 -345 130t-128 327q0 195 123 323t315 128q190 0 300 -115t110 -313l-2 -82h-561q23 -166 209 -166q55 0 108.5 16.5t77.5 32.5zM481 668q-115 0 -141 -138h276q-4 63 -39 100.5t-96 37.5z" glyph-name="e" horiz-adv-x="944" unicode="e"/><glyph d="M696 633h-213v-633h-295v633h-141v227h141v25q0 174 89.5 270t257.5 96q57 0 111 -10t79 -20l27 -11l-93 -213q-25 12 -73 13q-47 0 -75 -30t-28 -77v-43h213v-227z" glyph-name="f" horiz-adv-x="716" unicode="f"/><glyph d="M938 643h-104v-4q16 -18 16 -80q0 -117 -97.5 -194.5t-283.5 -77.5q-57 0 -119 10q-37 -23 -37 -51q0 -16 9.5 -25.5t48.5 -17.5t114 -10q256 -10 356.5 -68.5t100.5 -194.5q0 -127 -120 -213t-345 -86q-440 0 -440 217q0 115 121 187q-98 57 -99 170q0 96 125 168 q-98 76 -98 200q0 137 104.5 220.5t278.5 83.5q74 0 139 -17h330v-217zM485 -31q-80 4 -116 8q-51 -37 -52 -90q0 -78 160 -77q174 0 174 77q0 39 -33 59.5t-133 22.5zM469 694q-51 0 -82 -32.5t-31 -82t31 -82t82 -32.5q55 0 86 32.5t31 82t-31 82t-86 32.5z" glyph-name="g" horiz-adv-x="978" unicode="g"/><glyph d="M100 0v1239h299v-457h9q70 100 225 101q154 0 246 -101.5t92 -273.5v-506h-295v481q0 57 -41 98.5t-98 41.5q-55 0 -95.5 -37t-42.5 -92v-494h-299z" glyph-name="h" horiz-adv-x="1058" unicode="h"/><glyph d="M250 971q-72 0 -119 45t-47 114.5t47 115.5t119 46t121 -46t49 -115.5t-49 -114.5t-121 -45zM100 0v860h295v-860h-295z" glyph-name="i" horiz-adv-x="495" unicode="i"/><glyph d="M-12 -319v243h51q61 0 61 64v872h297v-889q0 -131 -75.5 -210.5t-204.5 -79.5h-129zM247.5 971q-71.5 0 -118.5 45t-47 114.5t47 115.5t118.5 46t121 -46t49.5 -115.5t-49.5 -114.5t-121 -45z" glyph-name="j" horiz-adv-x="497" unicode="j"/><glyph d="M616 860h349l-281 -375l297 -485h-354l-176 291l-56 -72v-219h-295v1239h295v-696z" glyph-name="k" horiz-adv-x="985" unicode="k"/><glyph d="M100 0v1239h295v-1239h-295z" glyph-name="l" horiz-adv-x="495" unicode="l"/><glyph d="M395 483v-483h-295v860h179l47 -117h14q90 137 270 138q203 0 299 -144h11q92 145 266 146q164 0 259 -101.5t95 -275.5v-506h-295v483q0 59 -35.5 99.5t-99.5 40.5q-61 0 -99 -35t-42 -90v-498h-295v483q0 59 -37 99.5t-100 40.5q-66 0 -104 -38.5t-38 -101.5z" glyph-name="m" horiz-adv-x="1630" unicode="m"/><glyph d="M100 0v860h179l47 -117h14q53 76 113.5 108t156.5 32q164 0 261.5 -101.5t97.5 -275.5v-506h-295v483q0 59 -38 99.5t-101 40.5q-59 0 -97.5 -37t-42.5 -92v-494h-295z" glyph-name="n" horiz-adv-x="1058" unicode="n"/><glyph d="M965 426q0 -199 -132.5 -322.5t-325 -123.5t-324.5 123.5t-132 322.5q0 203 132 329t324.5 126t325 -127t132.5 -328zM508 211q76 0 122 59.5t46 159.5q0 98 -46 158.5t-122 60.5q-78 0 -124 -60.5t-46 -158.5q0 -100 46 -159.5t124 -59.5z" glyph-name="o" horiz-adv-x="1015" unicode="o"/><glyph d="M408 78h-13v-397h-295v1179h187l45 -117h12q2 6 8 15.5t28.5 33t50.5 42t77 33t104 14.5q174 0 286 -122t112 -327q0 -199 -109.5 -325.5t-277.5 -126.5q-74 0 -128.5 24.5t-70.5 48.5zM381 428q0 -96 45 -151.5t121 -55.5t121 57.5t45 149.5t-46 151.5t-120 59.5 q-76 0 -121 -57.5t-45 -153.5z" glyph-name="p" horiz-adv-x="1062" unicode="p"/><glyph d="M963 860v-1179h-295v401h-13q-6 -12 -18 -28.5t-66.5 -45t-128.5 -28.5q-168 0 -278.5 125.5t-110.5 326.5q0 205 113 327t287 122q57 0 105 -14.5t77 -36t48 -43t28 -35.5l8 -15h10l47 123h187zM684 428q0 96 -45 153.5t-123 57.5q-74 0 -120 -59.5t-46 -151.5 t45 -149.5t121 -57.5q78 0 123 55.5t45 151.5z" glyph-name="q" horiz-adv-x="1060" unicode="q"/><glyph d="M621 860v-250h-46q-82 0 -131 -51t-49 -143v-416h-295v860h179l47 -117h12q72 117 237 117h46z" glyph-name="r" horiz-adv-x="647" unicode="r"/><glyph d="M53 70l86 200q137 -84 273 -84q100 0 100 52q0 31 -46 49t-111.5 34.5t-131 43t-111.5 89t-46 156.5q0 119 93 195t263 76q115 0 213 -19.5t139 -38.5l39 -20l-84 -211q-121 78 -270 78q-90 0 -90 -49q0 -29 47 -46.5t114.5 -33t135 -42t114.5 -89t47 -156.5 q0 -125 -97 -199.5t-296 -74.5q-119 0 -214 22.5t-130 44.5z" glyph-name="s" horiz-adv-x="882" unicode="s"/><glyph d="M29 860h141v262h295v-262h192v-227h-192v-326q0 -76 78 -76q18 0 37.5 6.5t29.5 12.5l8 6l80 -201q-98 -76 -237 -75q-150 0 -220.5 85t-70.5 228v340h-141v227z" glyph-name="t" horiz-adv-x="720" unicode="t"/><glyph d="M662 369v491h294v-860h-200l-49 115h-13q-92 -135 -248 -135q-164 0 -260 100t-96 274v506h295v-485q0 -66 35 -107t98 -41q66 0 105 42.5t39 99.5z" glyph-name="u" horiz-adv-x="1056" unicode="u"/><glyph d="M961 860l-381 -860h-211l-381 860h321l142 -436q16 -39 16 -76h14q0 27 17 76l141 436h322z" glyph-name="v" horiz-adv-x="948" unicode="v"/><glyph d="M1384 860l-307 -860h-250l-112 383q-18 59 -19 115h-12q0 -49 -20 -115l-113 -383h-248l-307 860h311l109 -436q14 -57 14 -76h10q0 20 17 86l106 426h254l107 -426q16 -72 16 -86h10q0 29 15 76l108 436h311z" glyph-name="w" horiz-adv-x="1380" unicode="w"/><glyph d="M25 0l264 434l-260 426h329l123 -246h6l123 246h330l-283 -426l287 -434h-330l-127 258h-6l-129 -258h-327z" glyph-name="x" horiz-adv-x="958" unicode="x"/><glyph d="M944 860l-495 -1179h-306l193 405l-344 774h321l144 -436q16 -49 16 -76h14q0 33 15 76l141 436h301z" glyph-name="y" horiz-adv-x="935" unicode="y"/><glyph d="M817 0h-751v166l372 459h-368v235h747v-149l-364 -475h364v-236z" glyph-name="z" horiz-adv-x="884" unicode="z"/><glyph d="M33 694h47q57 0 81.5 32t24.5 105v297q0 322 375 336l41 -243q-70 -12 -94.5 -31t-24.5 -76v-328q0 -74 -33.5 -124t-95.5 -68v-19q59 -16 94 -67t35 -123v-326q0 -57 24.5 -75.5t94.5 -30.5l-41 -244q-375 14 -375 336v295q0 74 -24.5 105.5t-81.5 31.5h-47v217z" glyph-name="braceleft" horiz-adv-x="653" unicode="{"/><glyph d="M373 1407v-1669h-269v1669h269z" glyph-name="bar" horiz-adv-x="477" unicode="|"/><glyph d="M573 694h48v-217h-48q-57 0 -81.5 -31.5t-24.5 -105.5v-295q0 -322 -375 -336l-41 244q70 12 94.5 30.5t24.5 75.5v326q0 72 35 123t94 67v19q-61 18 -95 68.5t-34 123.5v328q0 57 -24.5 75.5t-94.5 31.5l41 243q375 -14 375 -336v-297q0 -74 24.5 -105.5t81.5 -31.5z " glyph-name="braceright" horiz-adv-x="653" unicode="}"/><glyph d="M627 694q39 0 75.5 12.5t55.5 24.5l16 12l94 -182q-8 -10 -26.5 -24.5t-79 -39t-129.5 -24.5q-55 0 -148.5 33t-152.5 33q-41 0 -78 -12.5t-53 -24.5l-19 -13l-90 181q10 10 27.5 25.5t79 40t127.5 24.5q55 0 148.5 -33t152.5 -33z" glyph-name="asciitilde" horiz-adv-x="962" unicode="~"/><glyph glyph-name="uni00A0" horiz-adv-x="405" unicode=" "/><glyph d="M338 430l72 -790h-336l71 790h193zM68 712.5q0 71.5 51 122t122.5 50.5t122 -50.5t50.5 -122t-50.5 -122.5t-122 -51t-122.5 51t-51 122.5z" glyph-name="exclamdown" horiz-adv-x="481" unicode="¡"/><glyph d="M391 0l23 172q-160 35 -254 154.5t-94 283.5q0 195 128 322t336 129l23 168h104l-24 -176q49 -8 92 -24.5t61 -29.5l19 -10l-74 -217q-55 33 -129 43l-53 -414h10q41 0 84 12.5t66 24.5l22 11l74 -213q-10 -8 -30.5 -20.5t-91.5 -34t-151 -21.5h-16l-20 -160h-105z M362 610q0 -123 84 -178l52 379q-63 -18 -99.5 -71.5t-36.5 -129.5z" glyph-name="cent" horiz-adv-x="876" unicode="¢"/><glyph d="M979 256v-256h-887v256q10 4 36 20.5t58.5 58.5t32.5 87q0 14 -8 76h-119v196h80q-18 100 -18 160q0 168 128 278.5t347 110.5q106 0 199.5 -32.5t134.5 -65.5l41 -33l-177 -246q-8 10 -24.5 24.5t-64.5 39t-97 24.5q-76 0 -116 -37.5t-40 -105.5q0 -53 13 -117h329v-196 h-299q6 -41 7 -78q0 -86 -39 -164h483z" glyph-name="sterling" horiz-adv-x="1067" unicode="£"/><glyph d="M688 856l207 373h319l-327 -572h221v-196h-324v-80h324v-197h-324v-184h-297v184h-315v197h315v80h-315v196h209l-326 572h320l207 -373l53 -125z" glyph-name="yen" horiz-adv-x="1271" unicode="¥"/><glyph d="M383 676h-268v702h268v-702zM383 -313h-268v700h268v-700z" glyph-name="brokenbar" horiz-adv-x="497" unicode="¦"/><glyph d="M63 96l121 195q16 -10 48 -25.5t128.5 -40t192.5 -24.5q154 0 154 63q0 33 -41 55.5t-158 53.5q-88 23 -138.5 40t-119 51t-102 84t-33.5 116q0 98 69 153q-70 53 -69 154q0 133 116.5 208.5t346.5 75.5q137 0 248.5 -25.5t156.5 -49.5l43 -25l-119 -207q-139 78 -329 78 q-121 0 -121 -55q0 -31 31.5 -50.5t119.5 -41.5q231 -61 310 -105q137 -74 137 -192q0 -113 -70 -176q70 -59 70 -146q0 -127 -126 -209t-368 -82q-147 0 -272 32t-174 65zM508 700l-88 23q-14 -14 -14 -43q0 -78 202 -129l133 -37q16 33 17 49q0 27 -17.5 47.5t-60.5 37 t-73.5 25.5t-98.5 27z" glyph-name="section" horiz-adv-x="1138" unicode="§"/><glyph d="M139 1438q0 55 41 97t94 42q55 0 97.5 -42t42.5 -97q0 -53 -42 -95.5t-98 -42.5q-53 0 -94 42.5t-41 95.5zM514 1438q0 55 41 97t94 42q55 0 96 -42t41 -97q0 -53 -40.5 -95.5t-96.5 -42.5q-53 0 -94 42.5t-41 95.5z" glyph-name="dieresis" horiz-adv-x="931" unicode="¨"/><glyph d="M686.5 1239q278.5 0 445 -180t166.5 -446.5t-166.5 -445.5t-445 -179t-446.5 180t-168 444q0 266 168 446.5t446.5 180.5zM686.5 1153q-237.5 0 -380 -154.5t-142.5 -386.5q0 -229 142.5 -383.5t380 -154.5t380.5 154.5t143 383.5q0 231 -143 386t-380.5 155zM928 866 l-101 -143q-41 37 -110 37q-66 0 -106 -40t-40 -105.5t40 -105.5t106 -40q31 0 58.5 9t39.5 18l12 10l101 -144q-8 -8 -23.5 -20t-74 -33.5t-125.5 -21.5q-156 0 -247 94t-91 233.5t91 234.5t247 95q70 0 125 -19.5t75 -39.5z" glyph-name="copyright" horiz-adv-x="1370" unicode="©"/><glyph d="M51 758q0 104 81 164.5t216 60.5q98 0 152 -35v10q0 133 -152 134q-100 0 -174 -41l-57 151q113 55 258 55q319 0 319 -303v-393h-145l-29 70h-12q-59 -86 -211 -86q-102 0 -174 59.5t-72 153.5zM252 772q0 -39 30.5 -65.5t88.5 -26.5q51 0 88 28.5t41 65.5v17 q-10 76 -127 75q-59 0 -90 -26.5t-31 -67.5z" glyph-name="ordfeminine" horiz-adv-x="790" unicode="ª"/><glyph d="M55 403v43l267 390h243v-19l-256 -381v-18l256 -383v-19h-243zM489 403v43l267 390h243v-19l-256 -381v-18l256 -383v-19h-243z" glyph-name="guillemotleft" horiz-adv-x="1054" unicode="«"/><glyph d="M78 471v238h966v-709h-241v471h-725z" glyph-name="logicalnot" horiz-adv-x="1155" unicode="¬"/><glyph d="M1004 778q0 -203 -127 -340t-338 -137q-209 0 -335 138.5t-126 338.5q0 203 125 340t336 137t338 -137t127 -340zM911 778q0 168 -103 278.5t-269 110.5t-267.5 -108.5t-101.5 -280.5q0 -168 102.5 -278.5t266.5 -110.5q166 0 269 110.5t103 278.5zM352 993h205 q82 0 132 -43t50 -112q0 -82 -63 -125v-2l72 -107v-24h-132l-67 100h-72v-100h-125v413zM553 881h-76v-93h76q55 0 55 46q0 47 -55 47z" glyph-name="registered" horiz-adv-x="1081" unicode="®"/><glyph d="M248 1368v174h604v-174h-604z" glyph-name="macron" horiz-adv-x="1077" unicode="¯"/><glyph d="M288.5 1378q106.5 0 174 -63.5t67.5 -157.5t-67.5 -157.5t-174 -63.5t-174 63.5t-67.5 157.5t67.5 157.5t174 63.5zM289 1237q-37 0 -58.5 -21.5t-21.5 -58.5q0 -33 21.5 -54.5t58.5 -21.5t59.5 21.5t22.5 54.5q0 35 -21.5 57.5t-60.5 22.5z" glyph-name="degree" horiz-adv-x="577" unicode="°"/><glyph d="M653 393h-241v289h-312v238h312v305h241v-305h305v-238h-305v-289zM958 272v-237h-858v237h858z" glyph-name="plusminus" horiz-adv-x="1058" unicode="±"/><glyph d="M92 700v144l238 211q45 39 45 80q0 29 -20.5 47t-53.5 18q-51 0 -127 -63l-106 153q10 10 28.5 26.5t82 43t132.5 26.5q127 0 198 -67.5t71 -163.5q0 -119 -78 -184l-119 -105h209v-166h-500z" glyph-name="uni00B2" horiz-adv-x="677" unicode="²"/><glyph d="M80 1200v168h475v-125l-106 -133q133 -49 133 -182q0 -109 -73 -176.5t-210 -67.5q-74 0 -133.5 22.5t-81.5 43.5l-23 22l101 139q43 -47 129 -47q90 0 90 61.5t-82 61.5h-96v86l102 127h-225z" glyph-name="uni00B3" horiz-adv-x="645" unicode="³"/><glyph d="M514 1288l-244 -270h-188l98 297z" glyph-name="acute" horiz-adv-x="571" unicode="´"/><glyph d="M674 369v491h295v-860h-201l-49 115h-12q-92 -135 -248 -135q-23 0 -64 4l4 -246h-297v1122h295v-485q0 -66 35 -107t98 -41q66 0 105 42.5t39 99.5z" glyph-name="uni00B5" horiz-adv-x="1073" unicode="µ"/><glyph d="M721 -168v418h-109q-246 0 -400.5 132t-154.5 368q0 231 155 356t400 125h406v-1399h-297z" glyph-name="paragraph" horiz-adv-x="1144" unicode="¶"/><glyph d="M66 735.5q0 71.5 50 122.5t121.5 51t123 -51t51.5 -122.5t-51.5 -122t-123 -50.5t-121.5 50.5t-50 122z" glyph-name="periodcentered" horiz-adv-x="477" unicode="·"/><glyph d="M139 -160l-45 51l56 115h131l-27 -67q57 0 94 -36t37 -98q0 -72 -49 -114.5t-139 -42.5q-57 0 -104.5 16.5t-65.5 32.5l-19 18l64 101q61 -43 114 -43q63 0 64 41q0 39 -53 39q-16 0 -30.5 -3.5t-21.5 -5.5z" glyph-name="cedilla" horiz-adv-x="421" unicode="¸"/><glyph d="M39 1200v168h317v-668h-190v500h-127z" glyph-name="uni00B9" horiz-adv-x="460" unicode="¹"/><glyph d="M391 1255q143 0 239.5 -98t96.5 -260q0 -154 -96 -250t-240 -96q-145 0 -241.5 96t-96.5 250q0 162 96.5 260t241.5 98zM391.5 1087q-65.5 0 -103.5 -51t-38 -135q0 -82 38 -132t103.5 -50t102 49t36.5 133t-36.5 135t-102 51z" glyph-name="ordmasculine" horiz-adv-x="782" unicode="º"/><glyph d="M565 446v-43l-266 -387h-244v19l256 383v18l-256 381v19h244zM999 446v-43l-266 -387h-244v19l256 383v18l-256 381v19h244z" glyph-name="guillemotright" horiz-adv-x="1054" unicode="»"/><glyph d="M289 -2l-230 2l981 1229h230zM655 137v123l369 408h145v-375h113v-156h-113v-137h-182v137h-332zM100 1061v168h318v-668h-191v500h-127zM879 291v-2l49 4h59v131h-2l-74 -98z" glyph-name="onequarter" horiz-adv-x="1357" unicode="¼"/><glyph d="M287 0h-230l979 1229h232zM889 143l237 211q45 39 45 80q0 29 -20.5 47.5t-52.5 18.5q-51 0 -127 -64l-107 154l25 24q27 25 88 48.5t131 23.5q127 0 197.5 -67.5t70.5 -163.5q0 -119 -78 -185l-118 -104h209v-166h-500v143zM109 1061v168h317v-668h-190v500h-127z" glyph-name="onehalf" horiz-adv-x="1462" unicode="½"/><glyph d="M389 0h-233l981 1229h229zM82 1061v168h475v-125l-106 -133q133 -49 133 -183q0 -109 -73 -176t-210 -67q-74 0 -133 22.5t-82 42.5l-23 23l101 139q43 -47 129 -47q90 0 90 61.5t-82 61.5h-96v86l102 127h-225zM752 123v123l368 407h146v-374h98v-156h-98v-123h-185v123 h-329zM975 276v-2l49 5h57v131h-2l-71 -99z" glyph-name="threequarters" horiz-adv-x="1433" unicode="¾"/><glyph d="M715 -29l155 -235q-12 -14 -38.5 -34.5t-121 -55.5t-206.5 -35q-197 0 -321 94t-124 254q0 80 29 142.5t72 100.5t86 68.5t76.5 64.5t39.5 71l7 38h239v-61q0 -70 -31.5 -122t-70.5 -79.5t-71 -70.5t-32 -95q0 -53 37 -82.5t103 -29.5q41 0 84 17.5t65 33.5zM653 718.5 q0 -69.5 -48 -116.5t-117.5 -47t-116.5 47t-47 116.5t47 118t116.5 48.5t117.5 -48.5t48 -118z" glyph-name="questiondown" horiz-adv-x="915" unicode="¿"/><glyph d="M774 1229l469 -1229h-319l-76 221h-471l-76 -221h-319l469 1229h323zM612 909l-155 -454h311zM504 1300l-197 279l326 49l67 -328h-196z" glyph-name="Agrave" unicode="À"/><glyph d="M774 1229l469 -1229h-319l-76 221h-471l-76 -221h-319l469 1229h323zM612 909l-155 -454h311zM952 1571l-243 -271h-189l98 297z" glyph-name="Aacute" unicode="Á"/><glyph d="M774 1229l469 -1229h-319l-76 221h-471l-76 -221h-319l469 1229h323zM612 909l-155 -454h311zM700 1300l-86 130l-86 -130h-194l170 291h225l168 -291h-197z" glyph-name="Acircumflex" unicode="Â"/><glyph d="M774 1229l469 -1229h-319l-76 221h-471l-76 -221h-319l469 1229h323zM612 909l-155 -454h311zM770 1311q-68 0 -146.5 36.5t-105.5 36.5q-43 0 -57 -51l-8 -33l-207 19l12 76q16 98 72.5 153.5t148.5 55.5q68 0 147 -37t105 -37q43 0 57 51l9 33l207 -19l-13 -75 q-16 -98 -72.5 -153.5t-148.5 -55.5z" glyph-name="Atilde" unicode="Ã"/><glyph d="M774 1229l469 -1229h-319l-76 221h-471l-76 -221h-319l469 1229h323zM612 909l-155 -454h311zM289 1438q0 55 41 97t94 42q55 0 97 -42t42 -97q0 -53 -42 -95.5t-97 -42.5q-53 0 -94 42.5t-41 95.5zM664 1438q0 55 40.5 97t94.5 42q55 0 96 -42t41 -97q0 -53 -41 -95.5 t-96 -42.5q-53 0 -94 42.5t-41 95.5z" glyph-name="Adieresis" unicode="Ä"/><glyph d="M774 1229l469 -1229h-319l-76 221h-471l-76 -221h-319l469 1229h323zM612 909l-155 -454h311zM373 1446q0 86 60.5 137t179 51t179 -51t60.5 -137q0 -84 -60.5 -135t-179 -51t-179 51t-60.5 135zM700 1446q0 68 -88 67q-86 0 -86 -67q0 -66 86 -66q88 0 88 66z" glyph-name="Aring" unicode="Å"/><glyph d="M-37 0l838 1229h979v-256h-637v-242h499v-233h-499v-242h637v-256h-934v236h-379l-152 -236h-352zM842 815l-219 -340h223v340h-4z" glyph-name="AE" horiz-adv-x="1847" unicode="Æ"/><glyph d="M590 -160l-45 51l41 89q-244 33 -385.5 211t-141.5 423q0 272 172 456.5t461 184.5q129 0 233.5 -37.5t145.5 -74.5l41 -37l-170 -227q-8 10 -26.5 25.5t-82 41t-137.5 25.5q-145 0 -237 -98.5t-92 -258t92 -258t237 -98.5q74 0 135.5 22.5t86.5 47.5l24 22l170 -227 q-4 -6 -14.5 -15.5t-47 -35t-77.5 -45t-110.5 -37t-145.5 -19.5l-12 -32q57 0 94 -36t37 -98q0 -72 -49.5 -114.5t-139.5 -42.5q-57 0 -104 16.5t-66 32.5l-18 18l63 101q61 -43 115 -43q63 0 63 41q0 39 -53 39q-16 0 -30.5 -3.5t-20.5 -5.5z" glyph-name="Ccedilla" horiz-adv-x="1130" unicode="Ç"/><glyph d="M924 739v-233h-500v-250h596v-256h-893v1229h893v-256h-596v-234h500zM510 1300l-197 279l326 49l68 -328h-197z" glyph-name="Egrave" horiz-adv-x="1091" unicode="È"/><glyph d="M924 739v-233h-500v-250h596v-256h-893v1229h893v-256h-596v-234h500zM932 1571l-244 -271h-188l98 297z" glyph-name="Eacute" horiz-adv-x="1091" unicode="É"/><glyph d="M924 739v-233h-500v-250h596v-256h-893v1229h893v-256h-596v-234h500zM682 1300l-86 130l-86 -130h-195l170 291h226l168 -291h-197z" glyph-name="Ecircumflex" horiz-adv-x="1091" unicode="Ê"/><glyph d="M924 739v-233h-500v-250h596v-256h-893v1229h893v-256h-596v-234h500zM279 1438q0 55 40.5 97t94.5 42q55 0 97 -42t42 -97q0 -53 -42 -95.5t-97 -42.5q-53 0 -94 42.5t-41 95.5zM653 1438q0 55 41 97t94 42q55 0 96.5 -42t41.5 -97q0 -53 -41 -95.5t-97 -42.5 q-53 0 -94 42.5t-41 95.5z" glyph-name="Edieresis" horiz-adv-x="1091" unicode="Ë"/><glyph d="M424 1229v-1229h-297v1229h297zM164 1300l-197 279l326 49l67 -328h-196z" glyph-name="Igrave" horiz-adv-x="550" unicode="Ì"/><glyph d="M424 1229v-1229h-297v1229h297zM612 1571l-243 -271h-189l99 297z" glyph-name="Iacute" horiz-adv-x="550" unicode="Í"/><glyph d="M424 1229v-1229h-297v1229h297zM365 1300l-86 130l-86 -130h-195l170 291h225l168 -291h-196z" glyph-name="Icircumflex" horiz-adv-x="550" unicode="Î"/><glyph d="M424 1229v-1229h-297v1229h297zM-47 1438q0 55 41 97t94 42q55 0 97 -42t42 -97q0 -53 -42 -95.5t-97 -42.5q-53 0 -94 42.5t-41 95.5zM328 1438q0 55 41 97t94 42q55 0 96 -42t41 -97q0 -53 -41 -95.5t-96 -42.5q-53 0 -94 42.5t-41 95.5z" glyph-name="Idieresis" horiz-adv-x="550" unicode="Ï"/><glyph d="M31 489v265h100v475h473q293 0 469 -173t176 -441.5t-176 -441.5t-469 -173h-473v489h-100zM582 973h-154v-219h231v-265h-231v-233h154q154 0 257 97.5t103 260.5q0 172 -102 265.5t-258 93.5z" glyph-name="Eth" horiz-adv-x="1308" unicode="Ð"/><glyph d="M1241 1229v-1229h-229l-590 717v-717h-295v1229h229l590 -705v705h295zM840 1311q-68 0 -147 36.5t-105 36.5q-43 0 -58 -51l-8 -33l-207 19l13 76q16 98 72.5 153.5t148.5 55.5q68 0 146.5 -37t105.5 -37q43 0 57 51l8 33l207 -19l-12 -75q-16 -98 -72.5 -153.5 t-148.5 -55.5z" glyph-name="Ntilde" horiz-adv-x="1368" unicode="Ñ"/><glyph d="M686 -29q-274 0 -451.5 187.5t-177.5 456t177.5 454.5t451.5 186q276 0 454.5 -186t178.5 -454.5t-178.5 -456t-454.5 -187.5zM686 260q139 0 232.5 98.5t93.5 256t-93.5 256t-232.5 98.5q-137 0 -229 -98.5t-92 -256t92 -256t229 -98.5zM582 1300l-197 279l326 49 l67 -328h-196z" glyph-name="Ograve" horiz-adv-x="1376" unicode="Ò"/><glyph d="M686 -29q-274 0 -451.5 187.5t-177.5 456t177.5 454.5t451.5 186q276 0 454.5 -186t178.5 -454.5t-178.5 -456t-454.5 -187.5zM686 260q139 0 232.5 98.5t93.5 256t-93.5 256t-232.5 98.5q-137 0 -229 -98.5t-92 -256t92 -256t229 -98.5zM1016 1571l-244 -271h-188 l98 297z" glyph-name="Oacute" horiz-adv-x="1376" unicode="Ó"/><glyph d="M686 -29q-274 0 -451.5 187.5t-177.5 456t177.5 454.5t451.5 186q276 0 454.5 -186t178.5 -454.5t-178.5 -456t-454.5 -187.5zM686 260q139 0 232.5 98.5t93.5 256t-93.5 256t-232.5 98.5q-137 0 -229 -98.5t-92 -256t92 -256t229 -98.5zM776 1300l-86 130l-86 -130h-194 l170 291h225l168 -291h-197z" glyph-name="Ocircumflex" horiz-adv-x="1376" unicode="Ô"/><glyph d="M686 -29q-274 0 -451.5 187.5t-177.5 456t177.5 454.5t451.5 186q276 0 454.5 -186t178.5 -454.5t-178.5 -456t-454.5 -187.5zM686 260q139 0 232.5 98.5t93.5 256t-93.5 256t-232.5 98.5q-137 0 -229 -98.5t-92 -256t92 -256t229 -98.5zM838 1311q-68 0 -147 36.5 t-105 36.5q-43 0 -58 -51l-8 -33l-207 19l13 76q16 98 72.5 153.5t148.5 55.5q68 0 146.5 -37t105.5 -37q43 0 57 51l8 33l207 -19l-12 -75q-16 -98 -72.5 -153.5t-148.5 -55.5z" glyph-name="Otilde" horiz-adv-x="1376" unicode="Õ"/><glyph d="M686 -29q-274 0 -451.5 187.5t-177.5 456t177.5 454.5t451.5 186q276 0 454.5 -186t178.5 -454.5t-178.5 -456t-454.5 -187.5zM686 260q139 0 232.5 98.5t93.5 256t-93.5 256t-232.5 98.5q-137 0 -229 -98.5t-92 -256t92 -256t229 -98.5zM365 1438q0 55 40.5 97t94.5 42 q55 0 97 -42t42 -97q0 -53 -42 -95.5t-97 -42.5q-53 0 -94 42.5t-41 95.5zM739 1438q0 55 41 97t94 42q55 0 96.5 -42t41.5 -97q0 -53 -41 -95.5t-97 -42.5q-53 0 -94 42.5t-41 95.5z" glyph-name="Odieresis" horiz-adv-x="1376" unicode="Ö"/><glyph d="M246 174l-166 166l280 281l-280 280l166 166l280 -281l281 281l166 -166l-281 -280l281 -281l-166 -166l-281 281z" glyph-name="multiply" horiz-adv-x="1052" unicode="×"/><glyph d="M709 -29q-207 0 -365 113l-82 -84h-301l232 238q-113 168 -113 376q0 268 177 454.5t452 186.5q205 0 364 -110l80 84h301l-229 -236q117 -168 116 -379q0 -268 -178 -455.5t-454 -187.5zM709 260q139 0 232 98.5t93 255.5q0 82 -28 152l-453 -467q66 -39 156 -39z M387 614q0 -78 27 -147l448 463q-72 39 -153 39q-137 0 -229.5 -98.5t-92.5 -256.5z" glyph-name="Oslash" horiz-adv-x="1417" unicode="Ø"/><glyph d="M655 -29q-246 0 -395 159t-149 400v699h297v-699q0 -121 63.5 -195.5t183.5 -74.5q123 0 185.5 75t62.5 195v699h297v-699q0 -244 -147.5 -401.5t-397.5 -157.5zM549 1300l-197 279l326 49l67 -328h-196z" glyph-name="Ugrave" horiz-adv-x="1310" unicode="Ù"/><glyph d="M655 -29q-246 0 -395 159t-149 400v699h297v-699q0 -121 63.5 -195.5t183.5 -74.5q123 0 185.5 75t62.5 195v699h297v-699q0 -244 -147.5 -401.5t-397.5 -157.5zM985 1571l-244 -271h-188l98 297z" glyph-name="Uacute" horiz-adv-x="1310" unicode="Ú"/><glyph d="M655 -29q-246 0 -395 159t-149 400v699h297v-699q0 -121 63.5 -195.5t183.5 -74.5q123 0 185.5 75t62.5 195v699h297v-699q0 -244 -147.5 -401.5t-397.5 -157.5zM745 1300l-86 130l-86 -130h-194l170 291h225l168 -291h-197z" glyph-name="Ucircumflex" horiz-adv-x="1310" unicode="Û"/><glyph d="M655 -29q-246 0 -395 159t-149 400v699h297v-699q0 -121 63.5 -195.5t183.5 -74.5q123 0 185.5 75t62.5 195v699h297v-699q0 -244 -147.5 -401.5t-397.5 -157.5zM336 1438q0 55 41 97t94 42q55 0 97 -42t42 -97q0 -53 -42 -95.5t-97 -42.5q-53 0 -94 42.5t-41 95.5z M711 1438q0 55 41 97t94 42q55 0 96 -42t41 -97q0 -53 -41 -95.5t-96 -42.5q-53 0 -94 42.5t-41 95.5z" glyph-name="Udieresis" horiz-adv-x="1310" unicode="Ü"/><glyph d="M614 856l207 373h320l-430 -752v-477h-297v473l-432 756h319l207 -373l53 -125zM897 1638l-244 -270h-188l98 297z" glyph-name="Yacute" horiz-adv-x="1122" unicode="Ý"/><glyph d="M424 1229v-180h266q225 0 356.5 -114t131.5 -314q0 -211 -140.5 -327t-367.5 -116h-246v-178h-297v1229h297zM870 608q0 88 -58 136.5t-155 48.5h-233v-369h235q96 0 153.5 47t57.5 137z" glyph-name="Thorn" horiz-adv-x="1210" unicode="Þ"/><glyph d="M487 481v209q150 31 150 160q0 131 -121 131q-55 0 -88 -39t-33 -100v-842h-295v827q0 186 109.5 294t308.5 108q182 0 301 -108.5t119 -258.5q0 -180 -131 -250q156 -72 156 -270q0 -156 -101.5 -253t-259.5 -97q-49 0 -77.5 2t-32.5 4l-7 2v186h47q78 0 120 40t42 110 q0 68 -42 106.5t-117 38.5h-48z" glyph-name="germandbls" horiz-adv-x="1021" unicode="ß"/><glyph d="M872 530v-530h-200l-41 104h-8q-74 -125 -271 -124q-141 0 -224 75.5t-83 194.5q0 137 98.5 211t292.5 74q84 0 154 -19v27q0 59 -47 83.5t-140 24.5q-53 0 -106 -14t-80 -29l-29 -14l-90 209q14 8 42 21.5t123 35t204 21.5q190 0 297.5 -95.5t107.5 -255.5zM590 303v64 q-49 18 -117 18q-72 0 -113 -29.5t-41 -81.5q0 -47 34 -74.5t85 -27.5q63 0 107.5 37t44.5 94zM367 1018l-197 278l326 50l67 -328h-196z" glyph-name="agrave" horiz-adv-x="962" unicode="à"/><glyph d="M872 530v-530h-200l-41 104h-8q-74 -125 -271 -124q-141 0 -224 75.5t-83 194.5q0 137 98.5 211t292.5 74q84 0 154 -19v27q0 59 -47 83.5t-140 24.5q-53 0 -106 -14t-80 -29l-29 -14l-90 209q14 8 42 21.5t123 35t204 21.5q190 0 297.5 -95.5t107.5 -255.5zM590 303v64 q-49 18 -117 18q-72 0 -113 -29.5t-41 -81.5q0 -47 34 -74.5t85 -27.5q63 0 107.5 37t44.5 94zM782 1288l-243 -270h-189l99 297z" glyph-name="aacute" horiz-adv-x="962" unicode="á"/><glyph d="M872 530v-530h-200l-41 104h-8q-74 -125 -271 -124q-141 0 -224 75.5t-83 194.5q0 137 98.5 211t292.5 74q84 0 154 -19v27q0 59 -47 83.5t-140 24.5q-53 0 -106 -14t-80 -29l-29 -14l-90 209q14 8 42 21.5t123 35t204 21.5q190 0 297.5 -95.5t107.5 -255.5zM590 303v64 q-49 18 -117 18q-72 0 -113 -29.5t-41 -81.5q0 -47 34 -74.5t85 -27.5q63 0 107.5 37t44.5 94zM535 1018l-86 129l-87 -129h-194l170 291h225l168 -291h-196z" glyph-name="acircumflex" horiz-adv-x="962" unicode="â"/><glyph d="M872 530v-530h-200l-41 104h-8q-74 -125 -271 -124q-141 0 -224 75.5t-83 194.5q0 137 98.5 211t292.5 74q84 0 154 -19v27q0 59 -47 83.5t-140 24.5q-53 0 -106 -14t-80 -29l-29 -14l-90 209q14 8 42 21.5t123 35t204 21.5q190 0 297.5 -95.5t107.5 -255.5zM590 303v64 q-49 18 -117 18q-72 0 -113 -29.5t-41 -81.5q0 -47 34 -74.5t85 -27.5q63 0 107.5 37t44.5 94zM596 965q-68 0 -146.5 36.5t-105.5 36.5q-43 0 -57 -51l-8 -33l-207 19l12 76q16 98 72.5 153t148.5 55q68 0 146.5 -36.5t105.5 -36.5q43 0 57 51l9 33l206 -19l-12 -75 q-16 -98 -72.5 -153.5t-148.5 -55.5z" glyph-name="atilde" horiz-adv-x="962" unicode="ã"/><glyph d="M872 530v-530h-200l-41 104h-8q-74 -125 -271 -124q-141 0 -224 75.5t-83 194.5q0 137 98.5 211t292.5 74q84 0 154 -19v27q0 59 -47 83.5t-140 24.5q-53 0 -106 -14t-80 -29l-29 -14l-90 209q14 8 42 21.5t123 35t204 21.5q190 0 297.5 -95.5t107.5 -255.5zM590 303v64 q-49 18 -117 18q-72 0 -113 -29.5t-41 -81.5q0 -47 34 -74.5t85 -27.5q63 0 107.5 37t44.5 94zM129 1087q0 55 41 97.5t94 42.5q55 0 97 -42t42 -98q0 -53 -42 -95t-97 -42q-53 0 -94 42t-41 95zM504 1087q0 55 41 97.5t94 42.5q55 0 96 -42t41 -98q0 -53 -41 -95t-96 -42 q-53 0 -94 42t-41 95z" glyph-name="adieresis" horiz-adv-x="962" unicode="ä"/><glyph d="M872 530v-530h-200l-41 104h-8q-74 -125 -271 -124q-141 0 -224 75.5t-83 194.5q0 137 98.5 211t292.5 74q84 0 154 -19v27q0 59 -47 83.5t-140 24.5q-53 0 -106 -14t-80 -29l-29 -14l-90 209q14 8 42 21.5t123 35t204 21.5q190 0 297.5 -95.5t107.5 -255.5zM590 303v64 q-49 18 -117 18q-72 0 -113 -29.5t-41 -81.5q0 -47 34 -74.5t85 -27.5q63 0 107.5 37t44.5 94zM213 1196q0 86 60.5 137t179 51t179 -51t60.5 -137q0 -84 -60.5 -135t-179 -51t-179 51t-60.5 135zM541 1196q0 68 -88 68q-86 0 -86 -68q0 -66 86 -66q88 0 88 66z" glyph-name="aring" horiz-adv-x="962" unicode="å"/><glyph d="M1296 276l101 -190q-12 -12 -37 -29.5t-111 -47t-184 -29.5q-199 0 -324 106q-123 -106 -344 -106q-174 0 -266 73.5t-92 186.5q0 279 385 278q72 0 164 -18v30q0 61 -49.5 93t-135.5 32q-49 0 -103 -17t-83 -36l-29 -16l-92 217q141 78 346 78q195 0 308 -97 q119 96 280 97q190 0 300 -115t110 -313l-2 -82h-561q29 -160 208 -160q55 0 108.5 16.5t78.5 32.5zM440 172q74 0 111 43t37 113v22q-59 16 -137 17q-131 0 -132 -101q0 -94 121 -94zM1022 668q-115 0 -141 -138h276q-4 63 -39 100.5t-96 37.5z" glyph-name="ae" horiz-adv-x="1486" unicode="æ"/><glyph d="M383 -160l-45 51l49 105q-156 37 -246 154.5t-90 279.5q0 195 128 323t339 128q80 0 147.5 -19.5t96.5 -38.5l29 -20l-74 -211q-78 47 -172 47q-88 0 -142.5 -57.5t-54.5 -151.5t54.5 -151.5t142.5 -57.5q41 0 84 12.5t65 24.5l23 10l74 -207q-10 -8 -31 -22t-91.5 -36.5 t-150.5 -22.5h-4l-16 -41q57 0 94 -36t37 -98q0 -72 -49.5 -114.5t-139.5 -42.5q-57 0 -104 16.5t-66 32.5l-18 18l63 101q61 -43 115 -43q63 0 64 41q0 39 -54 39q-16 0 -30.5 -3.5t-20.5 -5.5z" glyph-name="ccedilla" horiz-adv-x="831" unicode="ç"/><glyph d="M756 270l100 -190q-12 -12 -36.5 -29.5t-110.5 -47.5t-185 -30q-217 0 -345 130t-128 327q0 195 123 323t315 128q190 0 300 -115t110 -313l-2 -82h-561q23 -166 209 -166q55 0 108.5 16.5t77.5 32.5zM481 668q-115 0 -141 -138h276q-4 63 -39 100.5t-96 37.5zM354 1018 l-196 278l325 50l68 -328h-197z" glyph-name="egrave" horiz-adv-x="944" unicode="è"/><glyph d="M831 1288l-243 -270h-189l99 297zM756 270l100 -190q-12 -12 -36.5 -29.5t-110.5 -47.5t-185 -30q-217 0 -345 130t-128 327q0 195 123 323t315 128q190 0 300 -115t110 -313l-2 -82h-561q23 -166 209 -166q55 0 108.5 16.5t77.5 32.5zM481 668q-115 0 -141 -138h276 q-4 63 -39 100.5t-96 37.5z" glyph-name="eacute" horiz-adv-x="944" unicode="é"/><glyph d="M573 1018l-86 129l-86 -129h-194l170 291h225l168 -291h-197zM756 270l100 -190q-12 -12 -36.5 -29.5t-110.5 -47.5t-185 -30q-217 0 -345 130t-128 327q0 195 123 323t315 128q190 0 300 -115t110 -313l-2 -82h-561q23 -166 209 -166q55 0 108.5 16.5t77.5 32.5z M481 668q-115 0 -141 -138h276q-4 63 -39 100.5t-96 37.5z" glyph-name="ecircumflex" horiz-adv-x="944" unicode="ê"/><glyph d="M756 270l100 -190q-12 -12 -36.5 -29.5t-110.5 -47.5t-185 -30q-217 0 -345 130t-128 327q0 195 123 323t315 128q190 0 300 -115t110 -313l-2 -82h-561q23 -166 209 -166q55 0 108.5 16.5t77.5 32.5zM481 668q-115 0 -141 -138h276q-4 63 -39 100.5t-96 37.5zM164 1087 q0 55 41 97.5t94 42.5q55 0 97 -42t42 -98q0 -53 -42 -95t-97 -42q-53 0 -94 42t-41 95zM539 1087q0 55 41 97.5t94 42.5q55 0 96 -42t41 -98q0 -53 -41 -95t-96 -42q-53 0 -94 42t-41 95z" glyph-name="edieresis" horiz-adv-x="944" unicode="ë"/><glyph d="M100 0v860h295v-860h-295zM137 1018l-196 278l325 50l68 -328h-197z" glyph-name="igrave" horiz-adv-x="495" unicode="ì"/><glyph d="M588 1288l-244 -270h-188l98 297zM100 0v860h295v-860h-295z" glyph-name="iacute" horiz-adv-x="495" unicode="í"/><glyph d="M100 0v860h295v-860h-295zM340 1018l-86 129l-86 -129h-195l170 291h226l168 -291h-197z" glyph-name="icircumflex" horiz-adv-x="495" unicode="î"/><glyph d="M-66 1153q0 55 41 97t95 42q55 0 97 -42t42 -97q0 -53 -42 -95t-97 -42q-53 0 -94.5 42t-41.5 95zM309 1153q0 55 41 97t94 42q55 0 96.5 -42t41.5 -97q0 -53 -41 -95t-97 -42q-53 0 -94 42t-41 95zM100 0v860h295v-860h-295z" glyph-name="idieresis" horiz-adv-x="495" unicode="ï"/><glyph d="M522 -23q-209 0 -340 121t-131 328q0 199 132 325t339 126h17v8q-35 43 -66 96l-41 70l-194 -119l-93 158l197 120l-145 258v23h282l86 -145l209 127l92 -158l-209 -127l209 -357q68 -123 96.5 -204.5t30.5 -184.5v-16q0 -207 -129 -328t-342 -121zM696 430 q0 94 -47 150.5t-127 56.5q-78 0 -126 -58.5t-48 -148.5q0 -92 48 -152.5t126 -60.5q80 0 127 59.5t47 153.5z" glyph-name="eth" horiz-adv-x="1044" unicode="ð"/><glyph d="M100 0v860h179l47 -117h14q53 76 113.5 108t156.5 32q164 0 261.5 -101.5t97.5 -275.5v-506h-295v483q0 59 -38 99.5t-101 40.5q-59 0 -97.5 -37t-42.5 -92v-494h-295zM674 1028q-68 0 -146.5 37t-105.5 37q-43 0 -57 -51l-9 -33l-206 18l12 76q16 98 72.5 153.5 t148.5 55.5q68 0 146.5 -37t105.5 -37q43 0 57 51l8 33l207 -18l-12 -76q-16 -98 -72.5 -153.5t-148.5 -55.5z" glyph-name="ntilde" horiz-adv-x="1058" unicode="ñ"/><glyph d="M965 426q0 -199 -132.5 -322.5t-325 -123.5t-324.5 123.5t-132 322.5q0 203 132 329t324.5 126t325 -127t132.5 -328zM508 211q76 0 122 59.5t46 159.5q0 98 -46 158.5t-122 60.5q-78 0 -124 -60.5t-46 -158.5q0 -100 46 -159.5t124 -59.5zM401 1018l-196 278l325 50 l68 -328h-197z" glyph-name="ograve" horiz-adv-x="1015" unicode="ò"/><glyph d="M965 426q0 -199 -132.5 -322.5t-325 -123.5t-324.5 123.5t-132 322.5q0 203 132 329t324.5 126t325 -127t132.5 -328zM508 211q76 0 122 59.5t46 159.5q0 98 -46 158.5t-122 60.5q-78 0 -124 -60.5t-46 -158.5q0 -100 46 -159.5t124 -59.5zM842 1288l-244 -270h-188 l98 297z" glyph-name="oacute" horiz-adv-x="1015" unicode="ó"/><glyph d="M965 426q0 -199 -132.5 -322.5t-325 -123.5t-324.5 123.5t-132 322.5q0 203 132 329t324.5 126t325 -127t132.5 -328zM508 211q76 0 122 59.5t46 159.5q0 98 -46 158.5t-122 60.5q-78 0 -124 -60.5t-46 -158.5q0 -100 46 -159.5t124 -59.5zM598 1018l-86 129l-86 -129 h-195l170 291h226l168 -291h-197z" glyph-name="ocircumflex" horiz-adv-x="1015" unicode="ô"/><glyph d="M965 426q0 -199 -132.5 -322.5t-325 -123.5t-324.5 123.5t-132 322.5q0 203 132 329t324.5 126t325 -127t132.5 -328zM508 211q76 0 122 59.5t46 159.5q0 98 -46 158.5t-122 60.5q-78 0 -124 -60.5t-46 -158.5q0 -100 46 -159.5t124 -59.5zM653 1030q-68 0 -146.5 37 t-105.5 37q-43 0 -57 -51l-8 -33l-207 18l12 76q16 98 72.5 153.5t148.5 55.5q68 0 147 -37t105 -37q43 0 58 51l8 33l207 -18l-13 -76q-16 -98 -72.5 -153.5t-148.5 -55.5z" glyph-name="otilde" horiz-adv-x="1015" unicode="õ"/><glyph d="M965 426q0 -199 -132.5 -322.5t-325 -123.5t-324.5 123.5t-132 322.5q0 203 132 329t324.5 126t325 -127t132.5 -328zM508 211q76 0 122 59.5t46 159.5q0 98 -46 158.5t-122 60.5q-78 0 -124 -60.5t-46 -158.5q0 -100 46 -159.5t124 -59.5zM188 1155q0 55 41 97t95 42 q55 0 97 -42t42 -97q0 -53 -42 -95t-97 -42q-53 0 -94.5 42t-41.5 95zM563 1155q0 55 41 97t94 42q55 0 96.5 -42t41.5 -97q0 -53 -41 -95t-97 -42q-53 0 -94 42t-41 95z" glyph-name="odieresis" horiz-adv-x="1015" unicode="ö"/><glyph d="M322 231.5q0 71.5 50 123t121.5 51.5t123 -51.5t51.5 -123t-51.5 -122t-123 -50.5t-121.5 50.5t-50 122zM322 991.5q0 71.5 50 122.5t121.5 51t123 -51t51.5 -122.5t-51.5 -122t-123 -50.5t-121.5 50.5t-50 122zM66 487v238h858v-238h-858z" glyph-name="divide" horiz-adv-x="989" unicode="÷"/><glyph d="M965 426q0 -199 -132.5 -322.5t-324.5 -123.5q-147 0 -260 71l-49 -51h-187l135 141q-96 115 -96 285q0 203 132 329t325 126q139 0 250 -70l49 49h188l-133 -139q103 -123 103 -295zM508 211q76 0 122 59.5t46 159.5q0 47 -12 88l-248 -280q39 -27 92 -27zM338 430 q0 -51 8 -84l246 279q-37 25 -84 24q-78 0 -124 -60.5t-46 -158.5z" glyph-name="oslash" horiz-adv-x="1015" unicode="ø"/><glyph d="M662 369v491h294v-860h-200l-49 115h-13q-92 -135 -248 -135q-164 0 -260 100t-96 274v506h295v-485q0 -66 35 -107t98 -41q66 0 105 42.5t39 99.5zM406 1018l-197 278l326 50l67 -328h-196z" glyph-name="ugrave" horiz-adv-x="1056" unicode="ù"/><glyph d="M844 1288l-244 -270h-188l98 297zM662 369v491h294v-860h-200l-49 115h-13q-92 -135 -248 -135q-164 0 -260 100t-96 274v506h295v-485q0 -66 35 -107t98 -41q66 0 105 42.5t39 99.5z" glyph-name="uacute" horiz-adv-x="1056" unicode="ú"/><glyph d="M594 1018l-86 129l-86 -129h-195l170 291h226l168 -291h-197zM662 369v491h294v-860h-200l-49 115h-13q-92 -135 -248 -135q-164 0 -260 100t-96 274v506h295v-485q0 -66 35 -107t98 -41q66 0 105 42.5t39 99.5z" glyph-name="ucircumflex" horiz-adv-x="1056" unicode="û"/><glyph d="M186 1157q0 55 41 97t95 42q55 0 97 -42t42 -97q0 -53 -42 -95t-97 -42q-53 0 -94.5 42t-41.5 95zM561 1157q0 55 41 97t94 42q55 0 96.5 -42t41.5 -97q0 -53 -41 -95t-97 -42q-53 0 -94 42t-41 95zM662 369v491h294v-860h-200l-49 115h-13q-92 -135 -248 -135 q-164 0 -260 100t-96 274v506h295v-485q0 -66 35 -107t98 -41q66 0 105 42.5t39 99.5z" glyph-name="udieresis" horiz-adv-x="1056" unicode="ü"/><glyph d="M944 860l-495 -1179h-306l193 405l-344 774h321l144 -436q16 -49 16 -76h14q0 33 15 76l141 436h301zM797 1288l-244 -270h-188l98 297z" glyph-name="yacute" horiz-adv-x="935" unicode="ý"/><glyph d="M408 96h-13v-415h-295v1548h295v-455h11q6 12 20 29.5t69.5 47.5t125.5 30q174 0 281.5 -122t107.5 -327q0 -201 -111 -326.5t-278 -125.5q-47 0 -86 12t-61.5 29.5t-38 34t-21.5 28.5zM381 428q0 -96 45 -151.5t121 -55.5t121 57.5t45 149.5t-46 151.5t-120 59.5 q-76 0 -121 -57.5t-45 -153.5z" glyph-name="thorn" horiz-adv-x="1062" unicode="þ"/><glyph d="M944 860l-495 -1179h-306l193 405l-344 774h321l144 -436q16 -49 16 -76h14q0 33 15 76l141 436h301zM141 1153q0 55 41 97t94 42q55 0 97.5 -42t42.5 -97q0 -53 -42 -95t-98 -42q-53 0 -94 42t-41 95zM516 1153q0 55 41 97t94 42q55 0 96 -42t41 -97q0 -53 -40.5 -95 t-96.5 -42q-53 0 -94 42t-41 95z" glyph-name="ydieresis" horiz-adv-x="935" unicode="ÿ"/><glyph d="M100 0v860h295v-860h-295z" glyph-name="dotlessi" horiz-adv-x="495" unicode="ı"/><glyph d="M27 375v336l114 67v451h297v-271l195 117v-334l-195 -118v-367h549v-256h-846v444z" glyph-name="Lslash" horiz-adv-x="1042" unicode="Ł"/><glyph d="M29 428v158l75 47v606h295v-424l117 72v-158l-117 -72v-657h-295v475z" glyph-name="lslash" horiz-adv-x="528" unicode="ł"/><glyph d="M1909 739v-233h-500v-250h596v-256h-893v131q-172 -160 -426 -160q-274 0 -451.5 187.5t-177.5 456t177.5 454.5t451.5 186q250 0 426 -159v133h893v-256h-596v-234h500zM686 260q139 0 232.5 98.5t93.5 256t-93.5 256t-232.5 98.5q-137 0 -229 -98.5t-92 -256t92 -256 t229 -98.5z" glyph-name="OE" horiz-adv-x="2074" unicode="Œ"/><glyph d="M1485 270l100 -190q-12 -12 -36.5 -29.5t-110.5 -47.5t-185 -30q-254 0 -383 172q-131 -166 -362 -165q-193 0 -325 123.5t-132 322.5q0 203 132 329t325 126q227 0 360 -168q127 168 351 168q190 0 299.5 -115t109.5 -313l-2 -82h-561q23 -166 209 -166q55 0 108.5 16.5 t77.5 32.5zM508 211q76 0 122 59.5t46 159.5q0 98 -46 158.5t-122 60.5q-78 0 -124 -60.5t-46 -158.5q0 -100 46 -159.5t124 -59.5zM1210 668q-115 0 -141 -138h277q-4 63 -39.5 100.5t-96.5 37.5z" glyph-name="oe" horiz-adv-x="1673" unicode="œ"/><glyph d="M49 137l162 228q20 -12 54 -33t124 -53.5t164 -32.5q135 0 135 102q0 49 -42 80t-169 68q-205 59 -305 146t-100 232q0 174 119.5 277.5t355.5 103.5q147 0 263 -32.5t157 -65.5l43 -33l-160 -241q-14 12 -41 28.5t-105.5 45t-156.5 28.5q-133 0 -133 -90q0 -45 41 -69.5 t153 -57.5q215 -59 321.5 -149.5t106.5 -237.5q0 -178 -120.5 -293t-352.5 -115q-152 0 -279.5 41t-181.5 82zM461 1591l86 -129l86 129h194l-131 -223h-301l-131 223h197z" glyph-name="Scaron" horiz-adv-x="1091" unicode="Š"/><glyph d="M53 70l86 200q137 -84 273 -84q100 0 100 52q0 31 -46 49t-111.5 34.5t-131 43t-111.5 89t-46 156.5q0 119 93 195t263 76q115 0 213 -19.5t139 -38.5l39 -20l-84 -211q-121 78 -270 78q-90 0 -90 -49q0 -29 47 -46.5t114.5 -33t135 -42t114.5 -89t47 -156.5 q0 -125 -97 -199.5t-296 -74.5q-119 0 -214 22.5t-130 44.5zM346 1241l86 -129l86 129h195l-131 -223h-301l-131 223h196z" glyph-name="scaron" horiz-adv-x="882" unicode="š"/><glyph d="M614 856l207 373h320l-430 -752v-477h-297v473l-432 756h319l207 -373l53 -125zM244 1438q0 55 41 97t94 42q55 0 97 -42t42 -97q0 -53 -42 -95.5t-97 -42.5q-53 0 -94 42.5t-41 95.5zM618 1438q0 55 41 97t95 42q55 0 96 -42t41 -97q0 -53 -41 -95.5t-96 -42.5 q-53 0 -94.5 42.5t-41.5 95.5z" glyph-name="Ydieresis" horiz-adv-x="1122" unicode="Ÿ"/><glyph d="M61 0v223l607 750h-586v256h979v-234l-596 -739h598v-256h-1002zM471 1591l86 -129l86 129h195l-131 -223h-301l-132 223h197z" glyph-name="Zcaron" horiz-adv-x="1134" unicode="Ž"/><glyph d="M817 0h-751v166l372 459h-368v235h747v-149l-364 -475h364v-236zM348 1241l86 -129l86 129h195l-131 -223h-301l-131 223h196z" glyph-name="zcaron" horiz-adv-x="884" unicode="ž"/><glyph d="M373 319l65 314h-116v227h163l7 25q76 354 417 354q63 0 123 -11t86 -24l27 -12l-117 -244q-51 29 -123 29q-102 0 -119 -90l-6 -27h234v-227h-279l-71 -354q-33 -160 -113 -229.5t-236 -69.5q-63 0 -121.5 14t-82.5 31l-27 14l92 231q45 -29 109 -28q72 -1 88 77z" glyph-name="florin" horiz-adv-x="1167" unicode="ƒ"/><glyph d="M479 1300l-86 130l-86 -130h-194l170 291h225l168 -291h-197z" glyph-name="circumflex" horiz-adv-x="759" unicode="ˆ"/><glyph d="M242 1591l86 -129l86 129h194l-131 -223h-301l-131 223h197z" glyph-name="caron" horiz-adv-x="665" unicode="ˇ"/><glyph d="M522 1683h232q0 -137 -85 -235t-257 -98t-259 98t-87 235h229q0 -137 115 -137q112 0 112 137z" glyph-name="breve" horiz-adv-x="811" unicode="˘"/><glyph d="M340 1126q-70 0 -117 47.5t-47 117t47 117.5t117 48t118 -48t48 -117.5t-48 -117t-118 -47.5z" glyph-name="dotaccent" horiz-adv-x="677" unicode="˙"/><glyph d="M55 1446q0 86 60.5 137t179.5 51t179.5 -51t60.5 -137q0 -84 -60.5 -135t-179.5 -51t-179.5 51t-60.5 135zM383 1446q0 68 -88 67q-86 0 -86 -67q0 -66 86 -66q88 0 88 66z" glyph-name="ring" horiz-adv-x="589" unicode="˚"/><glyph d="M322 -117l75 -98q-6 -8 -18 -20.5t-56 -34t-98 -21.5q-88 0 -138 46t-50 120q0 139 203 205l26 -80q-68 -43 -67 -92q0 -51 57 -51q31 -1 66 26z" glyph-name="ogonek" horiz-adv-x="409" unicode="˛"/><glyph d="M639 1311q-68 0 -146.5 36.5t-105.5 36.5q-43 0 -57 -51l-8 -33l-207 19l12 76q16 98 72.5 153.5t148.5 55.5q68 0 146.5 -37t105.5 -37q43 0 57 51l9 33l206 -19l-12 -75q-16 -98 -72.5 -153.5t-148.5 -55.5z" glyph-name="tilde" horiz-adv-x="993" unicode="˜"/><glyph d="M758 1182l-162 -322h-188l57 322h293zM393 1182l-162 -322h-188l57 322h293z" glyph-name="hungarumlaut" horiz-adv-x="808" unicode="˝"/><glyph d="M47 860h1114v-231h-141v-629h-295v629h-242v-629h-295v629h-141v231z" glyph-name="pi" horiz-adv-x="1208" unicode="π"/><glyph d="M115 469v238h686v-238h-686z" glyph-name="endash" horiz-adv-x="915" unicode="–"/><glyph d="M115 469v238h1204v-238h-1204z" glyph-name="emdash" horiz-adv-x="1433" unicode="—"/><glyph d="M399 1077q-109 -25 -131 -86q55 -14 89 -57t34 -100q0 -70 -47 -118t-116.5 -48t-118 48t-48.5 118v10q0 137 76 246.5t219 138.5z" glyph-name="quoteleft" horiz-adv-x="468" unicode="‘"/><glyph d="M80 819q109 20 129 84q-53 14 -87 58.5t-34 101.5q0 70 47 118t117 48t118 -48t48 -118v-10q0 -137 -76 -247t-219 -138z" glyph-name="quoteright" horiz-adv-x="468" unicode="’"/><glyph d="M59 -100q109 25 129 86q-53 12 -86.5 56t-33.5 101q0 70 47 118t116.5 48t117.5 -48t48 -118v-10q0 -137 -75.5 -246.5t-219.5 -138.5z" glyph-name="quotesinglbase" horiz-adv-x="471" unicode="‚"/><glyph d="M807 1077q-109 -25 -131 -86q55 -14 89 -57t34 -100q0 -70 -47 -118t-117 -48t-118 48t-48 118v10q0 137 76 246.5t219 138.5zM61 834v10q0 137 76 246.5t219 138.5l43 -152q-109 -25 -131 -86q55 -14 89 -57t34 -100q0 -70 -47 -118t-116.5 -48t-118 48t-48.5 118z" glyph-name="quotedblleft" horiz-adv-x="876" unicode="“"/><glyph d="M418 1063v-10q0 -137 -76 -247t-219 -138l-43 151q109 20 129 84q-53 14 -87 58.5t-34 101.5q0 70 47 118t117 48t118 -48t48 -118zM459 819q109 20 129 84q-53 14 -87 58.5t-34 101.5q0 70 47 118t116.5 48t118 -48t48.5 -118v-10q0 -137 -76 -247t-219 -138z" glyph-name="quotedblright" horiz-adv-x="847" unicode="”"/><glyph d="M59 -100q109 25 129 86q-53 12 -86.5 56t-33.5 101q0 70 47 118t116.5 48t117.5 -48t48 -118v-10q0 -137 -75.5 -246.5t-219.5 -138.5zM584 -100q109 25 129 86q-53 12 -87 56t-34 101q0 70 47 118t116.5 48t118 -48t48.5 -118v-10q0 -137 -76 -246.5t-219 -138.5z" glyph-name="quotedblbase" horiz-adv-x="995" unicode="„"/><glyph d="M63 799v237h271v264h241v-264h265v-237h-265l-20 -498h-201l-20 498h-271z" glyph-name="dagger" horiz-adv-x="903" unicode="†"/><glyph d="M98 866v238h271v264h241v-264h264v-238h-264l-12 -182l12 -182h264v-238h-264v-264h-241v264h-271v238h271l12 182l-12 182h-271z" glyph-name="daggerdbl" horiz-adv-x="958" unicode="‡"/><glyph d="M338 670q88 0 150.5 -62.5t62.5 -150.5t-62.5 -149.5t-150.5 -61.5t-149.5 61.5t-61.5 149.5t61.5 150.5t149.5 62.5z" glyph-name="bullet" horiz-adv-x="677" unicode="•"/><glyph d="M72 155.5q0 71.5 50 123t121.5 51.5t123 -51.5t51.5 -123t-51.5 -121.5t-123 -50t-121.5 50t-50 121.5zM616 155.5q0 71.5 50.5 123t122 51.5t123 -51.5t51.5 -123t-51.5 -121.5t-123 -50t-122 50t-50.5 121.5zM1161 155.5q0 71.5 50.5 123t122 51.5t122.5 -51.5t51 -123 t-51 -121.5t-122.5 -50t-122 50t-50.5 121.5z" glyph-name="ellipsis" horiz-adv-x="1579" unicode="…"/><glyph d="M354 1255q131 0 210 -88t79 -213t-79 -213t-210 -88t-209.5 89t-78.5 212q0 125 78.5 213t209.5 88zM354.5 811q96.5 0 96.5 143q0 145 -96.5 145.5t-96.5 -145.5q0 -143 96.5 -143zM1069 1229h229l-976 -1229h-234zM1042.5 586q131.5 0 210 -88t78.5 -213t-78.5 -213 t-210 -88t-210 89t-78.5 212q0 125 78.5 213t210 88zM1042.5 430q-96.5 0 -96.5 -145q0 -143 96.5 -143.5t96.5 143.5q0 145 -96.5 145zM1700 430q-96 0 -96 -145q0 -143 96 -143.5t96 143.5q0 145 -96 145zM1700 586q131 0 210 -88t79 -213t-79 -213t-210 -88t-210 89 t-79 212q0 125 79 213t210 88z" glyph-name="perthousand" horiz-adv-x="2045" unicode="‰"/><glyph d="M55 403v43l267 390h243v-19l-256 -381v-18l256 -383v-19h-243z" glyph-name="guilsinglleft" horiz-adv-x="620" unicode="‹"/><glyph d="M565 446v-43l-266 -387h-244v19l256 383v18l-256 381v19h244z" glyph-name="guilsinglright" horiz-adv-x="620" unicode="›"/><glyph d="M209 0h-234l981 1229h230z" glyph-name="fraction" horiz-adv-x="1161" unicode="⁄"/><glyph d="M840 578v-197h-277q72 -117 230 -117q55 0 106 22.5t74 45.5l22 22l170 -227q-4 -6 -14 -16.5t-45 -36t-75 -45t-105.5 -36t-137.5 -16.5q-217 0 -357 110t-195 294h-168v197h135v79h-135v197h170q55 182 195 291.5t355 109.5q115 0 209.5 -37.5t130.5 -74.5l37 -37 l-170 -227q-8 10 -24.5 25.5t-69.5 40t-108 24.5q-154 0 -226 -115h273v-197h-330v-79h330z" glyph-name="Euro" horiz-adv-x="1228" unicode="€"/><glyph d="M891 575h-184v654h122l218 -281l219 281h123v-654h-185v297l-117 -151h-79l-117 151v-297zM606 1229v-162h-178v-492h-184v492h-178v162h540z" glyph-name="trademark" horiz-adv-x="1511" unicode="™"/><glyph d="M92 0v256h193q-193 150 -193 401q0 254 176 426t475 172t475.5 -172t176.5 -426q0 -252 -195 -401h195v-256h-578v266q123 23 201 123t78 238q0 150 -100.5 246t-252 96t-252 -96.5t-100.5 -245.5q0 -137 78 -237.5t201 -123.5v-266h-578z" glyph-name="uni2126" horiz-adv-x="1486" unicode="Ω"/><glyph d="M522 -23q-209 0 -340 121t-131 328q0 199 132 325t339 126h17v8q-35 43 -66 96l-276 487v23h282l387 -660q68 -123 96.5 -204.5t30.5 -184.5v-16q0 -207 -129 -328t-342 -121zM696 430q0 94 -47 150.5t-127 56.5q-78 0 -126 -58.5t-48 -148.5q0 -92 48 -152.5t126 -60.5 q80 0 127 59.5t47 153.5z" glyph-name="partialdiff" horiz-adv-x="1048" unicode="∂"/><glyph d="M51 0v49l617 1180h49l618 -1180v-49h-1284zM905 256q-33 70 -100.5 220.5t-104.5 232.5h-18l-207 -453h430z" glyph-name="uni2206" horiz-adv-x="1384" unicode="∆"/><glyph d="M1210 1229v-1229h-297v973h-501v-973h-297v1229h1095z" glyph-name="product" horiz-adv-x="1325" unicode="∏"/><glyph d="M98 1229h758v-256h-385l229 -287v-151l-219 -279h375v-256h-758v256l289 338v29l-289 350v256z" glyph-name="summation" horiz-adv-x="942" unicode="∑"/><glyph d="M104 492v237h889v-237h-889z" glyph-name="minus" horiz-adv-x="1097" unicode="−"/><glyph d="M1339 1229l-850 -1622h-53l-442 817h332l39 -92l77 -199h43l78 199l438 897h338z" glyph-name="radical" horiz-adv-x="1306" unicode="√"/><glyph d="M428 227q-152 0 -253 104.5t-101 250.5q0 143 101 249.5t253 106.5q172 0 354 -199q178 199 351 199q141 0 247.5 -100.5t106.5 -255.5q0 -143 -100.5 -249t-253.5 -106q-176 0 -357 197q-174 -197 -348 -197zM1114 711q-86 0 -199 -123q121 -135 199 -135q57 0 93 37.5 t36 91t-37 91.5t-92 38zM446 453q88 0 199 125q-119 133 -199 133q-57 0 -93 -40t-36 -89q0 -51 36 -90t93 -39z" glyph-name="infinity" horiz-adv-x="1560" unicode="∞"/><glyph d="M211 88v954q0 129 70.5 208t210.5 79q55 0 103 -12t69 -25l22 -12l-74 -219q-29 12 -57 12q-47 0 -47 -65v-955q0 -129 -70.5 -207.5t-210.5 -78.5q-55 0 -103 12t-71 24l-20 13l73 219q29 -12 58 -12q47 -1 47 65z" glyph-name="integral" horiz-adv-x="716" unicode="∫"/><glyph d="M758 297q-84 0 -181.5 36t-130.5 36q-53 0 -71 -50l-10 -32l-256 18l18 107q43 205 274 204q84 0 181.5 -35.5t130.5 -35.5q53 0 71 49l11 33l256 -19l-19 -106q-43 -205 -274 -205zM758 707q-84 0 -181.5 35.5t-130.5 35.5q-53 0 -71 -49l-10 -33l-256 19l18 106 q43 205 274 205q84 0 181.5 -36t130.5 -36q53 0 71 50l11 32l256 -18l-19 -107q-43 -204 -274 -204z" glyph-name="approxequal" horiz-adv-x="1155" unicode="≈"/><glyph d="M92 659v238h420l86 223l195 -67l-60 -156h199v-238h-291l-57 -151h348v-238h-438l-84 -221l-195 68l57 153h-180v238h273l57 151h-330z" glyph-name="notequal" horiz-adv-x="1024" unicode="≠"/><glyph d="M676 559l-170 -176l-416 395v49l418 402l170 -176l-270 -252zM729 309v-237h-643v237h643z" glyph-name="lessequal" horiz-adv-x="806" unicode="≤"/><glyph d="M301 383l-170 176l268 242l-270 252l170 176l418 -402v-49zM78 72v237h643v-237h-643z" glyph-name="greaterequal" horiz-adv-x="806" unicode="≥"/><glyph d="M637 1229l371 -615l-371 -614h-207l-369 614l369 615h207zM387 614l127 -233h39l127 233l-127 234h-39z" glyph-name="lozenge" horiz-adv-x="1067" unicode="◊"/></font>
</defs>
</svg>
