<?xml version="1.0" standalone="no"?>
<!DOCTYPE svg PUBLIC "-//W3C//DTD SVG 1.1//EN" "http://www.w3.org/Graphics/SVG/1.1/DTD/svg11.dtd">
<svg xmlns="http://www.w3.org/2000/svg"><metadata>This SVG WebFont was generated by YouWorkForThem.
Copyright (c) 2014 by Daniel Hernandez &amp; Miguel Hernandez. All rights reserved.</metadata><defs><font horiz-adv-x="1206" id="ywftsvg"><font-face ascent="1536" bbox="-35 -393 2030 1663" cap-height="1229" descent="-512" font-family="" font-stretch="normal" font-weight="350" panose-1="2 0 0 0 0 0 0 0 0 0" underline-position="0" underline-thickness="0" unicode-range="U+000D-25CA" units-per-em="2048" x-height="860"/><missing-glyph horiz-adv-x="1155"/><glyph glyph-name=".notdef" horiz-adv-x="1155"/><glyph glyph-name="glyph1" horiz-adv-x="0"/><glyph glyph-name="glyph2" horiz-adv-x="681"/><glyph glyph-name="glyph3" horiz-adv-x="0"/><glyph glyph-name="glyph3" horiz-adv-x="0"/><glyph glyph-name="space" horiz-adv-x="468" unicode=" "/><glyph d="M272 1229l-30 -905h-80l-31 905h141zM117 74q0 35 25.5 60.5t60.5 25.5q37 0 62.5 -25.5t25.5 -60.5q0 -39 -25.5 -64.5t-62.5 -25.5q-35 0 -60.5 25.5t-25.5 64.5z" glyph-name="exclam" horiz-adv-x="405" unicode="!"/><glyph d="M268 1401l-84 -428h-71l37 428h118zM537 1401l-86 -428h-70l37 428h119z" glyph-name="quotedbl" horiz-adv-x="616" unicode="&quot;"/><glyph d="M1008 1194l-74 -338h242l-19 -80h-242l-79 -364h233l-16 -78h-234l-74 -334h-81l71 334h-340l-71 -334h-84l73 334h-245l16 78h246l80 364h-236l16 80h238l74 338h82l-74 -338h338l74 338h86zM492 776l-78 -364h338l77 364h-337z" glyph-name="numbersign" horiz-adv-x="1243" unicode="#"/><glyph d="M88 113l64 90q12 -12 36.5 -30.5t107.5 -51.5t175 -39v504q-199 63 -289 138t-90 206q0 139 101.5 226t277.5 97v213h98v-213q111 -6 198 -34.5t120 -55.5l33 -24l-64 -99q-10 10 -31.5 24.5t-96.5 43.5t-159 35v-463q205 -61 295 -144t90 -223q0 -141 -98 -233 t-287 -107v-192h-98v192q-115 6 -211 41t-133 68zM836 311q0 90 -60.5 143.5t-206.5 100.5v-471q133 10 200 70.5t67 156.5zM211 930q0 -78 59.5 -125t200.5 -94v432q-117 -10 -188.5 -65.5t-71.5 -147.5z" glyph-name="dollar" horiz-adv-x="1036" unicode="$"/><glyph d="M342 1255q121 0 189.5 -88t68.5 -219q0 -127 -69.5 -217t-188.5 -90t-187.5 90t-68.5 217q0 131 68.5 219t187.5 88zM342 1159q-72 0 -112 -59.5t-40 -151.5t40 -151.5t112 -59.5t113 59.5t41 151.5t-40 151.5t-114 59.5zM985 598q119 0 189.5 -89t70.5 -218 q0 -127 -70.5 -217t-189.5 -90t-187.5 90t-68.5 217q0 129 68.5 218t187.5 89zM985 504q-72 0 -111.5 -59.5t-39.5 -153.5q0 -90 39.5 -149.5t111.5 -59.5t113 59.5t41 149.5q0 94 -40 153.5t-114 59.5zM1083 1229h131l-976 -1229h-127z" glyph-name="percent" horiz-adv-x="1329" unicode="%"/><glyph d="M975 584l108 -27q-31 -203 -122 -340l217 -217h-168l-123 125q-147 -147 -363 -148q-195 0 -309.5 94.5t-114.5 237.5q0 123 71 202t196 144l-23 25q-133 139 -133 287q0 123 86 205.5t223 82.5q139 0 224 -78.5t85 -201.5q0 -84 -44 -152.5t-96 -106.5t-138 -85 l332 -334q69 119 92 287zM520 78q174 0 291 123l-365 374q-106 -59 -162.5 -118.5t-56.5 -145.5q0 -104 85 -168.5t208 -64.5zM330 967q0 -66 26.5 -115t92.5 -115l24 -26q119 59 179.5 115.5t60.5 140.5q0 86 -53.5 138t-139.5 52q-82 0 -136 -52t-54 -138z" glyph-name="ampersand" horiz-adv-x="1191" unicode="&amp;"/><glyph d="M268 1401l-84 -428h-71l37 428h118z" glyph-name="quotesingle" horiz-adv-x="346" unicode="'"/><glyph d="M205 588q0 -461 301 -795l-70 -72q-350 360 -350 866.5t350 866.5l70 -72q-301 -333 -301 -794z" glyph-name="parenleft" horiz-adv-x="536" unicode="("/><glyph d="M330 588q0 463 -299 794l69 72q350 -360 350.5 -866t-350.5 -867l-69 72q299 332 299 795z" glyph-name="parenright" horiz-adv-x="536" unicode=")"/><glyph d="M178 901l189 207l-271 51l39 113l244 -131l-35 278h115l-43 -280l250 133l39 -113l-275 -51l193 -207l-97 -67l-127 249l-129 -249z" glyph-name="asterisk" horiz-adv-x="800" unicode="*"/><glyph d="M561 1038v-383h371v-98h-371v-369h-100v369h-373v98h373v383h100z" glyph-name="plus" horiz-adv-x="1021" unicode="+"/><glyph d="M35 -170q70 14 111.5 57t46.5 95q-33 4 -53.5 26.5t-20.5 54.5q0 35 24.5 61t59.5 26t60.5 -26t25.5 -61v-18q0 -113 -61.5 -188.5t-172.5 -96.5z" glyph-name="comma" horiz-adv-x="407" unicode=","/><glyph d="M125 420v98h567v-98h-567z" glyph-name="hyphen" horiz-adv-x="817" unicode="-"/><glyph d="M201 -18q-35 0 -59.5 23.5t-24.5 58t24.5 60.5t59.5 26t59.5 -26t24.5 -60.5t-24.5 -58t-59.5 -23.5z" glyph-name="period" horiz-adv-x="401" unicode="."/><glyph d="M170 -227l-125 -2l920 1833h122z" glyph-name="slash" horiz-adv-x="1132" unicode="/"/><glyph d="M606.5 -29q-233.5 0 -370 182.5t-136.5 458.5q0 279 136.5 461t370 182t368.5 -182t135 -461q0 -276 -135 -458.5t-368.5 -182.5zM606 82q182 0 284.5 151.5t102.5 378.5q0 229 -102.5 381t-284.5 152q-184 0 -285.5 -151.5t-101.5 -381.5q0 -227 101.5 -378.5 t285.5 -151.5z" glyph-name="zero" horiz-adv-x="1210" unicode="0"/><glyph d="M29 1120v109h399v-1229h-117v1120h-282z" glyph-name="one" horiz-adv-x="579" unicode="1"/><glyph d="M96 0v80l531 543q74 74 101.5 132t27.5 130q0 115 -78 187.5t-205 72.5q-170 0 -323 -154l-66 90q6 6 17.5 18.5t49 42t79.5 53.5t109 42t136 18q190 0 294.5 -101t104.5 -265q0 -90 -30.5 -163t-106.5 -151l-458 -466h624v-109h-807z" glyph-name="two" horiz-adv-x="995" unicode="2"/><glyph d="M483 598h-159v78l405 444h-620v109h782v-94l-395 -430q395 -4 395 -355q0 -164 -113.5 -271.5t-310.5 -107.5q-74 0 -139.5 17.5t-108.5 42t-74.5 49t-46.5 43.5l-14 16l72 84q4 -6 12 -15t36.5 -33.5t62.5 -43t87.5 -34t112.5 -15.5q147 0 226 78t79 194q0 244 -289 244 z" glyph-name="three" horiz-adv-x="1007" unicode="3"/><glyph d="M49 299v88l694 842h88v-821h211v-109h-211v-299h-116v299h-666zM207 414v-6h508v622l-486 -596z" glyph-name="four" horiz-adv-x="1101" unicode="4"/><glyph d="M834 1120h-564l-10 -409q84 25 201 24q205 0 317.5 -100t112.5 -270q0 -178 -114.5 -286t-309.5 -108q-117 0 -212 42t-132 85l-39 41l72 84q4 -6 12 -15t38 -33.5t62.5 -43t87 -34t111.5 -15.5q139 0 222 73.5t83 209.5q0 121 -85 191.5t-228 70.5q-78 0 -149.5 -13.5 t-101.5 -23.5t-34 -15l-27 21l19 633h668v-109z" glyph-name="five" horiz-adv-x="978" unicode="5"/><glyph d="M221 608v-35q111 182 346 183q180 0 293 -112t113 -271q0 -162 -117 -277.5t-297 -115.5q-207 0 -331 152.5t-124 473.5q0 317 134.5 483t345.5 166q72 0 134 -18t100 -44t65.5 -50.5t38.5 -42.5l12 -19l-70 -84l-11 16.5t-32.5 35t-56.5 44t-79 36t-101 16.5 q-164 0 -263.5 -129t-99.5 -408zM565 645q-125 0 -214 -71.5t-109 -186.5q61 -297 317 -297q127 0 212 81t85 202q0 119 -81 195.5t-210 76.5z" glyph-name="six" horiz-adv-x="1060" unicode="6"/><glyph d="M55 1120v109h795v-80l-545 -1149h-141l538 1120h-647z" glyph-name="seven" horiz-adv-x="878" unicode="7"/><glyph d="M524 -29q-190 0 -306 105.5t-116 259.5q0 102 53.5 183t147.5 124q-82 43 -127 114.5t-45 160.5q0 147 107.5 242t285.5 95t283.5 -95t105.5 -242q0 -184 -172 -275q94 -43 148.5 -124t54.5 -183q0 -154 -116 -259.5t-304 -105.5zM825 335.5q0 108.5 -85 180.5t-216 72 q-133 0 -218 -72t-85 -180.5t84 -181t219 -72.5q133 0 217 72.5t84 181zM524 690q127 0 199 65.5t72 164.5q0 96 -72 160.5t-199 64.5t-200.5 -64.5t-73.5 -160.5q0 -98 73.5 -164t200.5 -66z" glyph-name="eight" horiz-adv-x="1046" unicode="8"/><glyph d="M838 621q0 27 -2 45q-109 -186 -349 -187q-178 0 -291.5 110.5t-113.5 268.5q0 166 116.5 281.5t297.5 115.5q209 0 333.5 -153.5t124.5 -480.5q0 -319 -127 -484.5t-340 -165.5q-70 0 -131 17.5t-99 41t-65.5 48t-39.5 41.5l-13 18l72 84q4 -6 11 -15t34 -32.5t55.5 -42 t76.5 -34t99 -15.5q168 0 263.5 131.5t87.5 407.5zM489 590q127 0 216.5 71.5t107.5 186.5q-68 297 -317 297q-127 0 -212 -83t-85 -204q0 -117 81.5 -192.5t208.5 -75.5z" glyph-name="nine" horiz-adv-x="1058" unicode="9"/><glyph d="M197 0q-29 4 -46.5 28.5t-11.5 53.5t31 45t53 12q31 -6 47.5 -31.5t10 -54t-30.5 -44t-53 -9.5zM196.5 717q-28.5 6 -46 30.5t-11.5 53t31 45t53 10.5q31 -6 47.5 -30.5t10 -53.5t-31 -45t-53 -10z" glyph-name="colon" horiz-adv-x="419" unicode=":"/><glyph d="M334 68v-19q0 -113 -61.5 -188.5t-172.5 -96.5l-18 70q70 14 112 57t46 95q-33 4 -54.5 26.5t-21.5 55.5q0 35 25.5 60.5t60.5 25.5t59.5 -25.5t24.5 -60.5zM250 702q-35 0 -60.5 25t-25.5 59.5t25.5 59t60.5 24.5t59.5 -24.5t24.5 -59t-24.5 -59.5t-59.5 -25z" glyph-name="semicolon" horiz-adv-x="481" unicode=";"/><glyph d="M82 578v57l549 407v-122l-422 -314l422 -315v-123z" glyph-name="less" horiz-adv-x="768" unicode="&lt;"/><glyph d="M131 745v97h686v-97h-686zM131 354v97h686v-97h-686z" glyph-name="equal" horiz-adv-x="948" unicode="="/><glyph d="M688 635v-57l-551 -410v123l422 315l-422 314v122z" glyph-name="greater" horiz-adv-x="768" unicode=">"/><glyph d="M109 1051l-48 96q4 4 13.5 11t40 25.5t65.5 32t90.5 24.5t112.5 11q180 0 285.5 -85t105.5 -232q0 -82 -33.5 -148.5t-83 -110.5t-98.5 -83t-85 -87t-40 -104l-2 -84h-82v103q0 63 31 117.5t76 96.5t90 83t75.5 94t30.5 113q0 98 -72.5 157.5t-197.5 59.5 q-76 0 -144.5 -22.5t-99.5 -45.5zM309 67.5q0 36.5 24.5 62.5t61.5 26q35 0 61.5 -26t26.5 -62.5t-26.5 -62t-61.5 -25.5q-37 0 -61.5 25.5t-24.5 62z" glyph-name="question" horiz-adv-x="847" unicode="?"/><glyph d="M1540 104q-113 0 -184.5 60.5t-85.5 152.5h-17q-45 -78 -132 -138t-210 -60q-156 0 -255 104.5t-99 276.5q0 227 136 371.5t325 144.5q131 0 202.5 -57.5t96.5 -127.5l39 166h86l-64 -520q-6 -55 -6 -94q0 -82 48 -132t128 -50q131 0 216 122.5t85 323.5q0 143 -55 281.5 t-155.5 248t-255 177t-336.5 67.5q-375 0 -620 -250.5t-245 -601.5q0 -352 250 -604t606 -252q117 0 225.5 29t157.5 57l52 31l43 -86q-18 -14 -56.5 -34.5t-162 -55.5t-259.5 -35q-274 0 -495 133t-340 349t-119 466q0 256 119 473t341 348.5t503 131.5q389 0 652 -255 t263 -616q0 -236 -118 -390.5t-304 -154.5zM940 219q152 0 248 124t96 308q0 119 -72.5 193t-187.5 74q-143 0 -245.5 -113t-102.5 -291q0 -139 72.5 -217t191.5 -78z" glyph-name="at" horiz-adv-x="2056" unicode="@"/><glyph d="M657 1229l521 -1229h-121l-125 297h-658l-124 -297h-119l518 1229h108zM604 1083l-285 -677h568z" glyph-name="A" unicode="A"/><glyph d="M1135 336q0 -166 -116 -251t-310 -85h-535v1229h506q195 0 304.5 -85t109.5 -247q0 -207 -195 -270v-6q106 -27 171 -100.5t65 -184.5zM719 565h-428v-456h420q135 0 219 59t84 174q0 104 -82 161.5t-213 61.5zM975 893q0 227 -295 227h-389v-446h389q137 0 216 58.5 t79 160.5z" glyph-name="B" horiz-adv-x="1230" unicode="B"/><glyph d="M1038 221l66 -88q-6 -6 -16.5 -17.5t-47 -39t-79.5 -49t-114 -39t-149 -17.5q-268 0 -439 183.5t-171 457.5q0 276 171 459.5t439 183.5q78 0 147.5 -16t115 -39.5t79 -47.5t50.5 -40l14 -16l-66 -90q-14 16 -40.5 38.5t-114.5 61.5t-183 39q-215 0 -353 -154.5 t-138 -378.5q0 -221 138 -375.5t353 -154.5q94 0 179.5 35t121.5 69z" glyph-name="C" horiz-adv-x="1163" unicode="C"/><glyph d="M1196 614.5q0 -282.5 -175 -448.5t-456 -166h-391v1229h391q281 0 456 -166t175 -448.5zM561 1120h-270v-1011h270q223 0 369.5 137t146.5 368.5t-146.5 368.5t-369.5 137z" glyph-name="D" horiz-adv-x="1288" unicode="D"/><glyph d="M922 676v-109h-631v-458h733v-109h-850v1229h850v-109h-733v-444h631z" glyph-name="E" horiz-adv-x="1110" unicode="E"/><glyph d="M922 676v-109h-631v-567h-117v1229h850v-109h-733v-444h631z" glyph-name="F" horiz-adv-x="1081" unicode="F"/><glyph d="M662 555v109h575v-80q0 -283 -144.5 -448t-398.5 -165q-272 0 -438 182.5t-166 458.5q0 279 168 461t442 182q84 0 159 -16t123 -40.5t84 -49.5t52 -41l15 -16l-68 -88q-6 6 -15.5 15t-44 33.5t-73.5 43t-102.5 34t-129.5 15.5q-223 0 -356 -153.5t-133 -379t131 -378 t352 -152.5q190 0 307 123t119 327v23h-458z" glyph-name="G" horiz-adv-x="1310" unicode="G"/><glyph d="M1139 1229v-1229h-117v555h-731v-555h-117v1229h117v-565h731v565h117z" glyph-name="H" horiz-adv-x="1312" unicode="H"/><glyph d="M291 1229v-1229h-117v1229h117z" glyph-name="I" horiz-adv-x="466" unicode="I"/><glyph d="M39 66l57 90q88 -72 217 -72q274 0 277 324v821h117v-842q0 -207 -99.5 -311.5t-283.5 -104.5q-29 0 -57.5 3t-51 8.5t-44 12.5t-39 14t-32 15.5t-26 15.5t-18.5 12t-11 9z" glyph-name="J" horiz-adv-x="868" unicode="J"/><glyph d="M291 1229v-705l682 705h131v-23l-469 -483l475 -700v-23h-121q-322 471 -438 637l-260 -270v-367h-117v1229h117z" glyph-name="K" horiz-adv-x="1146" unicode="K"/><glyph d="M946 0h-772v1229h117v-1120h655v-109z" glyph-name="L" horiz-adv-x="995" unicode="L"/><glyph d="M1190 0v1018l-428 -557h-41l-430 551v-1012h-117v1229h90l477 -615l478 615h86v-1229h-115z" glyph-name="M" horiz-adv-x="1480" unicode="M"/><glyph d="M1186 1229v-1229h-90l-805 1030v-1030h-117v1229h94l801 -1024v1024h117z" glyph-name="N" horiz-adv-x="1361" unicode="N"/><glyph d="M694.5 -29q-270.5 0 -437.5 183.5t-167 457.5q0 279 167 461t437 182q272 0 437 -182t165 -461q0 -276 -165.5 -458.5t-436 -182.5zM694 82q219 0 352.5 153.5t133.5 376.5q0 225 -133.5 379t-352.5 154t-351 -153.5t-132 -379.5q0 -223 132 -376.5t351 -153.5z" glyph-name="O" horiz-adv-x="1388" unicode="O"/><glyph d="M174 0v1229h471q217 0 340 -107.5t123 -298.5q0 -199 -126 -310.5t-343 -111.5h-348v-401h-117zM991 819q0 145 -94 223t-254 78h-352v-610h352q162 0 255 78.5t93 230.5z" glyph-name="P" horiz-adv-x="1175" unicode="P"/><glyph d="M694 -29q-270 0 -437 183.5t-167 457.5q0 279 167 461t437 182q272 0 437 -182t165 -461q0 -201 -91 -357.5t-251 -229.5l170 -275h-133l-147 238q-76 -17 -150 -17zM694 82q219 0 352.5 153.5t133.5 376.5q0 225 -133.5 379t-352.5 154t-351 -153.5t-132 -379.5 q0 -223 132 -376.5t351 -153.5z" glyph-name="Q" horiz-adv-x="1388" unicode="Q"/><glyph d="M174 1229h469q221 0 343 -105.5t122 -300.5q0 -152 -79 -250t-214 -135v-4l315 -405v-29h-118l-330 418h-391v-418h-117v1229zM989 819q0 147 -93 224t-253 77h-352v-594h371q147 0 237 75t90 218z" glyph-name="R" horiz-adv-x="1218" unicode="R"/><glyph d="M90 113l64 90q14 -14 41.5 -33.5t121 -53.5t195.5 -34q164 0 245 61.5t81 167.5q0 98 -75 154.5t-261 112.5q-215 66 -311.5 141.5t-96.5 210.5q0 150 116 237.5t312 87.5q127 0 226.5 -29.5t136.5 -58.5l37 -28l-64 -99q-12 12 -36.5 29.5t-111.5 46.5t-188 29 q-135 0 -222 -56.5t-87 -158.5q0 -86 74.5 -136.5t261.5 -105.5q217 -63 312 -147t95 -228q0 -154 -113.5 -248t-328.5 -94q-80 0 -153.5 14.5t-120.5 35t-83 42t-51 35.5z" glyph-name="S" horiz-adv-x="1038" unicode="S"/><glyph d="M51 1120v109h948v-109h-415v-1120h-117v1120h-416z" glyph-name="T" horiz-adv-x="1050" unicode="T"/><glyph d="M643 -29q-227 0 -356 147.5t-129 393.5v717h116v-717q0 -195 95.5 -312.5t273.5 -117.5q180 0 274.5 116.5t94.5 313.5v717h116v-717q0 -248 -128 -394.5t-357 -146.5z" glyph-name="U" horiz-adv-x="1286" unicode="U"/><glyph d="M549 0l-518 1229h119l452 -1084l455 1084h121l-521 -1229h-108z" glyph-name="V" unicode="V"/><glyph d="M1106 0l-291 1047l-289 -1047h-94l-391 1229h121l309 -1047l287 1047h114l287 -1047l311 1047h119l-389 -1229h-94z" glyph-name="W" horiz-adv-x="1630" unicode="W"/><glyph d="M1014 1229l-400 -598l418 -631h-139l-318 479l-45 80l-47 -80l-313 -479h-137l413 631l-397 598h139l306 -461l38 -70l39 70l306 461h137z" glyph-name="X" horiz-adv-x="1062" unicode="X"/><glyph d="M588 651l338 578h135l-457 -756v-473h-117v473l-456 756h137l342 -578l35 -73h6z" glyph-name="Y" horiz-adv-x="1091" unicode="Y"/><glyph d="M63 0v80l777 1040h-758v109h915v-80l-768 -1040h750v-109h-916z" glyph-name="Z" horiz-adv-x="1060" unicode="Z"/><glyph d="M135 -266v1700h455v-99h-342v-1503h342v-98h-455z" glyph-name="bracketleft" horiz-adv-x="622" unicode="["/><glyph d="M518 -262l-446 1896h118l445 -1896h-117z" glyph-name="backslash" horiz-adv-x="706" unicode="\"/><glyph d="M33 -266v98h342v1503h-342v99h454v-1700h-454z" glyph-name="bracketright" horiz-adv-x="622" unicode="]"/><glyph d="M651 1018l-219 299l-221 -299h-102l282 387h82l285 -387h-107z" glyph-name="asciicircum" horiz-adv-x="866" unicode="^"/><glyph d="M104 -180v98h906v-98h-906z" glyph-name="underscore" horiz-adv-x="1112" unicode="_"/><glyph d="M315 1018l-172 274l144 21l110 -295h-82z" glyph-name="grave" horiz-adv-x="550" unicode="`"/><glyph d="M813 524v-524h-80l-14 135h-8q-43 -70 -125 -112.5t-189 -42.5q-156 0 -242.5 76.5t-86.5 193.5q0 123 99 199.5t288 76.5q135 0 247 -43v41q0 254 -266 254q-61 0 -124.5 -17.5t-94.5 -35.5l-33 -16l-45 94q127 78 305 78q188 0 278.5 -94.5t90.5 -262.5zM702 313v76 q-98 51 -237 51q-281 0 -281 -186q0 -80 58.5 -131t169.5 -51q123 0 206.5 75.5t83.5 165.5z" glyph-name="a" horiz-adv-x="946" unicode="a"/><glyph d="M143 0v1239h115v-534h6q2 6 8.5 18t32 43t58 53.5t92 42t131.5 19.5q170 0 285.5 -126t115.5 -325t-115.5 -324.5t-287.5 -125.5q-74 0 -135.5 19t-97.5 47t-61.5 56.5t-35.5 49.5l-8 18h-4l-15 -170h-84zM252 430q0 -162 91 -257t222 -95t218 99t87 253q0 156 -87 254 t-218 98t-222 -95t-91 -257z" glyph-name="b" horiz-adv-x="1073" unicode="b"/><glyph d="M510 -20q-186 0 -305 122.5t-119 323.5q0 203 119 329t305 126q82 0 147.5 -18.5t90.5 -39.5l24 -18l-37 -88q-86 66 -219 65.5t-223 -96.5t-90 -260t90 -256t223 -92q59 0 113.5 16.5t79.5 32.5l26 16l33 -88q-8 -8 -25.5 -20t-84 -33.5t-148.5 -21.5z" glyph-name="c" horiz-adv-x="849" unicode="c"/><glyph d="M811 715h4v524h115v-1239h-80l-16 162h-7q-4 -8 -10 -20.5t-33.5 -43t-62.5 -55.5t-96.5 -44t-132.5 -19q-172 0 -289 125.5t-117 324.5t115.5 325t287.5 126q70 0 128.5 -17.5t92 -41t58.5 -48t35 -41.5zM823 430q0 162 -90 257t-223 95q-131 0 -219 -98t-88 -254 q0 -154 88 -253t219 -99q133 0 223 95t90 257z" glyph-name="d" horiz-adv-x="1075" unicode="d"/><glyph d="M772 160l45 -84q-10 -10 -31.5 -26.5t-100.5 -44.5t-171 -28q-195 0 -311.5 123t-116.5 326t110.5 329t289 126t277.5 -119t99 -305v-29h-659v-2q0 -164 89 -256t228 -92q74 0 136.5 20.5t88.5 40.5zM485 782q-111 0 -183.5 -66.5t-92.5 -193.5h534q-12 123 -78.5 191.5 t-179.5 68.5z" glyph-name="e" horiz-adv-x="937" unicode="e"/><glyph d="M586 764h-269v-764h-114v764h-164v96h164v103q0 135 76.5 212.5t205.5 77.5q49 0 90 -8t60 -16l16 -10l-35 -95q-55 27 -130.5 27t-122 -48t-46.5 -138v-105h269v-96z" glyph-name="f" horiz-adv-x="602" unicode="f"/><glyph d="M889 768h-160v-6q8 -4 20.5 -14.5t33 -56.5t20.5 -111q0 -117 -86 -202t-238 -85q-123 0 -205 59q-90 -31 -90 -96q0 -51 67.5 -81t258.5 -36q393 -16 393 -252q0 -115 -113.5 -193.5t-308.5 -78.5q-201 0 -301 66.5t-100 181.5q0 139 172 209q-168 49 -168 182 q0 111 127 162q-51 72 -51 166q0 125 85 210t234 85q63 0 117 -17h293v-92zM510 41q-53 0 -127 8q-193 -63 -193 -184q0 -72 74 -114t217 -42q152 0 231 48t79 126q0 68 -69 112t-212 46zM479 784q-100 0 -160.5 -58t-60.5 -142q0 -86 59.5 -142.5t161.5 -56.5 q104 0 165 56.5t61 142.5q0 84 -61 142t-165 58z" glyph-name="g" horiz-adv-x="944" unicode="g"/><glyph d="M143 0v1239h115v-489h6q111 131 289 131q166 0 260 -111t94 -289v-481h-114v469q0 139 -68 226t-195 87q-129 0 -198.5 -83t-73.5 -177v-522h-115z" glyph-name="h" horiz-adv-x="1040" unicode="h"/><glyph d="M205 1075q-35 0 -59.5 23.5t-24.5 56.5q0 35 24.5 59.5t59.5 24.5t58.5 -24.5t23.5 -59.5q0 -33 -23.5 -56.5t-58.5 -23.5zM147 0v860h115v-860h-115z" glyph-name="i" horiz-adv-x="409" unicode="i"/><glyph d="M10 -319v96h19q119 0 118 129v954h115v-958q0 -221 -211 -221h-41zM205 1075q-35 0 -59.5 23.5t-24.5 56.5q0 35 24.5 59.5t59.5 24.5t58.5 -24.5t23.5 -59.5q0 -33 -23.5 -56.5t-58.5 -23.5z" glyph-name="j" horiz-adv-x="409" unicode="j"/><glyph d="M705 860h153l-405 -371l409 -489h-143l-348 416l-113 -105v-311h-115v1239h115v-778h2z" glyph-name="k" horiz-adv-x="888" unicode="k"/><glyph d="M150 0v1239h114v-1239h-114z" glyph-name="l" horiz-adv-x="415" unicode="l"/><glyph d="M143 0v860h82l13 -141h8q31 45 61.5 75.5t94 58.5t145.5 28q231 0 319 -185h8q23 37 41.5 60.5t56.5 56.5t94 50.5t128 17.5q166 0 259 -109.5t93 -290.5v-481h-114v469q0 139 -67 226t-194 87q-129 0 -196.5 -84t-71.5 -186v-512h-115v508q0 123 -68.5 198.5 t-195.5 75.5q-129 0 -196.5 -83t-69.5 -177v-522h-115z" glyph-name="m" horiz-adv-x="1679" unicode="m"/><glyph d="M143 0v860h82l13 -141h8q100 162 307 162q168 0 262 -111t94 -289v-481h-114v469q0 139 -69 226t-196 87q-129 0 -198.5 -83t-73.5 -177v-522h-115z" glyph-name="n" horiz-adv-x="1042" unicode="n"/><glyph d="M942 426q0 -201 -124 -323.5t-304 -122.5q-182 0 -306 122.5t-124 323.5q0 203 124 329t306 126q180 0 304 -127t124 -328zM514 74q129 0 221 96t92 256t-92 260t-221 100q-131 0 -223 -99t-92 -261q0 -160 92 -256t223 -96z" glyph-name="o" horiz-adv-x="1028" unicode="o"/><glyph d="M264 145h-6v-464h-115v1179h82l15 -153h12q4 6 10 18t34 42t62.5 53.5t95 42t130.5 18.5q172 0 287.5 -126t115.5 -325t-115.5 -324.5t-285.5 -125.5q-72 0 -131.5 17t-93 40.5t-57 48.5t-32.5 41zM252 430q0 -162 91 -257t222 -95t218 98t87 254q0 154 -87 253t-218 99 t-222 -95t-91 -257z" glyph-name="p" horiz-adv-x="1073" unicode="p"/><glyph d="M930 860v-1179h-115v475h-4q-2 -6 -8 -18.5t-32 -43.5t-59.5 -53.5t-93 -41.5t-129.5 -19q-172 0 -287.5 125.5t-115.5 324.5t116.5 325t289.5 126q74 0 134 -19.5t96 -47.5t60.5 -55.5t32.5 -45.5l10 -21h6l17 168h82zM823 430q0 162 -90 257t-223 95q-131 0 -219 -99 t-88 -253q0 -156 88 -254t219 -98q133 0 223 95t90 257z" glyph-name="q" horiz-adv-x="1075" unicode="q"/><glyph d="M543 862v-94h-43q-102 0 -170 -73.5t-72 -178.5v-516h-115v860h82l13 -160h6q27 63 93 112.5t161 49.5h45z" glyph-name="r" horiz-adv-x="565" unicode="r"/><glyph d="M84 80l51 80q115 -80 289 -80q221 0 221 145q0 59 -57.5 95t-140 56.5t-165.5 45t-140.5 79t-57.5 140.5q0 109 80 174.5t235 65.5q92 0 172 -17.5t115 -36.5l35 -16l-45 -98q-104 70 -268 69q-217 0 -218 -137q0 -55 57.5 -89t140.5 -52.5t166 -43t140.5 -81.5 t57.5 -150q0 -109 -80 -179t-248 -70q-104 0 -189 25.5t-118 49.5z" glyph-name="s" horiz-adv-x="827" unicode="s"/><glyph d="M31 860h166v262h112v-262h260v-94h-260v-537q0 -152 137 -151q31 0 63 10t48 18l16 11l37 -84q-66 -53 -174 -53q-119 0 -179 65.5t-60 181.5v539h-166v94z" glyph-name="t" horiz-adv-x="630" unicode="t"/><glyph d="M891 860v-860h-76l-20 139h-4q-8 -16 -23.5 -33.5t-51.5 -51.5t-98.5 -54t-138.5 -20q-166 0 -256 109.5t-90 289.5v481h115v-469q0 -141 63.5 -227t188.5 -86q129 0 200.5 83t75.5 177v522h115z" glyph-name="u" horiz-adv-x="1034" unicode="u"/><glyph d="M899 860l-393 -860h-80l-395 860h129l289 -672q14 -33 14 -55h6q0 18 16 55l289 672h125z" glyph-name="v" horiz-adv-x="931" unicode="v"/><glyph d="M354 0l-313 860h121l221 -672q2 -6 5 -18t5 -21.5t2 -15.5h13q0 6 6 27.5t8 27.5l194 672h101l196 -672q12 -37 13 -55h12q0 18 12 55l224 672h112l-311 -860h-105l-192 676q-10 20 -10 47h-6q0 -23 -13 -47l-194 -676h-101z" glyph-name="w" horiz-adv-x="1329" unicode="w"/><glyph d="M35 0l330 451l-306 409h136l237 -338h6l240 338h131l-305 -409l332 -451h-134l-264 379h-6l-268 -379h-129z" glyph-name="x" horiz-adv-x="868" unicode="x"/><glyph d="M891 860l-553 -1179h-121l191 387l-379 792h129l291 -637q14 -39 14 -53h6q0 25 14 53l289 637h119z" glyph-name="y" horiz-adv-x="915" unicode="y"/><glyph d="M76 61l551 703h-549v96h702v-57l-544 -707h544v-96h-704v61z" glyph-name="z" horiz-adv-x="856" unicode="z"/><glyph d="M39 641h43q63 0 99 50t36 145v395q0 213 209 233l18 -98q-59 -10 -82.5 -42t-23.5 -110v-385q0 -195 -117 -233v-16q117 -43 117 -232v-393q0 -76 24.5 -108.5t81.5 -39.5l-18 -98q-209 18 -209 232v401q0 92 -37 143.5t-98 51.5h-43v104z" glyph-name="braceleft" horiz-adv-x="520" unicode="{"/><glyph d="M244 1407v-1669h-109v1669h109z" glyph-name="bar" horiz-adv-x="378" unicode="|"/><glyph d="M438 641h43v-104h-43q-61 0 -98 -51.5t-37 -143.5v-401q0 -213 -209 -232l-18 98q57 6 81.5 39t24.5 109v393q0 188 117 232v16q-117 39 -117 233v385q0 78 -23.5 110t-82.5 42l18 98q209 -20 209 -233v-395q0 -92 37 -143.5t98 -51.5z" glyph-name="braceright" horiz-adv-x="520" unicode="}"/><glyph d="M627 629q43 0 84 11t59 24l21 12l40 -70q-74 -72 -202 -71q-55 0 -144.5 31.5t-150.5 31.5q-43 0 -84 -12.5t-62 -24.5l-18 -10l-39 70q74 72 201 71q55 0 144.5 -31.5t150.5 -31.5z" glyph-name="asciitilde" horiz-adv-x="960" unicode="~"/><glyph glyph-name="uni00A0" horiz-adv-x="468" unicode=" "/><glyph d="M231 545l29 -907h-139l31 907h79zM104 794.5q0 36.5 26 62.5t60 26q37 0 63 -26t26 -62.5t-26 -62t-63 -25.5q-35 0 -60.5 25.5t-25.5 62z" glyph-name="exclamdown" horiz-adv-x="382" unicode="¡"/><glyph d="M369 0l22 176q-137 39 -218 152.5t-81 277.5q0 199 117 325t299 130l22 168h86l-22 -174q55 -8 102 -25.5t68 -32.5l20 -14l-34 -86q-66 49 -170 61l-93 -700q14 -2 41 -2q59 0 114.5 17.5t82.5 33.5l25 17l32 -88q-10 -8 -29.5 -20.5t-87 -34t-143.5 -21.5q-31 0 -47 2 l-20 -162h-86zM209 606q0 -119 54 -205t143 -122l90 682q-121 -12 -204 -108.5t-83 -246.5z" glyph-name="cent" horiz-adv-x="880" unicode="¢"/><glyph d="M895 109v-109h-756v109h2l-2 2q4 2 13.5 7t30 24.5t37 44t29.5 67.5t13 92q0 43 -45 207h-133v94h106q-25 109 -24 201q0 162 111.5 277.5t314.5 115.5q104 0 187 -32.5t114 -65.5l31 -31l-70 -86q-10 12 -29.5 29.5t-87 46t-145.5 28.5q-147 0 -223 -82.5t-76 -207.5 q0 -90 24 -193h467v-94h-440q41 -147 41 -203q0 -143 -90 -241h600z" glyph-name="sterling" horiz-adv-x="1013" unicode="£"/><glyph d="M621 651l337 578h136l-404 -666h297v-96h-350v-178h350v-94h-350v-195h-117v195h-350v94h350v178h-350v96h295l-402 666h138l342 -578l35 -73h6z" glyph-name="yen" horiz-adv-x="1157" unicode="¥"/><glyph d="M250 676h-107v702h107v-702zM250 -313h-107v702h107v-702z" glyph-name="brokenbar" horiz-adv-x="393" unicode="¦"/><glyph d="M86 88l66 96q16 -10 44.5 -27.5t125 -45t198.5 -27.5q301 0 301 145q0 72 -59.5 108t-247.5 95q-156 45 -229.5 99.5t-73.5 130.5q0 80 76 122q-176 82 -176 215q0 115 108.5 185.5t315.5 70.5q123 0 221 -23.5t137 -45.5l37 -23l-66 -96q-12 10 -36.5 23.5t-109.5 37 t-183 23.5q-291 0 -291 -147q0 -66 62.5 -107t201.5 -78q344 -94 344 -244q0 -82 -68 -133q168 -84 168 -213q0 -111 -106.5 -183.5t-323.5 -72.5q-131 0 -240.5 29t-152.5 57zM467 725q-12 2 -84 25q-57 -23 -57 -84q0 -39 52 -71t177 -69q72 -23 129 -43q49 31 49 88 q0 82 -266 154z" glyph-name="section" horiz-adv-x="1040" unicode="§"/><glyph d="M184 1454q0 33 26 59.5t58 26.5q35 0 60.5 -26.5t25.5 -59.5t-25.5 -59.5t-60.5 -26.5q-33 0 -58.5 26.5t-25.5 59.5zM498 1454q0 35 25.5 60.5t60.5 25.5q33 0 58.5 -26.5t25.5 -59.5t-26 -59.5t-58 -26.5q-35 0 -60.5 25.5t-25.5 60.5z" glyph-name="dieresis" horiz-adv-x="892" unicode="¨"/><glyph d="M710.5 1237q278.5 0 445.5 -180t167 -444.5t-167 -443.5t-445.5 -179t-446.5 179t-168 443.5t168 444.5t446.5 180zM710.5 1163q-241.5 0 -388 -158.5t-146.5 -392t146.5 -391.5t388 -158t389 158t147.5 391.5t-147.5 392t-389 158.5zM932 870l-45 -65q-57 61 -164 61 q-109 0 -174.5 -71.5t-65.5 -180.5q0 -106 65.5 -177.5t174.5 -71.5q47 0 88 15t59 30l19 16l43 -66q-8 -8 -22.5 -20t-69 -33.5t-119.5 -21.5q-150 0 -237 93t-87 236.5t87 237.5t237 94q66 0 118 -18.5t72 -38.5z" glyph-name="copyright" horiz-adv-x="1417" unicode="©"/><glyph d="M86 760q0 100 76 157.5t203 57.5q162 0 227 -76v41q0 117 -43 174t-162 57q-31 0 -61.5 -5t-54 -11t-42 -13t-32.5 -12l-13 -6l-30 80q117 53 247 53q162 0 226.5 -82.5t64.5 -238.5v-375h-71l-17 88h-6q-53 -104 -248 -104q-117 0 -190.5 60.5t-73.5 154.5zM182 760 q0 -63 52.5 -101t138.5 -38q98 0 158.5 43t60.5 100q0 61 -58.5 99t-152.5 38q-92 0 -145.5 -37.5t-53.5 -103.5z" glyph-name="ordfeminine" horiz-adv-x="823" unicode="ª"/><glyph d="M90 406v43l236 368h102v-20l-231 -363v-10l231 -369v-18h-102zM446 406v43l236 368h100v-20l-231 -363v-10l231 -369v-18h-100z" glyph-name="guillemotleft" horiz-adv-x="880" unicode="«"/><glyph d="M104 610v99h883v-709h-100v610h-783z" glyph-name="logicalnot" horiz-adv-x="1124" unicode="¬"/><glyph d="M1032 778.5q0 -200.5 -127 -338t-338 -137.5q-209 0 -336 138.5t-127 336.5q0 201 126 338t337 137t338 -137t127 -337.5zM952 778q0 172 -106.5 287t-278.5 115t-277.5 -113t-105.5 -289q0 -170 106.5 -284.5t276.5 -114.5q172 0 278.5 113.5t106.5 285.5zM397 993h185 q78 0 123 -39t45 -102q0 -90 -84 -127v-2l92 -127v-16h-68l-96 129h-131v-129h-66v413zM582 930h-119v-160h115q47 0 74.5 21.5t27.5 60.5q0 78 -98 78z" glyph-name="registered" horiz-adv-x="1136" unicode="®"/><glyph d="M252 1368v80h573v-80h-573z" glyph-name="macron" horiz-adv-x="1056" unicode="¯"/><glyph d="M311.5 1376q100.5 0 165 -63.5t64.5 -157.5t-63.5 -155.5t-166 -61.5t-165 61.5t-62.5 155.5t63.5 157.5t164 63.5zM311 1307q-68 0 -109.5 -44t-41.5 -107.5t42 -105.5t109 -42q70 0 112 42t42 105q0 66 -42 109t-112 43z" glyph-name="degree" horiz-adv-x="624" unicode="°"/><glyph d="M604 358h-100v365h-363v96h363v371h100v-371h354v-96h-354v-365zM958 209v-98h-817v98h817z" glyph-name="plusminus" horiz-adv-x="1097" unicode="±"/><glyph d="M113 700v74l303 260q80 72 80 144q0 131 -150 131q-45 0 -91 -18.5t-68.5 -36t-24.5 -21.5l-45 65q10 10 28.5 24.5t78 39t122.5 24.5q121 0 179.5 -58t58.5 -150q0 -113 -99 -195l-245 -205h366v-78h-493z" glyph-name="uni00B2" horiz-adv-x="720" unicode="²"/><glyph d="M115 1290v78h456v-63l-165 -207q197 -16 196 -197q0 -94 -67.5 -155.5t-192.5 -61.5q-68 0 -130 24.5t-85 41t-35 28.5l49 64q80 -80 199 -80q82 0 128 40t46 99q0 61 -40 95t-114 34h-67v57l162 203h-340z" glyph-name="uni00B3" horiz-adv-x="694" unicode="³"/><glyph d="M391 1292l-172 -274h-82l111 295z" glyph-name="acute" horiz-adv-x="546" unicode="´"/><glyph d="M887 860v-860h-76l-20 139h-5q-8 -16 -23 -33.5t-51 -51.5t-98.5 -54t-138.5 -20q-150 0 -237 88l4 -365h-113v1157h115v-469q0 -141 63.5 -227t188.5 -86q129 0 200.5 83t75.5 177v522h115z" glyph-name="uni00B5" horiz-adv-x="1015" unicode="µ"/><glyph d="M776 -168v465h-162q-248 0 -398 124t-150 351q0 219 148 339t396 120h283v-1399h-117z" glyph-name="paragraph" horiz-adv-x="1040" unicode="¶"/><glyph d="M119 737q0 37 26.5 62.5t61.5 25.5q37 0 62.5 -25.5t25.5 -62.5t-25.5 -63.5t-62.5 -26.5q-35 0 -61.5 26.5t-26.5 63.5z" glyph-name="periodcentered" horiz-adv-x="413" unicode="·"/><glyph d="M158 -127l-25 31l49 102h70l-31 -74q59 -2 97 -34.5t38 -94.5q0 -63 -42 -102t-117 -39q-43 0 -79 13.5t-50 27.5l-15 14l35 50q41 -41 109 -41q43 0 68.5 21.5t25.5 55.5q0 72 -94 72z" glyph-name="cedilla" horiz-adv-x="421" unicode="¸"/><glyph d="M49 1290v78h238v-668h-88v590h-150z" glyph-name="uni00B9" horiz-adv-x="421" unicode="¹"/><glyph d="M424 1255q150 0 244 -96t94 -258q0 -158 -94.5 -253t-243.5 -95q-147 0 -241.5 96t-94.5 252q0 160 94.5 257t241.5 97zM424 1167q-106 0 -172 -71.5t-66 -194.5q0 -119 65.5 -190.5t172.5 -71.5q109 0 175.5 71.5t66.5 190.5q0 121 -66.5 193.5t-175.5 72.5z" glyph-name="ordmasculine" horiz-adv-x="849" unicode="º"/><glyph d="M436 449v-43l-235 -369h-103v18l232 369v10l-232 363v20h103zM791 449v-43l-236 -369h-104v18l233 369v10l-233 363v20h104z" glyph-name="guillemotright" horiz-adv-x="878" unicode="»"/><glyph d="M629 186v58l368 424l2 -2l2 2h60v-406h125v-76h-125v-186h-82v186h-350zM178 0h-104l958 1229h109zM80 1151v78h237v-668h-86v590h-151zM731 256v-2l117 8h131v270h-2l-172 -198z" glyph-name="onequarter" horiz-adv-x="1261" unicode="¼"/><glyph d="M178 0h-104l958 1229h107zM823 74l305 260q80 72 80 143q0 131 -149 131q-45 0 -91 -18.5t-68.5 -35.5t-25.5 -22l-45 66l27 23q25 23 82 44t121 21q121 0 179 -58.5t58 -150.5q0 -113 -98 -194l-246 -205h367v-78h-496v74zM84 1151v78h238v-668h-86v590h-152z" glyph-name="onehalf" horiz-adv-x="1394" unicode="½"/><glyph d="M829 186v58l369 424l2 -2l2 2h60v-406h124v-76h-124v-186h-82v186h-351zM369 0h-105l959 1229h106zM102 1151v78h455v-64l-164 -207q195 -16 195 -196q0 -94 -67.5 -155.5t-192.5 -61.5q-66 0 -128.5 24.5t-85 41t-34.5 28.5l49 63q80 -80 197 -79q84 0 129 39.5t45 99.5 q0 129 -154 129h-67v57l161 203h-338zM932 256v-2l117 8h131v270h-4l-170 -198z" glyph-name="threequarters" horiz-adv-x="1458" unicode="¾"/><glyph d="M731 -184l49 -97q-4 -4 -13 -11t-40 -25.5t-65.5 -31.5t-90 -24.5t-112.5 -11.5q-180 0 -285.5 85t-105.5 232q0 82 33.5 148.5t82.5 111t98.5 83t85 87t40.5 103.5l2 84h79v-103q0 -76 -47 -143t-103 -111.5t-103.5 -110t-47.5 -138.5q0 -98 73 -157.5t198 -59.5 q76 0 143.5 22.5t97.5 44.5zM532 799q0 -37 -25.5 -62.5t-60.5 -25.5q-37 0 -62.5 25.5t-25.5 62.5t26 62.5t62 25.5q35 0 60.5 -25.5t25.5 -62.5z" glyph-name="questiondown" horiz-adv-x="833" unicode="¿"/><glyph d="M657 1229l521 -1229h-121l-125 297h-658l-124 -297h-119l518 1229h108zM604 1083l-285 -677h568zM559 1300l-172 275l143 20l111 -295h-82z" glyph-name="Agrave" unicode="À"/><glyph d="M657 1229l521 -1229h-121l-125 297h-658l-124 -297h-119l518 1229h108zM604 1083l-285 -677h568zM819 1575l-172 -275h-82l111 295z" glyph-name="Aacute" unicode="Á"/><glyph d="M657 1229l521 -1229h-121l-125 297h-658l-124 -297h-119l518 1229h108zM604 1083l-285 -677h568zM719 1368l-115 141l-117 -141h-106l170 221h102l176 -221h-110z" glyph-name="Acircumflex" unicode="Â"/><glyph d="M657 1229l521 -1229h-121l-125 297h-658l-124 -297h-119l518 1229h108zM604 1083l-285 -677h568zM756 1368q-63 0 -156.5 59.5t-132.5 59.5q-43 0 -61.5 -23.5t-30.5 -66.5l-8 -29l-82 10l10 47q29 154 162 154q61 0 153 -59.5t133 -59.5q45 0 64.5 23.5t30.5 66.5l6 29 l82 -8l-6 -47q-33 -156 -164 -156z" glyph-name="Atilde" unicode="Ã"/><glyph d="M657 1229l521 -1229h-121l-125 297h-658l-124 -297h-119l518 1229h108zM604 1083l-285 -677h568zM360 1454q0 33 26 59.5t58 26.5q35 0 60.5 -26.5t25.5 -59.5t-25.5 -59.5t-60.5 -26.5q-33 0 -58.5 26.5t-25.5 59.5zM674 1454q0 35 25.5 60.5t60.5 25.5q33 0 58.5 -26.5 t25.5 -59.5t-25.5 -59.5t-58.5 -26.5q-35 0 -60.5 25.5t-25.5 60.5z" glyph-name="Adieresis" unicode="Ä"/><glyph d="M657 1229l521 -1229h-121l-125 297h-658l-124 -297h-119l518 1229h108zM604 1083l-285 -677h568zM403 1429.5q0 75.5 56.5 122.5t144.5 47q86 0 142.5 -47t56.5 -122.5t-56.5 -122.5t-142.5 -47q-88 0 -144.5 47t-56.5 122.5zM721 1429.5q0 94.5 -117 94.5 q-55 0 -87 -24.5t-32 -70t32 -70t87 -24.5q117 0 117 94.5z" glyph-name="Aring" unicode="Å"/><glyph d="M-6 0l850 1229h862v-109h-733v-444h631v-109h-631v-458h733v-109h-850v297h-518l-203 -297h-141zM844 1040l-432 -634h444v634h-12z" glyph-name="AE" horiz-adv-x="1792" unicode="Æ"/><glyph d="M610 -129l-24 31l35 75q-236 27 -384.5 205t-148.5 430q0 276 171 459.5t439 183.5q78 0 147.5 -16t115 -39.5t79 -47.5t50.5 -40l14 -16l-66 -90q-14 16 -40.5 38.5t-114.5 61.5t-183 39q-215 0 -353 -154.5t-138 -378.5q0 -221 138 -375.5t353 -154.5q94 0 179.5 35 t121.5 69l37 35l66 -88q-6 -6 -16.5 -17.5t-47 -39t-79.5 -49t-114 -39t-149 -17.5h-8l-16 -41q59 -2 97 -34.5t38 -94.5q0 -63 -42 -102t-118 -39q-43 0 -78.5 14.5t-50.5 26.5l-14 14l35 49q41 -41 108 -40q43 0 68.5 21.5t25.5 55.5q0 72 -94 72z" glyph-name="Ccedilla" horiz-adv-x="1163" unicode="Ç"/><glyph d="M922 676v-109h-631v-458h733v-109h-850v1229h850v-109h-733v-444h631zM575 1300l-172 275l144 20l110 -295h-82z" glyph-name="Egrave" horiz-adv-x="1110" unicode="È"/><glyph d="M809 1575l-172 -275h-82l111 295zM922 676v-109h-631v-458h733v-109h-850v1229h850v-109h-733v-444h631z" glyph-name="Eacute" horiz-adv-x="1110" unicode="É"/><glyph d="M723 1368l-115 141l-116 -141h-107l170 221h102l177 -221h-111zM922 676v-109h-631v-458h733v-109h-850v1229h850v-109h-733v-444h631z" glyph-name="Ecircumflex" horiz-adv-x="1110" unicode="Ê"/><glyph d="M360 1454q0 33 26 59.5t58 26.5q35 0 60.5 -26.5t25.5 -59.5t-25.5 -59.5t-60.5 -26.5q-33 0 -58.5 26.5t-25.5 59.5zM674 1454q0 35 25.5 60.5t60.5 25.5q33 0 58.5 -26.5t25.5 -59.5t-25.5 -59.5t-58.5 -26.5q-35 0 -60.5 25.5t-25.5 60.5zM922 676v-109h-631v-458h733 v-109h-850v1229h850v-109h-733v-444h631z" glyph-name="Edieresis" horiz-adv-x="1110" unicode="Ë"/><glyph d="M291 1229v-1229h-117v1229h117zM188 1300l-172 275l144 20l110 -295h-82z" glyph-name="Igrave" horiz-adv-x="466" unicode="Ì"/><glyph d="M291 1229v-1229h-117v1229h117zM449 1575l-173 -275h-81l110 295z" glyph-name="Iacute" horiz-adv-x="466" unicode="Í"/><glyph d="M291 1229v-1229h-117v1229h117zM350 1368l-114 141l-117 -141h-107l170 221h103l176 -221h-111z" glyph-name="Icircumflex" horiz-adv-x="466" unicode="Î"/><glyph d="M291 1229v-1229h-117v1229h117zM-8 1454q0 33 25.5 59.5t58.5 26.5q35 0 60.5 -26.5t25.5 -59.5t-25.5 -59.5t-60.5 -26.5q-33 0 -58.5 26.5t-25.5 59.5zM305 1454q0 35 25.5 60.5t60.5 25.5q33 0 58.5 -26.5t25.5 -59.5t-25.5 -59.5t-58.5 -26.5q-35 0 -60.5 25.5 t-25.5 60.5z" glyph-name="Idieresis" horiz-adv-x="466" unicode="Ï"/><glyph d="M53 569v107h123v553h391q281 0 456 -166t175 -448.5t-175 -448.5t-456 -166h-391v569h-123zM563 1120h-270v-444h381v-107h-381v-460h270q223 0 369.5 137t146.5 368.5t-146.5 368.5t-369.5 137z" glyph-name="Eth" horiz-adv-x="1290" unicode="Ð"/><glyph d="M1186 1229v-1229h-90l-805 1030v-1030h-117v1229h94l801 -1024v1024h117zM838 1370q-63 0 -156.5 59.5t-132.5 59.5q-43 0 -61.5 -23.5t-30.5 -66.5l-8 -29l-82 10l10 47q29 154 162 154q61 0 153 -59.5t133 -59.5q45 0 64.5 23.5t30.5 66.5l6 29l82 -8l-7 -47 q-32 -156 -163 -156z" glyph-name="Ntilde" horiz-adv-x="1361" unicode="Ñ"/><glyph d="M694.5 -29q-270.5 0 -437.5 183.5t-167 457.5q0 279 167 461t437 182q272 0 437 -182t165 -461q0 -276 -165.5 -458.5t-436 -182.5zM694 82q219 0 352.5 153.5t133.5 376.5q0 225 -133.5 379t-352.5 154t-351 -153.5t-132 -379.5q0 -223 132 -376.5t351 -153.5zM657 1368 l-172 274l144 21l110 -295h-82z" glyph-name="Ograve" horiz-adv-x="1388" unicode="Ò"/><glyph d="M901 1642l-172 -274h-82l111 295zM694.5 -29q-270.5 0 -437.5 183.5t-167 457.5q0 279 167 461t437 182q272 0 437 -182t165 -461q0 -276 -165.5 -458.5t-436 -182.5zM694 82q219 0 352.5 153.5t133.5 376.5q0 225 -133.5 379t-352.5 154t-351 -153.5t-132 -379.5 q0 -223 132 -376.5t351 -153.5z" glyph-name="Oacute" horiz-adv-x="1388" unicode="Ó"/><glyph d="M811 1368l-115 141l-116 -141h-107l170 221h102l177 -221h-111zM694.5 -29q-270.5 0 -437.5 183.5t-167 457.5q0 279 167 461t437 182q272 0 437 -182t165 -461q0 -276 -165.5 -458.5t-436 -182.5zM694 82q219 0 352.5 153.5t133.5 376.5q0 225 -133.5 379t-352.5 154 t-351 -153.5t-132 -379.5q0 -223 132 -376.5t351 -153.5z" glyph-name="Ocircumflex" horiz-adv-x="1388" unicode="Ô"/><glyph d="M694.5 -29q-270.5 0 -437.5 183.5t-167 457.5q0 279 167 461t437 182q272 0 437 -182t165 -461q0 -276 -165.5 -458.5t-436 -182.5zM694 82q219 0 352.5 153.5t133.5 376.5q0 225 -133.5 379t-352.5 154t-351 -153.5t-132 -379.5q0 -223 132 -376.5t351 -153.5zM842 1382 q-63 0 -156.5 59.5t-132.5 59.5q-43 0 -61.5 -23.5t-30.5 -66.5l-8 -29l-82 11l10 47q29 154 162 153q61 0 153 -59t133 -59q45 0 64.5 23.5t30.5 66.5l6 28l82 -8l-6 -47q-33 -156 -164 -156z" glyph-name="Otilde" horiz-adv-x="1388" unicode="Õ"/><glyph d="M451 1454q0 33 25.5 59.5t58.5 26.5q35 0 60.5 -26.5t25.5 -59.5t-26 -59.5t-60 -26.5q-33 0 -58.5 26.5t-25.5 59.5zM764 1454q0 35 25.5 60.5t60.5 25.5q33 0 58.5 -26.5t25.5 -59.5t-25.5 -59.5t-58.5 -26.5q-35 0 -60.5 25.5t-25.5 60.5zM694.5 -29 q-270.5 0 -437.5 183.5t-167 457.5q0 279 167 461t437 182q272 0 437 -182t165 -461q0 -276 -165.5 -458.5t-436 -182.5zM694 82q219 0 352.5 153.5t133.5 376.5q0 225 -133.5 379t-352.5 154t-351 -153.5t-132 -379.5q0 -223 132 -376.5t351 -153.5z" glyph-name="Odieresis" horiz-adv-x="1388" unicode="Ö"/><glyph d="M197 219l-70 68l313 329l-313 330l70 68l311 -328l313 328l68 -68l-316 -330l316 -329l-68 -68l-313 328z" glyph-name="multiply" horiz-adv-x="1013" unicode="×"/><glyph d="M696 -29q-244 0 -409 154l-121 -125h-135l190 197q-129 170 -129 415q0 279 167 461t437 182q240 0 404 -151l121 125h133l-189 -195q133 -174 133 -422q0 -276 -166 -458.5t-436 -182.5zM696 82q219 0 352.5 153.5t133.5 376.5q0 195 -101 336l-712 -739 q130 -127 327 -127zM213 612q0 -190 94 -327l713 735q-131 125 -324 125q-219 0 -351 -154t-132 -379z" glyph-name="Oslash" horiz-adv-x="1394" unicode="Ø"/><glyph d="M643 -29q-227 0 -356 147.5t-129 393.5v717h116v-717q0 -195 95.5 -312.5t273.5 -117.5q180 0 274.5 116.5t94.5 313.5v717h116v-717q0 -248 -128 -394.5t-357 -146.5zM602 1300l-172 275l143 20l111 -295h-82z" glyph-name="Ugrave" horiz-adv-x="1286" unicode="Ù"/><glyph d="M850 1575l-172 -275h-82l111 295zM643 -29q-227 0 -356 147.5t-129 393.5v717h116v-717q0 -195 95.5 -312.5t273.5 -117.5q180 0 274.5 116.5t94.5 313.5v717h116v-717q0 -248 -128 -394.5t-357 -146.5z" glyph-name="Uacute" horiz-adv-x="1286" unicode="Ú"/><glyph d="M760 1298l-115 142l-117 -142h-106l170 222h102l176 -222h-110zM643 -29q-227 0 -356 147.5t-129 393.5v717h116v-717q0 -195 95.5 -312.5t273.5 -117.5q180 0 274.5 116.5t94.5 313.5v717h116v-717q0 -248 -128 -394.5t-357 -146.5z" glyph-name="Ucircumflex" horiz-adv-x="1286" unicode="Û"/><glyph d="M403 1454q0 33 26 59.5t58.5 26.5t59 -26.5t26.5 -59.5t-26.5 -59.5t-59 -26.5t-58.5 26.5t-26 59.5zM717 1454q0 35 25.5 60.5t60.5 25.5q33 0 58.5 -26.5t25.5 -59.5t-25.5 -59.5t-58.5 -26.5q-35 0 -60.5 25.5t-25.5 60.5zM643 -29q-227 0 -356 147.5t-129 393.5v717 h116v-717q0 -195 95.5 -312.5t273.5 -117.5q180 0 274.5 116.5t94.5 313.5v717h116v-717q0 -248 -128 -394.5t-357 -146.5z" glyph-name="Udieresis" horiz-adv-x="1286" unicode="Ü"/><glyph d="M588 651l338 578h135l-457 -756v-473h-117v473l-456 756h137l342 -578l35 -73h6zM758 1624l-172 -274h-82l110 295z" glyph-name="Yacute" horiz-adv-x="1091" unicode="Ý"/><glyph d="M291 1229v-203h354q217 0 340 -107.5t123 -300.5q0 -199 -125 -309t-344 -110h-348v-199h-117v1229h117zM989 616q0 143 -93 221t-253 78h-352v-608h352q162 0 254 77.5t92 231.5z" glyph-name="Thorn" horiz-adv-x="1171" unicode="Þ"/><glyph d="M481 575v87q252 27 252 251q0 94 -64.5 160t-166.5 66q-106 0 -175 -73t-69 -200v-866h-115v850q0 186 97.5 288.5t271.5 102.5q156 0 250 -93t94 -241q0 -92 -44 -163.5t-124 -106.5q104 -31 162.5 -116t58.5 -191q0 -160 -102 -254t-283 -94q-43 0 -82 5t-55 11l-16 6 l16 90q49 -16 135 -16q117 0 191.5 69.5t74.5 178.5q0 117 -74.5 183t-193.5 66h-39z" glyph-name="germandbls" horiz-adv-x="995" unicode="ß"/><glyph d="M813 524v-524h-80l-14 135h-8q-43 -70 -125 -112.5t-189 -42.5q-156 0 -242.5 76.5t-86.5 193.5q0 123 99 199.5t288 76.5q135 0 247 -43v41q0 254 -266 254q-61 0 -124.5 -17.5t-94.5 -35.5l-33 -16l-45 94q127 78 305 78q188 0 278.5 -94.5t90.5 -262.5zM702 313v76 q-98 51 -237 51q-281 0 -281 -186q0 -80 58.5 -131t169.5 -51q123 0 206.5 75.5t83.5 165.5zM428 1018l-172 274l143 21l111 -295h-82z" glyph-name="agrave" horiz-adv-x="946" unicode="à"/><glyph d="M813 524v-524h-80l-14 135h-8q-43 -70 -125 -112.5t-189 -42.5q-156 0 -242.5 76.5t-86.5 193.5q0 123 99 199.5t288 76.5q135 0 247 -43v41q0 254 -266 254q-61 0 -124.5 -17.5t-94.5 -35.5l-33 -16l-45 94q127 78 305 78q188 0 278.5 -94.5t90.5 -262.5zM702 313v76 q-98 51 -237 51q-281 0 -281 -186q0 -80 58.5 -131t169.5 -51q123 0 206.5 75.5t83.5 165.5zM694 1292l-172 -274h-82l111 295z" glyph-name="aacute" horiz-adv-x="946" unicode="á"/><glyph d="M813 524v-524h-80l-14 135h-8q-43 -70 -125 -112.5t-189 -42.5q-156 0 -242.5 76.5t-86.5 193.5q0 123 99 199.5t288 76.5q135 0 247 -43v41q0 254 -266 254q-61 0 -124.5 -17.5t-94.5 -35.5l-33 -16l-45 94q127 78 305 78q188 0 278.5 -94.5t90.5 -262.5zM702 313v76 q-98 51 -237 51q-281 0 -281 -186q0 -80 58.5 -131t169.5 -51q123 0 206.5 75.5t83.5 165.5zM567 1018l-114 141l-117 -141h-107l170 221h103l176 -221h-111z" glyph-name="acircumflex" horiz-adv-x="946" unicode="â"/><glyph d="M813 524v-524h-80l-14 135h-8q-43 -70 -125 -112.5t-189 -42.5q-156 0 -242.5 76.5t-86.5 193.5q0 123 99 199.5t288 76.5q135 0 247 -43v41q0 254 -266 254q-61 0 -124.5 -17.5t-94.5 -35.5l-33 -16l-45 94q127 78 305 78q188 0 278.5 -94.5t90.5 -262.5zM702 313v76 q-98 51 -237 51q-281 0 -281 -186q0 -80 58.5 -131t169.5 -51q123 0 206.5 75.5t83.5 165.5zM602 1020q-63 0 -156.5 59.5t-132.5 59.5q-43 0 -61.5 -23.5t-30.5 -66.5l-8 -29l-82 10l10 47q29 154 162 154q61 0 153.5 -59.5t133.5 -59.5q45 0 64.5 23.5t29.5 66.5l6 29 l82 -8l-6 -47q-33 -156 -164 -156z" glyph-name="atilde" horiz-adv-x="946" unicode="ã"/><glyph d="M813 524v-524h-80l-14 135h-8q-43 -70 -125 -112.5t-189 -42.5q-156 0 -242.5 76.5t-86.5 193.5q0 123 99 199.5t288 76.5q135 0 247 -43v41q0 254 -266 254q-61 0 -124.5 -17.5t-94.5 -35.5l-33 -16l-45 94q127 78 305 78q188 0 278.5 -94.5t90.5 -262.5zM702 313v76 q-98 51 -237 51q-281 0 -281 -186q0 -80 58.5 -131t169.5 -51q123 0 206.5 75.5t83.5 165.5zM215 1104q0 33 25.5 59.5t58.5 26.5t59.5 -25.5t26.5 -60.5t-26.5 -60.5t-59.5 -25.5t-58.5 26.5t-25.5 59.5zM528 1104q0 35 26 60.5t60 25.5q33 0 58.5 -26.5t25.5 -59.5 t-25.5 -59.5t-58.5 -26.5q-35 0 -60.5 25.5t-25.5 60.5z" glyph-name="adieresis" horiz-adv-x="946" unicode="ä"/><glyph d="M813 524v-524h-80l-14 135h-8q-43 -70 -125 -112.5t-189 -42.5q-156 0 -242.5 76.5t-86.5 193.5q0 123 99 199.5t288 76.5q135 0 247 -43v41q0 254 -266 254q-61 0 -124.5 -17.5t-94.5 -35.5l-33 -16l-45 94q127 78 305 78q188 0 278.5 -94.5t90.5 -262.5zM702 313v76 q-98 51 -237 51q-281 0 -281 -186q0 -80 58.5 -131t169.5 -51q123 0 206.5 75.5t83.5 165.5zM260 1188q0 76 56.5 123t144.5 47q86 0 142 -47t56 -123t-56 -123t-142 -47q-88 0 -144.5 47t-56.5 123zM578 1188q0 94 -117 94q-55 0 -87 -24.5t-32 -69.5t32 -69.5t87 -24.5 q117 0 117 94z" glyph-name="aring" horiz-adv-x="946" unicode="å"/><glyph d="M1397 162l45 -86q-10 -10 -31.5 -26.5t-100.5 -44.5t-171 -28q-256 0 -369 195q-47 -88 -140 -140t-222 -52q-168 0 -254 76.5t-86 195.5q0 125 98 201.5t283 76.5q143 0 256 -43v37q0 254 -267 254q-61 0 -124.5 -17.5t-96.5 -35.5l-31 -16l-45 94q125 78 308 78 q252 0 331 -174q109 174 324 174q182 0 282.5 -118t100.5 -306v-29h-666v-2q0 -164 92.5 -256t231.5 -92q72 0 135 20.5t90 40.5zM412 74q131 0 212 73.5t81 169.5v76q-109 49 -246 49q-274 0 -275 -190q0 -78 57.5 -128t170.5 -50zM1104 782q-111 0 -183.5 -66.5 t-93.5 -193.5h541q-12 123 -79.5 191.5t-184.5 68.5z" glyph-name="ae" horiz-adv-x="1560" unicode="æ"/><glyph d="M453 -141l-25 30l43 93q-172 12 -278.5 133t-106.5 311q0 203 119 329t305 126q82 0 147.5 -18.5t90.5 -39.5l24 -18l-37 -88q-86 66 -219 65.5t-223 -96.5t-90 -260t90 -256t223 -92q59 0 113.5 16.5t79.5 32.5l26 16l33 -88q-66 -66 -227 -73l-25 -64q59 -2 97 -35 t38 -94q0 -63 -42 -102t-117 -39q-43 0 -79 14t-51 27l-14 14l35 49q41 -41 109 -41q43 0 68.5 21.5t25.5 56.5q0 72 -94 72z" glyph-name="ccedilla" horiz-adv-x="849" unicode="ç"/><glyph d="M772 160l45 -84q-10 -10 -31.5 -26.5t-100.5 -44.5t-171 -28q-195 0 -311.5 123t-116.5 326t110.5 329t289 126t277.5 -119t99 -305v-29h-659v-2q0 -164 89 -256t228 -92q74 0 136.5 20.5t88.5 40.5zM485 782q-111 0 -183.5 -66.5t-92.5 -193.5h534q-12 123 -78.5 191.5 t-179.5 68.5zM438 1018l-172 274l144 21l110 -295h-82z" glyph-name="egrave" horiz-adv-x="937" unicode="è"/><glyph d="M690 1292l-172 -274h-82l111 295zM772 160l45 -84q-10 -10 -31.5 -26.5t-100.5 -44.5t-171 -28q-195 0 -311.5 123t-116.5 326t110.5 329t289 126t277.5 -119t99 -305v-29h-659v-2q0 -164 89 -256t228 -92q74 0 136.5 20.5t88.5 40.5zM485 782q-111 0 -183.5 -66.5 t-92.5 -193.5h534q-12 123 -78.5 191.5t-179.5 68.5z" glyph-name="eacute" horiz-adv-x="937" unicode="é"/><glyph d="M594 1016l-115 141l-117 -141h-106l170 221h102l177 -221h-111zM772 160l45 -84q-10 -10 -31.5 -26.5t-100.5 -44.5t-171 -28q-195 0 -311.5 123t-116.5 326t110.5 329t289 126t277.5 -119t99 -305v-29h-659v-2q0 -164 89 -256t228 -92q74 0 136.5 20.5t88.5 40.5z M485 782q-111 0 -183.5 -66.5t-92.5 -193.5h534q-12 123 -78.5 191.5t-179.5 68.5z" glyph-name="ecircumflex" horiz-adv-x="937" unicode="ê"/><glyph d="M240 1104q0 33 25.5 59.5t58 26.5t59.5 -25.5t27 -60.5t-27 -60.5t-59.5 -25.5t-58 26.5t-25.5 59.5zM553 1104q0 35 25.5 60.5t60.5 25.5q33 0 58.5 -26.5t25.5 -59.5t-25.5 -59.5t-58.5 -26.5q-35 0 -60.5 25.5t-25.5 60.5zM772 160l45 -84q-10 -10 -31.5 -26.5 t-100.5 -44.5t-171 -28q-195 0 -311.5 123t-116.5 326t110.5 329t289 126t277.5 -119t99 -305v-29h-659v-2q0 -164 89 -256t228 -92q74 0 136.5 20.5t88.5 40.5zM485 782q-111 0 -183.5 -66.5t-92.5 -193.5h534q-12 123 -78.5 191.5t-179.5 68.5z" glyph-name="edieresis" horiz-adv-x="937" unicode="ë"/><glyph d="M147 0v860h115v-860h-115zM160 1018l-172 274l143 21l111 -295h-82z" glyph-name="igrave" horiz-adv-x="409" unicode="ì"/><glyph d="M418 1292l-172 -274h-82l110 295zM147 0v860h115v-860h-115z" glyph-name="iacute" horiz-adv-x="409" unicode="í"/><glyph d="M322 1067l-115 141l-117 -141h-106l170 221h102l176 -221h-110zM147 0v860h115v-860h-115z" glyph-name="icircumflex" horiz-adv-x="409" unicode="î"/><glyph d="M-35 1151q0 33 25.5 59.5t58.5 26.5t59.5 -26.5t26.5 -59.5t-26.5 -59.5t-59.5 -26.5t-58.5 26.5t-25.5 59.5zM279 1151q0 35 25.5 60.5t60.5 25.5q33 0 58.5 -26.5t25.5 -59.5t-26 -59.5t-58 -26.5q-35 0 -60.5 25.5t-25.5 60.5zM147 0v860h115v-860h-115z" glyph-name="idieresis" horiz-adv-x="409" unicode="ï"/><glyph d="M509.5 -20q-192.5 0 -308 123.5t-115.5 326.5t115.5 327t308.5 124q80 0 152 -25q-16 16 -48 68l-127 198l-245 -151l-43 71l245 152l-176 279v18h109l153 -244l250 154l43 -72l-248 -153l250 -396q102 -170 109 -331v-19q0 -203 -116 -326.5t-308.5 -123.5zM819 430 q0 166 -88 259t-221 93t-220 -94t-87 -258t87 -258t220 -94t221 94t88 258z" glyph-name="eth" horiz-adv-x="1021" unicode="ð"/><glyph d="M143 0v860h82l13 -141h8q100 162 307 162q168 0 262 -111t94 -289v-481h-114v469q0 139 -69 226t-196 87q-129 0 -198.5 -83t-73.5 -177v-522h-115zM672 1067q-63 0 -156.5 59.5t-132.5 59.5q-43 0 -61.5 -23.5t-30.5 -66.5l-8 -29l-82 10l10 47q29 154 162 154 q61 0 153 -59.5t133 -59.5q45 0 64.5 23.5t30.5 66.5l6 29l82 -8l-6 -47q-33 -156 -164 -156z" glyph-name="ntilde" horiz-adv-x="1042" unicode="ñ"/><glyph d="M942 426q0 -201 -124 -323.5t-304 -122.5q-182 0 -306 122.5t-124 323.5q0 203 124 329t306 126q180 0 304 -127t124 -328zM514 74q129 0 221 96t92 256t-92 260t-221 100q-131 0 -223 -99t-92 -261q0 -160 92 -256t223 -96zM471 1018l-172 274l143 21l111 -295h-82z" glyph-name="ograve" horiz-adv-x="1028" unicode="ò"/><glyph d="M723 1292l-172 -274h-82l111 295zM942 426q0 -201 -124 -323.5t-304 -122.5q-182 0 -306 122.5t-124 323.5q0 203 124 329t306 126q180 0 304 -127t124 -328zM514 74q129 0 221 96t92 256t-92 260t-221 100q-131 0 -223 -99t-92 -261q0 -160 92 -256t223 -96z" glyph-name="oacute" horiz-adv-x="1028" unicode="ó"/><glyph d="M629 1067l-115 141l-117 -141h-106l170 221h102l176 -221h-110zM942 426q0 -201 -124 -323.5t-304 -122.5q-182 0 -306 122.5t-124 323.5q0 203 124 329t306 126q180 0 304 -127t124 -328zM514 74q129 0 221 96t92 256t-92 260t-221 100q-131 0 -223 -99t-92 -261 q0 -160 92 -256t223 -96z" glyph-name="ocircumflex" horiz-adv-x="1028" unicode="ô"/><glyph d="M942 426q0 -201 -124 -323.5t-304 -122.5q-182 0 -306 122.5t-124 323.5q0 203 124 329t306 126q180 0 304 -127t124 -328zM514 74q129 0 221 96t92 256t-92 260t-221 100q-131 0 -223 -99t-92 -261q0 -160 92 -256t223 -96zM655 1069q-63 0 -156 59.5t-132 59.5 q-43 0 -61.5 -23.5t-31.5 -66.5l-8 -29l-82 10l11 47q29 154 161 154q61 0 153.5 -59.5t133.5 -59.5q45 0 64.5 23.5t29.5 66.5l6 29l82 -8l-6 -47q-33 -156 -164 -156z" glyph-name="otilde" horiz-adv-x="1028" unicode="õ"/><glyph d="M270 1153q0 33 26 59.5t58 26.5q35 0 60.5 -25.5t25.5 -60.5t-25.5 -60.5t-60.5 -25.5q-33 0 -58.5 26.5t-25.5 59.5zM584 1153q0 35 25.5 60.5t60.5 25.5q33 0 58.5 -26.5t25.5 -59.5t-26 -59.5t-58 -26.5q-35 0 -60.5 25.5t-25.5 60.5zM942 426q0 -201 -124 -323.5 t-304 -122.5q-182 0 -306 122.5t-124 323.5q0 203 124 329t306 126q180 0 304 -127t124 -328zM514 74q129 0 221 96t92 256t-92 260t-221 100q-131 0 -223 -99t-92 -261q0 -160 92 -256t223 -96z" glyph-name="odieresis" horiz-adv-x="1028" unicode="ö"/><glyph d="M412 315q0 39 25.5 66t64.5 27q35 0 61.5 -27t26.5 -66q0 -37 -26.5 -62.5t-61.5 -25.5q-39 0 -64.5 25.5t-25.5 62.5zM412 905q0 39 25.5 64.5t64.5 25.5q35 0 61.5 -26.5t26.5 -63.5t-26.5 -62.5t-61.5 -25.5q-39 0 -64.5 25.5t-25.5 62.5zM127 557v96h747v-96h-747z " glyph-name="divide" horiz-adv-x="1001" unicode="÷"/><glyph d="M944 426q0 -201 -124 -323.5t-304 -122.5q-164 0 -278 96l-74 -76h-101l121 129q-98 119 -98 297q0 203 124 329t306 126q156 0 270 -97l72 76h100l-122 -125q108 -125 108 -309zM516 74q129 0 221 96t92 256q0 131 -67 229l-455 -499q86 -82 209 -82zM201 426 q0 -129 61 -217l453 500q-88 78 -199 77q-131 0 -223 -99t-92 -261z" glyph-name="oslash" horiz-adv-x="1030" unicode="ø"/><glyph d="M891 860v-860h-76l-20 139h-4q-8 -16 -23.5 -33.5t-51.5 -51.5t-98.5 -54t-138.5 -20q-166 0 -256 109.5t-90 289.5v481h115v-469q0 -141 63.5 -227t188.5 -86q129 0 200.5 83t75.5 177v522h115zM467 1018l-172 274l143 21l111 -295h-82z" glyph-name="ugrave" horiz-adv-x="1034" unicode="ù"/><glyph d="M717 1292l-172 -274h-82l110 295zM891 860v-860h-76l-20 139h-4q-8 -16 -23.5 -33.5t-51.5 -51.5t-98.5 -54t-138.5 -20q-166 0 -256 109.5t-90 289.5v481h115v-469q0 -141 63.5 -227t188.5 -86q129 0 200.5 83t75.5 177v522h115z" glyph-name="uacute" horiz-adv-x="1034" unicode="ú"/><glyph d="M618 1016l-114 141l-117 -141h-106l170 221h102l176 -221h-111zM891 860v-860h-76l-20 139h-4q-8 -16 -23.5 -33.5t-51.5 -51.5t-98.5 -54t-138.5 -20q-166 0 -256 109.5t-90 289.5v481h115v-469q0 -141 63.5 -227t188.5 -86q129 0 200.5 83t75.5 177v522h115z" glyph-name="ucircumflex" horiz-adv-x="1034" unicode="û"/><glyph d="M264 1102q0 33 25.5 59.5t58.5 26.5t59.5 -26.5t26.5 -59.5t-26.5 -59.5t-59.5 -26.5t-58.5 26.5t-25.5 59.5zM578 1102q0 35 25.5 60.5t60.5 25.5q33 0 58.5 -26.5t25.5 -59.5t-26 -59.5t-58 -26.5q-35 0 -60.5 25.5t-25.5 60.5zM891 860v-860h-76l-20 139h-4 q-8 -16 -23.5 -33.5t-51.5 -51.5t-98.5 -54t-138.5 -20q-166 0 -256 109.5t-90 289.5v481h115v-469q0 -141 63.5 -227t188.5 -86q129 0 200.5 83t75.5 177v522h115z" glyph-name="udieresis" horiz-adv-x="1034" unicode="ü"/><glyph d="M891 860l-553 -1179h-121l191 387l-379 792h129l291 -637q14 -39 14 -53h6q0 25 14 53l289 637h119zM676 1292l-172 -274h-82l110 295z" glyph-name="yacute" horiz-adv-x="915" unicode="ý"/><glyph d="M264 190h-6v-509h-115v1548h115v-555h6q2 8 9.5 22.5t33 50t58 62.5t92 49.5t129.5 22.5q172 0 286.5 -125t114.5 -326q0 -199 -114.5 -324.5t-286.5 -125.5q-72 0 -131.5 21.5t-93 53t-57 62t-32.5 51.5zM254 430q0 -162 90 -257t221 -95t219 98t88 254q0 154 -88 253 t-219 99t-221 -95t-90 -257z" glyph-name="thorn" horiz-adv-x="1075" unicode="þ"/><glyph d="M891 860l-553 -1179h-121l191 387l-379 792h129l291 -637q14 -39 14 -53h6q0 25 14 53l289 637h119zM223 1104q0 33 25.5 59.5t58.5 26.5t59.5 -25.5t26.5 -60.5t-26.5 -60.5t-59.5 -25.5t-58.5 26.5t-25.5 59.5zM537 1104q0 35 25.5 60.5t60.5 25.5q33 0 58.5 -26.5 t25.5 -59.5t-26 -59.5t-58 -26.5q-35 0 -60.5 25.5t-25.5 60.5z" glyph-name="ydieresis" horiz-adv-x="915" unicode="ÿ"/><glyph d="M147 0v860h115v-860h-115z" glyph-name="dotlessi" horiz-adv-x="409" unicode="ı"/><glyph d="M37 494v88l141 86v561h117v-488l338 209v-90l-338 -209v-542h655v-109h-772v580z" glyph-name="Lslash" horiz-adv-x="999" unicode="Ł"/><glyph d="M43 463v82l131 82v612h115v-541l131 82v-82l-131 -82v-616h-115v545z" glyph-name="lslash" horiz-adv-x="458" unicode="ł"/><glyph d="M694 -29q-270 0 -437 183.5t-167 457.5q0 279 167 461t437 182q315 0 486 -243v217h850v-109h-734v-444h631v-109h-631v-458h734v-109h-850v215q-171 -244 -486 -244zM694 82q215 0 346 149.5t140 380.5q0 225 -133.5 379t-352.5 154t-351 -153.5t-132 -379.5 q0 -223 132 -376.5t351 -153.5z" glyph-name="OE" horiz-adv-x="2115" unicode="Œ"/><glyph d="M1513 160l46 -84q-10 -10 -32 -26.5t-100.5 -44.5t-171.5 -28q-127 0 -224 55.5t-150 153.5q-55 -98 -152.5 -152t-214.5 -54q-182 0 -306 122.5t-124 323.5q0 203 124 329t306 126q115 0 212 -56.5t155 -154.5q49 98 140 154.5t206 56.5q178 0 277.5 -119t99.5 -305v-29 h-660v-2q0 -164 89 -256t229 -92q74 0 136 20.5t89 40.5zM514 74q127 0 217 94t96 258q0 160 -92 260t-221 100q-131 0 -223 -99t-92 -261q0 -160 92 -256t223 -96zM1227 782q-111 0 -183.5 -66.5t-93.5 -193.5h535q-12 123 -78.5 191.5t-179.5 68.5z" glyph-name="oe" horiz-adv-x="1675" unicode="œ"/><glyph d="M397 1591l115 -143l117 143h108l-172 -223h-102l-174 223h108zM90 113l64 90q14 -14 41.5 -33.5t121 -53.5t195.5 -34q164 0 245 61.5t81 167.5q0 98 -75 154.5t-261 112.5q-215 66 -311.5 141.5t-96.5 210.5q0 150 116 237.5t312 87.5q127 0 226.5 -29.5t136.5 -58.5 l37 -28l-64 -99q-12 12 -36.5 29.5t-111.5 46.5t-188 29q-135 0 -222 -56.5t-87 -158.5q0 -86 74.5 -136.5t261.5 -105.5q217 -63 312 -147t95 -228q0 -154 -113.5 -248t-328.5 -94q-80 0 -153.5 14.5t-120.5 35t-83 42t-51 35.5z" glyph-name="Scaron" horiz-adv-x="1038" unicode="Š"/><glyph d="M307 1241l115 -143l117 143h108l-172 -223h-102l-174 223h108zM84 80l51 80q115 -80 289 -80q221 0 221 145q0 59 -57.5 95t-140 56.5t-165.5 45t-140.5 79t-57.5 140.5q0 109 80 174.5t235 65.5q92 0 172 -17.5t115 -36.5l35 -16l-45 -98q-104 70 -268 69 q-217 0 -218 -137q0 -55 57.5 -89t140.5 -52.5t166 -43t140.5 -81.5t57.5 -150q0 -109 -80 -179t-248 -70q-104 0 -189 25.5t-118 49.5z" glyph-name="scaron" horiz-adv-x="827" unicode="š"/><glyph d="M588 651l338 578h135l-457 -756v-473h-117v473l-456 756h137l342 -578l35 -73h6zM307 1454q0 33 25.5 59.5t58.5 26.5q35 0 60.5 -26.5t25.5 -59.5t-25.5 -59.5t-60.5 -26.5q-33 0 -58.5 26.5t-25.5 59.5zM621 1454q0 35 25.5 60.5t60.5 25.5q33 0 58.5 -26.5t25.5 -59.5 t-26 -59.5t-58 -26.5q-35 0 -60.5 25.5t-25.5 60.5z" glyph-name="Ydieresis" horiz-adv-x="1091" unicode="Ÿ"/><glyph d="M406 1591l114 -143l117 143h108l-172 -223h-102l-174 223h109zM63 0v80l777 1040h-758v109h915v-80l-768 -1040h750v-109h-916z" glyph-name="Zcaron" horiz-adv-x="1060" unicode="Ž"/><glyph d="M307 1241l115 -143l117 143h108l-172 -223h-102l-174 223h108zM76 61l551 703h-549v96h702v-57l-544 -707h544v-96h-704v61z" glyph-name="zcaron" horiz-adv-x="856" unicode="ž"/><glyph d="M354 223l111 545h-176v92h196l15 72q66 315 358 315q45 0 84 -8t55 -16l17 -9l-47 -96q-43 25 -119 25q-193 0 -236 -211l-14 -72h301v-92h-319l-117 -571q-18 -96 -65.5 -146.5t-149.5 -50.5q-41 0 -78 10t-55 23l-17 10l35 88q45 -29 96 -29q55 0 84 27.5t41 93.5z" glyph-name="florin" horiz-adv-x="1038" unicode="ƒ"/><glyph d="M489 1368l-114 141l-117 -141h-106l170 221h102l176 -221h-111z" glyph-name="circumflex" horiz-adv-x="729" unicode="ˆ"/><glyph d="M213 1591l115 -143l116 143h109l-172 -223h-102l-175 223h109z" glyph-name="caron" horiz-adv-x="665" unicode="ˇ"/><glyph d="M565 1663h94q-2 -129 -79.5 -212t-192.5 -83t-192.5 83t-79.5 212h94q2 -86 51 -143.5t127 -57.5q76 0 126 56.5t52 144.5z" glyph-name="breve" horiz-adv-x="784" unicode="˘"/><glyph d="M340 1126q-45 0 -77 31t-32 78q0 45 32 75.5t77 30.5t77 -30.5t32 -75.5t-32 -77t-77 -32z" glyph-name="dotaccent" horiz-adv-x="675" unicode="˙"/><glyph d="M94 1429.5q0 75.5 56.5 122.5t144.5 47q86 0 142.5 -47t56.5 -122.5t-56.5 -122.5t-142.5 -47q-88 0 -144.5 47t-56.5 122.5zM412 1429.5q0 94.5 -117 94.5q-55 0 -87 -24.5t-32 -70t32 -70t87 -24.5q117 0 117 94.5z" glyph-name="ring" horiz-adv-x="585" unicode="˚"/><glyph d="M297 -180l39 -51q-43 -47 -123 -48q-66 0 -103.5 36t-37.5 100q0 61 45 108t90 64l45 16l14 -43q-14 -4 -33.5 -14.5t-53.5 -44t-34 -74.5q0 -78 76 -78q20 0 40 7t28 14z" glyph-name="ogonek" horiz-adv-x="393" unicode="˛"/><glyph d="M614 1368q-63 0 -156 59.5t-132 59.5q-43 0 -61.5 -23.5t-31.5 -66.5l-8 -29l-82 10l11 47q29 154 161 154q61 0 153.5 -59.5t133.5 -59.5q45 0 64.5 23.5t29.5 66.5l6 29l82 -8l-6 -47q-33 -156 -164 -156z" glyph-name="tilde" horiz-adv-x="952" unicode="˜"/><glyph d="M647 1182l-160 -324h-79l100 324h139zM358 1182l-159 -324h-80l98 324h141z" glyph-name="hungarumlaut" horiz-adv-x="808" unicode="˝"/><glyph d="M59 860h859v-96h-134v-764h-114v764h-361v-764h-114v764h-136v96z" glyph-name="pi" horiz-adv-x="978" unicode="π"/><glyph d="M129 541v98h674v-98h-674z" glyph-name="endash" horiz-adv-x="948" unicode="–"/><glyph d="M129 541v98h1202v-98h-1202z" glyph-name="emdash" horiz-adv-x="1476" unicode="—"/><glyph d="M104 926v18q0 113 61.5 188.5t172.5 96.5l20 -70q-70 -14 -112.5 -58t-44.5 -95q31 -4 52 -26t21 -54q0 -35 -24.5 -60.5t-59 -25.5t-60.5 25.5t-26 60.5z" glyph-name="quoteleft" horiz-adv-x="430" unicode="‘"/><glyph d="M352 1145v-19q0 -113 -61.5 -188.5t-169.5 -97.5l-21 69q70 14 112 57.5t46 94.5q-33 4 -54.5 27.5t-21.5 56.5q0 35 25.5 59.5t60.5 24.5t59.5 -24.5t24.5 -59.5z" glyph-name="quoteright" horiz-adv-x="440" unicode="’"/><glyph d="M35 -170q70 14 111.5 57t46.5 95q-33 4 -53.5 26.5t-20.5 54.5q0 35 24.5 61t59.5 26t60.5 -26t25.5 -61v-18q0 -113 -61.5 -188.5t-172.5 -96.5z" glyph-name="quotesinglbase" horiz-adv-x="407" unicode="‚"/><glyph d="M104 926v18q0 113 61.5 188.5t172.5 96.5l20 -70q-72 -14 -114.5 -57t-44.5 -94q31 -4 53 -27t22 -55q0 -35 -24.5 -60.5t-59 -25.5t-60.5 25.5t-26 60.5zM397 926v18q0 113 61.5 188.5t170.5 96.5l20 -70q-72 -14 -113.5 -57t-43.5 -94q33 -4 54 -27t21 -55 q0 -35 -25.5 -60.5t-60.5 -25.5t-59.5 25.5t-24.5 60.5z" glyph-name="quotedblleft" horiz-adv-x="720" unicode="“"/><glyph d="M643 1145v-19q0 -115 -61.5 -190.5t-171.5 -95.5l-19 69q70 14 112 57.5t46 94.5q-33 4 -54.5 27.5t-21.5 56.5q0 35 25.5 59.5t60.5 24.5t59.5 -24.5t24.5 -59.5zM350 1145v-19q0 -115 -60.5 -190.5t-170.5 -95.5l-21 69q70 14 112 57.5t46 94.5q-33 4 -53.5 27.5 t-20.5 56.5q0 35 24.5 59.5t59.5 24.5t59.5 -24.5t24.5 -59.5z" glyph-name="quotedblright" horiz-adv-x="729" unicode="”"/><glyph d="M35 -170q70 14 111.5 57t46.5 95q-33 4 -53.5 26.5t-20.5 54.5q0 35 24.5 61t59.5 26t60.5 -26t25.5 -61v-18q0 -113 -61.5 -188.5t-172.5 -96.5zM449 -170q70 14 111.5 57t45.5 95q-33 4 -53.5 26.5t-20.5 54.5q0 35 25 61t59.5 26t60 -26t25.5 -61v-18 q0 -113 -61 -188.5t-172 -96.5z" glyph-name="quotedblbase" horiz-adv-x="821" unicode="„"/><glyph d="M70 901v98h280v301h99v-301h278v-98h-278l-13 -559h-74l-12 559h-280z" glyph-name="dagger" horiz-adv-x="796" unicode="†"/><glyph d="M104 954v99h279v315h100v-315h279v-99h-281l-12 -262l12 -264h281v-98h-279v-330h-100v330h-279v98h279l10 264l-10 262h-279z" glyph-name="daggerdbl" horiz-adv-x="864" unicode="‡"/><glyph d="M311.5 594q57.5 0 97.5 -40t40 -97.5t-40 -97.5t-97.5 -40t-98.5 40t-41 97.5t41 97.5t98.5 40z" glyph-name="bullet" horiz-adv-x="620" unicode="•"/><glyph d="M123 80q0 41 28.5 71.5t69.5 30.5q43 0 73 -30.5t30 -71.5t-30 -69.5t-73 -28.5q-41 0 -69.5 28.5t-28.5 69.5zM573 80q0 41 30 71.5t71 30.5t70.5 -30.5t29.5 -71.5t-29.5 -69.5t-70.5 -28.5t-71 28.5t-30 69.5zM1026 80q0 41 28.5 71.5t69.5 30.5q43 0 73 -30.5 t30 -71.5t-30 -69.5t-73 -28.5q-41 0 -69.5 28.5t-28.5 69.5z" glyph-name="ellipsis" horiz-adv-x="1349" unicode="…"/><glyph d="M342 1255q121 0 189.5 -88t68.5 -219q0 -127 -69.5 -217t-188.5 -90t-187.5 90t-68.5 217q0 131 68.5 219t187.5 88zM342 737q72 0 113 59.5t41 151.5t-40 151.5t-114 59.5q-72 0 -112 -59.5t-40 -151.5t40 -151.5t112 -59.5zM1083 1229h131l-976 -1229h-127zM985 598 q119 0 189.5 -89t70.5 -218q0 -127 -70.5 -217t-189.5 -90t-187.5 90t-68.5 217q0 129 68.5 218t187.5 89zM985 504q-72 0 -111.5 -59.5t-39.5 -153.5q0 -90 39.5 -149.5t111.5 -59.5t113 59.5t41 149.5q0 94 -40 153.5t-114 59.5zM1611.5 504q-71.5 0 -112.5 -59.5 t-41 -153.5q0 -90 41 -149.5t112.5 -59.5t111.5 59.5t40 149.5q0 94 -40 153.5t-111.5 59.5zM1612 598q119 0 188.5 -89t69.5 -218q0 -127 -69.5 -217t-188.5 -90t-188.5 90t-69.5 217q0 129 69.5 218t188.5 89z" glyph-name="perthousand" horiz-adv-x="1933" unicode="‰"/><glyph d="M90 406v43l236 368h102v-20l-231 -363v-10l231 -369v-18h-102z" glyph-name="guilsinglleft" horiz-adv-x="526" unicode="‹"/><glyph d="M436 449v-43l-235 -369h-103v18l232 369v10l-232 363v20h103z" glyph-name="guilsinglright" horiz-adv-x="524" unicode="›"/><glyph d="M88 0h-102l1069 1378h108z" glyph-name="fraction" horiz-adv-x="1146" unicode="⁄"/><glyph d="M815 516v-90h-438q35 -158 128 -249t251 -91q78 0 145.5 30.5t93.5 59.5l29 31l59 -82q-4 -6 -12 -15.5t-37.5 -35t-64.5 -45t-93.5 -34.5t-121.5 -15q-203 0 -330 123.5t-168 322.5h-170v90h156q-4 66 -4 100q0 55 6 107h-158v92h172q43 197 169 316.5t327 119.5 q100 0 183 -36.5t116 -73.5l32 -37l-61 -86q-10 14 -30.5 34.5t-90 54.5t-147.5 34q-303 0 -377 -326h436v-92h-453q-4 -35 -4 -107q0 -68 4 -100h453z" glyph-name="Euro" horiz-adv-x="1177" unicode="€"/><glyph d="M772 575h-86v654h70l233 -324l238 324h67v-654h-84v502l-206 -284h-27l-205 280v-498zM559 1229v-76h-205v-578h-82v578h-204v76h491z" glyph-name="trademark" horiz-adv-x="1441" unicode="™"/><glyph d="M109 0v102h307q-141 72 -222 215.5t-81 309.5q0 262 164.5 445t451.5 183t452 -183t165 -445q0 -164 -81 -308.5t-223 -216.5h308v-102h-549v104q180 8 304 162t124 350q0 221 -134 375t-365.5 154t-367 -153.5t-135.5 -375.5q0 -197 125 -350t307 -162v-104h-550z" glyph-name="uni2126" horiz-adv-x="1456" unicode="Ω"/><glyph d="M509.5 -20q-192.5 0 -308 123.5t-115.5 326.5t115.5 327t308.5 124q80 0 152 -25q-16 16 -48 68l-346 549v18h109l448 -711q102 -170 109 -331v-19q0 -203 -116 -326.5t-308.5 -123.5zM819 430q0 166 -88 259t-221 93t-220 -94t-87 -258t87 -258t220 -94t221 94t88 258z " glyph-name="partialdiff" horiz-adv-x="1021" unicode="∂"/><glyph d="M55 0v27l559 1202h25l559 -1202v-27h-1143zM1034 102l-405 916h-6l-406 -916h817z" glyph-name="uni2206" horiz-adv-x="1253" unicode="∆"/><glyph d="M1102 1210v-1210h-115v1126h-729v-1126h-117v1210h4v19h953v-19h4z" glyph-name="product" horiz-adv-x="1243" unicode="∏"/><glyph d="M86 1229h723v-103h-576l375 -485v-53l-372 -486h573v-102h-723v102l395 502v19l-395 503v103z" glyph-name="summation" horiz-adv-x="905" unicode="∑"/><glyph d="M131 563v99h844v-99h-844z" glyph-name="minus" horiz-adv-x="1105" unicode="−"/><glyph d="M418 -393l-400 817h127l246 -518q39 -82 43 -111h4q2 29 41 111l625 1323h129l-782 -1622h-33z" glyph-name="radical" horiz-adv-x="1220" unicode="√"/><glyph d="M434 242q-150 0 -241 100t-91 243.5t91.5 244t240.5 100.5q115 0 194 -71t150 -197q143 268 342 268q139 0 235.5 -95.5t96.5 -248.5q0 -141 -90 -242.5t-242 -101.5q-115 0 -196.5 70.5t-149.5 193.5q-70 -125 -147.5 -194.5t-192.5 -69.5zM1114 836q-94 0 -158.5 -65.5 t-124.5 -182.5q63 -121 127 -186.5t156 -65.5q111 0 175.5 72.5t64.5 177.5q0 111 -69 180.5t-171 69.5zM440 336q92 0 158 66.5t125 181.5q-61 119 -126 185.5t-157 66.5q-111 0 -175 -74t-64 -176q0 -104 64 -177t175 -73z" glyph-name="infinity" horiz-adv-x="1554" unicode="∞"/><glyph d="M240 2v1102q0 225 190 225q35 0 68.5 -9t50.5 -20l16 -10l-35 -88q-39 25 -81 25q-94 0 -95 -133v-1102q0 -225 -190 -225q-35 0 -69 10t-50 18l-16 10l34 89q41 -25 82 -25q95 0 95 133z" glyph-name="integral" horiz-adv-x="593" unicode="∫"/><glyph d="M596 369q-61 0 -148.5 50t-121.5 50q-39 0 -56.5 -19.5t-29.5 -56.5l-7 -24l-96 8l8 51q31 141 168 141q59 0 145.5 -51t123.5 -51q63 0 84 76l6 26l96 -8l-8 -53q-27 -139 -164 -139zM596 754q-61 0 -148.5 51t-121.5 51q-39 0 -56.5 -19.5t-29.5 -56.5l-7 -26l-96 8 l8 53q31 139 168 139q59 0 145.5 -50t123.5 -50q63 0 84 76l6 24l96 -8l-8 -51q-27 -141 -164 -141z" glyph-name="approxequal" horiz-adv-x="899" unicode="≈"/><glyph d="M121 756v96h383l92 252l88 -33l-80 -219h203v-96h-238l-123 -338h361v-99h-397l-91 -251l-88 32l80 219h-190v99h225l123 338h-348z" glyph-name="notequal" horiz-adv-x="927" unicode="≠"/><glyph d="M600 502l-70 -74l-374 360v27l374 371l70 -72l-315 -313zM684 285v-99h-561v99h561z" glyph-name="lessequal" horiz-adv-x="794" unicode="≤"/><glyph d="M264 428l-71 74l315 299l-315 313l69 72l375 -371v-27zM111 186v99h559v-99h-559z" glyph-name="greaterequal" horiz-adv-x="792" unicode="≥"/><glyph d="M475 1229l330 -615l-330 -614h-74l-329 614l329 615h74zM205 612l225 -440h19l223 440l-223 445h-19z" glyph-name="lozenge" horiz-adv-x="876" unicode="◊"/></font>
</defs>
</svg>
