<?xml version="1.0" standalone="no"?>
<!DOCTYPE svg PUBLIC "-//W3C//DTD SVG 1.1//EN" "http://www.w3.org/Graphics/SVG/1.1/DTD/svg11.dtd">
<svg xmlns="http://www.w3.org/2000/svg"><metadata>This SVG WebFont was generated by YouWorkForThem.
Copyright (c) 2014 by Daniel Hernandez &amp; Miguel Hernandez. All rights reserved.</metadata><defs><font horiz-adv-x="1196" id="ywftsvg"><font-face ascent="1536" bbox="-23 -393 2040 1669" cap-height="1229" descent="-512" font-family="" font-stretch="normal" font-weight="300" panose-1="2 0 0 0 0 0 0 0 0 0" underline-position="0" underline-thickness="0" unicode-range="U+000D-25CA" units-per-em="2048" x-height="860"/><missing-glyph horiz-adv-x="1155"/><glyph glyph-name=".notdef" horiz-adv-x="1155"/><glyph glyph-name="glyph1" horiz-adv-x="0"/><glyph glyph-name="glyph2" horiz-adv-x="681"/><glyph glyph-name="glyph3" horiz-adv-x="0"/><glyph glyph-name="glyph3" horiz-adv-x="0"/><glyph glyph-name="space" horiz-adv-x="479" unicode=" "/><glyph d="M246 1229l-23 -926h-59l-25 926h107zM119 59.5q0 30.5 21.5 53t52.5 22.5q33 0 54 -22.5t21 -53t-21.5 -53t-53.5 -22.5q-31 0 -52.5 22.5t-21.5 53z" glyph-name="exclam" horiz-adv-x="387" unicode="!"/><glyph d="M252 1401l-80 -428h-53l33 428h100zM500 1401l-80 -428h-53l34 428h99z" glyph-name="quotedbl" horiz-adv-x="585" unicode="&quot;"/><glyph d="M993 1194l-78 -346h248l-14 -66h-248l-82 -376h236l-15 -66h-235l-76 -340h-70l74 340h-342l-76 -340h-69l73 340h-249l14 66h250l84 376h-240l15 66h239l76 346h72l-78 -346h344l76 346h71zM487 782l-81 -376h342l83 376h-344z" glyph-name="numbersign" horiz-adv-x="1232" unicode="#"/><glyph d="M96 111l51 69q12 -12 38 -31.5t112 -53.5t182 -38v541q-195 61 -287 133t-92 203q0 139 102.5 224t276.5 95v213h80v-213q113 -4 203 -31.5t123 -54.5l33 -26l-50 -76q-12 10 -34.5 25.5t-102.5 44t-172 32.5v-497q199 -57 295 -139t96 -223.5t-99 -231.5t-292 -101v-194 h-80v194q-115 4 -210 38t-134 65zM858 307q0 100 -71.5 158.5t-227.5 109.5v-516q150 8 224.5 73.5t74.5 174.5zM193 936q0 -90 68.5 -142.5t217.5 -99.5v473q-127 -10 -206.5 -69.5t-79.5 -161.5z" glyph-name="dollar" horiz-adv-x="1036" unicode="$"/><glyph d="M338 1255q117 0 183.5 -88t66.5 -217q0 -127 -66.5 -216t-183.5 -89t-184.5 89t-67.5 216q0 129 66.5 217t185.5 88zM338 1180q-80 0 -125 -64.5t-45 -165.5q0 -96 45 -161.5t125 -65.5q78 0 123 65.5t45 161.5q0 98 -45 164t-123 66zM985 594q117 0 184.5 -88t67.5 -217 q0 -127 -67.5 -216t-184.5 -89t-184.5 89t-67.5 216q0 129 67.5 217t184.5 88zM985 518q-78 0 -123 -65.5t-45 -163.5q0 -96 45 -162t123 -66q80 0 124 66t44 162q0 100 -44 164.5t-124 64.5zM1100 1229h102l-975 -1229h-102z" glyph-name="percent" horiz-adv-x="1325" unicode="%"/><glyph d="M1001 598l86 -20q-25 -215 -135 -373l205 -205h-129l-131 135q-150 -160 -375 -160q-188 0 -303 93.5t-115 238.5q0 127 73 205t206 150l-16 16q-78 78 -114 145.5t-36 151.5q0 121 83 200.5t216 79.5q131 0 212 -75.5t81 -198.5q0 -63 -22.5 -114.5t-68.5 -93.5 t-87 -69.5t-109 -62.5l371 -377q92 139 108 334zM520 55q190 0 318 140l-396 403q-117 -63 -179 -127.5t-62 -161.5q0 -113 92 -183.5t227 -70.5zM309 975q0 -72 30 -124t103 -128l19 -21q63 33 99 54.5t78 55.5t61.5 74t19.5 89q0 92 -55.5 147.5t-149.5 55.5 q-88 0 -146.5 -56.5t-58.5 -146.5z" glyph-name="ampersand" horiz-adv-x="1185" unicode="&amp;"/><glyph d="M252 1401l-80 -428h-53l33 428h100z" glyph-name="quotesingle" horiz-adv-x="337" unicode="'"/><glyph d="M182 588q0 -469 334 -809l-53 -58q-51 51 -83 86t-94.5 122t-98 171t-66.5 215t-31 272.5t30 272.5t67.5 215t98 170t93.5 122t84 85l53 -57q-334 -340 -334 -807z" glyph-name="parenleft" horiz-adv-x="542" unicode="("/><glyph d="M360 588q0 467 -333 807l51 57q49 -49 84 -85t95 -121t98 -170t68 -216t30 -272.5t-30 -271.5t-68 -215t-99 -171t-94 -122.5t-84 -86.5l-51 58q333 340 333 809z" glyph-name="parenright" horiz-adv-x="542" unicode=")"/><glyph d="M186 893l189 215l-275 57l33 101l252 -127l-29 286h99l-35 -286l256 127l33 -101l-275 -55l189 -217l-84 -59l-136 253l-135 -253z" glyph-name="asterisk" horiz-adv-x="808" unicode="*"/><glyph d="M537 1022v-373h358v-78h-358v-360h-80v360h-361v78h361v373h80z" glyph-name="plus" horiz-adv-x="991" unicode="+"/><glyph d="M274 53v-20q0 -102 -56 -171t-161 -89l-16 57q70 12 113 57t45 95q-29 2 -49.5 22.5t-20.5 48.5q0 31 21.5 52.5t50.5 21.5q31 0 52 -21.5t21 -52.5z" glyph-name="comma" horiz-adv-x="403" unicode=","/><glyph d="M129 432v76h559v-76h-559z" glyph-name="hyphen" horiz-adv-x="819" unicode="-"/><glyph d="M197 -18q-29 0 -51.5 21.5t-22.5 49.5q0 31 22.5 52.5t51.5 21.5q31 0 52 -21.5t21 -52.5q0 -29 -21 -50t-52 -21z" glyph-name="period" horiz-adv-x="395" unicode="."/><glyph d="M141 -227h-96l920 1831h94z" glyph-name="slash" horiz-adv-x="1105" unicode="/"/><glyph d="M600 -29q-229 0 -362.5 181.5t-133.5 457.5q0 281 133.5 463t362.5 182t361.5 -181t132.5 -464q0 -276 -132.5 -457.5t-361.5 -181.5zM600 57q193 0 297 159t104 394q0 240 -104 399.5t-297 159.5q-195 0 -299 -158.5t-104 -400.5q0 -238 104 -395.5t299 -157.5z" glyph-name="zero" horiz-adv-x="1198" unicode="0"/><glyph d="M27 1145v84h376v-1229h-90v1145h-286z" glyph-name="one" horiz-adv-x="557" unicode="1"/><glyph d="M98 0v66l543 548q74 74 102.5 136.5t28.5 142.5q0 121 -82 198.5t-215 77.5q-92 0 -176 -41t-118 -73.5t-40 -42.5l-53 69q6 6 17.5 18.5t48 42t78.5 53.5t108 42t135 18q182 0 285.5 -99t103.5 -259q0 -180 -143 -326l-485 -487h655v-84h-793z" glyph-name="two" horiz-adv-x="987" unicode="2"/><glyph d="M487 612h-157v64l430 469h-649v84h768v-80l-416 -457h35q182 0 283.5 -88t101.5 -260q0 -162 -113 -267.5t-303 -105.5q-74 0 -138.5 16.5t-106.5 41t-72.5 49t-43.5 41.5l-14 16l55 64q4 -6 13.5 -15.5t39 -34t63.5 -43t88.5 -34t113.5 -15.5q152 0 240 81t88 210 q0 125 -78 194.5t-228 69.5z" glyph-name="three" horiz-adv-x="993" unicode="3"/><glyph d="M51 307v68l694 854h70v-836h203v-86h-203v-307h-90v307h-674zM172 397v-4h553v680l-535 -659z" glyph-name="four" horiz-adv-x="1079" unicode="4"/><glyph d="M829 1145h-577l-12 -451q98 29 227 29q193 0 304.5 -98.5t111.5 -264.5q0 -182 -114 -285.5t-302 -103.5q-72 0 -136.5 16.5t-106.5 41t-73.5 49t-44.5 41.5l-14 16l55 64q4 -6 13.5 -15.5t39 -34t63.5 -43t88.5 -34t113.5 -15.5q147 0 237.5 80t90.5 223 q0 129 -91.5 205t-236.5 76q-78 0 -150.5 -12.5t-106.5 -24.5t-34 -14l-22 18l16 621h661v-84z" glyph-name="five" horiz-adv-x="972" unicode="5"/><glyph d="M199 604q0 -45 2 -67q47 96 141 153.5t221 57.5q180 0 292 -113t112 -270.5t-116 -275.5t-292 -118q-205 0 -327.5 158t-122.5 475q0 322 132 486.5t337 164.5q72 0 134 -18t100 -44t66.5 -50.5t39.5 -42.5l12 -19l-56 -65q-4 6 -11 16t-34.5 37t-59.5 47.5t-84 36.5 t-107 16q-168 0 -273.5 -138t-105.5 -427zM563 662q-133 0 -230 -78t-114 -197q35 -168 124 -249t216 -81q133 0 225.5 89.5t92.5 218.5q0 125 -88.5 211t-225.5 86z" glyph-name="six" horiz-adv-x="1058" unicode="6"/><glyph d="M55 1145v84h785v-66l-551 -1163h-109l547 1145h-672z" glyph-name="seven" horiz-adv-x="866" unicode="7"/><glyph d="M520 -29q-184 0 -299 104.5t-115 254.5q0 106 59.5 188t160.5 123q-90 39 -140.5 114.5t-50.5 168.5q0 143 105.5 237t279.5 94t278.5 -94t104.5 -237q0 -92 -50 -168t-140 -115q102 -41 161.5 -123t59.5 -188q0 -150 -116 -254.5t-298 -104.5zM842 330 q0 117 -92.5 192.5t-229.5 75.5t-229 -76t-92 -192q0 -115 91 -194t230 -79t230.5 79t91.5 194zM520 678q131 0 211 70.5t80 177.5q0 102 -80 172.5t-211 70.5q-133 0 -213 -70.5t-80 -172.5q0 -106 80 -177t213 -71z" glyph-name="eight" horiz-adv-x="1040" unicode="8"/><glyph d="M862 614q0 27 -4 88q-47 -98 -143.5 -156.5t-222.5 -58.5q-176 0 -290 111t-114 266q0 164 114.5 277.5t293.5 113.5q211 0 333.5 -157.5t122.5 -481.5q0 -322 -128 -483.5t-337 -161.5q-68 0 -127 16.5t-97 39t-66.5 46t-40.5 40.5l-13 16l56 66q12 -16 33.5 -39t96 -61 t158.5 -38q174 0 276.5 136t98.5 421zM492 573q135 0 231 78t113 199q-35 164 -125 241.5t-215 77.5q-135 0 -226.5 -87t-91.5 -218q0 -123 90.5 -207t223.5 -84z" glyph-name="nine" horiz-adv-x="1060" unicode="9"/><glyph d="M174 18q-18 10 -22.5 32t6.5 40q10 20 32.5 24.5t40.5 -5.5q18 -12 23.5 -34t-6.5 -40q-10 -18 -32 -22.5t-42 5.5zM174 750q-18 10 -22.5 31.5t6 40t33 23.5t40.5 -5q18 -12 23.5 -34t-6.5 -40q-10 -20 -32 -24t-42 8z" glyph-name="colon" horiz-adv-x="405" unicode=":"/><glyph d="M326 63v-20q0 -102 -56.5 -172t-160.5 -90l-17 57q72 14 114 58.5t44 93.5q-31 2 -51.5 22.5t-20.5 50.5q0 29 22.5 51.5t51.5 22.5q31 0 52.5 -22.5t21.5 -51.5zM252 721q-29 0 -51.5 21.5t-22.5 50.5q0 31 22.5 52t51.5 21q31 0 52.5 -21.5t21.5 -51.5 q0 -29 -21.5 -50.5t-52.5 -21.5z" glyph-name="semicolon" horiz-adv-x="481" unicode=";"/><glyph d="M86 571v56l543 413v-100l-447 -340l447 -342v-100z" glyph-name="less" horiz-adv-x="770" unicode="&lt;"/><glyph d="M135 754v77h668v-77h-668zM135 362v78h668v-78h-668z" glyph-name="equal" horiz-adv-x="937" unicode="="/><glyph d="M682 627v-56l-543 -413v100l449 342l-449 340v100z" glyph-name="greater" horiz-adv-x="770" unicode=">"/><glyph d="M100 1073l-39 74q12 10 37 27.5t107 45t174 27.5q178 0 282.5 -84t104.5 -229q0 -84 -34 -150.5t-83 -109.5t-98 -81t-85 -86t-38 -104l-4 -108h-59v125q0 61 31.5 113.5t77.5 92.5t91 81t77 97t32 124q0 106 -79 170.5t-216 64.5q-78 0 -147.5 -22.5t-100.5 -44.5z M322 51q0 31 21.5 52.5t53.5 21.5q31 0 52.5 -21.5t21.5 -52.5q0 -33 -21.5 -55.5t-52.5 -22.5q-33 0 -54 22.5t-21 55.5z" glyph-name="question" horiz-adv-x="841" unicode="?"/><glyph d="M1528 104q-111 0 -183.5 64.5t-80.5 163.5h-17q-45 -86 -130 -147.5t-208 -61.5q-152 0 -250 104.5t-98 274.5q0 229 132 370.5t321 141.5q123 0 195.5 -55.5t101.5 -131.5l37 170h65l-63 -516q-6 -39 -7 -106q0 -86 53.5 -140.5t137.5 -54.5q150 0 240 131t90 336 t-99.5 383t-291 292t-433.5 114q-252 0 -454.5 -120t-311 -316.5t-108.5 -428t111.5 -430t312.5 -318.5t442 -120q123 0 232.5 28.5t156.5 59.5l49 29l37 -68q-18 -14 -55 -34.5t-161 -55.5t-259 -35q-270 0 -489 132t-337 347.5t-118 462.5q0 254 118 468t338 344t496 130 q387 0 648.5 -251.5t261.5 -610.5q0 -233 -116 -389t-306 -156zM932 201q158 0 255 133t97 340q0 111 -73.5 186.5t-194.5 75.5q-152 0 -258.5 -118t-106.5 -308q0 -143 78 -226t203 -83z" glyph-name="at" horiz-adv-x="2048" unicode="@"/><glyph d="M641 1229l514 -1229h-94l-133 322h-660l-133 -322h-94l514 1229h86zM598 1118l-295 -712h590z" glyph-name="A" unicode="A"/><glyph d="M1122 332q0 -164 -112.5 -248t-304.5 -84h-523v1229h494q190 0 297.5 -85t107.5 -245q0 -211 -198 -274v-7q109 -27 174 -101t65 -185zM715 575h-443v-491h437q145 0 233 64.5t88 187.5q0 113 -88 174t-227 65zM989 895q0 125 -84 187.5t-229 62.5h-404v-486h404 q147 0 230 61.5t83 174.5z" glyph-name="B" horiz-adv-x="1224" unicode="B"/><glyph d="M1053 205l51 -70q-6 -6 -16.5 -17.5t-48.5 -40t-81 -50t-112.5 -39t-145.5 -17.5q-264 0 -435 183.5t-171 455.5q0 276 171 460.5t435 184.5q76 0 145.5 -16t115 -39.5t79 -48.5t50.5 -41l14 -16l-51 -68q-14 16 -41 40t-118 63.5t-192 39.5q-225 0 -370.5 -162.5 t-145.5 -396.5q0 -229 145.5 -391t370.5 -162q100 0 187.5 37t126.5 74z" glyph-name="C" horiz-adv-x="1169" unicode="C"/><glyph d="M1190 614.5q0 -282.5 -178 -448.5t-457 -166h-373v1229h373q279 0 457 -166t178 -448.5zM553 1145h-281v-1061h281q233 0 389 144.5t156 386t-156 386t-389 144.5z" glyph-name="D" horiz-adv-x="1286" unicode="D"/><glyph d="M920 664v-84h-648v-496h746v-84h-836v1229h836v-84h-746v-481h648z" glyph-name="E" horiz-adv-x="1105" unicode="E"/><glyph d="M918 664v-84h-646v-580h-90v1229h836v-84h-746v-481h646z" glyph-name="F" horiz-adv-x="1075" unicode="F"/><glyph d="M664 571v84h571v-71q0 -285 -143.5 -449t-393.5 -164q-270 0 -436 181.5t-166 457.5q0 279 168 462t438 183q82 0 157 -16t123 -40.5t84 -49.5t52 -41l17 -16l-54 -68q-6 6 -16 15.5t-46 35t-76 45t-105.5 34.5t-135.5 15q-236 0 -375 -160.5t-139 -398.5 q0 -233 138.5 -393t371.5 -160q201 0 323 129t124 353v32h-481z" glyph-name="G" horiz-adv-x="1312" unicode="G"/><glyph d="M1126 1229v-1229h-90v571h-764v-571h-90v1229h90v-574h764v574h90z" glyph-name="H" horiz-adv-x="1308" unicode="H"/><glyph d="M272 1229v-1229h-90v1229h90z" glyph-name="I" horiz-adv-x="454" unicode="I"/><glyph d="M43 61l45 72q86 -74 221 -74q289 0 289 338v832h90v-848q0 -209 -97 -308.5t-276 -99.5q-78 0 -145.5 22.5t-95 41t-31.5 24.5z" glyph-name="J" horiz-adv-x="856" unicode="J"/><glyph d="M272 1229v-731l715 731h100v-19l-477 -489l480 -703v-18h-91q-346 504 -452 655l-275 -280v-375h-90v1229h90z" glyph-name="K" horiz-adv-x="1132" unicode="K"/><glyph d="M944 0h-762v1229h90v-1145h672v-84z" glyph-name="L" horiz-adv-x="989" unicode="L"/><glyph d="M1206 0v1071l-446 -586h-41l-447 584v-1069h-90v1229h78l479 -629l482 629h77v-1229h-92z" glyph-name="M" horiz-adv-x="1478" unicode="M"/><glyph d="M1180 1229v-1229h-80l-828 1081v-1081h-90v1229h80l828 -1079v1079h90z" glyph-name="N" horiz-adv-x="1359" unicode="N"/><glyph d="M694.5 -29q-268.5 0 -433.5 182.5t-165 456.5q0 279 165 462t433.5 183t434 -183t165.5 -462q0 -274 -165.5 -456.5t-434 -182.5zM694 57q233 0 370.5 161t137.5 392q0 238 -137 398.5t-371 160.5q-231 0 -368.5 -161.5t-137.5 -397.5q0 -231 138.5 -392t367.5 -161z" glyph-name="O" horiz-adv-x="1390" unicode="O"/><glyph d="M639 1229q215 0 337 -108.5t122 -295.5q0 -190 -124 -302.5t-339 -112.5h-363v-410h-90v1229h457zM1008 823q0 150 -101.5 236t-269.5 86h-365v-651h365q170 0 270.5 86.5t100.5 242.5z" glyph-name="P" horiz-adv-x="1167" unicode="P"/><glyph d="M694 -29q-268 0 -433 182.5t-165 456.5q0 279 165 462t433.5 183t434 -183t165.5 -462q0 -209 -98 -368.5t-270 -227.5l164 -264h-105l-145 238q-72 -17 -146 -17zM694 57q233 0 370.5 161t137.5 392q0 238 -137 398.5t-371 160.5q-231 0 -368.5 -161.5t-137.5 -397.5 q0 -231 138.5 -392t367.5 -161z" glyph-name="Q" horiz-adv-x="1390" unicode="Q"/><glyph d="M182 1229h455q219 0 340 -105.5t121 -298.5q0 -152 -82 -251t-223 -132v-4l325 -413v-25h-92l-338 428h-416v-428h-90v1229zM1006 823q0 156 -99.5 239t-269.5 83h-365v-633h387q154 0 250.5 80.5t96.5 230.5z" glyph-name="R" horiz-adv-x="1210" unicode="R"/><glyph d="M94 111l51 69q14 -14 42 -34.5t122 -54.5t199 -34q176 0 262 66.5t86 183.5q0 109 -83 168.5t-265 114.5q-104 31 -169 57.5t-125 66.5t-88 94t-28 126q0 150 116 235.5t306 85.5q125 0 223.5 -28.5t135.5 -57.5l36 -28l-49 -76q-12 12 -37.5 29.5t-114.5 46t-194 28.5 q-141 0 -235.5 -61t-94.5 -172q0 -98 81 -151.5t266 -108.5q211 -61 311 -142t100 -227q0 -150 -111.5 -242t-328.5 -92q-123 0 -226.5 35t-146.5 70z" glyph-name="S" horiz-adv-x="1034" unicode="S"/><glyph d="M49 1145v84h940v-84h-426v-1145h-90v1145h-424z" glyph-name="T" horiz-adv-x="1038" unicode="T"/><glyph d="M641 -27q-225 0 -351 145.5t-126 389.5v721h90v-721q0 -207 99.5 -329t287.5 -122q190 0 288.5 122t98.5 329v721h90v-721q0 -246 -125 -390.5t-352 -144.5z" glyph-name="U" horiz-adv-x="1284" unicode="U"/><glyph d="M555 0l-514 1229h94l463 -1118l463 1118h94l-514 -1229h-86z" glyph-name="V" unicode="V"/><glyph d="M1114 0l-309 1085l-307 -1085h-78l-371 1229h92l314 -1086l307 1086h88l305 -1086l313 1086h95l-371 -1229h-78z" glyph-name="W" horiz-adv-x="1611" unicode="W"/><glyph d="M991 1229l-407 -598l428 -631h-109l-336 498l-45 77l-45 -77l-336 -498h-104l422 631l-406 598h109l325 -479l37 -66l37 66l324 479h106z" glyph-name="X" horiz-adv-x="1046" unicode="X"/><glyph d="M590 621l360 608h105l-461 -758v-471h-90v473l-459 756h107l362 -608l33 -68h6z" glyph-name="Y" horiz-adv-x="1099" unicode="Y"/><glyph d="M66 0v63l804 1082h-790v84h913v-64l-800 -1081h778v-84h-905z" glyph-name="Z" horiz-adv-x="1054" unicode="Z"/><glyph d="M139 -266v1700h420v-78h-332v-1544h332v-78h-420z" glyph-name="bracketleft" horiz-adv-x="591" unicode="["/><glyph d="M522 -262l-446 1898h90l446 -1898h-90z" glyph-name="backslash" horiz-adv-x="688" unicode="\"/><glyph d="M31 -266v78h334v1544h-334v78h422v-1700h-422z" glyph-name="bracketright" horiz-adv-x="591" unicode="]"/><glyph d="M639 1018l-221 299l-221 -299h-82l270 375h68l268 -375h-82z" glyph-name="asciicircum" horiz-adv-x="835" unicode="^"/><glyph d="M96 -160v78h905v-78h-905z" glyph-name="underscore" horiz-adv-x="1099" unicode="_"/><glyph d="M324 1018l-164 276l114 17l113 -293h-63z" glyph-name="grave" horiz-adv-x="530" unicode="`"/><glyph d="M809 516v-516h-61l-13 152h-6q-43 -76 -131 -124t-199 -48q-158 0 -242.5 75.5t-84.5 190.5q0 119 96 195.5t287 76.5q156 0 270 -53v53q0 283 -289 283q-61 0 -125.5 -17.5t-97.5 -35.5l-35 -19l-35 76q127 76 303 76q184 0 273.5 -97.5t89.5 -267.5zM725 299v90 q-113 59 -262 60q-156 0 -228.5 -55.5t-72.5 -145.5q0 -84 63.5 -139.5t184.5 -55.5q133 0 224 81t91 165z" glyph-name="a" horiz-adv-x="950" unicode="a"/><glyph d="M150 0v1239h88v-561h4q2 8 9 21.5t33.5 49t61.5 62.5t98.5 48.5t137.5 21.5q170 0 285.5 -126t115.5 -325t-115.5 -324.5t-287.5 -125.5q-76 0 -139.5 21.5t-100.5 53t-63.5 62t-34.5 51.5l-11 22h-4l-12 -190h-65zM233 430q0 -172 97.5 -273.5t237 -101.5t232.5 105.5 t93 269.5t-93 269.5t-232.5 105.5t-237 -101.5t-97.5 -273.5z" glyph-name="b" horiz-adv-x="1075" unicode="b"/><glyph d="M512 -20q-184 0 -303 122.5t-119 323.5q0 203 119 329t303 126q80 0 145.5 -19.5t92.5 -38.5l24 -20l-31 -68q-88 70 -229 70q-137 0 -235.5 -103.5t-98.5 -275.5t97.5 -271.5t236.5 -99.5q63 0 120.5 17.5t82.5 33.5l26 19l29 -68q-10 -8 -28.5 -21t-86 -34.5 t-145.5 -21.5z" glyph-name="c" horiz-adv-x="856" unicode="c"/><glyph d="M834 684h4v555h88v-1239h-64l-14 186h-4q-4 -8 -10.5 -22t-35 -50t-64.5 -62.5t-99.5 -49t-136.5 -22.5q-174 0 -291 125.5t-117 324.5t117 325t289 126q74 0 135 -20.5t97 -49.5t61.5 -57.5t33.5 -48.5zM844 430q0 172 -98.5 273.5t-237.5 101.5t-233.5 -105.5 t-94.5 -269.5t94.5 -269.5t233.5 -105.5t237.5 101.5t98.5 273.5z" glyph-name="d" horiz-adv-x="1075" unicode="d"/><glyph d="M776 141l37 -67q-12 -10 -34.5 -25.5t-100.5 -42t-166 -26.5q-188 0 -304 121.5t-116 324.5q0 207 109.5 331t285.5 124q174 0 272.5 -116t98.5 -304v-23h-678v-12q0 -172 95.5 -271.5t240.5 -99.5q74 0 139.5 21.5t94.5 42.5zM485 803q-119 0 -198.5 -75t-100.5 -216 h582q-10 131 -83 211t-200 80z" glyph-name="e" horiz-adv-x="940" unicode="e"/><glyph d="M205 786h-166v74h166v98q0 137 75.5 215t200.5 78q43 0 82 -7t55 -15l17 -6l-29 -74q-51 25 -127 25q-84 0 -135 -55.5t-51 -157.5v-101h264v-74h-264v-786h-88v786z" glyph-name="f" horiz-adv-x="581" unicode="f"/><glyph d="M885 788h-187v-6q4 -2 10.5 -5t23 -18.5t29.5 -34.5t23.5 -56t10.5 -82q0 -117 -86 -201t-234 -84q-119 0 -201 59q-106 -35 -106 -106q0 -53 71.5 -84t260.5 -37q201 -4 299 -69.5t98 -178t-111.5 -188.5t-304.5 -76q-197 0 -298 64.5t-101 177.5q0 147 184 219 q-178 41 -178 172q0 100 133 156q-59 76 -59 178q0 123 84 206t229 83q63 0 113 -17h297v-72zM500 57q-70 0 -125 6q-113 -37 -160 -87t-47 -113q0 -78 80 -123t233 -45q158 0 243 52t85 138q0 76 -77.5 123t-231.5 49zM475 805q-109 0 -173 -62.5t-64 -154.5 q0 -90 64.5 -151.5t172.5 -61.5q111 0 176.5 61.5t65.5 151.5q0 92 -65.5 154.5t-176.5 62.5z" glyph-name="g" horiz-adv-x="937" unicode="g"/><glyph d="M150 0v1239h88v-516h4q0 2 14 19.5t24.5 26.5t31 28.5t42 32t50 25.5t64.5 19.5t77 6.5q168 0 262 -111t94 -291v-479h-88v469q0 150 -73.5 243t-211 93t-212 -90t-78.5 -189v-526h-88z" glyph-name="h" horiz-adv-x="1038" unicode="h"/><glyph d="M198.5 1100q-28.5 0 -50 20.5t-21.5 49t21.5 49t50 20.5t49 -20.5t20.5 -49t-20.5 -49t-49 -20.5zM154 0v860h88v-860h-88z" glyph-name="i" horiz-adv-x="397" unicode="i"/><glyph d="M6 -319v75h21q127 0 127 144v960h88v-964q0 -215 -201 -215h-35zM198.5 1100q-28.5 0 -50 20.5t-21.5 49t21.5 49t50 20.5t49 -20.5t20.5 -49t-20.5 -49t-49 -20.5z" glyph-name="j" horiz-adv-x="397" unicode="j"/><glyph d="M719 860h119l-410 -366l420 -494h-113l-370 436l-127 -114v-322h-88v1239h88v-801h2z" glyph-name="k" horiz-adv-x="876" unicode="k"/><glyph d="M158 0v1239h88v-1239h-88z" glyph-name="l" horiz-adv-x="403" unicode="l"/><glyph d="M150 0v860h63l12 -155h6q2 2 11.5 15t13.5 19t17.5 21.5t22.5 25t25.5 23.5t32 22.5t37 18.5t44 16t50 10.5t58.5 4.5q121 0 204.5 -55.5t120.5 -149.5h9l16 29q16 27 27.5 43t40 44.5t58.5 45t79 30t104 13.5q166 0 259 -111t93 -291v-479h-88v471q0 147 -72.5 240.5 t-207.5 93.5q-139 0 -212 -94.5t-77 -202.5v-508h-88v514q0 129 -72.5 210t-210 81t-211 -89t-77.5 -188v-528h-88z" glyph-name="m" horiz-adv-x="1691" unicode="m"/><glyph d="M238 520v-520h-88v860h63l12 -155h6q111 176 316 176q166 0 260 -111t94 -291v-479h-88v471q0 147 -73.5 240.5t-211.5 93.5q-139 0 -214.5 -93.5t-75.5 -191.5z" glyph-name="n" horiz-adv-x="1038" unicode="n"/><glyph d="M938 426q0 -203 -122 -324.5t-302 -121.5q-182 0 -303 121.5t-121 324.5t122 329t302 126q178 0 301 -127t123 -328zM514 53q139 0 237.5 102.5t98.5 270.5q0 170 -99.5 275.5t-236.5 105.5t-236.5 -105.5t-99.5 -275.5q0 -168 98.5 -270.5t237.5 -102.5z" glyph-name="o" horiz-adv-x="1028" unicode="o"/><glyph d="M242 176h-4v-495h-88v1179h63l14 -180h9q4 8 10 21.5t34.5 48t63.5 61.5t98.5 48.5t137.5 21.5q172 0 287.5 -126t115.5 -325t-115.5 -324.5t-285.5 -125.5q-74 0 -136.5 20t-98.5 49t-61.5 57.5t-35.5 49.5zM233 430q0 -172 97.5 -273.5t237 -101.5t232.5 105.5 t93 269.5t-93 269.5t-232.5 105.5t-237 -101.5t-97.5 -273.5z" glyph-name="p" horiz-adv-x="1075" unicode="p"/><glyph d="M926 860v-1179h-88v501h-4q-2 -8 -9.5 -21.5t-34 -49t-60.5 -62t-97.5 -48t-136.5 -21.5q-172 0 -289 125.5t-117 324.5t117 325t291 126q76 0 138 -21.5t99 -53.5t62.5 -62.5t33.5 -51.5l11 -22h4l14 190h66zM844 430q0 172 -98.5 273.5t-237.5 101.5t-233.5 -105.5 t-94.5 -269.5t94.5 -269.5t233.5 -105.5t237.5 101.5t98.5 273.5z" glyph-name="q" horiz-adv-x="1075" unicode="q"/><glyph d="M528 860v-74h-39q-111 0 -179 -78.5t-72 -195.5v-512h-88v860h63l12 -166h4q16 33 40 65t84.5 66.5t135.5 34.5h39z" glyph-name="r" horiz-adv-x="550" unicode="r"/><glyph d="M88 72l41 65q113 -80 285 -80q123 0 183 46.5t60 117.5q0 66 -58 106t-141 60.5t-167 44t-142.5 76.5t-58.5 139q0 106 79 170t230 64q88 0 165 -16.5t110 -33.5l33 -18l-35 -78q-100 68 -269 68q-231 0 -231 -154q0 -63 58.5 -99t142.5 -54.5t167 -42t141 -80t58 -148.5 q0 -109 -78.5 -176t-244.5 -67q-98 0 -180 22.5t-115 44.5z" glyph-name="s" horiz-adv-x="819" unicode="s"/><glyph d="M33 860h166v262h88v-262h264v-74h-264v-569q0 -160 145 -160q31 0 62.5 9.5t48.5 19.5l16 8l29 -67q-59 -47 -164 -47q-111 0 -168 62t-57 173v571h-166v74z" glyph-name="t" horiz-adv-x="608" unicode="t"/><glyph d="M879 860v-860h-58l-18 154h-4q-104 -174 -316 -174q-166 0 -256 110.5t-90 290.5v479h88v-471q0 -150 68.5 -242t204.5 -92q139 0 213.5 89t79.5 188v528h88z" glyph-name="u" horiz-adv-x="1030" unicode="u"/><glyph d="M891 860l-397 -860h-60l-397 860h100l309 -706q14 -29 15 -52h6q0 18 16 52l310 706h98z" glyph-name="v" horiz-adv-x="927" unicode="v"/><glyph d="M1272 860l-305 -860h-86l-209 715q-8 20 -8 41h-7q0 -14 -10 -41l-209 -715h-82l-307 860h94l234 -706q12 -33 12 -52h10q0 4 3.5 13.5t6.5 20.5t5 18l209 706h82l206 -706q12 -33 13 -52h10q0 12 14 52l236 706h88z" glyph-name="w" horiz-adv-x="1320" unicode="w"/><glyph d="M37 0l336 453l-305 407h104l252 -352h6l254 352h102l-305 -405l336 -455h-106l-281 397h-6l-285 -397h-102z" glyph-name="x" horiz-adv-x="854" unicode="x"/><glyph d="M879 860l-584 -1179h-94l215 415l-383 764h100l311 -635q14 -39 15 -51h6q0 18 12 51l311 635h91z" glyph-name="y" horiz-adv-x="903" unicode="y"/><glyph d="M78 53l577 731h-575v76h692v-51l-573 -733h573v-76h-694v53z" glyph-name="z" horiz-adv-x="849" unicode="z"/><glyph d="M47 635h33q59 0 96 49t37 139v432q0 188 178 209l12 -78q-53 -8 -75.5 -38.5t-22.5 -106.5v-420q0 -186 -108 -225v-14q109 -37 108 -222v-430q0 -74 22.5 -105.5t75.5 -39.5l-12 -76q-178 18 -178 207v442q0 88 -37 139.5t-96 51.5h-33v86z" glyph-name="braceleft" horiz-adv-x="485" unicode="{"/><glyph d="M223 1407v-1669h-84v1669h84z" glyph-name="bar" horiz-adv-x="364" unicode="|"/><glyph d="M403 635h33v-86h-33q-57 0 -94 -51.5t-37 -139.5v-442q0 -188 -178 -207l-14 76q55 8 76.5 40t21.5 105v430q0 184 111 222v14q-111 39 -111 225v420q0 76 -21.5 106.5t-76.5 38.5l14 78q178 -20 178 -209v-432q0 -90 36 -139t95 -49z" glyph-name="braceright" horiz-adv-x="485" unicode="}"/><glyph d="M614 616q43 0 82 11.5t58 23.5l16 11l33 -56q-61 -66 -189 -65q-51 0 -142 30.5t-150 30.5q-43 0 -82 -11t-56 -22l-18 -12l-31 55q63 66 187 66q51 0 142 -31t150 -31z" glyph-name="asciitilde" horiz-adv-x="935" unicode="~"/><glyph glyph-name="uni00A0" horiz-adv-x="481" unicode=" "/><glyph d="M211 563l25 -923h-107l23 923h59zM109 807q0 33 21.5 55.5t52 22.5t53 -22.5t22.5 -55.5q0 -31 -22.5 -53.5t-53 -22.5t-52 22.5t-21.5 53.5z" glyph-name="exclamdown" horiz-adv-x="364" unicode="¡"/><glyph d="M371 0l22 174q-135 39 -216 152.5t-81 277.5q0 199 117 325t297 130l22 170h72l-22 -174q57 -6 107 -24.5t73 -33.5l20 -14l-28 -70q-70 53 -183 66l-98 -739q33 -4 51 -4q63 0 120.5 17t84.5 34l25 16l26 -67q-10 -8 -29.5 -21.5t-87 -35t-141.5 -21.5q-18 0 -59 4 l-21 -162h-71zM186 604q0 -129 60.5 -220t159.5 -128l94 725q-131 -10 -222.5 -112.5t-91.5 -264.5z" glyph-name="cent" horiz-adv-x="884" unicode="¢"/><glyph d="M889 84v-84h-750v84h2l-2 2q14 8 35 24.5t55.5 81t34.5 144.5q0 43 -47 227h-133v74h113q-25 109 -25 209q0 164 108.5 279.5t309.5 115.5q102 0 184 -33.5t115 -68.5l31 -33l-58 -66q-10 12 -30.5 32t-91 51.5t-152.5 31.5q-156 0 -237 -90t-81 -223q0 -86 27 -205h487 v-74h-469q43 -176 43 -223q0 -154 -98 -256h629z" glyph-name="sterling" horiz-adv-x="1015" unicode="£"/><glyph d="M612 621l361 608h104l-418 -686h314v-76h-357v-180h357v-76h-357v-211h-90v211h-360v76h360v180h-360v76h317l-415 686h106l363 -608l32 -68h6z" glyph-name="yen" horiz-adv-x="1142" unicode="¥"/><glyph d="M229 676h-84v702h84v-702zM229 -313h-84v702h84v-702z" glyph-name="brokenbar" horiz-adv-x="372" unicode="¦"/><glyph d="M90 84l53 76q14 -10 43 -27.5t127.5 -45.5t204.5 -28q166 0 246 46.5t80 119.5q0 78 -63.5 119t-262.5 102q-156 45 -223.5 95.5t-67.5 117.5q0 82 78 123q-193 82 -192 222q0 113 107.5 182t311.5 69q121 0 219.5 -22.5t135.5 -44.5l37 -23l-52 -75q-12 10 -36.5 23 t-112.5 37t-191 24q-160 0 -238.5 -44.5t-78.5 -121.5q0 -72 66.5 -117t214.5 -86q332 -92 331 -232q0 -78 -69 -127q98 -45 142 -97t44 -124q0 -106 -104.5 -179t-319.5 -73q-129 0 -236.5 28t-150.5 56zM465 729q-23 4 -82 25q-66 -25 -66 -90q0 -41 52.5 -72t181.5 -70 l131 -45q53 35 53 94q0 45 -64.5 82t-205.5 76z" glyph-name="section" horiz-adv-x="1036" unicode="§"/><glyph d="M170 1444q0 31 22.5 53.5t51 22.5t52 -22.5t23.5 -53.5t-23.5 -53.5t-52 -22.5t-51 22.5t-22.5 53.5zM465 1444q0 31 22.5 53.5t53.5 22.5q29 0 51 -22.5t22 -53.5t-22.5 -53.5t-50.5 -22.5q-31 0 -53.5 22.5t-22.5 53.5z" glyph-name="dieresis" horiz-adv-x="854" unicode="¨"/><glyph d="M713 1233q279 0 445.5 -178t166.5 -442.5t-167 -442.5t-445 -178q-276 0 -444.5 179t-168.5 441t168.5 441.5t444.5 179.5zM713 1171q-248 0 -396.5 -159.5t-148.5 -399.5q0 -238 148.5 -398.5t396.5 -160.5t398.5 161t150.5 398.5t-150.5 398t-398.5 160.5zM938 870 l-37 -53q-59 63 -176 63.5t-186.5 -75.5t-69.5 -190.5t69.5 -190.5t186.5 -76q49 0 93 16.5t63 32.5l20 15l37 -54q-8 -8 -23.5 -20t-71 -33.5t-120.5 -21.5q-150 0 -238 94t-88 237q0 141 88 237.5t238 96.5q66 0 120 -19.5t75 -39.5z" glyph-name="copyright" horiz-adv-x="1425" unicode="©"/><glyph d="M92 760q0 98 76 156.5t203 58.5q174 0 239 -88v53q0 121 -48 184.5t-173 63.5q-27 0 -55.5 -3t-49 -9.5t-41 -12.5t-32.5 -11t-23 -9l-8 -4l-26 65q113 53 245 53q160 0 225.5 -82.5t65.5 -236.5v-377h-55l-14 98h-5q-57 -115 -256 -114q-121 0 -194.5 59.5t-73.5 155.5z M170 759.5q0 -69.5 56.5 -111.5t148.5 -42q109 0 172 47t63 111v6q-4 63 -66.5 103t-162.5 40q-96 0 -153.5 -42t-57.5 -111.5z" glyph-name="ordfeminine" horiz-adv-x="825" unicode="ª"/><glyph d="M96 408v38l226 351h79v-17l-221 -348v-6l221 -354v-17h-79zM424 408v38l225 351h80v-17l-221 -348v-6l221 -354v-17h-80z" glyph-name="guillemotleft" horiz-adv-x="837" unicode="«"/><glyph d="M109 631v78h882v-709h-78v631h-804z" glyph-name="logicalnot" horiz-adv-x="1134" unicode="¬"/><glyph d="M1038 778.5q0 -200.5 -128 -337t-339 -136.5q-209 0 -335.5 137.5t-126.5 335.5q0 201 126.5 338t335.5 137q211 0 339 -137t128 -337.5zM973 778q0 176 -110.5 294t-291.5 118q-176 0 -285.5 -117t-109.5 -295q0 -174 109.5 -292.5t285.5 -118.5q180 0 291 117.5 t111 293.5zM403 993h181q78 0 121 -37.5t43 -101.5q0 -92 -84 -129l96 -129v-16h-55l-101 131h-143v-131h-58v413zM584 938h-123v-172h121q49 0 77.5 23.5t28.5 64.5q0 84 -104 84z" glyph-name="registered" horiz-adv-x="1146" unicode="®"/><glyph d="M254 1368v66h545v-66h-545z" glyph-name="macron" horiz-adv-x="1034" unicode="¯"/><glyph d="M317.5 1374q102.5 0 165 -61.5t62.5 -155.5t-62.5 -155.5t-165 -61.5t-166 61.5t-63.5 155.5t63.5 155.5t166 61.5zM317.5 1317q-73.5 0 -119.5 -46t-46 -113.5t46 -113t119.5 -45.5t118.5 45.5t45 113t-45 113.5t-118.5 46z" glyph-name="degree" horiz-adv-x="634" unicode="°"/><glyph d="M604 371h-78v374h-374v78h374v379h78v-379h365v-78h-365v-374zM969 217v-78h-817v78h817z" glyph-name="plusminus" horiz-adv-x="1120" unicode="±"/><glyph d="M115 700v58l315 270q86 74 86 152q0 141 -166 141q-49 0 -97 -19.5t-65.5 -33t-25.5 -21.5l-37 53q10 10 28.5 24.5t78 38t120.5 23.5q121 0 177.5 -56t56.5 -148q0 -115 -103 -199l-260 -219h391v-64h-499z" glyph-name="uni00B2" horiz-adv-x="733" unicode="²"/><glyph d="M121 1305v63h450v-57l-174 -217q98 -4 151.5 -55.5t53.5 -141.5q0 -92 -66.5 -152.5t-189.5 -60.5q-66 0 -129 24.5t-85.5 42t-33.5 27.5l41 51q84 -82 207 -81q88 0 136 43t48 108.5t-42 101t-121 35.5h-64v51l180 218h-362z" glyph-name="uni00B3" horiz-adv-x="700" unicode="³"/><glyph d="M375 1294l-164 -276h-64l113 293z" glyph-name="acute" horiz-adv-x="524" unicode="´"/><glyph d="M872 860v-860h-57l-18 154h-4q-104 -174 -316 -174q-168 0 -260 114l2 -426h-86v662q-2 16 -2 51v479h88v-471q0 -150 68.5 -242t204.5 -92q139 0 213.5 89t78.5 188v528h88z" glyph-name="uni00B5" horiz-adv-x="1007" unicode="µ"/><glyph d="M772 -168v512h-190q-236 0 -375 118t-139 333q0 207 137 321.5t375 114.5h282v-1399h-90z" glyph-name="paragraph" horiz-adv-x="1013" unicode="¶"/><glyph d="M125 737.5q0 32.5 22.5 55t53.5 22.5q33 0 55.5 -22.5t22.5 -55t-23 -54t-55 -21.5q-31 0 -53.5 21.5t-22.5 54z" glyph-name="periodcentered" horiz-adv-x="403" unicode="·"/><glyph d="M160 -125l-21 27l47 104h62l-35 -78q63 0 102 -32.5t39 -96.5q0 -61 -42 -99t-117 -38q-41 0 -75 13.5t-48 25.5l-15 12l29 43q41 -39 109 -39q102 0 102 84q0 37 -27.5 57.5t-70.5 20.5z" glyph-name="cedilla" horiz-adv-x="421" unicode="¸"/><glyph d="M47 1305v63h232v-668h-72v605h-160z" glyph-name="uni00B9" horiz-adv-x="417" unicode="¹"/><glyph d="M430 1255q147 0 241.5 -96t94.5 -258q0 -156 -94 -252t-241.5 -96t-243 96t-95.5 252q0 162 94 258t244 96zM430 1184q-115 0 -186.5 -77t-71.5 -204t71.5 -202.5t186.5 -75.5t186.5 75.5t71.5 202.5t-71.5 204t-186.5 77z" glyph-name="ordmasculine" horiz-adv-x="858" unicode="º"/><glyph d="M414 446v-38l-226 -353h-82v17l224 354v6l-224 348v17h82zM741 446v-38l-225 -353h-82v17l223 354v6l-223 348v17h82z" glyph-name="guillemotright" horiz-adv-x="835" unicode="»"/><glyph d="M621 195v49l374 424l4 -2l2 2h46v-412h127v-61h-127v-195h-68v195h-358zM168 0h-86l965 1229h88zM76 1165v64h231v-668h-71v604h-160zM707 252v-2l133 6h139v299h-4l-191 -217z" glyph-name="onequarter" horiz-adv-x="1253" unicode="¼"/><glyph d="M815 57l315 271q84 72 84 151q0 141 -163 142q-49 0 -97.5 -19.5t-66 -33t-25.5 -21.5l-37 53l27 23q25 20 82 41.5t119 21.5q119 0 176 -56.5t57 -148.5q0 -117 -102 -198l-260 -220h391v-63h-500v57zM164 0h-86l964 1229h88zM82 1165v64h229v-668h-71v604h-158z" glyph-name="onehalf" horiz-adv-x="1390" unicode="½"/><glyph d="M840 195v49l374 424l5 -2l2 2h45v-412h127v-61h-127v-195h-68v195h-358zM106 1165v64h451v-58l-174 -217q98 -4 151.5 -55t53.5 -141q0 -92 -66.5 -152.5t-189.5 -60.5q-66 0 -129.5 24.5t-86 42t-32.5 27.5l41 51q82 -82 207 -82q88 0 136 43t48 108.5t-42 101.5 t-122 36h-63v51l180 217h-363zM356 0h-86l965 1229h88zM926 252v-2l133 6h139v299h-2l-192 -217z" glyph-name="threequarters" horiz-adv-x="1464" unicode="¾"/><glyph d="M735 -213l39 -74q-12 -10 -36.5 -27.5t-107.5 -45t-175 -27.5q-178 0 -281.5 84t-103.5 229q0 84 33.5 150.5t83 109.5t98.5 81t85 86t38 104l4 108h59v-125q0 -61 -31.5 -113.5t-78 -92t-91.5 -80.5t-76.5 -97.5t-31.5 -122.5q0 -106 77.5 -170.5t215.5 -64.5 q80 0 149.5 21.5t100.5 43.5zM512 811q0 -31 -21.5 -53.5t-52 -22.5t-53.5 22.5t-23 53.5t23 53.5t53.5 22.5t52 -22.5t21.5 -53.5z" glyph-name="questiondown" horiz-adv-x="827" unicode="¿"/><glyph d="M641 1229l514 -1229h-94l-133 322h-660l-133 -322h-94l514 1229h86zM598 1118l-295 -712h590zM563 1300l-164 277l115 16l113 -293h-64z" glyph-name="Agrave" unicode="À"/><glyph d="M641 1229l514 -1229h-94l-133 322h-660l-133 -322h-94l514 1229h86zM598 1118l-295 -712h590zM795 1577l-164 -277h-64l113 293z" glyph-name="Aacute" unicode="Á"/><glyph d="M641 1229l514 -1229h-94l-133 322h-660l-133 -322h-94l514 1229h86zM598 1118l-295 -712h590zM719 1368l-121 158l-121 -158h-86l162 223h86l166 -223h-86z" glyph-name="Acircumflex" unicode="Â"/><glyph d="M641 1229l514 -1229h-94l-133 322h-660l-133 -322h-94l514 1229h86zM598 1118l-295 -712h590zM741 1368q-59 0 -148 58.5t-128 58.5q-43 0 -61.5 -22.5t-30.5 -65.5l-8 -27l-64 6l8 43q29 139 148 140q57 0 146 -59.5t130 -59.5q45 0 64.5 23.5t29.5 66.5l7 26l63 -8 l-6 -39q-29 -141 -150 -141z" glyph-name="Atilde" unicode="Ã"/><glyph d="M641 1229l514 -1229h-94l-133 322h-660l-133 -322h-94l514 1229h86zM598 1118l-295 -712h590zM377 1444q0 31 22.5 53.5t51 22.5t52 -22.5t23.5 -53.5t-23.5 -53.5t-52 -22.5t-51 22.5t-22.5 53.5zM672 1444q0 31 22.5 53.5t53.5 22.5q29 0 51 -22.5t22 -53.5 t-22.5 -53.5t-50.5 -22.5q-31 0 -53.5 22.5t-22.5 53.5z" glyph-name="Adieresis" unicode="Ä"/><glyph d="M641 1229l514 -1229h-94l-133 322h-660l-133 -322h-94l514 1229h86zM598 1118l-295 -712h590zM410 1421.5q0 73.5 53 117.5t135 44t134 -44t52 -117.5t-52 -117.5t-134 -44t-135 44t-53 117.5zM717 1421.5q0 98.5 -119 98.5q-55 0 -88 -26t-33 -73t33 -72.5t88 -25.5 q119 0 119 98.5z" glyph-name="Aring" unicode="Å"/><glyph d="M-2 0l856 1229h844v-84h-746v-481h647v-84h-647v-496h746v-84h-836v322h-534l-222 -322h-108zM850 1077l-463 -671h475v671h-12z" glyph-name="AE" horiz-adv-x="1785" unicode="Æ"/><glyph d="M612 -129l-20 27l35 77q-236 27 -384.5 205t-148.5 430q0 276 171 460.5t435 184.5q76 0 145.5 -16t115 -39.5t79 -48.5t50.5 -41l14 -16l-51 -68q-14 16 -41 40t-118 63.5t-192 39.5q-225 0 -370.5 -162.5t-145.5 -396.5q0 -229 145.5 -391t370.5 -162q100 0 187.5 37 t126.5 74l37 37l51 -70q-6 -6 -16.5 -17.5t-48.5 -40t-81 -50t-112.5 -39t-145.5 -17.5q-2 0 -7 1t-7 1l-20 -49q63 0 102 -32.5t39 -96.5q0 -61 -42 -99t-118 -38q-41 0 -74.5 13.5t-48.5 25.5l-14 12l29 43q41 -39 108 -39q102 0 103 84q0 37 -28 57.5t-71 20.5z" glyph-name="Ccedilla" horiz-adv-x="1169" unicode="Ç"/><glyph d="M920 664v-84h-648v-496h746v-84h-836v1229h836v-84h-746v-481h648zM582 1298l-164 277l114 16l113 -293h-63z" glyph-name="Egrave" horiz-adv-x="1105" unicode="È"/><glyph d="M791 1577l-164 -277h-64l113 293zM920 664v-84h-648v-496h746v-84h-836v1229h836v-84h-746v-481h648z" glyph-name="Eacute" horiz-adv-x="1105" unicode="É"/><glyph d="M727 1368l-121 158l-121 -158h-86l162 223h86l166 -223h-86zM920 664v-84h-648v-496h746v-84h-836v1229h836v-84h-746v-481h648z" glyph-name="Ecircumflex" horiz-adv-x="1105" unicode="Ê"/><glyph d="M381 1444q0 31 22.5 53.5t51 22.5t52 -22.5t23.5 -53.5t-23.5 -53.5t-52 -22.5t-51 22.5t-22.5 53.5zM676 1444q0 31 22.5 53.5t53.5 22.5q29 0 51 -22.5t22 -53.5t-22.5 -53.5t-50.5 -22.5q-31 0 -53.5 22.5t-22.5 53.5zM920 664v-84h-648v-496h746v-84h-836v1229h836 v-84h-746v-481h648z" glyph-name="Edieresis" horiz-adv-x="1105" unicode="Ë"/><glyph d="M272 1229v-1229h-90v1229h90zM193 1300l-164 277l114 16l113 -293h-63z" glyph-name="Igrave" horiz-adv-x="454" unicode="Ì"/><glyph d="M272 1229v-1229h-90v1229h90zM424 1577l-164 -277h-63l112 293z" glyph-name="Iacute" horiz-adv-x="454" unicode="Í"/><glyph d="M272 1229v-1229h-90v1229h90zM350 1368l-121 158l-120 -158h-86l161 223h86l166 -223h-86z" glyph-name="Icircumflex" horiz-adv-x="454" unicode="Î"/><glyph d="M272 1229v-1229h-90v1229h90zM6 1444q0 31 22.5 53.5t51.5 22.5t52.5 -22.5t23.5 -53.5t-23.5 -53.5t-52.5 -22.5t-51.5 22.5t-22.5 53.5zM301 1444q0 31 22.5 53.5t53.5 22.5q29 0 51.5 -22.5t22.5 -53.5t-22.5 -53.5t-51.5 -22.5q-31 0 -53.5 22.5t-22.5 53.5z" glyph-name="Idieresis" horiz-adv-x="454" unicode="Ï"/><glyph d="M57 580v84h125v565h373q279 0 457 -166t178 -448.5t-178 -448.5t-457 -166h-373v580h-125zM553 1145h-281v-481h396v-84h-396v-496h281q233 0 389 144.5t156 386t-156 386t-389 144.5z" glyph-name="Eth" horiz-adv-x="1286" unicode="Ð"/><glyph d="M1180 1229v-1229h-80l-828 1081v-1081h-90v1229h80l828 -1079v1079h90zM831 1368q-59 0 -148 58.5t-128 58.5q-43 0 -61.5 -22.5t-30.5 -65.5l-8 -27l-64 6l8 43q29 139 148 140q57 0 146 -59.5t130 -59.5q45 0 64.5 23.5t30.5 66.5l6 26l63 -8l-6 -39 q-29 -141 -150 -141z" glyph-name="Ntilde" horiz-adv-x="1359" unicode="Ñ"/><glyph d="M694.5 -29q-268.5 0 -433.5 182.5t-165 456.5q0 279 165 462t433.5 183t434 -183t165.5 -462q0 -274 -165.5 -456.5t-434 -182.5zM694 57q233 0 370.5 161t137.5 392q0 238 -137 398.5t-371 160.5q-231 0 -368.5 -161.5t-137.5 -397.5q0 -231 138.5 -392t367.5 -161z M666 1368l-164 277l114 16l113 -293h-63z" glyph-name="Ograve" horiz-adv-x="1390" unicode="Ò"/><glyph d="M887 1645l-164 -277h-64l113 293zM694.5 -29q-268.5 0 -433.5 182.5t-165 456.5q0 279 165 462t433.5 183t434 -183t165.5 -462q0 -274 -165.5 -456.5t-434 -182.5zM694 57q233 0 370.5 161t137.5 392q0 238 -137 398.5t-371 160.5q-231 0 -368.5 -161.5t-137.5 -397.5 q0 -231 138.5 -392t367.5 -161z" glyph-name="Oacute" horiz-adv-x="1390" unicode="Ó"/><glyph d="M817 1368l-121 158l-121 -158h-86l162 223h86l166 -223h-86zM694.5 -29q-268.5 0 -433.5 182.5t-165 456.5q0 279 165 462t433.5 183t434 -183t165.5 -462q0 -274 -165.5 -456.5t-434 -182.5zM694 57q233 0 370.5 161t137.5 392q0 238 -137 398.5t-371 160.5 q-231 0 -368.5 -161.5t-137.5 -397.5q0 -231 138.5 -392t367.5 -161z" glyph-name="Ocircumflex" horiz-adv-x="1390" unicode="Ô"/><glyph d="M694.5 -29q-268.5 0 -433.5 182.5t-165 456.5q0 279 165 462t433.5 183t434 -183t165.5 -462q0 -274 -165.5 -456.5t-434 -182.5zM694 57q233 0 370.5 161t137.5 392q0 238 -137 398.5t-371 160.5q-231 0 -368.5 -161.5t-137.5 -397.5q0 -231 138.5 -392t367.5 -161z M836 1397q-59 0 -148.5 58t-128.5 58q-43 0 -61.5 -22.5t-30.5 -65.5l-8 -26l-64 6l8 43q29 139 148 139q57 0 146 -59.5t130 -59.5q45 0 64.5 24t30.5 67l6 26l63 -8l-6 -39q-28 -141 -149 -141z" glyph-name="Otilde" horiz-adv-x="1390" unicode="Õ"/><glyph d="M471 1444q0 31 22.5 53.5t51 22.5t52.5 -22.5t24 -53.5t-24 -53.5t-52.5 -22.5t-51 22.5t-22.5 53.5zM766 1444q0 31 22.5 53.5t53.5 22.5q29 0 51 -22.5t22 -53.5t-22.5 -53.5t-50.5 -22.5q-31 0 -53.5 22.5t-22.5 53.5zM694.5 -29q-268.5 0 -433.5 182.5t-165 456.5 q0 279 165 462t433.5 183t434 -183t165.5 -462q0 -274 -165.5 -456.5t-434 -182.5zM694 57q233 0 370.5 161t137.5 392q0 238 -137 398.5t-371 160.5q-231 0 -368.5 -161.5t-137.5 -397.5q0 -231 138.5 -392t367.5 -161z" glyph-name="Odieresis" horiz-adv-x="1390" unicode="Ö"/><glyph d="M188 227l-55 54l322 335l-322 338l55 54l320 -336l319 336l54 -54l-322 -338l322 -335l-54 -54l-319 334z" glyph-name="multiply" horiz-adv-x="1013" unicode="×"/><glyph d="M696 -29q-248 0 -411 160l-127 -131h-111l184 190q-133 174 -133 420q0 279 165 462t433 183q246 0 408 -155l123 129h112l-182 -189q139 -174 139 -430q0 -274 -166 -456.5t-434 -182.5zM696 57q233 0 370.5 161t137.5 392q0 211 -110 363l-748 -776q139 -140 350 -140z M190 610q0 -203 105 -352l745 776q-135 135 -344 135q-231 0 -368.5 -161.5t-137.5 -397.5z" glyph-name="Oslash" horiz-adv-x="1392" unicode="Ø"/><glyph d="M641 -27q-225 0 -351 145.5t-126 389.5v721h90v-721q0 -207 99.5 -329t287.5 -122q190 0 288.5 122t98.5 329v721h90v-721q0 -246 -125 -390.5t-352 -144.5zM608 1300l-164 277l115 16l113 -293h-64z" glyph-name="Ugrave" horiz-adv-x="1284" unicode="Ù"/><glyph d="M834 1577l-164 -277h-64l113 293zM641 -27q-225 0 -351 145.5t-126 389.5v721h90v-721q0 -207 99.5 -329t287.5 -122q190 0 288.5 122t98.5 329v721h90v-721q0 -246 -125 -390.5t-352 -144.5z" glyph-name="Uacute" horiz-adv-x="1284" unicode="Ú"/><glyph d="M764 1300l-121 158l-121 -158h-86l162 224h86l166 -224h-86zM641 -27q-225 0 -351 145.5t-126 389.5v721h90v-721q0 -207 99.5 -329t287.5 -122q190 0 288.5 122t98.5 329v721h90v-721q0 -246 -125 -390.5t-352 -144.5z" glyph-name="Ucircumflex" horiz-adv-x="1284" unicode="Û"/><glyph d="M422 1444q0 31 22.5 53.5t51 22.5t52 -22.5t23.5 -53.5t-23.5 -53.5t-52 -22.5t-51 22.5t-22.5 53.5zM717 1444q0 31 22.5 53.5t53.5 22.5q29 0 51 -22.5t22 -53.5t-22.5 -53.5t-50.5 -22.5q-31 0 -53.5 22.5t-22.5 53.5zM641 -27q-225 0 -351 145.5t-126 389.5v721h90 v-721q0 -207 99.5 -329t287.5 -122q190 0 288.5 122t98.5 329v721h90v-721q0 -246 -125 -390.5t-352 -144.5z" glyph-name="Udieresis" horiz-adv-x="1284" unicode="Ü"/><glyph d="M590 621l360 608h105l-461 -758v-471h-90v473l-459 756h107l362 -608l33 -68h6zM745 1610l-163 -277h-64l113 293z" glyph-name="Yacute" horiz-adv-x="1099" unicode="Ý"/><glyph d="M272 1229v-207h367q215 0 337 -108.5t122 -292.5q0 -193 -124 -305.5t-339 -112.5h-363v-203h-90v1229h90zM1006 618q0 147 -100.5 233.5t-268.5 86.5h-365v-649h365q170 0 269.5 86.5t99.5 242.5z" glyph-name="Thorn" horiz-adv-x="1163" unicode="Þ"/><glyph d="M479 575v70q131 8 201 79t70 183q0 104 -71 177t-181 73q-113 0 -186.5 -78t-73.5 -207v-872h-88v864q0 174 96 273.5t260 99.5q150 0 244 -94t94 -238q0 -100 -49.5 -174t-137.5 -108q102 -29 162 -111t60 -193q0 -154 -99.5 -244.5t-267.5 -90.5q-43 0 -82 6t-57 10 l-17 6l17 72q53 -18 141 -19q121 0 196.5 74t75.5 184q0 117 -77.5 187.5t-198.5 70.5h-31z" glyph-name="germandbls" horiz-adv-x="972" unicode="ß"/><glyph d="M809 516v-516h-61l-13 152h-6q-43 -76 -131 -124t-199 -48q-158 0 -242.5 75.5t-84.5 190.5q0 119 96 195.5t287 76.5q156 0 270 -53v53q0 283 -289 283q-61 0 -125.5 -17.5t-97.5 -35.5l-35 -19l-35 76q127 76 303 76q184 0 273.5 -97.5t89.5 -267.5zM725 299v90 q-113 59 -262 60q-156 0 -228.5 -55.5t-72.5 -145.5q0 -84 63.5 -139.5t184.5 -55.5q133 0 224 81t91 165zM434 1018l-164 276l115 17l113 -293h-64z" glyph-name="agrave" horiz-adv-x="950" unicode="à"/><glyph d="M809 516v-516h-61l-13 152h-6q-43 -76 -131 -124t-199 -48q-158 0 -242.5 75.5t-84.5 190.5q0 119 96 195.5t287 76.5q156 0 270 -53v53q0 283 -289 283q-61 0 -125.5 -17.5t-97.5 -35.5l-35 -19l-35 76q127 76 303 76q184 0 273.5 -97.5t89.5 -267.5zM725 299v90 q-113 59 -262 60q-156 0 -228.5 -55.5t-72.5 -145.5q0 -84 63.5 -139.5t184.5 -55.5q133 0 224 81t91 165zM674 1294l-164 -276h-64l113 293z" glyph-name="aacute" horiz-adv-x="950" unicode="á"/><glyph d="M809 516v-516h-61l-13 152h-6q-43 -76 -131 -124t-199 -48q-158 0 -242.5 75.5t-84.5 190.5q0 119 96 195.5t287 76.5q156 0 270 -53v53q0 283 -289 283q-61 0 -125.5 -17.5t-97.5 -35.5l-35 -19l-35 76q127 76 303 76q184 0 273.5 -97.5t89.5 -267.5zM725 299v90 q-113 59 -262 60q-156 0 -228.5 -55.5t-72.5 -145.5q0 -84 63.5 -139.5t184.5 -55.5q133 0 224 81t91 165zM571 1018l-120 158l-121 -158h-86l162 223h86l165 -223h-86z" glyph-name="acircumflex" horiz-adv-x="950" unicode="â"/><glyph d="M809 516v-516h-61l-13 152h-6q-43 -76 -131 -124t-199 -48q-158 0 -242.5 75.5t-84.5 190.5q0 119 96 195.5t287 76.5q156 0 270 -53v53q0 283 -289 283q-61 0 -125.5 -17.5t-97.5 -35.5l-35 -19l-35 76q127 76 303 76q184 0 273.5 -97.5t89.5 -267.5zM725 299v90 q-113 59 -262 60q-156 0 -228.5 -55.5t-72.5 -145.5q0 -84 63.5 -139.5t184.5 -55.5q133 0 224 81t91 165zM592 1020q-59 0 -148.5 58.5t-128.5 58.5q-43 0 -61 -22.5t-31 -65.5l-8 -27l-63 6l8 43q29 139 147 139q57 0 146.5 -59t130.5 -59q45 0 64.5 23.5t29.5 66.5l6 26 l64 -8l-7 -39q-28 -141 -149 -141z" glyph-name="atilde" horiz-adv-x="950" unicode="ã"/><glyph d="M809 516v-516h-61l-13 152h-6q-43 -76 -131 -124t-199 -48q-158 0 -242.5 75.5t-84.5 190.5q0 119 96 195.5t287 76.5q156 0 270 -53v53q0 283 -289 283q-61 0 -125.5 -17.5t-97.5 -35.5l-35 -19l-35 76q127 76 303 76q184 0 273.5 -97.5t89.5 -267.5zM725 299v90 q-113 59 -262 60q-156 0 -228.5 -55.5t-72.5 -145.5q0 -84 63.5 -139.5t184.5 -55.5q133 0 224 81t91 165zM231 1093.5q0 30.5 22.5 53t51.5 22.5t52.5 -22.5t23.5 -53t-23.5 -53t-52.5 -22.5t-51.5 22.5t-22.5 53zM526 1093.5q0 30.5 22.5 53t53.5 22.5q29 0 51.5 -22.5 t22.5 -53t-22.5 -53t-51.5 -22.5q-31 0 -53.5 22.5t-22.5 53z" glyph-name="adieresis" horiz-adv-x="950" unicode="ä"/><glyph d="M809 516v-516h-61l-13 152h-6q-43 -76 -131 -124t-199 -48q-158 0 -242.5 75.5t-84.5 190.5q0 119 96 195.5t287 76.5q156 0 270 -53v53q0 283 -289 283q-61 0 -125.5 -17.5t-97.5 -35.5l-35 -19l-35 76q127 76 303 76q184 0 273.5 -97.5t89.5 -267.5zM725 299v90 q-113 59 -262 60q-156 0 -228.5 -55.5t-72.5 -145.5q0 -84 63.5 -139.5t184.5 -55.5q133 0 224 81t91 165zM270 1179.5q0 73.5 53.5 117.5t135.5 44t134 -44t52 -117.5t-52 -117.5t-134 -44t-135.5 44t-53.5 117.5zM578 1179.5q0 98.5 -119 98.5q-55 0 -88 -25.5t-33 -72.5 t32.5 -73t88.5 -26q119 0 119 98.5z" glyph-name="aring" horiz-adv-x="950" unicode="å"/><glyph d="M1427 141l35 -67q-12 -10 -34.5 -25.5t-99.5 -42t-165 -26.5q-129 0 -229 57t-152 162q-47 -98 -144 -158.5t-230 -60.5q-166 0 -251 77.5t-85 192.5q0 123 97 199.5t280 76.5q154 0 280 -49v41q0 283 -287 283q-63 0 -127.5 -17.5t-97.5 -35.5l-33 -19l-37 76 q125 76 304 76q262 0 337 -201q106 201 338 201q182 0 282.5 -116t100.5 -304v-23h-690v-12q0 -172 100.5 -270.5t245.5 -98.5q74 0 139.5 20.5t94.5 41.5zM416 53q135 0 224 80t89 176v90q-121 57 -272 58q-295 0 -295 -209q0 -82 63.5 -138.5t190.5 -56.5zM1124 803 q-119 0 -198.5 -75t-100.5 -216h594q-10 133 -86 212t-209 79z" glyph-name="ae" horiz-adv-x="1587" unicode="æ"/><glyph d="M455 -139l-21 26l41 95q-170 12 -277.5 131.5t-107.5 312.5q0 203 119 329t303 126q80 0 145.5 -19.5t92.5 -38.5l24 -20l-31 -68q-88 70 -229 70q-137 0 -235.5 -103.5t-98.5 -275.5t97.5 -271.5t236.5 -99.5q63 0 120.5 17.5t82.5 33.5l26 19l29 -68q-78 -70 -235 -77 l-29 -66q63 0 102 -33t39 -96q0 -61 -42 -99t-118 -38q-41 0 -74.5 12t-47.5 25l-15 14l29 43q41 -39 108 -39q102 0 103 84q0 37 -27.5 57.5t-70.5 20.5z" glyph-name="ccedilla" horiz-adv-x="856" unicode="ç"/><glyph d="M776 141l37 -67q-12 -10 -34.5 -25.5t-100.5 -42t-166 -26.5q-188 0 -304 121.5t-116 324.5q0 207 109.5 331t285.5 124q174 0 272.5 -116t98.5 -304v-23h-678v-12q0 -172 95.5 -271.5t240.5 -99.5q74 0 139.5 21.5t94.5 42.5zM485 803q-119 0 -198.5 -75t-100.5 -216 h582q-10 131 -83 211t-200 80zM442 1018l-163 276l114 17l113 -293h-64z" glyph-name="egrave" horiz-adv-x="940" unicode="è"/><glyph d="M668 1294l-164 -276h-64l113 293zM776 141l37 -67q-12 -10 -34.5 -25.5t-100.5 -42t-166 -26.5q-188 0 -304 121.5t-116 324.5q0 207 109.5 331t285.5 124q174 0 272.5 -116t98.5 -304v-23h-678v-12q0 -172 95.5 -271.5t240.5 -99.5q74 0 139.5 21.5t94.5 42.5zM485 803 q-119 0 -198.5 -75t-100.5 -216h582q-10 131 -83 211t-200 80z" glyph-name="eacute" horiz-adv-x="940" unicode="é"/><glyph d="M598 1018l-121 158l-121 -158h-86l162 223h86l166 -223h-86zM776 141l37 -67q-12 -10 -34.5 -25.5t-100.5 -42t-166 -26.5q-188 0 -304 121.5t-116 324.5q0 207 109.5 331t285.5 124q174 0 272.5 -116t98.5 -304v-23h-678v-12q0 -172 95.5 -271.5t240.5 -99.5 q74 0 139.5 21.5t94.5 42.5zM485 803q-119 0 -198.5 -75t-100.5 -216h582q-10 131 -83 211t-200 80z" glyph-name="ecircumflex" horiz-adv-x="940" unicode="ê"/><glyph d="M254 1093.5q0 30.5 22.5 53t51 22.5t52 -22.5t23.5 -53t-23.5 -53t-52 -22.5t-51 22.5t-22.5 53zM549 1093.5q0 30.5 22.5 53t53.5 22.5q29 0 51 -22.5t22 -53t-22.5 -53t-50.5 -22.5q-31 0 -53.5 22.5t-22.5 53zM776 141l37 -67q-12 -10 -34.5 -25.5t-100.5 -42 t-166 -26.5q-188 0 -304 121.5t-116 324.5q0 207 109.5 331t285.5 124q174 0 272.5 -116t98.5 -304v-23h-678v-12q0 -172 95.5 -271.5t240.5 -99.5q74 0 139.5 21.5t94.5 42.5zM485 803q-119 0 -198.5 -75t-100.5 -216h582q-10 131 -83 211t-200 80z" glyph-name="edieresis" horiz-adv-x="940" unicode="ë"/><glyph d="M154 0v860h88v-860h-88zM164 1018l-164 276l115 17l112 -293h-63z" glyph-name="igrave" horiz-adv-x="397" unicode="ì"/><glyph d="M395 1294l-164 -276h-63l113 293zM154 0v860h88v-860h-88z" glyph-name="iacute" horiz-adv-x="397" unicode="í"/><glyph d="M322 1051l-121 157l-121 -157h-86l162 223h86l166 -223h-86zM154 0v860h88v-860h-88z" glyph-name="icircumflex" horiz-adv-x="397" unicode="î"/><glyph d="M-23 1124.5q0 30.5 23 53t51.5 22.5t52 -22.5t23.5 -53t-23.5 -53t-52 -22.5t-51.5 22.5t-23 53zM272 1124.5q0 30.5 22.5 53t53.5 22.5q29 0 51.5 -22.5t22.5 -53t-22.5 -53t-51.5 -22.5q-31 0 -53.5 22.5t-22.5 53zM154 0v860h88v-860h-88z" glyph-name="idieresis" horiz-adv-x="397" unicode="ï"/><glyph d="M508 -20q-184 0 -301 123.5t-117 326.5q0 201 117 326t301 125q100 0 180 -37q-16 16 -37 53l-151 242l-246 -152l-35 60l244 151l-174 279v14h84l157 -250l246 152l35 -60l-244 -151l238 -373q123 -203 123 -377v-2q0 -203 -117 -326.5t-303 -123.5zM840 430 q0 174 -95.5 274.5t-236.5 100.5t-234.5 -102.5t-93.5 -272.5q0 -168 94.5 -271.5t233.5 -103.5q141 0 236.5 100.5t95.5 274.5z" glyph-name="eth" horiz-adv-x="1019" unicode="ð"/><glyph d="M238 520v-520h-88v860h63l12 -155h6q111 176 316 176q166 0 260 -111t94 -291v-479h-88v471q0 147 -73.5 240.5t-211.5 93.5q-139 0 -214.5 -93.5t-75.5 -191.5zM666 1051q-59 0 -148.5 58t-128.5 58q-43 0 -61.5 -22.5t-30.5 -65.5l-8 -26l-64 6l8 43q29 139 148 139 q57 0 146 -59.5t130 -59.5q45 0 64.5 23.5t30.5 66.5l6 27l63 -8l-6 -39q-28 -141 -149 -141z" glyph-name="ntilde" horiz-adv-x="1038" unicode="ñ"/><glyph d="M938 426q0 -203 -122 -324.5t-302 -121.5q-182 0 -303 121.5t-121 324.5t122 329t302 126q178 0 301 -127t123 -328zM514 53q139 0 237.5 102.5t98.5 270.5q0 170 -99.5 275.5t-236.5 105.5t-236.5 -105.5t-99.5 -275.5q0 -168 98.5 -270.5t237.5 -102.5zM481 1018 l-164 276l115 17l113 -293h-64z" glyph-name="ograve" horiz-adv-x="1028" unicode="ò"/><glyph d="M707 1294l-164 -276h-64l113 293zM938 426q0 -203 -122 -324.5t-302 -121.5q-182 0 -303 121.5t-121 324.5t122 329t302 126q178 0 301 -127t123 -328zM514 53q139 0 237.5 102.5t98.5 270.5q0 170 -99.5 275.5t-236.5 105.5t-236.5 -105.5t-99.5 -275.5 q0 -168 98.5 -270.5t237.5 -102.5z" glyph-name="oacute" horiz-adv-x="1028" unicode="ó"/><glyph d="M635 1051l-121 157l-121 -157h-86l162 223h86l166 -223h-86zM938 426q0 -203 -122 -324.5t-302 -121.5q-182 0 -303 121.5t-121 324.5t122 329t302 126q178 0 301 -127t123 -328zM514 53q139 0 237.5 102.5t98.5 270.5q0 170 -99.5 275.5t-236.5 105.5t-236.5 -105.5 t-99.5 -275.5q0 -168 98.5 -270.5t237.5 -102.5z" glyph-name="ocircumflex" horiz-adv-x="1028" unicode="ô"/><glyph d="M938 426q0 -203 -122 -324.5t-302 -121.5q-182 0 -303 121.5t-121 324.5t122 329t302 126q178 0 301 -127t123 -328zM514 53q139 0 237.5 102.5t98.5 270.5q0 170 -99.5 275.5t-236.5 105.5t-236.5 -105.5t-99.5 -275.5q0 -168 98.5 -270.5t237.5 -102.5zM651 1051 q-59 0 -148 58t-128 58q-43 0 -61.5 -22.5t-30.5 -65.5l-9 -26l-63 6l8 43q29 139 148 139q57 0 146 -59.5t130 -59.5q45 0 64.5 23.5t29.5 66.5l6 27l64 -8l-6 -39q-29 -141 -150 -141z" glyph-name="otilde" horiz-adv-x="1028" unicode="õ"/><glyph d="M291 1126.5q0 30.5 22.5 53t51 22.5t52 -22.5t23.5 -53t-23.5 -53t-52 -22.5t-51 22.5t-22.5 53zM586 1126.5q0 30.5 22.5 53t53.5 22.5q29 0 51 -22.5t22 -53t-22.5 -53t-50.5 -22.5q-31 0 -53.5 22.5t-22.5 53zM938 426q0 -203 -122 -324.5t-302 -121.5 q-182 0 -303 121.5t-121 324.5t122 329t302 126q178 0 301 -127t123 -328zM514 53q139 0 237.5 102.5t98.5 270.5q0 170 -99.5 275.5t-236.5 105.5t-236.5 -105.5t-99.5 -275.5q0 -168 98.5 -270.5t237.5 -102.5z" glyph-name="odieresis" horiz-adv-x="1028" unicode="ö"/><glyph d="M424 329.5q0 32.5 22.5 55.5t55.5 23q31 0 54.5 -23t23.5 -55.5t-24 -55t-54 -22.5q-33 0 -55.5 22.5t-22.5 55zM424 891q0 33 22.5 56.5t55.5 23.5q31 0 54.5 -23.5t23.5 -56.5t-24 -55.5t-54 -22.5q-33 0 -55.5 22.5t-22.5 55.5zM131 565v78h739v-78h-739z" glyph-name="divide" horiz-adv-x="1001" unicode="÷"/><glyph d="M940 426q0 -203 -122 -324.5t-302 -121.5q-166 0 -283 100l-73 -80h-86l116 125q-98 121 -98 301q0 203 122 329t302 126q160 0 275 -103l77 82h84l-118 -125q106 -127 106 -309zM516 53q139 0 237.5 102.5t98.5 270.5q0 143 -78 248l-483 -531q94 -90 225 -90zM180 426 q0 -139 72 -238l481 531q-92 88 -217 88q-137 0 -236.5 -105.5t-99.5 -275.5z" glyph-name="oslash" horiz-adv-x="1030" unicode="ø"/><glyph d="M879 860v-860h-58l-18 154h-4q-104 -174 -316 -174q-166 0 -256 110.5t-90 290.5v479h88v-471q0 -150 68.5 -242t204.5 -92q139 0 213.5 89t79.5 188v528h88zM471 1018l-164 276l115 17l113 -293h-64z" glyph-name="ugrave" horiz-adv-x="1030" unicode="ù"/><glyph d="M696 1294l-164 -276h-63l113 293zM879 860v-860h-58l-18 154h-4q-104 -174 -316 -174q-166 0 -256 110.5t-90 290.5v479h88v-471q0 -150 68.5 -242t204.5 -92q139 0 213.5 89t79.5 188v528h88z" glyph-name="uacute" horiz-adv-x="1030" unicode="ú"/><glyph d="M621 1018l-121 158l-121 -158h-86l162 223h86l166 -223h-86zM879 860v-860h-58l-18 154h-4q-104 -174 -316 -174q-166 0 -256 110.5t-90 290.5v479h88v-471q0 -150 68.5 -242t204.5 -92q139 0 213.5 89t79.5 188v528h88z" glyph-name="ucircumflex" horiz-adv-x="1030" unicode="û"/><glyph d="M279 1093.5q0 30.5 22.5 53t51 22.5t52 -22.5t23.5 -53t-23.5 -53t-52 -22.5t-51 22.5t-22.5 53zM573 1093.5q0 30.5 22.5 53t53.5 22.5q29 0 51.5 -22.5t22.5 -53t-22.5 -53t-51.5 -22.5q-31 0 -53.5 22.5t-22.5 53zM879 860v-860h-58l-18 154h-4q-104 -174 -316 -174 q-166 0 -256 110.5t-90 290.5v479h88v-471q0 -150 68.5 -242t204.5 -92q139 0 213.5 89t79.5 188v528h88z" glyph-name="udieresis" horiz-adv-x="1030" unicode="ü"/><glyph d="M879 860l-584 -1179h-94l215 415l-383 764h100l311 -635q14 -39 15 -51h6q0 18 12 51l311 635h91zM655 1294l-163 -276h-64l113 293z" glyph-name="yacute" horiz-adv-x="903" unicode="ý"/><glyph d="M242 203h-4v-522h-88v1548h88v-570h4q2 8 9 23.5t33.5 53.5t61.5 68t98.5 53.5t137.5 23.5q172 0 287.5 -126t115.5 -325t-116.5 -324.5t-286.5 -125.5q-74 0 -136.5 22.5t-98.5 55t-61.5 66.5t-35.5 56zM233 430q0 -172 98.5 -273.5t238 -101.5t232.5 105.5t93 269.5 t-93 269.5t-232.5 105.5t-238 -101.5t-98.5 -273.5z" glyph-name="thorn" horiz-adv-x="1075" unicode="þ"/><glyph d="M879 860l-584 -1179h-94l215 415l-383 764h100l311 -635q14 -39 15 -51h6q0 18 12 51l311 635h91zM240 1093.5q0 30.5 22.5 53t51 22.5t52 -22.5t23.5 -53t-23.5 -53t-52 -22.5t-51 22.5t-22.5 53zM535 1093.5q0 30.5 22.5 53t52.5 22.5q29 0 51.5 -22.5t22.5 -53 t-22.5 -53t-51.5 -22.5q-31 0 -53 22.5t-22 53z" glyph-name="ydieresis" horiz-adv-x="903" unicode="ÿ"/><glyph d="M154 0v860h88v-860h-88z" glyph-name="dotlessi" horiz-adv-x="397" unicode="ı"/><glyph d="M37 502v76l149 92v559h90v-504l345 213v-76l-345 -213v-565h672v-84h-762v594z" glyph-name="Lslash" horiz-adv-x="993" unicode="Ł"/><glyph d="M43 465v72l143 88v614h88v-561l144 90v-70l-144 -90v-608h-88v553z" glyph-name="lslash" horiz-adv-x="454" unicode="ł"/><glyph d="M694 -29q-268 0 -433 182.5t-165 456.5q0 279 165 462t433 183q168 0 300 -76.5t210 -209.5v260h836v-84h-746v-481h648v-84h-648v-496h746v-84h-836v256q-78 -133 -209 -209t-301 -76zM694 57q233 0 370.5 161t137.5 392q0 238 -137 398.5t-371 160.5 q-231 0 -368.5 -161.5t-137.5 -397.5q0 -231 138.5 -392t367.5 -161z" glyph-name="OE" horiz-adv-x="2129" unicode="Œ"/><glyph d="M1534 141l37 -67q-12 -10 -35 -25.5t-100.5 -42t-165.5 -26.5q-131 0 -229.5 60t-147.5 171q-51 -109 -152.5 -170t-226.5 -61q-182 0 -303 121.5t-121 324.5t122 329t302 126q123 0 223.5 -62.5t153.5 -173.5q47 111 139 173.5t215 62.5q174 0 272.5 -116t98.5 -304v-23 h-678v-30q4 -164 99.5 -258.5t236.5 -94.5q74 0 139.5 21.5t93.5 42.5zM514 53q135 0 232.5 96.5t103.5 258.5v34q-6 162 -104.5 263.5t-231.5 101.5q-137 0 -236.5 -105.5t-99.5 -275.5q0 -168 98.5 -270.5t237.5 -102.5zM1243 803q-119 0 -198.5 -75t-100.5 -216h582 q-10 131 -83 211t-200 80z" glyph-name="oe" horiz-adv-x="1695" unicode="œ"/><glyph d="M393 1591l121 -157l121 157h86l-162 -223h-86l-166 223h86zM94 111l51 69q14 -14 42 -34.5t122 -54.5t199 -34q176 0 262 66.5t86 183.5q0 109 -83 168.5t-265 114.5q-104 31 -169 57.5t-125 66.5t-88 94t-28 126q0 150 116 235.5t306 85.5q125 0 223.5 -28.5 t135.5 -57.5l36 -28l-49 -76q-12 12 -37.5 29.5t-114.5 46t-194 28.5q-141 0 -235.5 -61t-94.5 -172q0 -98 81 -151.5t266 -108.5q211 -61 311 -142t100 -227q0 -150 -111.5 -242t-328.5 -92q-123 0 -226.5 35t-146.5 70z" glyph-name="Scaron" horiz-adv-x="1034" unicode="Š"/><glyph d="M297 1241l121 -158l121 158h86l-162 -223h-86l-166 223h86zM88 72l41 65q113 -80 285 -80q123 0 183 46.5t60 117.5q0 66 -58 106t-141 60.5t-167 44t-142.5 76.5t-58.5 139q0 106 79 170t230 64q88 0 165 -16.5t110 -33.5l33 -18l-35 -78q-100 68 -269 68 q-231 0 -231 -154q0 -63 58.5 -99t142.5 -54.5t167 -42t141 -80t58 -148.5q0 -109 -78.5 -176t-244.5 -67q-98 0 -180 22.5t-115 44.5z" glyph-name="scaron" horiz-adv-x="819" unicode="š"/><glyph d="M590 621l360 608h105l-461 -758v-471h-90v473l-459 756h107l362 -608l33 -68h6zM330 1444q0 31 22.5 53.5t51 22.5t52 -22.5t23.5 -53.5t-23.5 -53.5t-52 -22.5t-51 22.5t-22.5 53.5zM625 1444q0 31 22.5 53.5t52.5 22.5q29 0 51.5 -22.5t22.5 -53.5t-22.5 -53.5 t-51.5 -22.5q-31 0 -53 22.5t-22 53.5z" glyph-name="Ydieresis" horiz-adv-x="1099" unicode="Ÿ"/><glyph d="M399 1591l121 -157l121 157h86l-162 -223h-86l-166 223h86zM66 0v63l804 1082h-790v84h913v-64l-800 -1081h778v-84h-905z" glyph-name="Zcaron" horiz-adv-x="1054" unicode="Ž"/><glyph d="M297 1241l121 -158l121 158h86l-162 -223h-86l-166 223h86zM78 53l577 731h-575v76h692v-51l-573 -733h573v-76h-694v53z" glyph-name="zcaron" horiz-adv-x="849" unicode="ž"/><glyph d="M375 211l117 575h-173v74h189l16 80q31 154 122 231.5t226 77.5q41 0 78 -8t54 -16l14 -6l-37 -76q-43 25 -119 24q-201 0 -252 -227l-16 -80h291v-74h-307l-121 -596q-18 -94 -64.5 -143t-142.5 -49q-37 0 -71 9t-50 20l-16 10l28 72q43 -29 99 -29q59 0 89 30.5 t46 100.5z" glyph-name="florin" horiz-adv-x="1044" unicode="ƒ"/><glyph d="M479 1368l-121 158l-120 -158h-86l161 223h86l166 -223h-86z" glyph-name="circumflex" horiz-adv-x="698" unicode="ˆ"/><glyph d="M207 1591l121 -157l121 157h86l-162 -223h-86l-166 223h86z" glyph-name="caron" horiz-adv-x="665" unicode="ˇ"/><glyph d="M567 1669h76q-2 -135 -79 -218t-193 -83q-119 0 -196 82t-79 219h76q4 -102 57.5 -164.5t141.5 -62.5q86 0 140 61.5t56 165.5z" glyph-name="breve" horiz-adv-x="759" unicode="˘"/><glyph d="M338 1126q-39 0 -66.5 27t-27.5 68t27.5 68.5t66.5 27.5q41 0 68.5 -27.5t27.5 -68.5t-27.5 -68t-68.5 -27z" glyph-name="dotaccent" horiz-adv-x="673" unicode="˙"/><glyph d="M106 1421.5q0 73.5 53.5 117.5t135.5 44t134 -44t52 -117.5t-52 -117.5t-134 -44t-135.5 44t-53.5 117.5zM414 1421.5q0 98.5 -119 98.5q-55 0 -88 -26t-33 -73t33 -72.5t88 -25.5q119 0 119 98.5z" glyph-name="ring" horiz-adv-x="581" unicode="˚"/><glyph d="M301 -190l31 -43q-39 -43 -121 -43q-61 0 -99 34.5t-38 94.5q0 61 45 108t90 64l43 16l12 -39q-14 -4 -35.5 -14.5t-56.5 -47t-35 -79.5q0 -37 21.5 -58.5t58.5 -21.5q25 0 45.5 7t28.5 15z" glyph-name="ogonek" horiz-adv-x="393" unicode="˛"/><glyph d="M586 1368q-59 0 -148.5 58.5t-128.5 58.5q-43 0 -61.5 -22.5t-30.5 -65.5l-8 -27l-64 6l9 43q29 139 147 140q57 0 146.5 -59.5t130.5 -59.5q45 0 64.5 23.5t29.5 66.5l6 26l63 -8l-6 -39q-28 -141 -149 -141z" glyph-name="tilde" horiz-adv-x="911" unicode="˜"/><glyph d="M625 1182l-154 -324h-63l104 324h113zM358 1182l-155 -324h-62l105 324h112z" glyph-name="hungarumlaut" horiz-adv-x="811" unicode="˝"/><glyph d="M57 860h844v-76h-137v-784h-88v784h-391v-784h-88v784h-140v76z" glyph-name="pi" horiz-adv-x="958" unicode="π"/><glyph d="M131 551v78h664v-78h-664z" glyph-name="endash" horiz-adv-x="944" unicode="–"/><glyph d="M131 551v78h1200v-78h-1200z" glyph-name="emdash" horiz-adv-x="1482" unicode="—"/><glyph d="M113 946v21q0 102 56 171.5t161 90.5l16 -58q-72 -14 -114 -58t-44 -93q29 -2 50.5 -23.5t21.5 -50t-22.5 -51.5t-51.5 -23q-31 0 -52 22.5t-21 51.5z" glyph-name="quoteleft" horiz-adv-x="421" unicode="‘"/><glyph d="M106 932q72 12 114 56t44 95q-29 0 -49 20.5t-20 51.5t21.5 52.5t49.5 21.5q31 0 52.5 -21.5t21.5 -52.5v-20q0 -102 -56.5 -172t-160.5 -91z" glyph-name="quoteright" horiz-adv-x="434" unicode="’"/><glyph d="M274 53v-20q0 -102 -56 -171t-161 -89l-16 57q70 12 113 57t45 95q-29 2 -49.5 22.5t-20.5 48.5q0 31 21.5 52.5t50.5 21.5q31 0 52 -21.5t21 -52.5z" glyph-name="quotesinglbase" horiz-adv-x="403" unicode="‚"/><glyph d="M111 946v21q0 102 57 171.5t162 90.5l14 -58q-70 -14 -112 -58t-44 -93q29 -2 49.5 -23.5t20.5 -50t-21.5 -51.5t-52.5 -23q-29 0 -51 22.5t-22 51.5zM633 1171q-72 -14 -114 -58t-44 -93q29 -2 49.5 -23.5t20.5 -50t-21.5 -51.5t-52.5 -23q-29 0 -50.5 23t-21.5 51v21 q0 102 56.5 171.5t160.5 90.5z" glyph-name="quotedblleft" horiz-adv-x="706" unicode="“"/><glyph d="M340 1155v-20q0 -102 -56.5 -172t-160.5 -91l-17 60q70 14 112 57t44 94q-31 2 -50 21.5t-19 50.5t21.5 52.5t52 21.5t52 -21.5t21.5 -52.5zM627 1155v-20q0 -102 -56.5 -172t-160.5 -91l-17 60q72 12 114 56t44 95q-29 0 -50.5 20.5t-21.5 51.5t22.5 52.5t51.5 21.5 q31 0 52.5 -21.5t21.5 -52.5z" glyph-name="quotedblright" horiz-adv-x="718" unicode="”"/><glyph d="M272 53v-20q0 -102 -56 -171t-161 -89l-16 57q70 12 113 57t45 95q-29 2 -49.5 22.5t-20.5 48.5q0 31 21.5 52.5t50.5 21.5q31 0 52 -21.5t21 -52.5zM639 53v-20q0 -102 -56.5 -171t-160.5 -89l-16 57q70 12 112.5 57t44.5 95q-29 2 -49 22.5t-20 48.5q0 31 21.5 52.5 t49.5 21.5q31 0 52.5 -21.5t21.5 -52.5z" glyph-name="quotedblbase" horiz-adv-x="768" unicode="„"/><glyph d="M72 903v76h286v321h80v-321h287v-76h-287l-12 -575h-55l-13 575h-286z" glyph-name="dagger" horiz-adv-x="796" unicode="†"/><glyph d="M104 942v78h285v348h80v-348h287v-78h-287l-12 -242l12 -245h287v-78h-287v-377h-80v377h-285v78h285l12 245l-12 242h-285z" glyph-name="daggerdbl" horiz-adv-x="860" unicode="‡"/><glyph d="M303 584q53 0 90 -38t37 -89t-37 -88t-90 -37t-90 35.5t-37 89t37 90.5t90 37z" glyph-name="bullet" horiz-adv-x="606" unicode="•"/><glyph d="M127 65.5q0 34.5 24.5 59.5t59.5 25t59.5 -26t24.5 -58q0 -35 -24.5 -59.5t-59.5 -24.5t-59.5 24.5t-24.5 59zM543 65.5q0 34.5 24.5 59.5t57.5 25q35 0 59.5 -25t24.5 -59.5t-25 -59t-59.5 -24.5t-58 24.5t-23.5 59zM956 65.5q0 34.5 25 59.5t59 25q33 0 58.5 -26 t25.5 -58q0 -35 -24.5 -59.5t-59 -24.5t-59.5 24.5t-25 59z" glyph-name="ellipsis" horiz-adv-x="1251" unicode="…"/><glyph d="M338 1255q117 0 183.5 -88t66.5 -217q0 -127 -66.5 -216t-183.5 -89t-184.5 89t-67.5 216q0 129 66.5 217t185.5 88zM338 723q78 0 123 65.5t45 161.5q0 98 -45 164t-123 66q-80 0 -125 -64.5t-45 -165.5q0 -96 45 -161.5t125 -65.5zM1100 1229h102l-975 -1229h-102z M985 594q117 0 184.5 -88t67.5 -217q0 -127 -67.5 -216t-184.5 -89t-184.5 89t-67.5 216q0 129 67.5 217t184.5 88zM985 518q-78 0 -123 -65.5t-45 -163.5q0 -96 45 -162t123 -66q80 0 124 66t44 162q0 100 -44 164.5t-124 64.5zM1610 518q-78 0 -123 -65.5t-45 -163.5 q0 -96 45 -162t123 -66q80 0 125 66t45 162q0 100 -45 164.5t-125 64.5zM1610 594q119 0 186.5 -88t67.5 -217q0 -127 -69 -216t-185 -89q-115 0 -182.5 89t-67.5 216q0 129 67.5 217t182.5 88z" glyph-name="perthousand" horiz-adv-x="1929" unicode="‰"/><glyph d="M96 408v38l226 351h79v-17l-221 -348v-6l221 -354v-17h-79z" glyph-name="guilsinglleft" horiz-adv-x="509" unicode="‹"/><glyph d="M414 446v-38l-226 -353h-82v17l224 354v6l-224 348v17h82z" glyph-name="guilsinglright" horiz-adv-x="507" unicode="›"/><glyph d="M76 0h-86l1036 1325h88z" glyph-name="fraction" horiz-adv-x="1103" unicode="⁄"/><glyph d="M821 508v-74h-454q37 -168 137 -267t268 -99q82 0 151.5 31.5t98.5 62.5l29 31l47 -64q-4 -6 -12.5 -15.5t-38 -35t-64.5 -45t-92 -34.5t-121 -15q-203 0 -329 124.5t-167 325.5h-184v74h172q-6 51 -6 108q0 55 6 111h-172v74h184q41 199 167 321.5t329 122.5 q63 0 120.5 -14t94.5 -35.5t63.5 -43.5t38.5 -36l13 -14l-49 -68q-4 6 -11.5 14.5t-34 30t-56 39t-78 30.5t-99.5 13q-168 0 -268.5 -97t-134.5 -263h452v-74h-465q-6 -55 -6 -111q0 -57 6 -108h465z" glyph-name="Euro" horiz-adv-x="1200" unicode="€"/><glyph d="M758 575h-70v654h66l233 -340l238 340h65v-654h-71v531l-218 -311h-26l-217 313v-533zM555 1229v-64h-209v-590h-70v590h-206v64h485z" glyph-name="trademark" horiz-adv-x="1441" unicode="™"/><glyph d="M109 0v80h333q-152 70 -239.5 219.5t-87.5 323.5q0 262 163.5 447t450.5 185t452 -185t165 -447q0 -174 -89.5 -323.5t-240.5 -219.5h334v-80h-549v82q190 4 322 166t132 368q0 229 -141 391t-385 162t-385 -161.5t-141 -391.5q0 -207 133 -368.5t323 -165.5v-82h-550z " glyph-name="uni2126" horiz-adv-x="1458" unicode="Ω"/><glyph d="M508 -20q-184 0 -301 123.5t-117 326.5q0 201 117 326t301 125q100 0 180 -37q-16 16 -37 53l-362 580v14h84l432 -682q123 -203 123 -377v-2q0 -203 -117 -326.5t-303 -123.5zM840 430q0 174 -95.5 274.5t-236.5 100.5t-234.5 -102.5t-93.5 -272.5q0 -168 94.5 -271.5 t233.5 -103.5q141 0 236.5 100.5t95.5 274.5z" glyph-name="partialdiff" horiz-adv-x="1019" unicode="∂"/><glyph d="M57 0v25l553 1204h23l553 -1204v-25h-1129zM614 1061l-434 -981h877l-434 981h-9z" glyph-name="uni2206" horiz-adv-x="1243" unicode="∆"/><glyph d="M1087 1217v-1217h-90v1149h-761v-1149h-91v1217h9v12h923v-12h10z" glyph-name="product" horiz-adv-x="1232" unicode="∏"/><glyph d="M84 1229h723v-80h-608l399 -514v-41l-397 -514h606v-80h-723v80l416 526v15l-416 528v80z" glyph-name="summation" horiz-adv-x="905" unicode="∑"/><glyph d="M135 573v78h799v-78h-799z" glyph-name="minus" horiz-adv-x="1067" unicode="−"/><glyph d="M416 -393l-396 817h101l278 -592q31 -59 33 -84h4q4 29 31 84l657 1397h103l-781 -1622h-30z" glyph-name="radical" horiz-adv-x="1214" unicode="√"/><glyph d="M436 244q-150 0 -240 99t-90 243q0 141 90.5 241.5t239.5 100.5q117 0 197 -74t149 -203q139 276 342 277q141 0 236.5 -95.5t95.5 -246.5q0 -143 -89 -242.5t-243 -99.5q-117 0 -196.5 73.5t-147.5 200.5q-70 -129 -148.5 -201.5t-195.5 -72.5zM1120 852 q-100 0 -168.5 -70.5t-126.5 -195.5q61 -125 129 -196t166 -71q121 0 189.5 77t68.5 190q0 119 -73.5 192.5t-184.5 73.5zM440 319q100 0 169 72t128 195q-61 125 -128.5 195.5t-168.5 70.5q-119 0 -187.5 -77t-68.5 -189.5t68.5 -189.5t187.5 -77z" glyph-name="infinity" horiz-adv-x="1562" unicode="∞"/><glyph d="M244 -10v1122q0 217 180 217q33 0 64.5 -9t48.5 -17l14 -11l-31 -69q-41 27 -86 26q-102 0 -102 -143v-1122q0 -217 -178 -217q-33 0 -65 9t-48 19l-14 8l30 70q41 -27 86 -27q101 1 101 144z" glyph-name="integral" horiz-adv-x="577" unicode="∫"/><glyph d="M573 379q-57 0 -143 52t-121 52q-29 0 -48 -12t-26.5 -26.5t-15.5 -38.5l-6 -25l-72 6l9 45q29 129 149 129q57 0 143 -52t123 -52q41 0 58.5 21.5t27.5 58.5l6 24l72 -8l-6 -45q-25 -129 -150 -129zM573 762q-57 0 -143 52t-121 52q-29 0 -48 -12t-26.5 -27.5 t-15.5 -40.5l-6 -24l-72 8l9 45q29 129 149 129q57 0 143 -52t123 -52q66 0 86 78l6 24l72 -6l-6 -45q-25 -129 -150 -129z" glyph-name="approxequal" horiz-adv-x="864" unicode="≈"/><glyph d="M125 760v78h377l96 262l74 -25l-86 -237h207v-78h-236l-125 -342h361v-78h-390l-96 -268l-74 24l89 244h-197v78h225l123 342h-348z" glyph-name="notequal" horiz-adv-x="917" unicode="≠"/><glyph d="M594 494l-55 -58l-371 352v25l371 367l55 -58l-324 -321zM682 281v-78h-553v78h553z" glyph-name="lessequal" horiz-adv-x="800" unicode="≤"/><glyph d="M260 436l-55 58l325 307l-325 321l55 58l371 -367v-25zM119 203v78h551v-78h-551z" glyph-name="greaterequal" horiz-adv-x="798" unicode="≥"/><glyph d="M457 1229l325 -615l-325 -614h-56l-325 614l325 615h56zM180 612l242 -471h14l240 471l-240 475h-14z" glyph-name="lozenge" horiz-adv-x="858" unicode="◊"/></font>
</defs>
</svg>
