<?xml version="1.0" encoding="utf-8"?>
<!-- Generator: Adobe Illustrator 24.0.0, SVG Export Plug-In . SVG Version: 6.00 Build 0)  -->
<svg version="1.1" id="Layer_1" xmlns="http://www.w3.org/2000/svg" xmlns:xlink="http://www.w3.org/1999/xlink" x="0px" y="0px"
	 viewBox="0 0 72 66" style="enable-background:new 0 0 72 66;" xml:space="preserve">
<style type="text/css">
	.st0{fill-rule:evenodd;clip-rule:evenodd;fill:#2BB5E9;}
</style>
<path class="st0" d="M61.1,28.9L54,33l7.1,4.1c1.8,1,2.4,3.3,1.4,5.1c-1,1.8-3.3,2.4-5.1,1.4l-12.7-7.3c-0.8-0.5-1.4-1.3-1.7-2.1
	c-0.1-0.4-0.2-0.8-0.2-1.2c0-0.3,0.1-0.6,0.1-0.9c0.3-0.9,0.9-1.7,1.7-2.2l12.7-7.3c1.8-1,4.1-0.4,5.1,1.4
	C63.6,25.6,62.9,27.9,61.1,28.9z M54.4,48.7l-12.7-7.3C41,41,40.2,40.9,39.5,41c-1.9,0.1-3.5,1.8-3.5,3.7v14.6
	c0,2.1,1.7,3.7,3.7,3.7c2.1,0,3.8-1.7,3.8-3.7v-8.2l7.1,4.1c1.8,1,4.1,0.4,5.1-1.4C56.8,52.1,56.2,49.8,54.4,48.7z M39.7,34.4
	l-5.3,5.3C34.3,39.8,34,40,33.8,40h-0.4h-0.8h-0.4c-0.2,0-0.5-0.1-0.7-0.3l-5.3-5.3C26.1,34.3,26,34,26,33.8v-0.4v-0.8v-0.4
	c0-0.2,0.1-0.5,0.3-0.7l5.3-5.3c0.2-0.2,0.5-0.3,0.7-0.3h0.4h0.8h0.4c0.2,0,0.5,0.1,0.7,0.3l5.3,5.3c0.2,0.2,0.3,0.4,0.3,0.7v0.4
	v0.8v0.4C40,34,39.9,34.3,39.7,34.4z M35.5,33c0-0.2-0.1-0.5-0.3-0.7l-1.5-1.5c-0.2-0.2-0.4-0.3-0.7-0.3H33c-0.2,0-0.5,0.1-0.7,0.3
	l-1.5,1.5c-0.2,0.2-0.3,0.5-0.3,0.7V33c0,0.2,0.1,0.5,0.3,0.7l1.5,1.5c0.2,0.2,0.4,0.3,0.7,0.3H33c0.2,0,0.5-0.1,0.7-0.3l1.5-1.5
	C35.4,33.5,35.5,33.2,35.5,33L35.5,33z M11.6,17.2l12.7,7.3c0.7,0.4,1.4,0.5,2.2,0.5c1.9-0.1,3.5-1.8,3.5-3.7V6.7
	c0-2.1-1.7-3.7-3.7-3.7c-2.1,0-3.8,1.7-3.8,3.7v8.2l-7.1-4.1c-1.8-1-4.1-0.4-5.1,1.4C9.2,13.9,9.8,16.2,11.6,17.2z M39.5,25
	c0.7,0.1,1.5-0.1,2.2-0.5l12.7-7.3c1.8-1,2.4-3.3,1.4-5.1c-1-1.8-3.3-2.4-5.1-1.4l-7.1,4.1V6.7c0-2.1-1.7-3.7-3.8-3.7
	C37.7,3,36,4.6,36,6.7v14.6C36,23.3,37.6,24.9,39.5,25z M26.5,41c-0.7-0.1-1.5,0.1-2.2,0.5l-12.7,7.3c-1.8,1-2.4,3.3-1.4,5.1
	c1,1.8,3.3,2.4,5.1,1.4l7.1-4.1v8.2c0,2.1,1.7,3.7,3.8,3.7c2.1,0,3.7-1.7,3.7-3.7V44.7C29.9,42.7,28.4,41.1,26.5,41z M23,34.1
	c0.1-0.4,0.2-0.8,0.2-1.2c0-0.3-0.1-0.6-0.1-0.9c-0.3-0.9-0.8-1.7-1.7-2.2L8.6,22.5c-1.8-1-4.1-0.4-5.1,1.4c-1,1.8-0.4,4.1,1.4,5.1
	l7.1,4.1l-7.1,4.1c-1.8,1-2.4,3.3-1.4,5.1c1,1.8,3.3,2.4,5.1,1.4l12.7-7.3C22.2,35.7,22.8,35,23,34.1z M63.2,9.8h-0.6v0.7h0.6
	c0.3,0,0.4-0.1,0.4-0.3C63.7,10,63.5,9.8,63.2,9.8z M61.9,9.2h1.3c0.7,0,1.2,0.4,1.2,1c0,0.4-0.2,0.6-0.5,0.8l0.5,0.7v0.1h-0.7
	l-0.5-0.7h-0.6v0.7h-0.7V9.2z M65.5,10.6c0-1.4-1-2.5-2.4-2.5c-1.4,0-2.4,1-2.4,2.5c0,1.4,1,2.5,2.4,2.5
	C64.6,13.1,65.5,12,65.5,10.6z M66.1,10.6c0,1.7-1.1,3.1-3,3.1c-1.9,0-3-1.4-3-3.1c0-1.7,1.1-3.1,3-3.1C65,7.5,66.1,8.9,66.1,10.6z"
	/>
</svg>
