<?xml version="1.0" encoding="UTF-8"?>
<svg width="226px" height="51px" viewBox="0 0 226 51" version="1.1" xmlns="http://www.w3.org/2000/svg" xmlns:xlink="http://www.w3.org/1999/xlink">
    <title>Logo / White</title>
    <defs>
        <polygon id="path-1" points="0.000106735187 0 225.786788 0 225.786788 51.0152765 0.000106735187 51.0152765"></polygon>
    </defs>
    <g id="Components" stroke="none" stroke-width="1" fill="none" fill-rule="evenodd">
        <g id="Logos" transform="translate(-141.000000, -326.000000)">
            <g id="Logo-/-White" transform="translate(141.000000, 326.000000)">
                <mask id="mask-2" fill="white">
                    <use xlink:href="#path-1"></use>
                </mask>
                <g id="Clip-2"></g>
                <path d="M139.668195,15.9632477 L139.661533,15.959213 C139.661533,15.959213 139.658202,15.9566454 139.653761,15.9566454 C139.500531,15.8902555 139.332497,15.8557768 139.170754,15.8557768 C138.90908,15.8576108 138.658138,15.9350045 138.439027,16.0707186 C138.215845,16.2108343 138.027084,16.4151391 137.918639,16.6707952 L137.918639,16.6770307 L132.809135,30.5356455 L128.87106,21.2465626 L128.865138,21.2425279 C128.754472,20.982837 128.556088,20.7822002 128.331055,20.6424513 C128.103801,20.5023356 127.841757,20.4253087 127.566017,20.4253087 C127.298051,20.4253087 127.04822,20.5085711 126.827628,20.6442853 C126.610368,20.7840342 126.414204,20.982837 126.303909,21.2425279 L126.301318,21.2465626 L122.35547,30.5415143 L117.218577,16.689135 L117.214506,16.689135 C117.124937,16.4213746 116.942468,16.2126683 116.725578,16.0747534 C116.504986,15.9350045 116.247013,15.8576108 115.980897,15.8557768 C115.811382,15.8557768 115.639646,15.8902555 115.477534,15.9566454 L115.469761,15.9566454 L115.463839,15.9632477 C114.984904,16.1844251 114.69251,16.658691 114.690659,17.1755051 C114.690659,17.3379953 114.72323,17.4997519 114.78615,17.6600413 L114.784669,17.6600413 L121.103355,34.4746568 L121.103355,34.4805256 C121.152581,34.6059694 121.221793,34.7299462 121.324317,34.8517221 C121.39797,34.9386525 121.506786,35.0120115 121.618932,35.0728995 C121.639659,35.0927064 121.672229,35.1209496 121.721085,35.1513936 C121.774012,35.1840383 121.842114,35.2067796 121.911327,35.2185171 C122.023843,35.2555634 122.173372,35.3094822 122.373606,35.3094822 C122.629359,35.3094822 122.866606,35.2185171 123.079425,35.0828029 C123.278179,34.9511235 123.455837,34.7541546 123.553918,34.4988653 L123.570204,34.4867611 L127.566017,25.020883 L131.567013,34.4482476 L131.571084,34.4482476 C131.663244,34.6995022 131.825356,34.8964711 132.013007,35.03622 C132.211761,35.1840383 132.434203,35.2753703 132.66997,35.3094822 L132.837634,35.3094822 C132.997526,35.3094822 133.152606,35.279405 133.283258,35.2287873 C133.420573,35.1763356 133.531239,35.1070114 133.623028,35.0384207 C133.837698,34.8759306 134.003512,34.6529192 134.106035,34.4053326 L134.106035,34.3998307 L140.384377,17.6600413 C140.445817,17.4997519 140.478018,17.3398293 140.478018,17.1780727 C140.476537,16.6649265 140.171188,16.1763556 139.668195,15.9632477 L139.668195,15.9632477 Z M110.782934,25.5626392 C110.782934,23.5881818 110.017896,21.7996895 108.800942,20.5085711 C107.577326,19.2148852 105.9203,18.4240752 104.120407,18.4240752 C102.319774,18.4240752 100.659046,19.2148852 99.4376508,20.5085711 C98.218106,21.7996895 97.4530683,23.5881818 97.4530683,25.5626392 C97.4530683,27.5352626 98.218106,29.3068823 99.4376508,30.5899312 C100.659046,31.8777484 102.319774,32.6560873 104.120407,32.6560873 C105.9203,32.6560873 107.583248,31.8777484 108.800942,30.5899312 C110.017896,29.3068823 110.782934,27.5352626 110.782934,25.5626392 L110.782934,25.5626392 Z M110.748143,18.7079746 C112.43811,20.4839959 113.464822,22.9209817 113.468893,25.5626392 C113.464822,28.2042966 112.43811,30.6387149 110.748143,32.415103 C109.07113,34.1885568 106.728641,35.309849 104.124478,35.309849 C101.540302,35.309849 99.194112,34.1885568 97.510807,32.415103 C95.8249112,30.6387149 94.7815434,28.2042966 94.7815434,25.5626392 C94.7815434,22.9209817 95.8249112,20.4839959 97.510807,18.7079746 C99.194112,16.935988 101.540302,15.8150625 104.124478,15.8150625 C106.728641,15.8150625 109.07113,16.935988 110.748143,18.7079746 L110.748143,18.7079746 Z M84.1439295,15.8495413 C82.0490513,15.8495413 80.1366422,16.658691 78.7087199,17.9498093 L78.7087199,17.1780727 C78.7064992,16.8230152 78.5736261,16.4921661 78.3400805,16.248981 C78.1135672,16.0098307 77.7774984,15.8495413 77.4095993,15.8495413 C77.028746,15.8495413 76.6852748,16.0013944 76.4461774,16.2467802 C76.2107812,16.4881313 76.0697655,16.8230152 76.0697655,17.1780727 L76.0697655,34.3836917 L76.1249134,34.4379773 L76.1271341,34.4464136 C76.1415688,34.5032669 76.1778405,34.5659888 76.2167031,34.62651 C76.398802,34.944888 76.6974887,35.1862391 77.0676086,35.2933432 L77.1209058,35.309849 L77.4095993,35.309849 C77.6020616,35.309849 77.7960044,35.2695016 77.9803241,35.1840383 C78.1339238,35.1110461 78.27679,34.9936717 78.3915272,34.8436526 L78.3955985,34.8454866 C78.4096631,34.8315484 78.4141045,34.8132086 78.4303898,34.7992704 C78.4366818,34.7970696 78.4426037,34.7908341 78.446675,34.7845986 C78.5181082,34.6936334 78.5776975,34.6004675 78.6147094,34.5131703 C78.653572,34.4097341 78.6779999,34.3121667 78.6965059,34.2373405 L78.7087199,34.1885568 L78.7087199,23.8574093 C78.7475825,22.3795923 79.3612411,21.043725 80.3453897,20.0724519 C81.3228762,19.1019124 82.66271,18.501469 84.1439295,18.501469 C85.6499471,18.501469 86.9934821,19.1019124 87.9672673,20.0724519 C88.9451239,21.0400571 89.538426,22.3737236 89.538426,23.8434711 L89.538426,33.9882867 C89.538426,34.3587496 89.6979476,34.7017029 89.9396359,34.9368185 C90.1868759,35.1715673 90.5244252,35.309849 90.8764091,35.309849 C91.234315,35.309849 91.5700137,35.1715673 91.8154031,34.9368185 C92.0648639,34.7017029 92.2162429,34.3587496 92.2162429,33.9882867 L92.2162429,23.8434711 C92.2162429,19.4646726 88.6075746,15.8557768 84.1439295,15.8495413 L84.1439295,15.8495413 Z M216.015403,23.6809809 C215.254436,20.6219108 212.543679,18.442415 209.450958,18.4486372 C206.279771,18.4486372 203.606395,20.5815633 202.778067,23.6809809 L216.015403,23.6809809 Z M218.946382,24.9343194 L218.946382,25.065632 C218.946382,25.4327938 218.780938,25.763276 218.529627,25.9804187 C218.279796,26.1990285 217.954831,26.3127349 217.604697,26.3167697 L202.591897,26.3167697 C202.974231,29.9473064 205.898918,32.6282109 209.391368,32.6560873 L210.277065,32.6560873 C211.432579,32.6601221 212.558113,32.2647171 213.548184,31.609988 C214.540105,30.9614945 215.397303,30.0551441 216.000968,29.0574618 C216.125328,28.8447207 216.304096,28.6825973 216.497669,28.5831958 C216.696423,28.4757249 216.909242,28.4269412 217.123912,28.4269412 C217.361158,28.4269412 217.596555,28.4878292 217.803082,28.6114391 L217.817516,28.6176746 L217.833801,28.6297788 C218.210213,28.9034079 218.44598,29.3211874 218.44598,29.7796811 C218.44598,30.0125959 218.38454,30.2499122 218.255368,30.4644873 L218.251297,30.4729236 L218.247225,30.4765915 C217.408164,31.7988875 216.264493,33.0049094 214.906524,33.8789818 C213.545963,34.7545214 211.968883,35.309849 210.277065,35.309849 L209.376934,35.309849 C206.742421,35.2915093 204.36107,34.1885568 202.644454,32.4250065 C200.93191,30.6673249 199.877068,28.2527136 199.877068,25.5993187 C199.877068,22.900808 200.940792,20.4517179 202.667401,18.6797313 C204.39401,16.9099456 206.793127,15.8150625 209.450958,15.8150625 C211.987389,15.8150625 214.266216,16.8145789 215.953963,18.4508513 C217.641709,20.0867569 218.744296,22.3590518 218.94083,24.9156128 L218.946382,24.9343194 Z M157.365105,7.8071945 C156.999426,7.8071945 156.663728,7.95941442 156.42278,8.19856475 C156.180721,8.4358811 156.027862,8.77039812 156.027862,9.13315836 L156.027862,33.9882867 C156.027862,34.3510469 156.180721,34.6833632 156.42278,34.9188456 C156.663728,35.1535944 156.999426,35.309849 157.365105,35.309849 C158.124221,35.309849 158.737879,34.7178419 158.742321,33.9882867 L158.742321,9.13315836 C158.737879,8.40140237 158.124221,7.8071945 157.365105,7.8071945 L157.365105,7.8071945 Z M69.8795114,25.0880065 C68.7991317,24.5832966 67.5736649,24.2102661 66.350789,23.8089924 C65.2256247,23.4319271 64.0838051,23.1113483 63.2695415,22.6899009 C62.860559,22.4727583 62.5415158,22.2438782 62.3349889,21.9863881 C62.1240206,21.7292648 62.0218675,21.4673732 62.0155755,21.1104817 C62.0177962,20.6219108 62.1610326,20.2287066 62.4023507,19.8798845 C62.7683992,19.3590357 63.3820579,18.9533604 64.0530851,18.6914688 C64.7159697,18.4288436 65.4340022,18.3048669 65.9473584,18.3048669 C67.4652198,18.3070676 68.4249405,18.8077428 69.161479,19.3263909 C69.5253067,19.5882825 69.8325062,19.8534753 70.1230503,20.0724519 C70.2722086,20.1861583 70.4113736,20.2895945 70.573116,20.3662547 C70.7259755,20.4414476 70.9062238,20.5023356 71.1027574,20.5023356 C71.2274878,20.5023356 71.3525883,20.4799611 71.4665852,20.4315442 C71.5872443,20.3831272 71.6919882,20.313803 71.7922907,20.2287066 C71.8903724,20.1377414 71.9743896,20.0280697 72.0336088,19.9062938 C72.0869061,19.7804831 72.111334,19.6510045 72.111334,19.5233598 C72.111334,19.2878774 72.0354594,19.0670668 71.9270143,18.8598277 C71.7245588,18.4952335 71.413288,18.1467782 71.0168896,17.7979562 C70.4276589,17.2789413 69.6504073,16.7841349 68.8135663,16.4114712 C67.9745047,16.0384407 67.0747434,15.7846186 66.2175459,15.7846186 C64.2311128,15.7846186 62.5722357,16.2306413 61.3671255,17.052262 C60.7390322,17.4817789 60.1868134,17.9520101 59.796337,18.6008704 C59.3991984,19.2515647 59.1782369,20.0544789 59.1497377,21.0983775 C59.1478497,21.1449604 59.1478497,21.1915434 59.1478497,21.2381263 C59.1438158,22.2519477 59.4728523,23.0875066 59.9902798,23.7418689 C60.7760442,24.727447 61.9422918,25.3172533 63.085962,25.7350328 C64.2274116,26.1524455 65.368491,26.4018661 66.0887442,26.6410164 C67.1032426,26.9755334 68.1814017,27.3382937 68.9667959,27.8187951 C69.3580126,28.064181 69.6748352,28.3279065 69.8898748,28.6176746 C70.0986224,28.9158789 70.2166906,29.2236199 70.221132,29.6131562 L70.221132,29.6417662 C70.2189113,30.2051633 70.0516171,30.6471512 69.7751376,31.0260504 C69.3580126,31.5898143 68.664408,32.0031923 67.9274995,32.2647171 C67.1935518,32.5203732 66.4303648,32.6282109 65.9392158,32.6282109 C64.2066849,32.6282109 63.0470994,32.2140994 62.2061872,31.7988875 C61.7846207,31.5898143 61.4430001,31.3829419 61.1339501,31.2083475 C60.9807204,31.1254519 60.8374841,31.0484249 60.6861051,30.987537 C60.5387974,30.9270158 60.3814964,30.8877687 60.2034688,30.8877687 C60.0950237,30.8877687 59.9765854,30.9064753 59.8677701,30.9486567 C59.7574744,30.9956064 59.657172,31.0605292 59.5731547,31.1393901 C59.456567,31.2516293 59.3544139,31.3767064 59.2829808,31.5208569 C59.2133983,31.6650073 59.1782369,31.8168604 59.1782369,31.974949 C59.1782369,32.2346399 59.2763186,32.4719562 59.4158538,32.6865313 C59.6345946,32.9964731 59.9558586,33.2745037 60.3566984,33.5521675 C60.7697521,33.8257965 61.2631219,34.0957576 61.8316259,34.3613172 C63.0918839,34.9511235 64.7078271,35.2592313 65.9355146,35.279405 L65.9392158,35.279405 C67.8482938,35.279405 69.4968075,34.8436526 70.8858672,33.8301981 L70.8858672,33.8276305 L70.8877178,33.8276305 C72.2460576,32.814176 73.0910412,31.307749 73.0910412,29.6069206 C73.0910412,28.672327 72.8700796,27.8796831 72.4836745,27.2311895 C71.9007358,26.2478122 70.953229,25.5993187 69.8795114,25.0880065 L69.8795114,25.0880065 Z M177.539966,25.5626392 C177.539966,23.5694752 176.780851,21.7835505 175.567968,20.4946329 C174.356566,19.2090165 172.693617,18.4288436 170.874849,18.424442 C169.070514,18.424442 167.413858,19.2090165 166.190242,20.4946329 C164.975509,21.7835505 164.2064,23.5694752 164.2064,25.5626392 C164.2064,27.5536023 164.975509,29.3277897 166.190242,30.606437 C167.407566,31.8858179 169.070514,32.6560873 170.874849,32.6560873 C172.697689,32.6560873 174.360637,31.8858179 175.572039,30.6108385 C176.780851,29.3277897 177.539966,27.5554363 177.539966,25.5626392 L177.539966,25.5626392 Z M179.814723,16.1844251 C180.062333,16.4213746 180.215563,16.764328 180.215563,17.1347909 L180.215563,33.9882867 C180.215563,34.3510469 180.058632,34.6833632 179.823236,34.9188456 C179.581177,35.1535944 179.248069,35.309849 178.8798,35.309849 C178.511901,35.309849 178.173982,35.1535944 177.936735,34.9188456 C177.695417,34.6833632 177.539966,34.3510469 177.539966,33.9882867 L177.539966,32.3439448 C175.855921,34.1463753 173.491596,35.309849 170.874849,35.309849 C168.270685,35.309849 165.926346,34.2010278 164.246743,32.4250065 C162.561587,30.6574215 161.530433,28.2222696 161.530433,25.5626392 C161.530433,22.9030088 162.561587,20.4656561 164.246743,18.6962371 C165.926346,16.9220498 168.270685,15.8150625 170.874849,15.8150625 C173.489745,15.8150625 175.855921,16.9447911 177.539966,18.7384185 L177.539966,17.1347909 C177.539966,16.764328 177.693566,16.4213746 177.940806,16.1844251 C178.188416,15.9511435 178.521894,15.8150625 178.8798,15.8150625 C179.233635,15.8150625 179.571554,15.9511435 179.814723,16.1844251 L179.814723,16.1844251 Z M198.702678,17.8933229 C198.968794,17.6317981 199.113511,17.28481 199.113511,16.9403895 C199.113511,16.6018378 198.968794,16.2629192 198.700457,16.0175334 L198.702678,16.0175334 C198.700457,16.0098307 198.694165,16.0098307 198.694165,16.0098307 C198.692685,16.0035952 198.688243,16.0013944 198.688243,16.0013944 L198.684172,16.0013944 C198.426568,15.7501398 198.094941,15.6122249 197.75332,15.6122249 C197.407629,15.6122249 197.070449,15.7549082 196.812476,16.0098307 L186.35289,26.1120981 L186.35289,9.13315836 C186.35289,8.40140237 185.734789,7.8071945 184.975674,7.8071945 C184.609995,7.8071945 184.274667,7.95941442 184.035199,8.19856475 C183.797582,8.4358811 183.638061,8.77039812 183.638061,9.13315836 L183.638061,33.9882867 C183.638061,34.3510469 183.797582,34.6833632 184.035199,34.9188456 C184.274667,35.1535944 184.609995,35.309849 184.975674,35.309849 C185.734789,35.309849 186.35289,34.7178419 186.35289,33.9882867 L186.35289,29.8867852 L189.758732,26.5155725 L196.70218,34.8172434 C196.832832,35.0079767 197.01123,35.1392894 197.186667,35.2086136 C197.387272,35.2838066 197.581955,35.309849 197.755171,35.309849 C197.994639,35.309849 198.332558,35.2592313 198.629394,35.0281505 L198.645679,35.018247 L198.663445,34.9995405 C198.941405,34.7281122 199.099076,34.3671859 199.099076,33.9981902 C199.099076,33.6878816 198.983229,33.3717043 198.768189,33.1186158 L198.768189,33.1145811 L191.700381,24.5994356 L198.696386,17.8933229 L198.702678,17.8933229 Z M151.846248,7.8662485 L151.547561,7.8662485 C151.508329,7.8662485 151.469836,7.87028324 151.428753,7.87175042 C151.392111,7.87028324 151.352878,7.8662485 151.314386,7.8662485 C150.543056,7.8662485 149.794304,7.95317891 149.094407,8.18425974 C148.404874,8.41130584 147.769008,8.7865371 147.276008,9.35616971 L147.274158,9.35396894 L147.272307,9.35616971 L147.272307,9.35800369 C146.762652,9.9195668 146.426954,10.5908016 146.222647,11.3533684 C146.017971,12.1196031 145.933954,12.9830385 145.925811,13.9642151 L145.925811,15.8642131 L143.812427,15.8642131 C143.07848,15.8682478 142.495459,16.4499847 142.495459,17.1534974 C142.491469,17.5323966 142.640258,17.8812187 142.881946,18.13284 C143.125485,18.3800598 143.458593,18.5421832 143.828712,18.562357 L145.925811,18.562357 L145.925811,34.0205647 L145.923591,34.0568774 C145.923591,34.4196376 146.07719,34.7541546 146.324801,34.9936717 C146.56982,35.2287873 146.914031,35.3685362 147.288593,35.3685362 C148.000333,35.3648683 148.585122,34.7890001 148.587343,34.0568774 L148.587343,18.562357 L150.859879,18.562357 C151.226297,18.5421832 151.563847,18.3899633 151.805535,18.1445775 C152.052775,17.8995584 152.204154,17.5551379 152.204154,17.1817406 L152.204154,17.1314897 C152.196011,16.4356796 151.608631,15.8642131 150.874313,15.8642131 L148.587343,15.8642131 L148.587343,13.9722846 C148.601778,13.1352584 148.689496,12.5087726 148.816447,12.0528464 C148.938957,11.5943527 149.106991,11.3064186 149.258,11.1281563 C149.405678,10.9700676 149.59777,10.8380214 149.910892,10.7323845 C150.225863,10.6315159 150.661495,10.5665931 151.251095,10.5665931 L151.320308,10.5665931 C151.355099,10.5665931 151.392111,10.5603576 151.424682,10.5603576 C151.465765,10.5603576 151.504257,10.5665931 151.547561,10.5665931 L151.719297,10.5665931 L151.846248,10.5665931 C152.600552,10.5665931 153.208659,9.96248182 153.208659,9.21605403 C153.208659,8.47035983 152.600552,7.8662485 151.846248,7.8662485 L151.846248,7.8662485 Z M17.1107876,26.4400128 C17.2192327,26.101461 17.2643873,25.752639 17.2562447,25.4082185 C17.2436606,25.1587979 17.2110901,24.9097441 17.1396569,24.6603235 C16.9246173,23.8860193 16.4153324,23.194244 15.6521454,22.7581247 L4.79764123,16.5468185 C3.26534515,15.6727461 1.31185271,16.1924946 0.432448005,17.708825 C-0.455469458,19.2229547 0.0682500959,21.1566979 1.60054618,22.0329711 L7.66606988,25.5094539 L1.60054618,28.9764001 C0.0682500959,29.8541405 -0.453618859,31.7882504 0.432448005,33.3086156 C1.31185271,34.8209113 3.26534515,35.3380922 4.79764123,34.4640198 L15.6521454,28.2486788 C16.3846125,27.8308993 16.8816834,27.1758035 17.1107876,26.4400128 L17.1107876,26.4400128 Z M20.0565713,32.2606823 C19.4329194,32.2078639 18.7844695,32.3377093 18.2011606,32.6744271 L7.33851384,38.8816985 C5.81028908,39.757605 5.28842012,41.7016184 6.17041567,43.2183156 C7.05648253,44.7309781 9.00812437,45.251827 10.5341284,44.3718858 L16.6200087,40.8928354 L16.6200087,47.8447007 C16.6200087,49.5961468 18.0497816,51.0152765 19.8193245,51.0152765 C21.5803546,51.0152765 23.0145689,49.5961468 23.0145689,47.8447007 L23.0145689,35.4169532 C23.0145689,33.7484028 21.7095264,32.3780567 20.0565713,32.2606823 L20.0565713,32.2606823 Z M31.1808928,18.7541907 C31.8026941,18.8051752 32.4492934,18.6734958 33.0326023,18.3408128 L43.8930283,12.1276726 C45.4234738,11.2513994 45.9427519,9.31545547 45.0629771,7.79472347 C44.1813517,6.28096059 42.2278592,5.76157889 40.6996345,6.63711851 L34.6178255,10.1202037 L34.6178255,3.1661376 C34.6178255,1.4194599 33.1880526,-3.66794982e-05 31.4185097,-3.66794982e-05 C29.6489668,-3.66794982e-05 28.2228951,1.4194599 28.2228951,3.1661376 L28.2228951,15.5938852 C28.2228951,17.2606016 29.5242364,18.6331484 31.1808928,18.7541907 L31.1808928,18.7541907 Z M7.33851384,12.1276726 L18.2011606,18.3408128 C18.7844695,18.6734958 19.4329194,18.8051752 20.0565713,18.7541907 C21.7095264,18.6331484 23.0145689,17.2606016 23.0145689,15.5938852 L23.0145689,3.1661376 C23.0145689,1.4194599 21.5803546,-3.66794982e-05 19.8193245,-3.66794982e-05 C18.0497816,-3.66794982e-05 16.6200087,1.4194599 16.6200087,3.1661376 L16.6200087,10.1202037 L10.5341284,6.63711851 C9.00812437,5.76157889 7.05648253,6.28096059 6.17041567,7.79472347 C5.28842012,9.31545547 5.81028908,11.2513994 7.33851384,12.1276726 L7.33851384,12.1276726 Z M27.7524728,25.4834115 C27.7524728,25.3029483 27.6421771,25.051327 27.5133754,24.9178136 L26.2061122,23.6281624 C26.0773105,23.5008846 25.8234083,23.3952476 25.6409392,23.3952476 L25.5902328,23.3952476 C25.4081339,23.3952476 25.1546018,23.5008846 25.0276507,23.6281624 L23.7203875,24.9178136 C23.589365,25.051327 23.4890626,25.3029483 23.4890626,25.4834115 L23.4890626,25.5340292 C23.4890626,25.7122915 23.589365,25.9617121 23.7203875,26.0915575 L25.0276507,27.3848766 C25.1564524,27.5125213 25.4081339,27.6177915 25.5902328,27.6177915 L25.6409392,27.6177915 C25.8234083,27.6177915 26.0773105,27.5125213 26.2061122,27.3848766 L27.5133754,26.0915575 C27.6421771,25.9617121 27.7524728,25.7122915 27.7524728,25.5340292 L27.7524728,25.4834115 Z M31.3611411,26.7239121 L26.8464195,31.1925753 C26.7172477,31.323888 26.4677869,31.4313589 26.279766,31.4313589 L25.95221,31.4313589 L25.2852541,31.4313589 L24.9521462,31.4313589 C24.7696772,31.4313589 24.5161451,31.323888 24.3851227,31.1925753 L19.8726217,26.7239121 C19.7434499,26.5981014 19.6390761,26.3450129 19.6390761,26.1663837 L19.6390761,25.8359014 L19.6390761,25.1749369 L19.6390761,24.8488561 C19.6390761,24.6661922 19.7434499,24.4127369 19.8726217,24.2850923 L24.3851227,19.8167958 C24.5161451,19.6851164 24.7696772,19.5816802 24.9521462,19.5816802 L25.2852541,19.5816802 L25.95221,19.5816802 L26.279766,19.5816802 C26.4637156,19.5816802 26.7172477,19.6851164 26.8464195,19.8167958 L31.3611411,24.2850923 C31.4899428,24.4127369 31.5943166,24.6661922 31.5943166,24.8488561 L31.5943166,25.1749369 L31.5943166,25.8359014 L31.5943166,26.1663837 C31.5943166,26.3450129 31.4899428,26.5981014 31.3611411,26.7239121 L31.3611411,26.7239121 Z M43.8930283,38.8816985 L33.0326023,32.6744271 C32.4492934,32.3377093 31.8026941,32.2078639 31.1808928,32.2606823 C29.5242364,32.3780567 28.2228951,33.7484028 28.2228951,35.4169532 L28.2228951,47.8447007 C28.2228951,49.5961468 29.6489668,51.0152765 31.4185097,51.0152765 C33.1880526,51.0152765 34.6178255,49.5961468 34.6178255,47.8447007 L34.6178255,40.8928354 L40.6996345,44.3718858 C42.2274891,45.251827 44.1813517,44.7309781 45.0629771,43.2183156 C45.9427519,41.7016184 45.4234738,39.757605 43.8930283,38.8816985 L43.8930283,38.8816985 Z M49.6354374,22.0329711 L43.5695436,25.5094539 L49.6354374,28.9764001 C51.1673634,29.8541405 51.6910829,31.7882504 50.8053862,33.3086156 C49.92154,34.8209113 47.966197,35.3380922 46.4398228,34.4640198 L35.5771761,28.2486788 C34.8528516,27.8308993 34.3498587,27.1758035 34.1266765,26.4400128 C34.0204521,26.101461 33.9712262,25.752639 33.9834401,25.4082185 C33.9897321,25.1587979 34.026374,24.9097441 34.0959565,24.6603235 C34.3132169,23.8860193 34.8225018,23.1946108 35.5771761,22.7581247 L46.4398228,16.5468185 C47.966197,15.6727461 49.92154,16.1924946 50.8053862,17.708825 C51.6910829,19.2229547 51.1673634,21.1566979 49.6354374,22.0329711 L49.6354374,22.0329711 Z M225.786936,15.8326687 C225.786936,17.5753117 224.609955,19.0296538 222.643879,19.0296538 C220.691127,19.0296538 219.52821,17.5613734 219.52821,15.8326687 C219.52821,14.0900257 220.691127,12.6353168 222.643879,12.6353168 C224.609955,12.6353168 225.786936,14.0900257 225.786936,15.8326687 L225.786936,15.8326687 Z M225.163655,15.8326687 C225.163655,14.350817 224.166922,13.2251232 222.643879,13.2251232 C221.148225,13.2251232 220.151122,14.2954309 220.151122,15.8326687 C220.151122,17.3005822 221.148225,18.4394806 222.643879,18.4394806 C224.166922,18.4394806 225.163655,17.3145204 225.163655,15.8326687 L225.163655,15.8326687 Z M221.41101,14.3915312 L222.754174,14.3915312 C223.488122,14.3915312 223.972609,14.7895038 223.972609,15.4068197 C223.972609,15.7912209 223.779036,16.0791549 223.488122,16.2577841 L224.014432,17.0122814 L224.014432,17.1634009 L223.252726,17.1634009 L222.74048,16.4360464 L222.145327,16.4360464 L222.145327,17.1634009 L221.41101,17.1634009 L221.41101,14.3915312 Z M222.74048,15.0642332 L222.145327,15.0642332 L222.145327,15.7912209 L222.74048,15.7912209 C223.01733,15.7912209 223.197578,15.667611 223.197578,15.4346961 C223.197578,15.1874763 223.031024,15.0642332 222.74048,15.0642332 L222.74048,15.0642332 Z" id="Fill-1" fill="#FFFFFF" mask="url(#mask-2)"></path>
            </g>
        </g>
    </g>
</svg>