<svg xmlns="http://www.w3.org/2000/svg" viewBox="0 0 800 500">
  <defs>
    <linearGradient id="snowflakeGrad" x1="0%" y1="0%" x2="0%" y2="100%">
      <stop offset="0%" style="stop-color:#29B5E8;stop-opacity:1" />
      <stop offset="100%" style="stop-color:#1E88C7;stop-opacity:1" />
    </linearGradient>
    <linearGradient id="agentGrad" x1="0%" y1="0%" x2="0%" y2="100%">
      <stop offset="0%" style="stop-color:#8B5CF6;stop-opacity:1" />
      <stop offset="100%" style="stop-color:#6D28D9;stop-opacity:1" />
    </linearGradient>
    <linearGradient id="dataGrad" x1="0%" y1="0%" x2="0%" y2="100%">
      <stop offset="0%" style="stop-color:#3B82F6;stop-opacity:1" />
      <stop offset="100%" style="stop-color:#1D4ED8;stop-opacity:1" />
    </linearGradient>
  </defs>
  
  <rect width="800" height="500" fill="#0F172A"/>
  
  <text x="400" y="35" font-family="Arial, sans-serif" font-size="20" font-weight="bold" fill="#F8FAFC" text-anchor="middle">AFTER: Unified Intelligence</text>
  
  <rect x="50" y="55" width="700" height="320" rx="12" fill="none" stroke="url(#snowflakeGrad)" stroke-width="3"/>
  <rect x="50" y="55" width="700" height="40" rx="12" fill="url(#snowflakeGrad)"/>
  <rect x="50" y="83" width="700" height="12" fill="url(#snowflakeGrad)"/>
  <text x="400" y="82" font-family="Arial, sans-serif" font-size="16" font-weight="bold" fill="white" text-anchor="middle">SNOWFLAKE DATA CLOUD</text>
  
  <rect x="100" y="110" width="140" height="70" rx="6" fill="url(#dataGrad)"/>
  <text x="170" y="140" font-family="Arial, sans-serif" font-size="12" font-weight="bold" fill="white" text-anchor="middle">SCADA</text>
  <text x="170" y="158" font-family="Arial, sans-serif" font-size="10" fill="#BFDBFE" text-anchor="middle">(Tables)</text>
  
  <rect x="330" y="110" width="140" height="70" rx="6" fill="#059669"/>
  <text x="400" y="140" font-family="Arial, sans-serif" font-size="12" font-weight="bold" fill="white" text-anchor="middle">Documents</text>
  <text x="400" y="158" font-family="Arial, sans-serif" font-size="10" fill="#A7F3D0" text-anchor="middle">(Search)</text>
  
  <rect x="560" y="110" width="140" height="70" rx="6" fill="#D97706"/>
  <text x="630" y="140" font-family="Arial, sans-serif" font-size="12" font-weight="bold" fill="white" text-anchor="middle">Financials</text>
  <text x="630" y="158" font-family="Arial, sans-serif" font-size="10" fill="#FDE68A" text-anchor="middle">(Tables)</text>
  
  <line x1="170" y1="180" x2="170" y2="210" stroke="#64748B" stroke-width="2"/>
  <line x1="170" y1="210" x2="400" y2="210" stroke="#64748B" stroke-width="2"/>
  <line x1="400" y1="180" x2="400" y2="230" stroke="#64748B" stroke-width="2"/>
  <line x1="630" y1="180" x2="630" y2="210" stroke="#64748B" stroke-width="2"/>
  <line x1="630" y1="210" x2="400" y2="210" stroke="#64748B" stroke-width="2"/>
  <polygon points="400,240 395,230 405,230" fill="#64748B"/>
  
  <rect x="250" y="250" width="300" height="100" rx="8" fill="url(#agentGrad)"/>
  <text x="400" y="280" font-family="Arial, sans-serif" font-size="14" font-weight="bold" fill="white" text-anchor="middle">CORTEX AGENT (IPA)</text>
  
  <rect x="275" y="295" width="70" height="40" rx="4" fill="#A78BFA"/>
  <text x="310" y="320" font-family="Arial, sans-serif" font-size="10" font-weight="bold" fill="#1E1B4B" text-anchor="middle">SQL</text>
  
  <rect x="365" y="295" width="70" height="40" rx="4" fill="#A78BFA"/>
  <text x="400" y="320" font-family="Arial, sans-serif" font-size="10" font-weight="bold" fill="#1E1B4B" text-anchor="middle">RAG</text>
  
  <rect x="455" y="295" width="70" height="40" rx="4" fill="#A78BFA"/>
  <text x="490" y="320" font-family="Arial, sans-serif" font-size="10" font-weight="bold" fill="#1E1B4B" text-anchor="middle">Tools</text>
  
  <line x1="400" y1="375" x2="400" y2="410" stroke="#10B981" stroke-width="3"/>
  <polygon points="400,420 393,408 407,408" fill="#10B981"/>
  
  <rect x="150" y="430" width="500" height="55" rx="8" fill="#1E293B" stroke="#10B981" stroke-width="2"/>
  <text x="400" y="452" font-family="Arial, sans-serif" font-size="11" fill="#10B981" text-anchor="middle" font-style="italic">"Well-05 failed due to gas interference causing rod fatigue.</text>
  <text x="400" y="470" font-family="Arial, sans-serif" font-size="11" fill="#10B981" text-anchor="middle" font-style="italic">Tech note confirms diagnosis. $50K treatment was approved variance."</text>
</svg>