<?xml version="1.0" encoding="UTF-8"?>
<svg width="226px" height="51px" viewBox="0 0 226 51" version="1.1" xmlns="http://www.w3.org/2000/svg" xmlns:xlink="http://www.w3.org/1999/xlink">
    <!-- Generator: Sketch 64 (93537) - https://sketch.com -->
    <title>Logo / Snowflake Blue</title>
    <desc>Created with Sketch.</desc>
    <defs>
        <polygon id="path-1" points="0 3.66794981e-05 225.786682 3.66794981e-05 225.786682 51.0153132 0 51.0153132"></polygon>
    </defs>
    <g id="HOMEPAGE" stroke="none" stroke-width="1" fill="none" fill-rule="evenodd">
        <g id="Snowflake-Homepage-platform-alt-3-Copy" transform="translate(-98.000000, -111.000000)">
            <g id="Components-/-Navigation-/-Main" transform="translate(98.000000, 104.000000)">
                <g id="Logo-/-Snowflake-Blue" transform="translate(0.000000, 7.000000)">
                    <g>
                        <mask id="mask-2" fill="white">
                            <use xlink:href="#path-1"></use>
                        </mask>
                        <g id="Mask"></g>
                        <path d="M139.668089,15.9632844 L139.661427,15.9592496 C139.661427,15.9592496 139.658095,15.9566821 139.653654,15.9566821 C139.500424,15.8902922 139.33239,15.8558135 139.170648,15.8558135 C138.908973,15.8576474 138.658032,15.9350412 138.438921,16.0707553 C138.215739,16.210871 138.026977,16.4151758 137.918532,16.6708319 L137.918532,16.6770674 L132.809028,30.5356822 L128.870953,21.2465993 L128.865031,21.2425646 C128.754365,20.9828737 128.555981,20.7822369 128.330948,20.642488 C128.103695,20.5023723 127.84165,20.4253453 127.565911,20.4253453 C127.297944,20.4253453 127.048113,20.5086078 126.827522,20.6443219 C126.610261,20.7840708 126.414098,20.9828737 126.303802,21.2425646 L126.301211,21.2465993 L122.355364,30.5415509 L117.218471,16.6891717 L117.214399,16.6891717 C117.12483,16.4214113 116.942361,16.212705 116.725471,16.0747901 C116.50488,15.9350412 116.246906,15.8576474 115.98079,15.8558135 C115.811275,15.8558135 115.639539,15.8902922 115.477427,15.9566821 L115.469654,15.9566821 L115.463733,15.9632844 C114.984798,16.1844618 114.692403,16.6587277 114.690552,17.1755418 C114.690552,17.338032 114.723123,17.4997886 114.786043,17.660078 L114.784563,17.660078 L121.103248,34.4746935 L121.103248,34.4805622 C121.152474,34.6060061 121.221687,34.7299828 121.32421,34.8517588 C121.397864,34.9386892 121.506679,35.0120482 121.618825,35.0729361 C121.639552,35.0927431 121.672123,35.1209863 121.720978,35.1514303 C121.773905,35.184075 121.842008,35.2068163 121.91122,35.2185537 C122.023736,35.2556 122.173265,35.3095189 122.3735,35.3095189 C122.629252,35.3095189 122.866499,35.2185537 123.079318,35.0828396 C123.278072,34.9511602 123.45573,34.7541913 123.553812,34.498902 L123.570097,34.4867978 L127.565911,25.0209197 L131.566906,34.4482843 L131.570977,34.4482843 C131.663137,34.6995388 131.82525,34.8965078 132.0129,35.0362566 C132.211655,35.184075 132.434097,35.275407 132.669863,35.3095189 L132.837527,35.3095189 C132.997419,35.3095189 133.152499,35.2794417 133.283152,35.228824 C133.420466,35.1763723 133.531132,35.1070481 133.622922,35.0384574 C133.837591,34.8759672 134.003405,34.6529559 134.105928,34.4053693 L134.105928,34.3998673 L140.384271,17.660078 C140.44571,17.4997886 140.477911,17.339866 140.477911,17.1781094 C140.47643,16.6649632 140.171082,16.1763923 139.668089,15.9632844 L139.668089,15.9632844 Z M110.782827,25.5626759 C110.782827,23.5882185 110.017789,21.7997261 108.800835,20.5086078 C107.577219,19.2149219 105.920193,18.4241119 104.1203,18.4241119 C102.319667,18.4241119 100.65894,19.2149219 99.4375441,20.5086078 C98.2179993,21.7997261 97.4529616,23.5882185 97.4529616,25.5626759 C97.4529616,27.5352993 98.2179993,29.306919 99.4375441,30.5899679 C100.65894,31.8777851 102.319667,32.656124 104.1203,32.656124 C105.920193,32.656124 107.583141,31.8777851 108.800835,30.5899679 C110.017789,29.306919 110.782827,27.5352993 110.782827,25.5626759 L110.782827,25.5626759 Z M110.748036,18.7080112 C112.438003,20.4840325 113.464715,22.9210184 113.468787,25.5626759 C113.464715,28.2043333 112.438003,30.6387516 110.748036,32.4151397 C109.071023,34.1885934 106.728535,35.3098857 104.124371,35.3098857 C101.540195,35.3098857 99.1940053,34.1885934 97.5107003,32.4151397 C95.8248045,30.6387516 94.7814367,28.2043333 94.7814367,25.5626759 C94.7814367,22.9210184 95.8248045,20.4840325 97.5107003,18.7080112 C99.1940053,16.9360247 101.540195,15.8150992 104.124371,15.8150992 C106.728535,15.8150992 109.071023,16.9360247 110.748036,18.7080112 L110.748036,18.7080112 Z M84.1438228,15.8495779 C82.0489446,15.8495779 80.1365354,16.6587277 78.7086131,17.949846 L78.7086131,17.1781094 C78.7063924,16.8230518 78.5735194,16.4922028 78.3399738,16.2490177 C78.1134605,16.0098674 77.7773917,15.8495779 77.4094925,15.8495779 C77.0286392,15.8495779 76.685168,16.0014311 76.4460706,16.2468169 C76.2106744,16.488168 76.0696588,16.8230518 76.0696588,17.1781094 L76.0696588,34.3837284 L76.1248066,34.438014 L76.1270273,34.4464503 C76.141462,34.5033035 76.1777338,34.5660255 76.2165963,34.6265466 C76.3986953,34.9449247 76.697382,35.1862758 77.0675018,35.2933799 L77.1207991,35.3098857 L77.4094925,35.3098857 C77.6019549,35.3098857 77.7958976,35.2695382 77.9802173,35.184075 C78.133817,35.1110828 78.2766833,34.9937084 78.3914204,34.8436893 L78.3954918,34.8455232 C78.4095563,34.831585 78.4139978,34.8132453 78.430283,34.7993071 C78.4365751,34.7971063 78.442497,34.7908708 78.4465683,34.7846353 C78.5180014,34.6936701 78.5775907,34.6005042 78.6146027,34.513207 C78.6534653,34.4097708 78.6778932,34.3122033 78.6963992,34.2373772 L78.7086131,34.1885934 L78.7086131,23.857446 C78.7474757,22.379629 79.3611344,21.0437617 80.345283,20.0724886 C81.3227695,19.1019491 82.6626032,18.5015057 84.1438228,18.5015057 C85.6498404,18.5015057 86.9933753,19.1019491 87.9671606,20.0724886 C88.9450172,21.0400937 89.5383192,22.3737603 89.5383192,23.8435078 L89.5383192,33.9883234 C89.5383192,34.3587863 89.6978409,34.7017396 89.9395291,34.9368552 C90.1867692,35.171604 90.5243185,35.3098857 90.8763024,35.3098857 C91.2342083,35.3098857 91.569907,35.171604 91.8152964,34.9368552 C92.0647572,34.7017396 92.2161362,34.3587863 92.2161362,33.9883234 L92.2161362,23.8435078 C92.2161362,19.4647093 88.6074679,15.8558135 84.1438228,15.8495779 L84.1438228,15.8495779 Z M216.015296,23.6810176 C215.25433,20.6219475 212.543572,18.4424517 209.450851,18.4486738 C206.279664,18.4486738 203.606289,20.5816 202.77796,23.6810176 L216.015296,23.6810176 Z M218.946275,24.9343561 L218.946275,25.0656687 C218.946275,25.4328304 218.780831,25.7633127 218.52952,25.9804553 C218.279689,26.1990651 217.954724,26.3127716 217.604591,26.3168063 L202.59179,26.3168063 C202.974124,29.9473431 205.898811,32.6282476 209.391262,32.656124 L210.276958,32.656124 C211.432472,32.6601587 212.558007,32.2647538 213.548077,31.6100247 C214.539998,30.9615312 215.397196,30.0551808 216.000861,29.0574984 C216.125222,28.8447574 216.30399,28.682634 216.497562,28.5832325 C216.696317,28.4757616 216.909135,28.4269779 217.123805,28.4269779 C217.361052,28.4269779 217.596448,28.4878658 217.802975,28.6114757 L217.817409,28.6177113 L217.833695,28.6298155 C218.210107,28.9034445 218.445873,29.321224 218.445873,29.7797178 C218.445873,30.0126326 218.384433,30.2499489 218.255261,30.464524 L218.25119,30.4729603 L218.247119,30.4766282 C217.408057,31.7989241 216.264387,33.004946 214.906417,33.8790185 C213.545857,34.7545581 211.968776,35.3098857 210.276958,35.3098857 L209.376827,35.3098857 C206.742314,35.2915459 204.360963,34.1885934 202.644347,32.4250432 C200.931803,30.6673616 199.876961,28.2527503 199.876961,25.5993554 C199.876961,22.9008447 200.940686,20.4517546 202.667295,18.679768 C204.393904,16.9099822 206.79302,15.8150992 209.450851,15.8150992 C211.987282,15.8150992 214.26611,16.8146155 215.953856,18.450888 C217.641603,20.0867936 218.74419,22.3590885 218.940723,24.9156495 L218.946275,24.9343561 Z M157.364998,7.80723118 C156.99932,7.80723118 156.663621,7.9594511 156.422673,8.19860143 C156.180615,8.43591778 156.027755,8.7704348 156.027755,9.13319504 L156.027755,33.9883234 C156.027755,34.3510836 156.180615,34.6833999 156.422673,34.9188822 C156.663621,35.153631 156.99932,35.3098857 157.364998,35.3098857 C158.124114,35.3098857 158.737772,34.7178786 158.742214,33.9883234 L158.742214,9.13319504 C158.737772,8.40143905 158.124114,7.80723118 157.364998,7.80723118 L157.364998,7.80723118 Z M69.8794047,25.0880431 C68.7990249,24.5833333 67.5735582,24.2103028 66.3506823,23.809029 C65.225518,23.4319638 64.0836983,23.111385 63.2694347,22.6899376 C62.8604523,22.4727949 62.541409,22.2439149 62.3348822,21.9864248 C62.1239139,21.7293015 62.0217608,21.4674099 62.0154687,21.1105184 C62.0176895,20.6219475 62.1609258,20.2287432 62.402244,19.8799212 C62.7682925,19.3590723 63.3819511,18.9533971 64.0529784,18.6915055 C64.715863,18.4288803 65.4338955,18.3049036 65.9472517,18.3049036 C67.4651131,18.3071043 68.4248338,18.8077795 69.1613722,19.3264276 C69.5252,19.5883192 69.8323995,19.853512 70.1229435,20.0724886 C70.2721018,20.186195 70.4112669,20.2896312 70.5730092,20.3662914 C70.7258687,20.4414843 70.9061171,20.5023723 71.1026507,20.5023723 C71.2273811,20.5023723 71.3524816,20.4799978 71.4664785,20.4315809 C71.5871376,20.3831639 71.6918815,20.3138397 71.7921839,20.2287432 C71.8902657,20.1377781 71.9742829,20.0281064 72.0335021,19.9063304 C72.0867993,19.7805198 72.1112272,19.6510411 72.1112272,19.5233965 C72.1112272,19.2879141 72.0353527,19.0671035 71.9269076,18.8598644 C71.724452,18.4952702 71.4131812,18.1468149 71.0167829,17.7979929 C70.4275521,17.278978 69.6503005,16.7841716 68.8134596,16.4115079 C67.9743979,16.0384774 67.0746366,15.7846552 66.2174391,15.7846552 C64.231006,15.7846552 62.572129,16.2306779 61.3670188,17.0522987 C60.7389255,17.4818156 60.1867067,17.9520468 59.7962303,18.6009071 C59.3990917,19.2516014 59.1781302,20.0545156 59.1496309,21.0984141 C59.147743,21.1449971 59.147743,21.1915801 59.147743,21.238163 C59.143709,22.2519844 59.4727455,23.0875433 59.9901731,23.7419056 C60.7759374,24.7274837 61.942185,25.31729 63.0858553,25.7350695 C64.2273048,26.1524822 65.3683842,26.4019028 66.0886374,26.6410531 C67.1031359,26.9755701 68.1812949,27.3383304 68.9666892,27.8188318 C69.3579059,28.0642176 69.6747284,28.3279432 69.889768,28.6177113 C70.0985156,28.9159156 70.2165838,29.2236566 70.2210253,29.6131928 L70.2210253,29.6418028 C70.2188046,30.2051999 70.0515104,30.6471879 69.7750309,31.0260871 C69.3579059,31.589851 68.6643013,32.0032289 67.9273927,32.2647538 C67.1934451,32.5204099 66.430258,32.6282476 65.939109,32.6282476 C64.2065781,32.6282476 63.0469927,32.2141361 62.2060805,31.7989241 C61.784514,31.589851 61.4428934,31.3829786 61.1338433,31.2083842 C60.9806137,31.1254885 60.8373773,31.0484616 60.6859983,30.9875736 C60.5386906,30.9270525 60.3813897,30.8878054 60.2033621,30.8878054 C60.094917,30.8878054 59.9764786,30.9065119 59.8676634,30.9486934 C59.7573677,30.9956431 59.6570652,31.0605658 59.573048,31.1394268 C59.4564603,31.251666 59.3543072,31.3767431 59.2828741,31.5208935 C59.2132915,31.665044 59.1781302,31.8168971 59.1781302,31.9749857 C59.1781302,32.2346766 59.2762119,32.4719929 59.4157471,32.686568 C59.6344879,32.9965097 59.9557519,33.2745403 60.3565917,33.5522041 C60.7696454,33.8258332 61.2630151,34.0957943 61.8315192,34.3613539 C63.0917772,34.9511602 64.7077204,35.259268 65.9354078,35.2794417 L65.939109,35.2794417 C67.8481871,35.2794417 69.4967008,34.8436893 70.8857605,33.8302347 L70.8857605,33.8276672 L70.8876111,33.8276672 C72.2459509,32.8142126 73.0909344,31.3077857 73.0909344,29.6069573 C73.0909344,28.6723637 72.8699729,27.8797198 72.4835678,27.2312262 C71.9006291,26.2478489 70.9531223,25.5993554 69.8794047,25.0880431 L69.8794047,25.0880431 Z M177.53986,25.5626759 C177.53986,23.5695119 176.780744,21.7835872 175.567861,20.4946696 C174.356459,19.2090532 172.693511,18.4288803 170.874742,18.4244787 C169.070408,18.4244787 167.413751,19.2090532 166.190135,20.4946696 C164.975402,21.7835872 164.206293,23.5695119 164.206293,25.5626759 C164.206293,27.553639 164.975402,29.3278263 166.190135,30.6064736 C167.407459,31.8858545 169.070408,32.656124 170.874742,32.656124 C172.697582,32.656124 174.36053,31.8858545 175.571933,30.6108752 C176.780744,29.3278263 177.53986,27.555473 177.53986,25.5626759 L177.53986,25.5626759 Z M179.814616,16.1844618 C180.062226,16.4214113 180.215456,16.7643646 180.215456,17.1348276 L180.215456,33.9883234 C180.215456,34.3510836 180.058525,34.6833999 179.823129,34.9188822 C179.58107,35.153631 179.247963,35.3098857 178.879693,35.3098857 C178.511794,35.3098857 178.173875,35.153631 177.936628,34.9188822 C177.69531,34.6833999 177.53986,34.3510836 177.53986,33.9883234 L177.53986,32.3439815 C175.855814,34.146412 173.491489,35.3098857 170.874742,35.3098857 C168.270579,35.3098857 165.92624,34.2010645 164.246636,32.4250432 C162.56148,30.6574582 161.530327,28.2223063 161.530327,25.5626759 C161.530327,22.9030454 162.56148,20.4656928 164.246636,18.6962738 C165.92624,16.9220865 168.270579,15.8150992 170.874742,15.8150992 C173.489638,15.8150992 175.855814,16.9448278 177.53986,18.7384552 L177.53986,17.1348276 C177.53986,16.7643646 177.693459,16.4214113 177.940699,16.1844618 C178.18831,15.9511802 178.521788,15.8150992 178.879693,15.8150992 C179.233528,15.8150992 179.571447,15.9511802 179.814616,16.1844618 L179.814616,16.1844618 Z M198.702571,17.8933596 C198.968687,17.6318348 199.113404,17.2848467 199.113404,16.9404262 C199.113404,16.6018745 198.968687,16.2629559 198.70035,16.0175701 L198.702571,16.0175701 C198.70035,16.0098674 198.694058,16.0098674 198.694058,16.0098674 C198.692578,16.0036318 198.688136,16.0014311 198.688136,16.0014311 L198.684065,16.0014311 C198.426462,15.7501765 198.094834,15.6122616 197.753214,15.6122616 C197.407522,15.6122616 197.070343,15.7549448 196.812369,16.0098674 L186.352783,26.1121347 L186.352783,9.13319504 C186.352783,8.40143905 185.734683,7.80723118 184.975567,7.80723118 C184.609889,7.80723118 184.27456,7.9594511 184.035092,8.19860143 C183.797476,8.43591778 183.637954,8.7704348 183.637954,9.13319504 L183.637954,33.9883234 C183.637954,34.3510836 183.797476,34.6833999 184.035092,34.9188822 C184.27456,35.153631 184.609889,35.3098857 184.975567,35.3098857 C185.734683,35.3098857 186.352783,34.7178786 186.352783,33.9883234 L186.352783,29.8868219 L189.758625,26.5156092 L196.702073,34.81728 C196.832726,35.0080134 197.011123,35.139326 197.18656,35.2086503 C197.387165,35.2838433 197.581848,35.3098857 197.755064,35.3098857 C197.994532,35.3098857 198.332451,35.259268 198.629287,35.0281872 L198.645573,35.0182837 L198.663338,34.9995771 C198.941298,34.7281489 199.098969,34.3672226 199.098969,33.9982268 C199.098969,33.6879183 198.983122,33.371741 198.768082,33.1186525 L198.768082,33.1146177 L191.700274,24.5994722 L198.696279,17.8933596 L198.702571,17.8933596 Z M151.846141,7.86628517 L151.547455,7.86628517 C151.508222,7.86628517 151.469729,7.87031992 151.428646,7.8717871 C151.392004,7.87031992 151.352772,7.86628517 151.314279,7.86628517 C150.542949,7.86628517 149.794197,7.95321559 149.0943,8.18429642 C148.404767,8.41134252 147.768901,8.78657378 147.275902,9.35620639 L147.274051,9.35400562 L147.272201,9.35620639 L147.272201,9.35804036 C146.762546,9.91960348 146.426847,10.5908383 146.222541,11.3534051 C146.017864,12.1196398 145.933847,12.9830752 145.925705,13.9642517 L145.925705,15.8642497 L143.81232,15.8642497 C143.078373,15.8682845 142.495353,16.4500213 142.495353,17.1535341 C142.491363,17.5324333 142.640151,17.8812554 142.881839,18.1328767 C143.125378,18.3800965 143.458486,18.5422199 143.828606,18.5623936 L145.925705,18.5623936 L145.925705,34.0206013 L145.923484,34.056914 C145.923484,34.4196743 146.077084,34.7541913 146.324694,34.9937084 C146.569713,35.228824 146.913925,35.3685729 147.288486,35.3685729 C148.000226,35.3649049 148.585016,34.7890368 148.587236,34.056914 L148.587236,18.5623936 L150.859772,18.5623936 C151.226191,18.5422199 151.56374,18.39 151.805428,18.1446141 C152.052668,17.8995951 152.204047,17.5551746 152.204047,17.1817773 L152.204047,17.1315264 C152.195905,16.4357163 151.608524,15.8642497 150.874207,15.8642497 L148.587236,15.8642497 L148.587236,13.9723212 C148.601671,13.1352951 148.689389,12.5088093 148.81634,12.0528831 C148.93885,11.5943894 149.106885,11.3064553 149.257893,11.1281929 C149.405571,10.9701043 149.597663,10.8380581 149.910785,10.7324212 C150.225757,10.6315525 150.661388,10.5666298 151.250989,10.5666298 L151.320201,10.5666298 C151.354992,10.5666298 151.392004,10.5603943 151.424575,10.5603943 C151.465658,10.5603943 151.504151,10.5666298 151.547455,10.5666298 L151.71919,10.5666298 L151.846141,10.5666298 C152.600446,10.5666298 153.208552,9.96251849 153.208552,9.21609071 C153.208552,8.47039651 152.600446,7.86628517 151.846141,7.86628517 L151.846141,7.86628517 Z M17.1106809,26.4400495 C17.219126,26.1014977 17.2642806,25.7526757 17.256138,25.4082552 C17.2435539,25.1588346 17.2109833,24.9097808 17.1395502,24.6603602 C16.9245106,23.886056 16.4152257,23.1942807 15.6520386,22.7581614 L4.7975345,16.5468552 C3.26523842,15.6727828 1.31174598,16.1925313 0.432341269,17.7088617 C-0.455576193,19.2229914 0.0681433607,21.1567345 1.60043944,22.0330077 L7.66596315,25.5094906 L1.60043944,28.9764367 C0.0681433607,29.8541771 -0.453725594,31.7882871 0.432341269,33.3086523 C1.31174598,34.820948 3.26523842,35.3381289 4.7975345,34.4640565 L15.6520386,28.2487155 C16.3845058,27.830936 16.8815767,27.1758402 17.1106809,26.4400495 L17.1106809,26.4400495 Z M20.0564646,32.260719 C19.4328127,32.2079005 18.7843627,32.337746 18.2010539,32.6744638 L7.3384071,38.8817352 C5.81018234,39.7576416 5.28831339,41.701655 6.17030893,43.2183523 C7.05637579,44.7310148 9.00801764,45.2518637 10.5340217,44.3719225 L16.619902,40.8928721 L16.619902,47.8447374 C16.619902,49.5961834 18.0496749,51.0153132 19.8192178,51.0153132 C21.5802479,51.0153132 23.0144622,49.5961834 23.0144622,47.8447374 L23.0144622,35.4169898 C23.0144622,33.7484395 21.7094197,32.3780934 20.0564646,32.260719 L20.0564646,32.260719 Z M31.180786,18.7542274 C31.8025874,18.8052119 32.4491867,18.6735325 33.0324955,18.3408495 L43.8929216,12.1277093 C45.4233671,11.2514361 45.9426452,9.31549215 45.0628704,7.79476015 C44.1812449,6.28099726 42.2277525,5.76161557 40.6995277,6.63715519 L34.6177188,10.1202403 L34.6177188,3.16617428 C34.6177188,1.41949658 33.1879459,0 31.418403,0 C29.6488601,0 28.2227884,1.41949658 28.2227884,3.16617428 L28.2227884,15.5939218 C28.2227884,17.2606382 29.5241297,18.6331851 31.180786,18.7542274 L31.180786,18.7542274 Z M7.3384071,12.1277093 L18.2010539,18.3408495 C18.7843627,18.6735325 19.4328127,18.8052119 20.0564646,18.7542274 C21.7094197,18.6331851 23.0144622,17.2606382 23.0144622,15.5939218 L23.0144622,3.16617428 C23.0144622,1.41949658 21.5802479,0 19.8192178,0 C18.0496749,0 16.619902,1.41949658 16.619902,3.16617428 L16.619902,10.1202403 L10.5340217,6.63715519 C9.00801764,5.76161557 7.05637579,6.28099726 6.17030893,7.79476015 C5.28831339,9.31549215 5.81018234,11.2514361 7.3384071,12.1277093 L7.3384071,12.1277093 Z M27.7523661,25.4834481 C27.7523661,25.302985 27.6420704,25.0513637 27.5132687,24.9178503 L26.2060055,23.6281991 C26.0772038,23.5009213 25.8233016,23.3952843 25.6408325,23.3952843 L25.5901261,23.3952843 C25.4080271,23.3952843 25.154495,23.5009213 25.0275439,23.6281991 L23.7202807,24.9178503 C23.5892583,25.0513637 23.4889558,25.302985 23.4889558,25.4834481 L23.4889558,25.5340658 C23.4889558,25.7123282 23.5892583,25.9617488 23.7202807,26.0915942 L25.0275439,27.3849133 C25.1563456,27.512558 25.4080271,27.6178281 25.5901261,27.6178281 L25.6408325,27.6178281 C25.8233016,27.6178281 26.0772038,27.512558 26.2060055,27.3849133 L27.5132687,26.0915942 C27.6420704,25.9617488 27.7523661,25.7123282 27.7523661,25.5340658 L27.7523661,25.4834481 Z M31.3610344,26.7239488 L26.8463128,31.192612 C26.7171409,31.3239246 26.4676802,31.4313956 26.2796593,31.4313956 L25.9521033,31.4313956 L25.2851473,31.4313956 L24.9520395,31.4313956 C24.7695704,31.4313956 24.5160383,31.3239246 24.3850159,31.192612 L19.872515,26.7239488 C19.7433432,26.5981381 19.6389694,26.3450496 19.6389694,26.1664204 L19.6389694,25.8359381 L19.6389694,25.1749736 L19.6389694,24.8488928 C19.6389694,24.6662289 19.7433432,24.4127736 19.872515,24.2851289 L24.3850159,19.8168325 C24.5160383,19.6851531 24.7695704,19.5817169 24.9520395,19.5817169 L25.2851473,19.5817169 L25.9521033,19.5817169 L26.2796593,19.5817169 C26.4636089,19.5817169 26.7171409,19.6851531 26.8463128,19.8168325 L31.3610344,24.2851289 C31.4898361,24.4127736 31.5942099,24.6662289 31.5942099,24.8488928 L31.5942099,25.1749736 L31.5942099,25.8359381 L31.5942099,26.1664204 C31.5942099,26.3450496 31.4898361,26.5981381 31.3610344,26.7239488 L31.3610344,26.7239488 Z M43.8929216,38.8817352 L33.0324955,32.6744638 C32.4491867,32.337746 31.8025874,32.2079005 31.180786,32.260719 C29.5241297,32.3780934 28.2227884,33.7484395 28.2227884,35.4169898 L28.2227884,47.8447374 C28.2227884,49.5961834 29.6488601,51.0153132 31.418403,51.0153132 C33.1879459,51.0153132 34.6177188,49.5961834 34.6177188,47.8447374 L34.6177188,40.8928721 L40.6995277,44.3719225 C42.2273824,45.2518637 44.1812449,44.7310148 45.0628704,43.2183523 C45.9426452,41.701655 45.4233671,39.7576416 43.8929216,38.8817352 L43.8929216,38.8817352 Z M49.6353307,22.0330077 L43.5694369,25.5094906 L49.6353307,28.9764367 C51.1672566,29.8541771 51.6909762,31.7882871 50.8052795,33.3086523 C49.9214333,34.820948 47.9660903,35.3381289 46.4397161,34.4640565 L35.5770693,28.2487155 C34.8527448,27.830936 34.349752,27.1758402 34.1265697,26.4400495 C34.0203454,26.1014977 33.9711194,25.7526757 33.9833334,25.4082552 C33.9896254,25.1588346 34.0262673,24.9097808 34.0958498,24.6603602 C34.3131101,23.886056 34.822395,23.1946475 35.5770693,22.7581614 L46.4397161,16.5468552 C47.9660903,15.6727828 49.9214333,16.1925313 50.8052795,17.7088617 C51.6909762,19.2229914 51.1672566,21.1567345 49.6353307,22.0330077 L49.6353307,22.0330077 Z M225.78683,15.8327054 C225.78683,17.5753483 224.609849,19.0296904 222.643772,19.0296904 C220.69102,19.0296904 219.528103,17.5614101 219.528103,15.8327054 C219.528103,14.0900624 220.69102,12.6353535 222.643772,12.6353535 C224.609849,12.6353535 225.78683,14.0900624 225.78683,15.8327054 L225.78683,15.8327054 Z M225.163548,15.8327054 C225.163548,14.3508537 224.166815,13.2251599 222.643772,13.2251599 C221.148118,13.2251599 220.151015,14.2954676 220.151015,15.8327054 C220.151015,17.3006189 221.148118,18.4395173 222.643772,18.4395173 C224.166815,18.4395173 225.163548,17.3145571 225.163548,15.8327054 L225.163548,15.8327054 Z M221.410903,14.3915679 L222.754068,14.3915679 C223.488015,14.3915679 223.972502,14.7895405 223.972502,15.4068564 C223.972502,15.7912575 223.77893,16.0791916 223.488015,16.2578208 L224.014326,17.012318 L224.014326,17.1634376 L223.252619,17.1634376 L222.740373,16.4360831 L222.145221,16.4360831 L222.145221,17.1634376 L221.410903,17.1634376 L221.410903,14.3915679 Z M222.740373,15.0642699 L222.145221,15.0642699 L222.145221,15.7912575 L222.740373,15.7912575 C223.017223,15.7912575 223.197471,15.6676476 223.197471,15.4347328 C223.197471,15.187513 223.030917,15.0642699 222.740373,15.0642699 L222.740373,15.0642699 Z" id="Fill-1" fill="#29B5E8" mask="url(#mask-2)"></path>
                    </g>
                </g>
            </g>
        </g>
    </g>
</svg>