<svg class="rich-terminal" viewBox="0 0 1360 879.5999999999999" xmlns="http://www.w3.org/2000/svg">
    <!-- Generated with Rich https://www.textualize.io -->
    <style>

    @font-face {
        font-family: "Fira Code";
        src: local("FiraCode-Regular"),
                url("https://cdnjs.cloudflare.com/ajax/libs/firacode/6.2.0/woff2/FiraCode-Regular.woff2") format("woff2"),
                url("https://cdnjs.cloudflare.com/ajax/libs/firacode/6.2.0/woff/FiraCode-Regular.woff") format("woff");
        font-style: normal;
        font-weight: 400;
    }
    @font-face {
        font-family: "Fira Code";
        src: local("FiraCode-Bold"),
                url("https://cdnjs.cloudflare.com/ajax/libs/firacode/6.2.0/woff2/FiraCode-Bold.woff2") format("woff2"),
                url("https://cdnjs.cloudflare.com/ajax/libs/firacode/6.2.0/woff/FiraCode-Bold.woff") format("woff");
        font-style: bold;
        font-weight: 700;
    }

    .terminal-910957712-matrix {
        font-family: Fira Code, monospace;
        font-size: 20px;
        line-height: 24.4px;
        font-variant-east-asian: full-width;
    }

    .terminal-910957712-title {
        font-size: 18px;
        font-weight: bold;
        font-family: arial;
    }

    .terminal-910957712-r1 { fill: #c5c8c6 }
.terminal-910957712-r2 { fill: #68a0b3;font-weight: bold }
.terminal-910957712-r3 { fill: #868887 }
.terminal-910957712-r4 { fill: #f8f8f2 }
.terminal-910957712-r5 { fill: #ff4689 }
.terminal-910957712-r6 { fill: #e6db74 }
.terminal-910957712-r7 { fill: #cc555a;font-weight: bold }
    </style>

    <defs>
    <clipPath id="terminal-910957712-clip-terminal">
      <rect x="0" y="0" width="1341.0" height="828.5999999999999" />
    </clipPath>
    <clipPath id="terminal-910957712-line-0">
    <rect x="0" y="1.5" width="1342" height="24.65"/>
            </clipPath>
<clipPath id="terminal-910957712-line-1">
    <rect x="0" y="25.9" width="1342" height="24.65"/>
            </clipPath>
<clipPath id="terminal-910957712-line-2">
    <rect x="0" y="50.3" width="1342" height="24.65"/>
            </clipPath>
<clipPath id="terminal-910957712-line-3">
    <rect x="0" y="74.7" width="1342" height="24.65"/>
            </clipPath>
<clipPath id="terminal-910957712-line-4">
    <rect x="0" y="99.1" width="1342" height="24.65"/>
            </clipPath>
<clipPath id="terminal-910957712-line-5">
    <rect x="0" y="123.5" width="1342" height="24.65"/>
            </clipPath>
<clipPath id="terminal-910957712-line-6">
    <rect x="0" y="147.9" width="1342" height="24.65"/>
            </clipPath>
<clipPath id="terminal-910957712-line-7">
    <rect x="0" y="172.3" width="1342" height="24.65"/>
            </clipPath>
<clipPath id="terminal-910957712-line-8">
    <rect x="0" y="196.7" width="1342" height="24.65"/>
            </clipPath>
<clipPath id="terminal-910957712-line-9">
    <rect x="0" y="221.1" width="1342" height="24.65"/>
            </clipPath>
<clipPath id="terminal-910957712-line-10">
    <rect x="0" y="245.5" width="1342" height="24.65"/>
            </clipPath>
<clipPath id="terminal-910957712-line-11">
    <rect x="0" y="269.9" width="1342" height="24.65"/>
            </clipPath>
<clipPath id="terminal-910957712-line-12">
    <rect x="0" y="294.3" width="1342" height="24.65"/>
            </clipPath>
<clipPath id="terminal-910957712-line-13">
    <rect x="0" y="318.7" width="1342" height="24.65"/>
            </clipPath>
<clipPath id="terminal-910957712-line-14">
    <rect x="0" y="343.1" width="1342" height="24.65"/>
            </clipPath>
<clipPath id="terminal-910957712-line-15">
    <rect x="0" y="367.5" width="1342" height="24.65"/>
            </clipPath>
<clipPath id="terminal-910957712-line-16">
    <rect x="0" y="391.9" width="1342" height="24.65"/>
            </clipPath>
<clipPath id="terminal-910957712-line-17">
    <rect x="0" y="416.3" width="1342" height="24.65"/>
            </clipPath>
<clipPath id="terminal-910957712-line-18">
    <rect x="0" y="440.7" width="1342" height="24.65"/>
            </clipPath>
<clipPath id="terminal-910957712-line-19">
    <rect x="0" y="465.1" width="1342" height="24.65"/>
            </clipPath>
<clipPath id="terminal-910957712-line-20">
    <rect x="0" y="489.5" width="1342" height="24.65"/>
            </clipPath>
<clipPath id="terminal-910957712-line-21">
    <rect x="0" y="513.9" width="1342" height="24.65"/>
            </clipPath>
<clipPath id="terminal-910957712-line-22">
    <rect x="0" y="538.3" width="1342" height="24.65"/>
            </clipPath>
<clipPath id="terminal-910957712-line-23">
    <rect x="0" y="562.7" width="1342" height="24.65"/>
            </clipPath>
<clipPath id="terminal-910957712-line-24">
    <rect x="0" y="587.1" width="1342" height="24.65"/>
            </clipPath>
<clipPath id="terminal-910957712-line-25">
    <rect x="0" y="611.5" width="1342" height="24.65"/>
            </clipPath>
<clipPath id="terminal-910957712-line-26">
    <rect x="0" y="635.9" width="1342" height="24.65"/>
            </clipPath>
<clipPath id="terminal-910957712-line-27">
    <rect x="0" y="660.3" width="1342" height="24.65"/>
            </clipPath>
<clipPath id="terminal-910957712-line-28">
    <rect x="0" y="684.7" width="1342" height="24.65"/>
            </clipPath>
<clipPath id="terminal-910957712-line-29">
    <rect x="0" y="709.1" width="1342" height="24.65"/>
            </clipPath>
<clipPath id="terminal-910957712-line-30">
    <rect x="0" y="733.5" width="1342" height="24.65"/>
            </clipPath>
<clipPath id="terminal-910957712-line-31">
    <rect x="0" y="757.9" width="1342" height="24.65"/>
            </clipPath>
<clipPath id="terminal-910957712-line-32">
    <rect x="0" y="782.3" width="1342" height="24.65"/>
            </clipPath>
    </defs>

    <rect fill="#292929" stroke="rgba(255,255,255,0.35)" stroke-width="1" x="1" y="1" width="1358" height="877.6" rx="8"/><text class="terminal-910957712-title" fill="#c5c8c6" text-anchor="middle" x="679" y="27">cortex_rest&#160;—&#160;s4&#160;tool&#160;calling</text>
            <g transform="translate(26,22)">
            <circle cx="0" cy="0" r="7" fill="#ff5f57"/>
            <circle cx="22" cy="0" r="7" fill="#febc2e"/>
            <circle cx="44" cy="0" r="7" fill="#28c840"/>
            </g>
        
    <g transform="translate(9, 41)" clip-path="url(#terminal-910957712-clip-terminal)">
    <rect fill="#272822" x="0" y="99.1" width="12.2" height="24.65" shape-rendering="crispEdges"/><rect fill="#272822" x="12.2" y="99.1" width="1329.8" height="24.65" shape-rendering="crispEdges"/><rect fill="#272822" x="0" y="123.5" width="24.4" height="24.65" shape-rendering="crispEdges"/><rect fill="#272822" x="24.4" y="123.5" width="85.4" height="24.65" shape-rendering="crispEdges"/><rect fill="#272822" x="109.8" y="123.5" width="12.2" height="24.65" shape-rendering="crispEdges"/><rect fill="#272822" x="122" y="123.5" width="12.2" height="24.65" shape-rendering="crispEdges"/><rect fill="#272822" x="134.2" y="123.5" width="12.2" height="24.65" shape-rendering="crispEdges"/><rect fill="#272822" x="146.4" y="123.5" width="1195.6" height="24.65" shape-rendering="crispEdges"/><rect fill="#272822" x="0" y="147.9" width="48.8" height="24.65" shape-rendering="crispEdges"/><rect fill="#272822" x="48.8" y="147.9" width="12.2" height="24.65" shape-rendering="crispEdges"/><rect fill="#272822" x="61" y="147.9" width="1281" height="24.65" shape-rendering="crispEdges"/><rect fill="#272822" x="0" y="172.3" width="73.2" height="24.65" shape-rendering="crispEdges"/><rect fill="#272822" x="73.2" y="172.3" width="134.2" height="24.65" shape-rendering="crispEdges"/><rect fill="#272822" x="207.4" y="172.3" width="12.2" height="24.65" shape-rendering="crispEdges"/><rect fill="#272822" x="219.6" y="172.3" width="12.2" height="24.65" shape-rendering="crispEdges"/><rect fill="#272822" x="231.8" y="172.3" width="12.2" height="24.65" shape-rendering="crispEdges"/><rect fill="#272822" x="244" y="172.3" width="1098" height="24.65" shape-rendering="crispEdges"/><rect fill="#272822" x="0" y="196.7" width="97.6" height="24.65" shape-rendering="crispEdges"/><rect fill="#272822" x="97.6" y="196.7" width="73.2" height="24.65" shape-rendering="crispEdges"/><rect fill="#272822" x="170.8" y="196.7" width="12.2" height="24.65" shape-rendering="crispEdges"/><rect fill="#272822" x="183" y="196.7" width="12.2" height="24.65" shape-rendering="crispEdges"/><rect fill="#272822" x="195.2" y="196.7" width="109.8" height="24.65" shape-rendering="crispEdges"/><rect fill="#272822" x="305" y="196.7" width="12.2" height="24.65" shape-rendering="crispEdges"/><rect fill="#272822" x="317.2" y="196.7" width="1024.8" height="24.65" shape-rendering="crispEdges"/><rect fill="#272822" x="0" y="221.1" width="97.6" height="24.65" shape-rendering="crispEdges"/><rect fill="#272822" x="97.6" y="221.1" width="73.2" height="24.65" shape-rendering="crispEdges"/><rect fill="#272822" x="170.8" y="221.1" width="12.2" height="24.65" shape-rendering="crispEdges"/><rect fill="#272822" x="183" y="221.1" width="12.2" height="24.65" shape-rendering="crispEdges"/><rect fill="#272822" x="195.2" y="221.1" width="256.2" height="24.65" shape-rendering="crispEdges"/><rect fill="#272822" x="451.4" y="221.1" width="12.2" height="24.65" shape-rendering="crispEdges"/><rect fill="#272822" x="463.6" y="221.1" width="878.4" height="24.65" shape-rendering="crispEdges"/><rect fill="#272822" x="0" y="245.5" width="97.6" height="24.65" shape-rendering="crispEdges"/><rect fill="#272822" x="97.6" y="245.5" width="158.6" height="24.65" shape-rendering="crispEdges"/><rect fill="#272822" x="256.2" y="245.5" width="12.2" height="24.65" shape-rendering="crispEdges"/><rect fill="#272822" x="268.4" y="245.5" width="12.2" height="24.65" shape-rendering="crispEdges"/><rect fill="#272822" x="280.6" y="245.5" width="1061.4" height="24.65" shape-rendering="crispEdges"/><rect fill="#272822" x="0" y="269.9" width="97.6" height="24.65" shape-rendering="crispEdges"/><rect fill="#272822" x="97.6" y="269.9" width="170.8" height="24.65" shape-rendering="crispEdges"/><rect fill="#272822" x="268.4" y="269.9" width="12.2" height="24.65" shape-rendering="crispEdges"/><rect fill="#272822" x="280.6" y="269.9" width="12.2" height="24.65" shape-rendering="crispEdges"/><rect fill="#272822" x="292.8" y="269.9" width="12.2" height="24.65" shape-rendering="crispEdges"/><rect fill="#272822" x="305" y="269.9" width="1037" height="24.65" shape-rendering="crispEdges"/><rect fill="#272822" x="0" y="294.3" width="122" height="24.65" shape-rendering="crispEdges"/><rect fill="#272822" x="122" y="294.3" width="73.2" height="24.65" shape-rendering="crispEdges"/><rect fill="#272822" x="195.2" y="294.3" width="12.2" height="24.65" shape-rendering="crispEdges"/><rect fill="#272822" x="207.4" y="294.3" width="12.2" height="24.65" shape-rendering="crispEdges"/><rect fill="#272822" x="219.6" y="294.3" width="97.6" height="24.65" shape-rendering="crispEdges"/><rect fill="#272822" x="317.2" y="294.3" width="12.2" height="24.65" shape-rendering="crispEdges"/><rect fill="#272822" x="329.4" y="294.3" width="1012.6" height="24.65" shape-rendering="crispEdges"/><rect fill="#272822" x="0" y="318.7" width="122" height="24.65" shape-rendering="crispEdges"/><rect fill="#272822" x="122" y="318.7" width="146.4" height="24.65" shape-rendering="crispEdges"/><rect fill="#272822" x="268.4" y="318.7" width="12.2" height="24.65" shape-rendering="crispEdges"/><rect fill="#272822" x="280.6" y="318.7" width="12.2" height="24.65" shape-rendering="crispEdges"/><rect fill="#272822" x="292.8" y="318.7" width="12.2" height="24.65" shape-rendering="crispEdges"/><rect fill="#272822" x="305" y="318.7" width="1037" height="24.65" shape-rendering="crispEdges"/><rect fill="#272822" x="0" y="343.1" width="146.4" height="24.65" shape-rendering="crispEdges"/><rect fill="#272822" x="146.4" y="343.1" width="146.4" height="24.65" shape-rendering="crispEdges"/><rect fill="#272822" x="292.8" y="343.1" width="12.2" height="24.65" shape-rendering="crispEdges"/><rect fill="#272822" x="305" y="343.1" width="12.2" height="24.65" shape-rendering="crispEdges"/><rect fill="#272822" x="317.2" y="343.1" width="12.2" height="24.65" shape-rendering="crispEdges"/><rect fill="#272822" x="329.4" y="343.1" width="1012.6" height="24.65" shape-rendering="crispEdges"/><rect fill="#272822" x="0" y="367.5" width="170.8" height="24.65" shape-rendering="crispEdges"/><rect fill="#272822" x="170.8" y="367.5" width="73.2" height="24.65" shape-rendering="crispEdges"/><rect fill="#272822" x="244" y="367.5" width="12.2" height="24.65" shape-rendering="crispEdges"/><rect fill="#272822" x="256.2" y="367.5" width="12.2" height="24.65" shape-rendering="crispEdges"/><rect fill="#272822" x="268.4" y="367.5" width="97.6" height="24.65" shape-rendering="crispEdges"/><rect fill="#272822" x="366" y="367.5" width="12.2" height="24.65" shape-rendering="crispEdges"/><rect fill="#272822" x="378.2" y="367.5" width="963.8" height="24.65" shape-rendering="crispEdges"/><rect fill="#272822" x="0" y="391.9" width="170.8" height="24.65" shape-rendering="crispEdges"/><rect fill="#272822" x="170.8" y="391.9" width="158.6" height="24.65" shape-rendering="crispEdges"/><rect fill="#272822" x="329.4" y="391.9" width="12.2" height="24.65" shape-rendering="crispEdges"/><rect fill="#272822" x="341.6" y="391.9" width="12.2" height="24.65" shape-rendering="crispEdges"/><rect fill="#272822" x="353.8" y="391.9" width="463.6" height="24.65" shape-rendering="crispEdges"/><rect fill="#272822" x="817.4" y="391.9" width="524.6" height="24.65" shape-rendering="crispEdges"/><rect fill="#272822" x="0" y="416.3" width="146.4" height="24.65" shape-rendering="crispEdges"/><rect fill="#272822" x="146.4" y="416.3" width="12.2" height="24.65" shape-rendering="crispEdges"/><rect fill="#272822" x="158.6" y="416.3" width="1183.4" height="24.65" shape-rendering="crispEdges"/><rect fill="#272822" x="0" y="440.7" width="122" height="24.65" shape-rendering="crispEdges"/><rect fill="#272822" x="122" y="440.7" width="24.4" height="24.65" shape-rendering="crispEdges"/><rect fill="#272822" x="146.4" y="440.7" width="1195.6" height="24.65" shape-rendering="crispEdges"/><rect fill="#272822" x="0" y="465.1" width="122" height="24.65" shape-rendering="crispEdges"/><rect fill="#272822" x="122" y="465.1" width="122" height="24.65" shape-rendering="crispEdges"/><rect fill="#272822" x="244" y="465.1" width="12.2" height="24.65" shape-rendering="crispEdges"/><rect fill="#272822" x="256.2" y="465.1" width="12.2" height="24.65" shape-rendering="crispEdges"/><rect fill="#272822" x="268.4" y="465.1" width="12.2" height="24.65" shape-rendering="crispEdges"/><rect fill="#272822" x="280.6" y="465.1" width="1061.4" height="24.65" shape-rendering="crispEdges"/><rect fill="#272822" x="0" y="489.5" width="146.4" height="24.65" shape-rendering="crispEdges"/><rect fill="#272822" x="146.4" y="489.5" width="146.4" height="24.65" shape-rendering="crispEdges"/><rect fill="#272822" x="292.8" y="489.5" width="1049.2" height="24.65" shape-rendering="crispEdges"/><rect fill="#272822" x="0" y="513.9" width="122" height="24.65" shape-rendering="crispEdges"/><rect fill="#272822" x="122" y="513.9" width="12.2" height="24.65" shape-rendering="crispEdges"/><rect fill="#272822" x="134.2" y="513.9" width="1207.8" height="24.65" shape-rendering="crispEdges"/><rect fill="#272822" x="0" y="538.3" width="97.6" height="24.65" shape-rendering="crispEdges"/><rect fill="#272822" x="97.6" y="538.3" width="12.2" height="24.65" shape-rendering="crispEdges"/><rect fill="#272822" x="109.8" y="538.3" width="1232.2" height="24.65" shape-rendering="crispEdges"/><rect fill="#272822" x="0" y="562.7" width="73.2" height="24.65" shape-rendering="crispEdges"/><rect fill="#272822" x="73.2" y="562.7" width="12.2" height="24.65" shape-rendering="crispEdges"/><rect fill="#272822" x="85.4" y="562.7" width="1256.6" height="24.65" shape-rendering="crispEdges"/><rect fill="#272822" x="0" y="587.1" width="48.8" height="24.65" shape-rendering="crispEdges"/><rect fill="#272822" x="48.8" y="587.1" width="12.2" height="24.65" shape-rendering="crispEdges"/><rect fill="#272822" x="61" y="587.1" width="1281" height="24.65" shape-rendering="crispEdges"/><rect fill="#272822" x="0" y="611.5" width="24.4" height="24.65" shape-rendering="crispEdges"/><rect fill="#272822" x="24.4" y="611.5" width="24.4" height="24.65" shape-rendering="crispEdges"/><rect fill="#272822" x="48.8" y="611.5" width="1293.2" height="24.65" shape-rendering="crispEdges"/><rect fill="#272822" x="0" y="635.9" width="24.4" height="24.65" shape-rendering="crispEdges"/><rect fill="#272822" x="24.4" y="635.9" width="122" height="24.65" shape-rendering="crispEdges"/><rect fill="#272822" x="146.4" y="635.9" width="12.2" height="24.65" shape-rendering="crispEdges"/><rect fill="#272822" x="158.6" y="635.9" width="12.2" height="24.65" shape-rendering="crispEdges"/><rect fill="#272822" x="170.8" y="635.9" width="12.2" height="24.65" shape-rendering="crispEdges"/><rect fill="#272822" x="183" y="635.9" width="1159" height="24.65" shape-rendering="crispEdges"/><rect fill="#272822" x="0" y="660.3" width="48.8" height="24.65" shape-rendering="crispEdges"/><rect fill="#272822" x="48.8" y="660.3" width="12.2" height="24.65" shape-rendering="crispEdges"/><rect fill="#272822" x="61" y="660.3" width="1281" height="24.65" shape-rendering="crispEdges"/><rect fill="#272822" x="0" y="684.7" width="73.2" height="24.65" shape-rendering="crispEdges"/><rect fill="#272822" x="73.2" y="684.7" width="73.2" height="24.65" shape-rendering="crispEdges"/><rect fill="#272822" x="146.4" y="684.7" width="12.2" height="24.65" shape-rendering="crispEdges"/><rect fill="#272822" x="158.6" y="684.7" width="12.2" height="24.65" shape-rendering="crispEdges"/><rect fill="#272822" x="170.8" y="684.7" width="73.2" height="24.65" shape-rendering="crispEdges"/><rect fill="#272822" x="244" y="684.7" width="12.2" height="24.65" shape-rendering="crispEdges"/><rect fill="#272822" x="256.2" y="684.7" width="1085.8" height="24.65" shape-rendering="crispEdges"/><rect fill="#272822" x="0" y="709.1" width="73.2" height="24.65" shape-rendering="crispEdges"/><rect fill="#272822" x="73.2" y="709.1" width="109.8" height="24.65" shape-rendering="crispEdges"/><rect fill="#272822" x="183" y="709.1" width="12.2" height="24.65" shape-rendering="crispEdges"/><rect fill="#272822" x="195.2" y="709.1" width="12.2" height="24.65" shape-rendering="crispEdges"/><rect fill="#272822" x="207.4" y="709.1" width="1134.6" height="24.65" shape-rendering="crispEdges"/><rect fill="#272822" x="0" y="733.5" width="48.8" height="24.65" shape-rendering="crispEdges"/><rect fill="#272822" x="48.8" y="733.5" width="12.2" height="24.65" shape-rendering="crispEdges"/><rect fill="#272822" x="61" y="733.5" width="1281" height="24.65" shape-rendering="crispEdges"/><rect fill="#272822" x="0" y="757.9" width="24.4" height="24.65" shape-rendering="crispEdges"/><rect fill="#272822" x="24.4" y="757.9" width="12.2" height="24.65" shape-rendering="crispEdges"/><rect fill="#272822" x="36.6" y="757.9" width="1305.4" height="24.65" shape-rendering="crispEdges"/><rect fill="#272822" x="0" y="782.3" width="12.2" height="24.65" shape-rendering="crispEdges"/><rect fill="#272822" x="12.2" y="782.3" width="1329.8" height="24.65" shape-rendering="crispEdges"/>
    <g class="terminal-910957712-matrix">
    <text class="terminal-910957712-r1" x="0" y="20" textLength="1342" clip-path="url(#terminal-910957712-line-0)">╭────────────────────────────────────────────────────────────────────────────────────────────────────────────╮</text><text class="terminal-910957712-r1" x="1342" y="20" textLength="12.2" clip-path="url(#terminal-910957712-line-0)">
</text><text class="terminal-910957712-r1" x="0" y="44.4" textLength="12.2" clip-path="url(#terminal-910957712-line-1)">│</text><text class="terminal-910957712-r2" x="24.4" y="44.4" textLength="549" clip-path="url(#terminal-910957712-line-1)">Section&#160;4&#160;—&#160;Tool&#160;calling:&#160;get_product_details</text><text class="terminal-910957712-r1" x="1329.8" y="44.4" textLength="12.2" clip-path="url(#terminal-910957712-line-1)">│</text><text class="terminal-910957712-r1" x="1342" y="44.4" textLength="12.2" clip-path="url(#terminal-910957712-line-1)">
</text><text class="terminal-910957712-r1" x="0" y="68.8" textLength="12.2" clip-path="url(#terminal-910957712-line-2)">│</text><text class="terminal-910957712-r3" x="24.4" y="68.8" textLength="1244.4" clip-path="url(#terminal-910957712-line-2)">Realistic&#160;to&#160;the&#160;Ibis&#160;reviews&#160;dataset:&#160;model&#160;looks&#160;up&#160;product&#160;info&#160;to&#160;contextualise&#160;a&#160;negative&#160;review.</text><text class="terminal-910957712-r1" x="1329.8" y="68.8" textLength="12.2" clip-path="url(#terminal-910957712-line-2)">│</text><text class="terminal-910957712-r1" x="1342" y="68.8" textLength="12.2" clip-path="url(#terminal-910957712-line-2)">
</text><text class="terminal-910957712-r1" x="0" y="93.2" textLength="1342" clip-path="url(#terminal-910957712-line-3)">╰────────────────────────────────────────────────────────────────────────────────────────────────────────────╯</text><text class="terminal-910957712-r1" x="1342" y="93.2" textLength="12.2" clip-path="url(#terminal-910957712-line-3)">
</text><text class="terminal-910957712-r4" x="0" y="117.6" textLength="12.2" clip-path="url(#terminal-910957712-line-4)">{</text><text class="terminal-910957712-r1" x="1342" y="117.6" textLength="12.2" clip-path="url(#terminal-910957712-line-4)">
</text><text class="terminal-910957712-r5" x="24.4" y="142" textLength="85.4" clip-path="url(#terminal-910957712-line-5)">&quot;tools&quot;</text><text class="terminal-910957712-r4" x="109.8" y="142" textLength="12.2" clip-path="url(#terminal-910957712-line-5)">:</text><text class="terminal-910957712-r4" x="134.2" y="142" textLength="12.2" clip-path="url(#terminal-910957712-line-5)">[</text><text class="terminal-910957712-r1" x="1342" y="142" textLength="12.2" clip-path="url(#terminal-910957712-line-5)">
</text><text class="terminal-910957712-r4" x="48.8" y="166.4" textLength="12.2" clip-path="url(#terminal-910957712-line-6)">{</text><text class="terminal-910957712-r1" x="1342" y="166.4" textLength="12.2" clip-path="url(#terminal-910957712-line-6)">
</text><text class="terminal-910957712-r5" x="73.2" y="190.8" textLength="134.2" clip-path="url(#terminal-910957712-line-7)">&quot;tool_spec&quot;</text><text class="terminal-910957712-r4" x="207.4" y="190.8" textLength="12.2" clip-path="url(#terminal-910957712-line-7)">:</text><text class="terminal-910957712-r4" x="231.8" y="190.8" textLength="12.2" clip-path="url(#terminal-910957712-line-7)">{</text><text class="terminal-910957712-r1" x="1342" y="190.8" textLength="12.2" clip-path="url(#terminal-910957712-line-7)">
</text><text class="terminal-910957712-r5" x="97.6" y="215.2" textLength="73.2" clip-path="url(#terminal-910957712-line-8)">&quot;type&quot;</text><text class="terminal-910957712-r4" x="170.8" y="215.2" textLength="12.2" clip-path="url(#terminal-910957712-line-8)">:</text><text class="terminal-910957712-r6" x="195.2" y="215.2" textLength="109.8" clip-path="url(#terminal-910957712-line-8)">&quot;generic&quot;</text><text class="terminal-910957712-r4" x="305" y="215.2" textLength="12.2" clip-path="url(#terminal-910957712-line-8)">,</text><text class="terminal-910957712-r1" x="1342" y="215.2" textLength="12.2" clip-path="url(#terminal-910957712-line-8)">
</text><text class="terminal-910957712-r5" x="97.6" y="239.6" textLength="73.2" clip-path="url(#terminal-910957712-line-9)">&quot;name&quot;</text><text class="terminal-910957712-r4" x="170.8" y="239.6" textLength="12.2" clip-path="url(#terminal-910957712-line-9)">:</text><text class="terminal-910957712-r6" x="195.2" y="239.6" textLength="256.2" clip-path="url(#terminal-910957712-line-9)">&quot;get_product_details&quot;</text><text class="terminal-910957712-r4" x="451.4" y="239.6" textLength="12.2" clip-path="url(#terminal-910957712-line-9)">,</text><text class="terminal-910957712-r1" x="1342" y="239.6" textLength="12.2" clip-path="url(#terminal-910957712-line-9)">
</text><text class="terminal-910957712-r5" x="97.6" y="264" textLength="158.6" clip-path="url(#terminal-910957712-line-10)">&quot;description&quot;</text><text class="terminal-910957712-r4" x="256.2" y="264" textLength="12.2" clip-path="url(#terminal-910957712-line-10)">:</text><text class="terminal-910957712-r6" x="280.6" y="264" textLength="1061.4" clip-path="url(#terminal-910957712-line-10)">&quot;Look&#160;up&#160;product&#160;metadata&#160;(name,&#160;category,&#160;price)&#160;by&#160;product_id&#160;from&#160;the&#160;product&#160;catalo</text><text class="terminal-910957712-r1" x="1342" y="264" textLength="12.2" clip-path="url(#terminal-910957712-line-10)">
</text><text class="terminal-910957712-r5" x="97.6" y="288.4" textLength="170.8" clip-path="url(#terminal-910957712-line-11)">&quot;input_schema&quot;</text><text class="terminal-910957712-r4" x="268.4" y="288.4" textLength="12.2" clip-path="url(#terminal-910957712-line-11)">:</text><text class="terminal-910957712-r4" x="292.8" y="288.4" textLength="12.2" clip-path="url(#terminal-910957712-line-11)">{</text><text class="terminal-910957712-r1" x="1342" y="288.4" textLength="12.2" clip-path="url(#terminal-910957712-line-11)">
</text><text class="terminal-910957712-r5" x="122" y="312.8" textLength="73.2" clip-path="url(#terminal-910957712-line-12)">&quot;type&quot;</text><text class="terminal-910957712-r4" x="195.2" y="312.8" textLength="12.2" clip-path="url(#terminal-910957712-line-12)">:</text><text class="terminal-910957712-r6" x="219.6" y="312.8" textLength="97.6" clip-path="url(#terminal-910957712-line-12)">&quot;object&quot;</text><text class="terminal-910957712-r4" x="317.2" y="312.8" textLength="12.2" clip-path="url(#terminal-910957712-line-12)">,</text><text class="terminal-910957712-r1" x="1342" y="312.8" textLength="12.2" clip-path="url(#terminal-910957712-line-12)">
</text><text class="terminal-910957712-r5" x="122" y="337.2" textLength="146.4" clip-path="url(#terminal-910957712-line-13)">&quot;properties&quot;</text><text class="terminal-910957712-r4" x="268.4" y="337.2" textLength="12.2" clip-path="url(#terminal-910957712-line-13)">:</text><text class="terminal-910957712-r4" x="292.8" y="337.2" textLength="12.2" clip-path="url(#terminal-910957712-line-13)">{</text><text class="terminal-910957712-r1" x="1342" y="337.2" textLength="12.2" clip-path="url(#terminal-910957712-line-13)">
</text><text class="terminal-910957712-r5" x="146.4" y="361.6" textLength="146.4" clip-path="url(#terminal-910957712-line-14)">&quot;product_id&quot;</text><text class="terminal-910957712-r4" x="292.8" y="361.6" textLength="12.2" clip-path="url(#terminal-910957712-line-14)">:</text><text class="terminal-910957712-r4" x="317.2" y="361.6" textLength="12.2" clip-path="url(#terminal-910957712-line-14)">{</text><text class="terminal-910957712-r1" x="1342" y="361.6" textLength="12.2" clip-path="url(#terminal-910957712-line-14)">
</text><text class="terminal-910957712-r5" x="170.8" y="386" textLength="73.2" clip-path="url(#terminal-910957712-line-15)">&quot;type&quot;</text><text class="terminal-910957712-r4" x="244" y="386" textLength="12.2" clip-path="url(#terminal-910957712-line-15)">:</text><text class="terminal-910957712-r6" x="268.4" y="386" textLength="97.6" clip-path="url(#terminal-910957712-line-15)">&quot;string&quot;</text><text class="terminal-910957712-r4" x="366" y="386" textLength="12.2" clip-path="url(#terminal-910957712-line-15)">,</text><text class="terminal-910957712-r1" x="1342" y="386" textLength="12.2" clip-path="url(#terminal-910957712-line-15)">
</text><text class="terminal-910957712-r5" x="170.8" y="410.4" textLength="158.6" clip-path="url(#terminal-910957712-line-16)">&quot;description&quot;</text><text class="terminal-910957712-r4" x="329.4" y="410.4" textLength="12.2" clip-path="url(#terminal-910957712-line-16)">:</text><text class="terminal-910957712-r6" x="353.8" y="410.4" textLength="463.6" clip-path="url(#terminal-910957712-line-16)">&quot;Product&#160;identifier,&#160;e.g.&#160;P001,&#160;P002.&quot;</text><text class="terminal-910957712-r1" x="1342" y="410.4" textLength="12.2" clip-path="url(#terminal-910957712-line-16)">
</text><text class="terminal-910957712-r4" x="146.4" y="434.8" textLength="12.2" clip-path="url(#terminal-910957712-line-17)">}</text><text class="terminal-910957712-r1" x="1342" y="434.8" textLength="12.2" clip-path="url(#terminal-910957712-line-17)">
</text><text class="terminal-910957712-r4" x="122" y="459.2" textLength="24.4" clip-path="url(#terminal-910957712-line-18)">},</text><text class="terminal-910957712-r1" x="1342" y="459.2" textLength="12.2" clip-path="url(#terminal-910957712-line-18)">
</text><text class="terminal-910957712-r5" x="122" y="483.6" textLength="122" clip-path="url(#terminal-910957712-line-19)">&quot;required&quot;</text><text class="terminal-910957712-r4" x="244" y="483.6" textLength="12.2" clip-path="url(#terminal-910957712-line-19)">:</text><text class="terminal-910957712-r4" x="268.4" y="483.6" textLength="12.2" clip-path="url(#terminal-910957712-line-19)">[</text><text class="terminal-910957712-r1" x="1342" y="483.6" textLength="12.2" clip-path="url(#terminal-910957712-line-19)">
</text><text class="terminal-910957712-r6" x="146.4" y="508" textLength="146.4" clip-path="url(#terminal-910957712-line-20)">&quot;product_id&quot;</text><text class="terminal-910957712-r1" x="1342" y="508" textLength="12.2" clip-path="url(#terminal-910957712-line-20)">
</text><text class="terminal-910957712-r4" x="122" y="532.4" textLength="12.2" clip-path="url(#terminal-910957712-line-21)">]</text><text class="terminal-910957712-r1" x="1342" y="532.4" textLength="12.2" clip-path="url(#terminal-910957712-line-21)">
</text><text class="terminal-910957712-r4" x="97.6" y="556.8" textLength="12.2" clip-path="url(#terminal-910957712-line-22)">}</text><text class="terminal-910957712-r1" x="1342" y="556.8" textLength="12.2" clip-path="url(#terminal-910957712-line-22)">
</text><text class="terminal-910957712-r4" x="73.2" y="581.2" textLength="12.2" clip-path="url(#terminal-910957712-line-23)">}</text><text class="terminal-910957712-r1" x="1342" y="581.2" textLength="12.2" clip-path="url(#terminal-910957712-line-23)">
</text><text class="terminal-910957712-r4" x="48.8" y="605.6" textLength="12.2" clip-path="url(#terminal-910957712-line-24)">}</text><text class="terminal-910957712-r1" x="1342" y="605.6" textLength="12.2" clip-path="url(#terminal-910957712-line-24)">
</text><text class="terminal-910957712-r4" x="24.4" y="630" textLength="24.4" clip-path="url(#terminal-910957712-line-25)">],</text><text class="terminal-910957712-r1" x="1342" y="630" textLength="12.2" clip-path="url(#terminal-910957712-line-25)">
</text><text class="terminal-910957712-r5" x="24.4" y="654.4" textLength="122" clip-path="url(#terminal-910957712-line-26)">&quot;messages&quot;</text><text class="terminal-910957712-r4" x="146.4" y="654.4" textLength="12.2" clip-path="url(#terminal-910957712-line-26)">:</text><text class="terminal-910957712-r4" x="170.8" y="654.4" textLength="12.2" clip-path="url(#terminal-910957712-line-26)">[</text><text class="terminal-910957712-r1" x="1342" y="654.4" textLength="12.2" clip-path="url(#terminal-910957712-line-26)">
</text><text class="terminal-910957712-r4" x="48.8" y="678.8" textLength="12.2" clip-path="url(#terminal-910957712-line-27)">{</text><text class="terminal-910957712-r1" x="1342" y="678.8" textLength="12.2" clip-path="url(#terminal-910957712-line-27)">
</text><text class="terminal-910957712-r5" x="73.2" y="703.2" textLength="73.2" clip-path="url(#terminal-910957712-line-28)">&quot;role&quot;</text><text class="terminal-910957712-r4" x="146.4" y="703.2" textLength="12.2" clip-path="url(#terminal-910957712-line-28)">:</text><text class="terminal-910957712-r6" x="170.8" y="703.2" textLength="73.2" clip-path="url(#terminal-910957712-line-28)">&quot;user&quot;</text><text class="terminal-910957712-r4" x="244" y="703.2" textLength="12.2" clip-path="url(#terminal-910957712-line-28)">,</text><text class="terminal-910957712-r1" x="1342" y="703.2" textLength="12.2" clip-path="url(#terminal-910957712-line-28)">
</text><text class="terminal-910957712-r5" x="73.2" y="727.6" textLength="109.8" clip-path="url(#terminal-910957712-line-29)">&quot;content&quot;</text><text class="terminal-910957712-r4" x="183" y="727.6" textLength="12.2" clip-path="url(#terminal-910957712-line-29)">:</text><text class="terminal-910957712-r6" x="207.4" y="727.6" textLength="1134.6" clip-path="url(#terminal-910957712-line-29)">&quot;A&#160;customer&#160;left&#160;this&#160;review&#160;for&#160;product&#160;P003:&#160;&#x27;Defective&#160;unit&#160;out&#160;of&#160;the&#160;box.&#160;USB&#160;port&#160;doesn</text><text class="terminal-910957712-r1" x="1342" y="727.6" textLength="12.2" clip-path="url(#terminal-910957712-line-29)">
</text><text class="terminal-910957712-r4" x="48.8" y="752" textLength="12.2" clip-path="url(#terminal-910957712-line-30)">}</text><text class="terminal-910957712-r1" x="1342" y="752" textLength="12.2" clip-path="url(#terminal-910957712-line-30)">
</text><text class="terminal-910957712-r4" x="24.4" y="776.4" textLength="12.2" clip-path="url(#terminal-910957712-line-31)">]</text><text class="terminal-910957712-r1" x="1342" y="776.4" textLength="12.2" clip-path="url(#terminal-910957712-line-31)">
</text><text class="terminal-910957712-r4" x="0" y="800.8" textLength="12.2" clip-path="url(#terminal-910957712-line-32)">}</text><text class="terminal-910957712-r1" x="1342" y="800.8" textLength="12.2" clip-path="url(#terminal-910957712-line-32)">
</text><text class="terminal-910957712-r7" x="24.4" y="825.2" textLength="48.8" clip-path="url(#terminal-910957712-line-33)">FAIL</text><text class="terminal-910957712-r1" x="73.2" y="825.2" textLength="134.2" clip-path="url(#terminal-910957712-line-33)">&#160;&#160;timed&#160;out</text><text class="terminal-910957712-r1" x="1342" y="825.2" textLength="12.2" clip-path="url(#terminal-910957712-line-33)">
</text>
    </g>
    </g>
</svg>
